<svg id="Layer_1" data-name="Layer 1" xmlns="http://www.w3.org/2000/svg" viewBox="0 0 109 109"><defs><style>.cls-1{fill:#f1f2f2;}</style></defs><title>wdywfptb-logo</title><path class="cls-1" d="M109,109H0V0H109V109ZM3,106H106V3H3V106Z"/><path class="cls-1" d="M21.0541,33.9688L16.83,17.4316h3.8159c1.5605,7.584,2.2563,10.9688,2.4482,12.793h0.0244c0.624-3.0488,2.2319-8.8086,3.1919-12.793h3.2163c0.8643,3.168,2.5205,9.5762,3.0723,12.625h0.0239c0.5522-3.6484,2.1606-10.0566,2.76-12.625H38.84L34.3753,33.9688h-3.72c-0.8643-3.6719-2.3286-9.0244-2.9043-11.8574H27.7269c-0.6,2.9531-2.0884,8.5215-2.9766,11.8574H21.0541Z"/><path class="cls-1" d="M50.6877,17.4316h6.5767c4.8,0,7.9683,3.168,7.9683,8.0645,0,4.8242-3.0723,8.4727-8.1362,8.4727H50.6877V17.4316Zm3.5762,13.6572h2.6885c3.168,0,4.584-2.377,4.584-5.5928,0-2.7119-1.32-5.1846-4.56-5.1846H54.2638V31.0889Z"/><path class="cls-1" d="M82.69,33.9688V28.1123a0.9325,0.9325,0,0,0-.144-0.5283L76.8327,17.4316h4.0566c1.272,2.4961,2.9282,5.8086,3.7681,7.6084,0.72-1.7285,2.5205-5.2324,3.7686-7.6084H92.17L86.3859,27.5361a0.9721,0.9721,0,0,0-.12.5283v5.9043H82.69Z"/><path class="cls-1" d="M21.0541,62.7686L16.83,46.2314h3.8159c1.5605,7.584,2.2563,10.9688,2.4482,12.793h0.0244c0.624-3.0488,2.2319-8.8086,3.1919-12.793h3.2163c0.8643,3.168,2.5205,9.5762,3.0723,12.625h0.0239c0.5522-3.6484,2.1606-10.0566,2.76-12.625H38.84L34.3753,62.7686h-3.72c-0.8643-3.6719-2.3286-9.0244-2.9043-11.8574H27.7269c-0.6,2.9531-2.0884,8.5215-2.9766,11.8574H21.0541Z"/><path class="cls-1" d="M52.1877,46.2314H63.7326v2.9277H55.6921v4.0566h7.5366v2.9277H55.6921v6.625H52.1877V46.2314Z"/><path class="cls-1" d="M78.1288,46.2314h6.84c3.5283,0,5.9048,1.9678,5.9048,5.1123,0,3.6006-2.7124,5.2559-5.9766,5.2559H81.705v6.1689H78.1288V46.2314Zm3.5762,7.5127h2.7363c1.6563,0,2.832-.6484,2.832-2.3281,0-1.7041-1.248-2.3525-2.76-2.3525H81.705v4.6807Z"/><path class="cls-1" d="M26.0584,77.959h-5.04V75.0313H34.6512V77.959H29.6351V91.5684H26.0584V77.959Z"/><path class="cls-1" d="M51.3476,75.0313h7.2246c4.0083,0,5.5205,2.0635,5.5205,4.2236A3.7294,3.7294,0,0,1,61.98,82.832a3.97,3.97,0,0,1,2.5923,3.792c0,2.832-2.2324,4.9443-5.7363,4.9443H51.3476V75.0313ZM58.164,81.56c1.7041,0,2.4-.7686,2.4-1.9443,0-1.2-.9121-1.8242-2.28-1.8242H54.852V81.56h3.312Zm-3.312,7.249h3.24c1.9438,0,2.8081-.8164,2.8081-2.3047,0-1.3437-.8643-2.1846-2.832-2.1846H54.852v4.4893Z"/><path class="cls-1" d="M82.5575,86.36V85.9043c0-1.585.6479-2.7842,2.4238-4.3691a3.1256,3.1256,0,0,0,1.2964-2.4482,1.5431,1.5431,0,0,0-1.68-1.6562c-1.3682,0-1.8242.9365-1.9443,2.0889H79.2689c0.12-2.0166,1.3921-4.7529,5.3765-4.7285,3.9365,0,5.0884,2.5439,5.0884,4.416,0,1.5127-.48,2.5449-2.208,4.1523a3.48,3.48,0,0,0-1.3682,2.7363V86.36h-3.6Zm0,5.208V87.584h3.6v3.9844h-3.6Z"/></svg>