<svg id="Layer_1" data-name="Layer 1" xmlns="http://www.w3.org/2000/svg" xmlns:xlink="http://www.w3.org/1999/xlink" viewBox="0 0 256.1516 211.317"><defs><style>.cls-1{fill:none;}.cls-2{fill:#231f20;}.cls-3{fill:#fff;}.cls-4{clip-path:url(#clip-path);}.cls-5{fill:#be1e2d;}.cls-6{fill:#262262;}</style><clipPath id="clip-path"><path class="cls-1" d="M167.39,81.9516c-20.8176,6.3651-39.3138-5.8409-39.3138-5.8409S109.58,88.3167,88.7619,81.9516c0,0-6.7146,58.7586,39.3139,93.8041C174.1042,140.71,167.39,81.9516,167.39,81.9516Z"/></clipPath></defs><title>afge</title><path class="cls-2" d="M79.825,157.7423c-1.2054-3.2149-2.329-9.207.5353-14.3314,2.3335-4.1754,7.1453-7.3089,12.1364-10.3693a117.1339,117.1339,0,0,1-4.1884-13.7654c-3.93,9.244-5.2422,18.3-8.6518,17.577-3.08-.1348-0.2346-13.533-2.6458-17.43-0.9631-1.5582-4.0172-1.3257-6.8294.0128-2.0095-.2683-6.6489,2.3375-4.3721,5.0162-0.938-1.0715,2.2457-3.04,4.1042-2.3362a4.5047,4.5047,0,0,0,.4526,3.2648c0.9367,1.6059,3.6994,1.2873,4.6374,1.8243,0.9359,0.537.1339,7.366-1.0715,9.2419-2.2778-.8045-8.0365-9.2419-9.3767-10.5817-1.4694-1.4707-5.4909.401-4.8208,5.09-1.34,1.205-6.027,4.2867-2.01,8.7066-1.6063-1.7407,1.34-5.894,2.8135-5.894,1.0719,1.7407,3.3475,3.4814,4.0176,2.9462s6.4288-4.5521,6.027,2.9478c-2.5767.6351-12.4213-.218-12.9234,1.59a15.9532,15.9532,0,0,0,0,5.0716c-2.3106.9056-2.3106,8.2374,1.7075,9.041a9.18,9.18,0,0,1-.1011-6.73c2.4117,1.809,4.8217.9051,5.4252-.2-0.8044-1.9092,2.7819-9.0871,8.3368-.2014,1.1725,1.8751,1.1064,4.7543-2.6441,7.3665-1.9822,1.379.87,4.2859,0.87,4.2859,0.6693,1.6068-4.1516,4.0154-5.4909,3.347a5.421,5.421,0,0,0,7.5-1.6063C75.94,161.626,79.5571,160.2892,79.825,157.7423Z"/><path class="cls-2" d="M115.4793,169.4484l-0.1847-.1876c-0.98-.994-1.9508-2.0215-2.88-3.0486l-0.11-.1217c-0.4546-.504-0.9052-1.0153-1.349-1.5283l-0.1367-.1587c-0.4436-.5151-0.8875-1.0407-1.3231-1.5684l-0.0287-.0352c-0.8777-1.0644-1.7576-2.18-2.6039-3.3014l-0.057-.0753c-0.4067-.54-0.8152-1.0937-1.2161-1.65-1.2207-1.6932-2.387-3.4228-3.4857-5.1663q-2.6632-4.2256-4.93-8.7455c-8.138,13.7112-18.56,29.3417-20.4293,37.0524,6.6971-4.8221,27.4562-24.1095,27.4562-24.1095,1.608,9.7776-8.13,27.4967-8.7049,36.1624,5.7563-3.09,14.028-16.1041,20.9131-22.6C116.0976,170.0614,115.7853,169.7573,115.4793,169.4484Z"/><path class="cls-2" d="M92.9489,18.984c-2.0035-4.42,9.9069-11.6847,17.1376,2.5089a104.7335,104.7335,0,0,1-14.0563,0c-0.2005,2.0389,8.7727,2.4492,12.8582,3.9938,0.8474,1.8118.5232,7.708-2.6453,13.7936h15.0391v1.5255h1.4568v2.6135c7.1978-6.6166,18.3537-7.67,24.718-7.67,0.4243,0,.8066.006,1.1679,0.0139-3.5864-7.4937-10.1774-19.0428-11.8777-21.0623l4.2855,0.7358c-10.4465-13.48-37.97-18.2816-38.171-10.38-9.9116-1.4737-17.01-.4009-16.2065,6.4289A8.4287,8.4287,0,0,0,92.9489,18.984Z"/><path class="cls-2" d="M83.9769,87.962s1.4729,11.25-8.3043,24.9122c3.1187,0.3115,6.8518-1.8951,10.3947-5.561a121.347,121.347,0,0,1-1.0308-23.6216V83.358l0.0307-.12c0.004-.0582.0462-0.6151,0.0462-0.6151l0.0309-.369,0.0253-.2755c0.027-.2861.0431-0.4265,0.0431-0.4265l0.1223-1.0756-0.12-.0355,0.3029-2.9452c0.4058-3.9474.9957-7.8951,1.7532-11.7331l0.4318-2.1878,2.1552-.5724c0.8629-.2292,1.7231-0.4437,2.5753-0.6419-0.0066-.9434-0.0135-1.6627-0.0135-1.6627l-0.0225-2.3422,2.7409-1.2224V55.3207L89.3949,53.115V51.8492c-9.6556-3.5286-18.11-13.2238-9.0346-35.4083C86.3873,1.7086,70.2009-4.83,60.4706,3.985,44.8574,18.13,26.1172,53.0716,8.4374,62.4475c14.1971,0.6027,33.35-16.6749,33.35-16.6749C42.59,56.6213,11.4506,88.7651,3.0131,94.3912c15.2681-1.2058,33.1492-15.2693,33.1492-15.2693C31.34,91.5786,17.8794,113.8779,0,128.1419c19.2861-4.4186,44.3989-30.938,44.3989-30.938-5.4243,17.2776-17.4789,30.938-17.4789,30.938,9.2423,2.813,36.1624-34.1529,36.1624-34.1529,0.8036,8.4374-7.7682,25.715-13.1248,32.5461C69.2437,117.5436,83.9769,87.962,83.9769,87.962Z"/><path class="cls-2" d="M135.8572,173.99l-0.1618.1437q-0.7761.6822-1.5728,1.3511l-0.29.2435c-0.5305.4432-1.062,0.8788-1.6016,1.311l-0.2745.2183c-0.6173.4914-1.1809,0.9312-1.718,1.34l-2.1632,1.6465-2.1632-1.6465c-0.537-.4088-1.1007-0.8486-1.7227-1.3438l-0.2687-.2134q-0.8112-.65-1.597-1.3075l-0.1783-.15c1.3885,12.2379,4.0359,33.46,5.93,35.7341,4.4162-8.431,7.3835-28.5172,8.5937-38.0578C136.3989,173.5029,136.1315,173.7482,135.8572,173.99Z"/><path class="cls-2" d="M256.1516,130.4819c-17.8794-14.2657-31.3407-36.5663-36.1628-49.0214,0,0,17.8807,14.0623,33.15,15.2681C244.7,91.1043,213.56,58.9592,214.3648,48.11c0,0,19.1518,17.2775,33.3489,16.6748-17.679-9.3754-36.42-44.3165-52.0332-58.4615-9.73-8.8149-25.9167-2.2769-19.89,12.4554,10.8583,26.5413-3.3431,35.304-14.6871,36.98l0,3.2692a33.68,33.68,0,0,1,6.8743,5.2949l0.7729,0.7727,0.208,1.0728c0.7194,3.7084,1.2824,7.5193,1.6739,11.3271l0.3029,2.9452-0.1212.036,0.1237,1.07,0.0314,0.2924,0.08,0.9366,0.0225,0.2919,0.0427,0.6238a122.2865,122.2865,0,0,1-1.3262,25.6531c3.63,3.8508,7.4841,6.1884,10.6893,5.8679C170.7017,101.55,172.1746,90.3,172.1746,90.3s14.7332,29.5837,34.0193,38.5735c-5.3569-6.8306-13.93-24.1086-13.1251-32.5465,0,0,26.92,36.9672,36.1624,34.155,0,0-12.0541-13.6626-17.4793-30.9406C211.7518,99.5413,236.8649,126.0617,256.1516,130.4819Z"/><path class="cls-2" d="M198.4927,148.6629a15.9363,15.9363,0,0,0,0-5.0733c-0.5016-1.8081-10.3463-.9538-12.9243-1.5876-0.4014-7.5,5.3569-3.484,6.027-2.9479,0.67,0.5328,2.9462-1.2054,4.0185-2.9478,1.4728,0,4.4189,4.1537,2.8122,5.8957,4.018-4.4207-.67-7.5029-2.0095-8.7079,0.67-4.6873-3.3514-6.5615-4.8212-5.0887-1.34,1.34-7.0994,9.7781-9.3754,10.5817-1.2058-1.8768-2.0086-8.7049-1.071-9.2415s3.7-.22,4.6361-1.8268a4.5014,4.5014,0,0,0,.453-3.2648c1.8576-.7025,5.0413,1.2651,4.105,2.3383,2.2764-2.68-2.3643-5.2862-4.3725-5.0153-2.813-1.3406-5.8658-1.5731-6.8307-.0137-2.4113,3.8961.4342,17.2933-2.6458,17.429-3.5124.7455-4.7949-8.8925-9.0139-18.4209a115.8575,115.8575,0,0,1-4.5264,14.1791c5.2371,3.199,10.395,6.4286,12.8369,10.7994,2.8633,5.1254,1.7411,11.1179.5357,14.3327,0.2675,2.5457,3.8841,3.8833,6.5632,3.8833a5.4213,5.4213,0,0,0,7.5,1.6068c-1.3389.6688-6.1606-1.7424-5.4913-3.3483,0,0,2.8519-2.9078.871-4.2847-3.75-2.6134-3.8176-5.4913-2.6445-7.3685,5.5544-8.884,9.14-1.7079,8.3368.2009,0.6031,1.1043,3.0139,2.0094,5.4243.2013a9.1673,9.1673,0,0,1-.1006,6.73C200.8029,156.8994,200.8029,149.5663,198.4927,148.6629Z"/><path class="cls-2" d="M179.4066,183.2521c-1.9175-7.9125-12.8491-24.1716-21.07-38.1337a101.6231,101.6231,0,0,1-7.7554,12.6286c-0.42.5824-.8292,1.1373-1.246,1.69l-0.0514.0681c-0.8423,1.116-1.7214,2.2307-2.6072,3.3049l-0.0364.0443c-0.442.5354-.8743,1.0467-1.313,1.5566l-0.1287.1489q-0.6683.7732-1.3546,1.5345l-0.1057.1165c-0.9312,1.03-1.9022,2.0574-2.8867,3.0559l-0.1831.1855c-0.3445.3478-.7007,0.6957-1.056,1.0433,4.8021,4.9788,15.8873,16.1946,22.1157,20.256-0.5767-8.6639-11.3849-21.8292-9.7772-31.6068C151.9509,159.1448,172.71,178.4313,179.4066,183.2521Z"/><path class="cls-3" d="M63.4265,67.3368V88.4431H59.163V81.1142H56.0976v7.3289H51.8693V66.3856a2.6015,2.6015,0,0,1,2.6074-2.6074h6.3424a2.6242,2.6242,0,0,1,2.6074,2.6074v0.9513Zm-4.2635.67H56.0976v8.8794H59.163V68.0064Z"/><path class="cls-3" d="M77.5195,68.0064H70.1906v5.9549H76.04V78.19H70.1906V88.4431H65.9623V63.7782H77.5195v4.2282Z"/><path class="cls-3" d="M187.5819,75.4059a2.6477,2.6477,0,0,1,2.6074,2.6074v7.8224a2.6475,2.6475,0,0,1-2.6074,2.6074H181.24a2.6241,2.6241,0,0,1-2.6074-2.6074v-19.45a2.6015,2.6015,0,0,1,2.6074-2.6074h6.3424a2.6242,2.6242,0,0,1,2.6074,2.6074V71.389l-4.2635.9866V68.0064H182.86V84.18h3.0654v-4.51h-2.29l0.81-4.2635h3.136Z"/><path class="cls-3" d="M204.2821,84.18v4.2635H192.725V63.7782h11.5572v4.2282h-7.3289v5.9549h5.8491V78.19h-5.8491v5.99h7.3289Z"/><path class="cls-3" d="M167.39,81.9516c-20.8176,6.3651-39.3138-5.8409-39.3138-5.8409S109.58,88.3167,88.7619,81.9516c0,0-6.7146,58.7586,39.3139,93.8041C174.1042,140.71,167.39,81.9516,167.39,81.9516Z"/><g class="cls-4"><path class="cls-5" d="M170.3874,83.3224l-0.0178-.88-0.0146-.4492-0.2837-5.66-5.6174,1.8676-0.2951.0981L163.9,78.38l-0.5016.1555c-0.1678.0522-.3549,0.101-0.5315,0.1519-0.7155.2051-1.4406,0.3779-2.17,0.5373-0.6485.1373-1.3022,0.2554-1.9592,0.3586L158.69,75.4459,152.61,78.3635l-0.2032.0975-0.157.0713-0.2925.1336c-0.0982.0453-.22,0.0913-0.3293,0.1375-0.4477.1874-.9039,0.3466-1.3646,0.4923a16.1441,16.1441,0,0,1-1.8289.45l0.1865-6.5446-6.726,5.3729q-1.8921-.4908-3.7525-1.13c-0.0994-.0343-0.1979-0.0714-0.2971-0.1063l1.6771-25.2008-7.8957,22.5321c-0.2221-.1149-0.44-0.2328-0.6579-0.3507l-0.4911-14.225L125.6393,74.07l-0.1671.0945c-0.3323.1838-.6719,0.3645-1.015,0.5413-0.4367.2248-.8811,0.4406-1.3281,0.6523l-5.4816-8.0222,0.665,10.0013c-0.1008.0355-.2009,0.0732-0.3019,0.1081q-1.8737.6461-3.7857,1.1388l-6.633-3.4576,0.1316,4.626a16.775,16.775,0,0,1-4.5273-1.5507l-0.0009,0-5.7389-1.8274L97.4189,79.59a36.0014,36.0014,0,0,1-6.263-1.5641l-0.001,0-5.0112-1.1624L85.827,81.4978c-0.014.2047-.018,0.3362-0.0249,0.496l-0.0146.4492-0.0178.88c-0.0114.5822-.014,1.1569-0.0141,1.7317q0.0045,1.7212.0663,3.4233,0.1049,3.4073.3894,6.78c0.196,2.25.4207,4.4916,0.71,6.7244s0.6323,4.456,1.0331,6.6677c0.3941,2.2126.8278,4.4168,1.3279,6.6059Q90.03,118.54,90.9474,121.78c0.6221,2.1563,1.2811,4.3009,2.0022,6.4247,0.7163,2.1253,1.5073,4.225,2.3433,6.3053,0.8381,2.0795,1.73,4.1377,2.7,6.1591,0.9647,2.0233,1.9669,4.0293,3.06,5.9867q1.6281,2.9415,3.4346,5.7789c0.59,0.9526,1.2294,1.8739,1.8482,2.8074,0.6481,0.9143,1.2767,1.8417,1.9534,2.7351,1.3237,1.8078,2.7193,3.5621,4.1591,5.2777l1.0943,1.2747c0.3637,0.4257.748,0.8336,1.121,1.2511,0.7419,0.8391,1.5263,1.6388,2.2971,2.4507,1.5687,1.5973,3.1635,3.1708,4.8378,4.6569,1.6539,1.5091,3.3891,2.9243,5.138,4.3191l0.2593,0.2068,0.88,5.1192,0.88-5.1192,0.2594-.2068c1.749-1.3947,3.4843-2.81,5.1383-4.3188,1.6744-1.486,3.2693-3.0594,4.8381-4.6567,0.7709-.8119,1.5553-1.6116,2.2972-2.4506,0.3731-.4175.7573-0.8253,1.1211-1.251l1.0943-1.2747c1.44-1.7156,2.8356-3.47,4.1594-5.2776,0.6767-.8934,1.3055-1.8208,1.9536-2.7351,0.6189-.9335,1.2586-1.8547,1.8484-2.8073q1.8133-2.8309,3.435-5.7788c1.0934-1.9574,2.0958-3.9634,3.0606-5.9867,0.97-2.0214,1.862-4.08,2.7-6.1591,0.8361-2.08,1.6272-4.18,2.3437-6.3054,0.7213-2.1238,1.38-4.2685,2.0026-6.4248q0.92-3.238,1.6652-6.5242c0.5-2.1892.934-4.3935,1.3283-6.6061q0.6014-3.3176,1.0335-6.6679c0.29-2.2328.5145-4.4749,0.7106-6.7246q0.2852-3.3754.39-6.7808,0.06-1.7045.0665-3.4235C170.4014,84.4794,170.3987,83.9046,170.3874,83.3224ZM151.2,88.2255q0.2256,3.0423.3267,6.11c0.0778,2.0435.0887,4.09,0.077,6.1389-0.0151,2.0485-.0818,4.0973-0.1746,6.1463-0.0994,2.0484-.2453,4.095-0.4207,6.14-0.1769,2.0449-.4072,4.085-0.6663,6.122s-0.5752,4.0666-.9246,6.0906-0.74,4.0415-1.1885,6.0462q-0.6625,3.01-1.4677,5.9853c-0.5345,1.9839-1.13,3.9509-1.7714,5.9022-0.6373,1.9529-1.3193,3.892-2.0794,5.8-0.3678.9592-.77,1.9035-1.1622,2.853-0.4134.9394-.8125,1.8863-1.2511,2.8143-0.8478,1.8707-1.7849,3.6986-2.7658,5.5009-0.9737,1.8071-2.0277,3.5686-3.1238,5.3023-0.3475.5516-.7081,1.0943-1.0738,1.6334q0.3154-.779.6238-1.5605c0.7482-1.8816,1.4274-3.7877,2.076-5.703,0.6519-1.9147,1.2371-3.8493,1.816-5.7852,1.1471-3.8756,2.12-7.7975,3.0146-11.7349,0.4482-1.969.8484-3.9476,1.2409-5.9279,0.3977-1.98.76-3.9657,1.1015-5.9555,0.3378-1.99.67-3.9823,0.97-5.9792,0.3025-1.9966.5807-3.997,0.8512-5.999s0.508-4.0083.7454-6.0157c0.239-2.0074.4473-4.0182,0.65-6.0308,0.2082-2.0124.3873-4.0278,0.5632-6.0453,0.1785-2.0175.3294-4.0379,0.4817-6.0613,0.1424-2.0237.2819-4.05,0.3985-6.0832,0.0078-.1235.0135-0.2477,0.0211-0.3713a22.3532,22.3532,0,0,0,2.3506-.2421c0.2278,0.0238.4554,0.0485,0.6837,0.0691C151.1478,87.6651,151.1766,87.9449,151.2,88.2255Zm-46.58,6.11q0.1063-3.0646.3263-6.1105c0.0231-.2814.0491-0.5619,0.0738-0.8428,0.21-.0189.42-0.0419,0.63-0.0635a23.8033,23.8033,0,0,0,2.42.235c0.0077,0.1249.0134,0.2506,0.0213,0.3754,0.1165,2.033.2558,4.0594,0.3981,6.0831,0.1521,2.0233.3029,4.0437,0.4813,6.0612,0.1758,2.0175.3548,4.0329,0.5629,6.0453,0.2021,2.0126.41,4.0234,0.6492,6.0307,0.2372,2.0074.4752,4.0135,0.745,6.0157s0.5485,4.0023.8509,5.9989c0.3,1.9969.632,3.9888,0.97,5.9791,0.3413,1.99.7035,3.9759,1.1011,5.9555,0.3923,1.98.7924,3.9589,1.2405,5.9279,0.8946,3.9375,1.8671,7.8593,3.0139,11.735,0.5788,1.9359,1.1639,3.8706,1.8157,5.7853,0.6484,1.9154,1.3275,3.8215,2.0756,5.7031q0.3092,0.7841.6258,1.5658c-0.3668-.5407-0.7286-1.0848-1.0771-1.638-1.0962-1.7336-2.15-3.4951-3.1241-5.3021-0.9811-1.8023-1.9183-3.63-2.7662-5.5008-0.4387-.928-0.8378-1.8749-1.2513-2.8143-0.3919-.9495-0.7945-1.8937-1.1624-2.853-0.76-1.9079-1.4424-3.847-2.08-5.8-0.6417-1.9513-1.2371-3.9183-1.7717-5.9022s-1.0263-3.9789-1.4681-5.9853c-0.4485-2.0047-.8407-4.0218-1.1889-6.0462s-0.6656-4.0535-.925-6.0906-0.49-4.0772-.6667-6.1221c-0.1755-2.045-.3216-4.0916-0.4211-6.14-0.0929-2.0489-.16-4.0978-0.175-6.1464C104.5317,98.4264,104.5425,96.38,104.62,94.336Zm25.5205,52.1329c-0.1269,1.95-.2493,3.9006-0.4006,5.8483-0.1318,1.95-.3242,3.8933-0.5008,5.8385l-0.2933,2.9141c-0.0985.9713-.2157,1.94-0.3227,2.91-0.1027.9709-.2366,1.937-0.3646,2.9038-0.0614.46-.1212,0.92-0.183,1.38-0.0618-.46-0.1217-0.92-0.1831-1.3794-0.128-.9668-0.262-1.9329-0.3648-2.9037-0.107-.97-0.2243-1.9386-0.3229-2.91l-0.2935-2.9141c-0.1767-1.9451-.3692-3.8885-0.5011-5.8385-0.1514-1.9477-.274-3.8984-0.401-5.8482q-0.1762-2.9266-.3015-5.8561-0.1341-2.9289-.2289-5.86c-0.05-1.955-.1057-3.9091-0.1391-5.8644-0.0474-1.9545-.0524-3.9109-0.0705-5.8661-0.0063-1.9559-.02-3.9111.0025-5.8674,0.0137-1.9558.0314-3.9116,0.0692-5.8673l0.1394-5.8664c0.0669-1.9554.1286-3.91,0.2136-5.8646,0.0891-1.9544.1744-3.9082,0.29-5.8611q0.161-2.9292.3723-5.8547,0.027-.3353.0527-0.6717a5.4057,5.4057,0,0,0,.6549-0.3806,5.75,5.75,0,0,0,.4578-0.3575c0.1242-.1114.2614-0.2371,0.3569-0.3414,0.0716-.0755.1325-0.147,0.1952-0.2193,0.0638,0.0736.126,0.1466,0.199,0.2235,0.0955,0.1044.2334,0.23,0.3574,0.3418a5.7471,5.7471,0,0,0,.459.358,5.3594,5.3594,0,0,0,.6452.3759c0.0176,0.2245.0386,0.4472,0.0566,0.6713q0.2079,2.9248.3727,5.8547c0.1154,1.9529.2008,3.9066,0.29,5.8611,0.0851,1.9544.1469,3.9092,0.2139,5.8646l0.14,5.8664c0.038,1.9557.0557,3.9115,0.07,5.8673,0.0224,1.9562.009,3.9114,0.0028,5.8673-0.018,1.9552-.0229,3.9116-0.07,5.8661-0.0332,1.9554-.0888,3.9095-0.1387,5.8644q-0.0967,2.9308-.2285,5.86Q130.3205,143.543,130.1406,146.4689ZM114.88,99.872c0.0418-1.9857.0941-3.97,0.19-5.9518q0.1327-2.9723.3577-5.9334c0.0122-.15.0269-0.3,0.0394-0.45,0.1844,0.0179.3691,0.0329,0.5537,0.0425a11.3937,11.3937,0,0,0,2.9569-.2382l0.4244,6.3828L120.16,105.513l0.776,11.7756,0.4049,5.8839,0.4315,5.8813c0.1382,1.96.299,3.92,0.4539,5.8787l0.483,5.8763,0.5248,5.8729c0.1863,1.957.3681,3.9139,0.5789,5.869l0.6328,5.8647,0.3483,2.93c0.1169,0.9765.2527,1.9515,0.3781,2.9272s0.2545,1.9515.3929,2.9262q0.0616,0.441.1225,0.8821-0.7737-1.8247-1.476-3.6808c-0.7-1.8535-1.3323-3.7336-1.9352-5.623s-1.1578-3.7959-1.6607-5.7165c-0.5105-1.9184-.9707-3.8511-1.4052-5.7893-0.442-1.9365-.8167-3.889-1.1758-5.8434-0.7209-3.9088-1.2916-7.846-1.7517-11.7955-0.24-1.9734-.4274-3.9536-0.6006-5.9342s-0.3277-3.9627-.4366-5.9484c-0.1125-1.9851-.2153-3.97-0.2776-5.9572s-0.1058-3.974-.1211-5.9611C114.8388,103.8442,114.8413,101.8578,114.88,99.872Zm15.585,68.2053q0.0608-.4393.122-0.8785,0.2076-1.4621.393-2.9262c0.1255-.9757.2613-1.9507,0.3783-2.9272l0.3485-2.93,0.6331-5.8647c0.211-1.955.3929-3.9119,0.5793-5.8689l0.5252-5.8729,0.4834-5.8763c0.1551-1.959.3159-3.9184,0.4542-5.8787l0.4319-5.8813,0.4052-5.8839,0.7768-11.7757,0.7584-11.7892,0.4245-6.378a11.3945,11.3945,0,0,0,2.9535.2376c0.1827-.01.3639-0.0312,0.5464-0.0488,0.0125,0.151.0273,0.3011,0.04,0.4522q0.2239,2.9586.3581,5.9333c0.0959,1.9818.1483,3.966,0.19,5.9517,0.039,1.9857.0416,3.9722,0.0337,5.96-0.0151,1.987-.0589,3.9741-0.1207,5.961s-0.1648,3.9721-.2772,5.9572c-0.1088,1.9856-.2644,3.9676-0.4362,5.9483s-0.36,3.9608-.6,5.9342c-0.46,3.95-1.03,7.8867-1.751,11.7955-0.359,1.9544-.7336,3.9069-1.1755,5.8434-0.4344,1.9382-.8945,3.8709-1.4049,5.7893q-0.7541,2.8809-1.66,5.7165c-0.6027,1.8894-1.2353,3.77-1.9348,5.6231Q131.2373,166.2531,130.4652,168.0773Zm-14.04-6.04L115.39,160.8c-1.36-1.6652-2.6872-3.3584-3.9152-5.1237-0.6318-.87-1.2163-1.7726-1.82-2.6613-0.575-.9083-1.1706-1.8029-1.7173-2.7286-1.129-1.8291-2.1617-3.7165-3.15-5.6244-0.9922-1.9062-1.9053-3.8536-2.7641-5.8232s-1.6409-3.973-2.3709-5.9937c-0.7353-2.0189-1.393-4.0659-1.99-6.13-0.5993-2.063-1.147-4.1411-1.6162-6.2373s-0.8829-4.204-1.2416-6.32c-0.3561-2.1167-.6663-4.2407-0.9044-6.3725q-0.3472-3.1991-.53-6.4083c-0.1189-2.1383-.2009-4.2772-0.1879-6.4141,0.0056-2.1362.0627-4.2685,0.187-6.387q0.0534-.81.1192-1.6166,2.035,0.3423,4.0869.4916c0.012,0.23.0225,0.4609,0.0355,0.6908,0.1051,2.1294.2413,4.249,0.4215,6.3625,0.1855,2.1131.3736,4.221,0.6094,6.3231,0.2323,2.102.4835,4.2,0.78,6.29,0.29,2.0913.6035,4.1778,0.96,6.2567s0.7257,4.1537,1.1465,6.2188c0.4252,2.0641.8685,4.1234,1.3536,6.1727,0.48,2.05,1.0219,4.0861,1.5741,6.117q0.8332,3.0454,1.81,6.0489c0.32,1.0024.6565,2,.9914,2.9968,0.3515,0.9922.6936,1.9868,1.067,2.971,0.729,1.9741,1.5163,3.9265,2.3405,5.8629,0.4044,0.9713.8442,1.928,1.273,2.8887,0.4508,0.9514.887,1.9088,1.3634,2.8479q1.3984,2.8306,2.9528,5.5822c0.4333,0.7721.8838,1.5346,1.3432,2.2917-0.036-.0414-0.0741-0.0808-0.11-0.1224C117.1334,162.8457,116.769,162.45,116.425,162.037Zm46.3527-60.66q-0.1833,3.2073-.53,6.4081c-0.238,2.1318-.5481,4.2557-0.904,6.3724q-0.5378,3.1744-1.2412,6.32c-0.4691,2.0962-1.0166,4.1742-1.6158,6.2372-0.5973,2.0637-1.2549,4.1107-1.99,6.13-0.73,2.0206-1.5116,4.0239-2.3705,5.9937s-1.7716,3.917-2.7637,5.8232c-0.9881,1.908-2.0207,3.7954-3.1495,5.6245-0.5467.9258-1.1422,1.82-1.7172,2.7287-0.6038.8887-1.1882,1.7917-1.82,2.6613-1.2278,1.7654-2.5553,3.4586-3.9148,5.1239l-1.0352,1.2366c-0.344.4132-.7084,0.8087-1.0615,1.2141-0.0337.0392-.07,0.0763-0.1036,0.1153,0.4577-.7545.9067-1.5142,1.3385-2.2835q1.5611-2.746,2.9531-5.5821c0.4765-.939.9128-1.8965,1.3636-2.8479,0.4289-.9607.8687-1.9174,1.2732-2.8886,0.8243-1.9364,1.6118-3.8887,2.3409-5.8628,0.3735-.9841.7157-1.9788,1.0672-2.971,0.3349-.9972.6719-1.9944,0.9916-2.9968q0.9758-3.0026,1.8108-6.0489c0.5523-2.0309,1.0943-4.0666,1.5745-6.117,0.4853-2.0493.9286-4.1086,1.354-6.1728,0.4209-2.0651.7911-4.14,1.1469-6.2188s0.6705-4.1654.96-6.2568c0.2962-2.0909.5474-4.1885,0.78-6.2906,0.2359-2.1021.4241-4.21,0.61-6.3232,0.18-2.1135.3166-4.2331,0.4219-6.3626,0.013-.2287.0234-0.4582,0.0354-0.6872,1.18-.0863,2.36-0.2159,3.5344-0.3956,0.1771-.0281.3524-0.07,0.5293-0.0993,0.0439,0.5377.0962,1.076,0.1318,1.6164,0.1245,2.1183.1817,4.2506,0.1874,6.3867C162.9782,97.1,162.8964,99.2389,162.7777,101.3771Z"/></g><path class="cls-3" d="M91.9006,112.1247a118.58,118.58,0,0,1-1.8587-28.3268,44.2807,44.2807,0,0,0,11.1951,1.42,54.9557,54.9557,0,0,0,26.8388-7.4271,54.941,54.941,0,0,0,26.8388,7.4271,44.2822,44.2822,0,0,0,11.194-1.42,118.801,118.801,0,0,1-1.8577,28.3266h-72.35Z"/><path class="cls-6" d="M128.0757,79.4406a56.5746,56.5746,0,0,0,26.8388,7.2051,45.95,45.95,0,0,0,9.8618-1.0594,119.2252,119.2252,0,0,1-1.72,25.11H93.0948a119.2239,119.2239,0,0,1-1.72-25.11,45.9507,45.9507,0,0,0,9.8618,1.0594,56.5809,56.5809,0,0,0,26.8387-7.2051m0-3.33A53.6084,53.6084,0,0,1,101.237,83.79a42.5035,42.5035,0,0,1-12.4751-1.8385,114.5486,114.5486,0,0,0,1.9561,31.6008h74.7154A114.5486,114.5486,0,0,0,167.39,81.9516,42.5153,42.5153,0,0,1,154.9145,83.79a53.6,53.6,0,0,1-26.8388-7.6794h0Z"/><path class="cls-3" d="M128.0758,173.9532a93.72,93.72,0,0,1-21.0512-22.9311c5.4764-4.105,13.067-6.4392,21.0512-6.4392s15.5748,2.3342,21.0512,6.4392A93.72,93.72,0,0,1,128.0758,173.9532Z"/><path class="cls-6" d="M128.0758,146.0106a34.667,34.667,0,0,1,19.0993,5.3768,92.2625,92.2625,0,0,1-19.0993,20.747,92.2625,92.2625,0,0,1-19.0993-20.747,34.667,34.667,0,0,1,19.0993-5.3768m0-2.8557c-9.1619,0-17.3768,2.9234-22.9508,7.5471a94.8822,94.8822,0,0,0,22.9508,25.0536,94.8822,94.8822,0,0,0,22.9508-25.0536c-5.574-4.6238-13.7889-7.5471-22.9508-7.5471h0Z"/><path class="cls-6" d="M140.7994,161.0289c0.7172-.6728,1.4409-1.345,2.12-2.0508,0.7982-.8294,1.487-1.7435,2.2454-2.605,1.3348-1.5161,2.5232-3.1689,3.8782-4.67-0.0652-.0159-0.13-0.0328-0.1953-0.0487-0.0332.0493-.0672,0.098-0.1,0.1473a1.0577,1.0577,0,0,1-1.0224.5183c-0.9719-.0441-1.9454-0.0508-2.9183-0.0728l0-.0263c-0.9734,0-1.9467-.0041-2.92.0015-0.6126.0035-.6879,0.0525-0.82,0.6706a5.5948,5.5948,0,0,0-.1479,1.2146c0.0176,1.6383.0705,3.2761,0.0989,4.9143a5.2819,5.2819,0,0,1-.075.9144,0.4508,0.4508,0,0,1-.2044.2967c-0.542.2656-.5776,0.3566-0.6514-0.2893a8.4059,8.4059,0,0,1-.043-0.92q-0.0092-2.3431-.0079-4.6862a3.4631,3.4631,0,0,0-.1682-1.286,0.7515,0.7515,0,0,0-.6014-0.525,11.5767,11.5767,0,0,1-2.879-1.0425q-1.67-.7792-3.3215-1.5992a4.6405,4.6405,0,0,0-1.4537-.4626,2.04,2.04,0,0,1-.4512-0.0871,1.8387,1.8387,0,0,0-1.8062.2236,12.6862,12.6862,0,0,1-1.2885.6826,1.72,1.72,0,0,1-1.552.0852,7.4359,7.4359,0,0,0-.7944-0.2833,4.7186,4.7186,0,0,0-2.5039.0617,17.6837,17.6837,0,0,0-3.24,1.1857c-0.3025.1384-.6,0.2888-0.8966,0.439a5.3509,5.3509,0,0,1-2.3566.6173,1.8122,1.8122,0,0,0-.38.0425,0.6462,0.6462,0,0,0-.5.4287,3.0339,3.0339,0,0,0-.2512,1.116c0.0269,0.87.0454,1.74,0.0823,2.6087a12.4069,12.4069,0,0,1-.1,2.68,1.2548,1.2548,0,0,1-.122.3571,0.2372,0.2372,0,0,1-.1734.0253,4.7716,4.7716,0,0,1-.3081-0.8579,10.5991,10.5991,0,0,1-.0887-2.6762c0.0749-1.1224.0687-2.2509,0.0721-3.3769,0.0012-.3738-0.0978-0.4519-0.4659-0.4551-0.8708-.0077-1.7417.0017-2.6127,0.0047q-1.382.0048-2.7639,0.0112a0.8571,0.8571,0,0,0-.302.0195,0.5378,0.5378,0,0,1-.7145-0.2535c-0.0334-.0477-0.0675-0.0949-0.101-0.1426-0.3307.0725-.6628,0.162-0.9931,0.2649a115.6262,115.6262,0,0,0,7.252,9.0155c0.3475-.0444.693-0.0751,1.0337-0.0879-0.0246-.0284-0.05-0.056-0.0746-0.0844a3.03,3.03,0,0,1-.278-0.3638,0.2531,0.2531,0,0,1,.1049-0.1493,0.615,0.615,0,0,1,.23-0.0046c0.1735,0.036.4227,0.0929,0.6738,0.1385,0.3554,0.0645.5584,0.0735,0.5342-.379a0.379,0.379,0,0,1,.0037-0.0766c0.045-.295.1325-0.3347,0.4071-0.1709a3.8655,3.8655,0,0,1,.4445.3006,3.9076,3.9076,0,0,0,1.5022.742,15.26,15.26,0,0,1,2.7391.9861,3.3379,3.3379,0,0,0,1.6378.33c0.8676-.0493,1.7366-0.0753,2.6038-0.13a5.508,5.508,0,0,0,2.0442-.6174c0.3914-.1891.7835-0.38,1.188-0.5378a4.0709,4.0709,0,0,1,1.9413-.3391,1.71,1.71,0,0,0,1.2791-.437,1.8817,1.8817,0,0,1,1.7341-.3554,3.6649,3.6649,0,0,0,2.4526-.3717q0.3444-.1691.69-0.3357a2.9781,2.9781,0,0,1,1.6494-.2358,0.5018,0.5018,0,0,1,.4826.4179c0.0333,0.1488.0672,0.2984,0.086,0.4494a1.1578,1.1578,0,0,0,.929,1.0581C140.5131,160.9531,140.68,160.9906,140.7994,161.0289Zm0.8214-4.52,0.0685,0.0006c0-.8961-0.0057-1.7923.0019-2.6884,0.0057-.6759.0132-0.6839,0.6866-0.6942q2.1123-.0323,4.2249-0.0481c0.4537-.0036.5,0.0767,0.2539,0.4821-0.2519.4155-.5123,0.8287-0.8029,1.2174a38.1179,38.1179,0,0,1-3.7666,4.4517,1.0558,1.0558,0,0,1-.6531.4861c-0.0186-.25-0.0543-0.5008-0.0526-0.751C141.5872,158.1462,141.6067,157.3275,141.6208,156.5087Zm-27.4768-2.3415c-0.0272.5621-.0575,1.1241-0.0867,1.6861l-0.01,0c-0.0053.7421-.0041,1.4841-0.0083,2.226a0.1478,0.1478,0,0,1-.0711.1157,0.1589,0.1589,0,0,1-.1372-0.0362c-0.4209-.4452-0.8681-0.87-1.2476-1.3489-0.6511-.8212-1.2594-1.6765-1.885-2.5179a4.6152,4.6152,0,0,1-.3116-0.437,1.7182,1.7182,0,0,1-.1134-0.3435,1.3571,1.3571,0,0,1,.2857-0.0723c0.3836-.0133.7675-0.0158,1.1514-0.0189,0.6909-.0056,1.3819-0.0144,2.0728-0.01,0.2875,0.0017.3492,0.0764,0.3626,0.3732C114.1508,153.9112,114.15,154.04,114.144,154.1672Zm16.81,5.4546a1.6828,1.6828,0,0,1-1.1945-.7564c-0.1822-.2782-0.359-0.561-0.5592-0.8259a0.8494,0.8494,0,0,0-.7282-0.3591,0.2894,0.2894,0,0,0-.2775.42,2.27,2.27,0,0,0,.3763.4725,2.1675,2.1675,0,0,1,.6194,1.0411,0.368,0.368,0,0,1-.22.5014,1.251,1.251,0,0,1-1.2438.0984,2.8561,2.8561,0,0,0-.3592-0.135c-0.4471-.1441-0.5175-0.1024-0.6175.36a1.2735,1.2735,0,0,1-.0609.299,0.775,0.775,0,0,1-.7043.506,3.1808,3.1808,0,0,1-.9768-0.17,7.4009,7.4009,0,0,0-1.0447-.2143,0.312,0.312,0,0,0-.3721.201,0.2745,0.2745,0,0,1-.2883.1949,2.78,2.78,0,0,1-1.2075-.1636c-0.451-.1815-0.902-0.3645-1.3609-0.5244-0.5793-.2018-1.1692-0.3729-1.7493-0.5724a10.5138,10.5138,0,0,1-1.2143-.4687,2.2955,2.2955,0,0,1-1.2567-1.6535,6.228,6.228,0,0,1-.1355-1.8318q0.07-.88.1422-1.7594c0.0128-.1527.0329-0.305,0.0551-0.4567a0.45,0.45,0,0,1,.3718-0.4211,21.4981,21.4981,0,0,0,3.3651-1.2875c0.7494-.3277,1.511-0.63,2.2786-0.9127a5.3753,5.3753,0,0,1,1.8883-.3083c0.3315,0.0251.6637,0.0434,0.9941,0.0788a0.1322,0.1322,0,0,1,.107.219,2.8209,2.8209,0,0,1-.4962.5733c-0.4457.3421-.9132,0.6575-1.385,0.9634-0.4293.2783-.8889,0.5108-1.31,0.8a2.9744,2.9744,0,0,0-.6627.6279,0.7226,0.7226,0,0,0,.0455.9864,2.7744,2.7744,0,0,0,.716.5665,4.9854,4.9854,0,0,0,3.8664.42,2.9018,2.9018,0,0,0,1.26-.7087c0.0908-.09.1805-0.1821,0.2774-0.2656a0.4877,0.4877,0,0,1,.7506-0.0368,2.9065,2.9065,0,0,1,.4227.3308c0.6416,0.6254,1.2876,1.2471,1.91,1.8916a3.347,3.347,0,0,1,.8214,1.2842A0.6852,0.6852,0,0,1,130.9544,159.6218Zm8.4461-4.2935c-0.0489.6239-.0967,1.2871-0.1549,1.9493a0.3553,0.3553,0,0,1-.38.3958,4.4942,4.4942,0,0,1-1.7307-.243,0.2587,0.2587,0,0,0-.3158.1483c-0.0563.1149-.105,0.2343-0.1707,0.3436a2.2111,2.2111,0,0,1-2.8642.9075,3.1184,3.1184,0,0,1-1.56-1.6228,0.1563,0.1563,0,0,1,.19-0.2239,3.7052,3.7052,0,0,0,1.8231-.0394,1.5335,1.5335,0,0,0,.8425-0.5006,2.8,2.8,0,0,0,.1873-0.3237,1.8,1.8,0,0,0-.3523-0.0431c-0.4842.0343-.9671,0.1077-1.4513,0.1152a4.2009,4.2009,0,0,1-.9051-0.1335,0.5444,0.5444,0,0,1-.492-0.2863,3.1844,3.1844,0,0,1,.4684-0.3709,6.9659,6.9659,0,0,1,.712-0.2832c0.2611-.104.5225-0.2076,0.78-0.3208a0.2364,0.2364,0,0,0,.173-0.2958,0.3383,0.3383,0,0,0-.3058-0.2969,1.4385,1.4385,0,0,0-.3766.0559c-0.5708.1425-1.14,0.2916-1.71,0.4366a2.1729,2.1729,0,0,1-2.1655-.637,0.7449,0.7449,0,0,0-.4485-0.26,10.3759,10.3759,0,0,0-1.3746-.05,1.0543,1.0543,0,0,0-.5134.2941,4.1275,4.1275,0,0,0-.277.3649,2.1177,2.1177,0,0,1-.5085.4567,3.9454,3.9454,0,0,1-2.6.4129,1.2,1.2,0,0,1-.15-0.0342,1.6144,1.6144,0,0,1-.9077-0.6668,1.3848,1.3848,0,0,1,1.0067-.6065,0.3906,0.3906,0,0,1,.2319.1338,0.2921,0.2921,0,0,1,.0323.1466c0.1008,0.5565.1014,0.558,0.5721,0.3459q0.3149-.1419.624-0.2966a0.2433,0.2433,0,0,0,.1143-0.3779,0.3427,0.3427,0,0,1-.0284-0.0713,2.9041,2.9041,0,0,1-.3354-0.9933c0.3028-.1308.6046-0.2639,0.9085-0.392a16.5144,16.5144,0,0,0,3.0822-1.711,8.2554,8.2554,0,0,1,.84-0.536,1.9711,1.9711,0,0,1,1.8457-.0368c0.2546,0.119.496,0.2661,0.7468,0.3936,0.5923,0.3011,1.1823.6073,1.7813,0.8945q1.0718,0.5139,2.1579.9978c0.6073,0.2708,1.2208.5286,1.8369,0.779a1.3381,1.3381,0,0,1,1.123,1.6577C139.4,155.0325,139.4005,155.1605,139.4005,155.3284Z"/><polygon class="cls-6" points="119.145 47.121 123.242 47.115 123.242 51.274 119.145 52.847 119.145 47.121"/><path class="cls-6" d="M157.5314,47.4553c0.0548-4.6757-2.7822-7.7886-7.3984-8.0607-4.4217-.2606-19.4978-0.3054-26.6159,8.3865a5.9941,5.9941,0,0,1-1.9,1.4984l-2.45.9755V44.3775h-19.05l-1.4714.4847v2.2537l-4.0974-.0064-1.582.5039v3.0473L98.71,52.8665v6.5846l-2.7184,1.2126s0.0258,2.7083.0257,4.5209c0,0-2.7875,4.2858-4.4848,6.6322l-0.0052,4.0418,11.0081-1.0107,9.8019-1.4047,45.1948-8.6256V50.5146S157.5113,49.175,157.5314,47.4553Z"/><polygon class="cls-6" points="116.252 42.852 116.252 42.203 115.479 42.203 115.479 42.852 114.021 42.852 114.021 47.809 117.71 47.809 117.71 42.852 116.252 42.852"/><polygon class="cls-6" points="104.167 42.852 104.167 42.203 103.393 42.203 103.393 42.852 101.935 42.852 101.935 47.809 105.625 47.809 105.625 42.852 104.167 42.852"/><path class="cls-3" d="M150.7761,40.3979a1.8594,1.8594,0,0,0-1.4728,2.059v27.29L96.6407,67.3266V61.1483L121.12,50.479a10.0187,10.0187,0,0,0,2.9594-2.0283S131.1337,38.7962,150.7761,40.3979Z"/><path class="cls-6" d="M101.237,79.6085a53.6084,53.6084,0,0,0,26.8388-7.6794,53.6,53.6,0,0,0,26.8388,7.6794A42.56,42.56,0,0,0,167.08,77.8612c-0.35-3.3991-.8685-7.1-1.6275-11.0124a28.7869,28.7869,0,0,0-13.7762-7.8134l-2.3732,1.2593c-6.1523-5.9879-21.0443,1.8691-21.0443,1.8691a57.2142,57.2142,0,0,1-12.0886,3.26c-2.98.3819-20.2566,1.9719-20.2566,1.9719l0.43-2.2112c-2.0485.385-3.963,0.8433-5.5684,1.27-0.801,4.0585-1.3432,7.8938-1.7044,11.4068A42.5475,42.5475,0,0,0,101.237,79.6085Z"/><path class="cls-5" d="M130.7092,50.8283a1.1368,1.1368,0,0,1-.3706.7419,0.594,0.594,0,0,1,.3706.5223V54.567a1.3838,1.3838,0,0,1-1.0424,1.0981q-1.1817.35-2.4022,0.7634c-0.5178.1754-.925-0.0211-0.9254-0.4242v-2.307a1.26,1.26,0,0,1,.3215-0.7375,0.4352,0.4352,0,0,1-.3215-0.4412V50.4432a1.5334,1.5334,0,0,1,.9254-1.1762q1.22-.5577,2.4022-1.0448c0.5722-.2364,1.0414-0.0628,1.0424.38v2.2259Zm-1.6723-1.0792q-0.5794.2342-1.1678,0.4848V51.98q0.5885-.2339,1.1678-0.4518V49.7491Zm0,3.0425q-0.5794.2063-1.1678,0.4284v1.7565q0.5885-.2053,1.1678-0.3951v-1.79Z"/><path class="cls-5" d="M137.0423,49.0465a1.0337,1.0337,0,0,1-.4655.7721,0.6939,0.6939,0,0,1,.4655.6136q-0.0089,1.3572-.0174,2.7149a1.3913,1.3913,0,0,1-1.2611,1.0764q-1.4088.2438-2.8881,0.5894c-0.6089.1424-1.1163-.0991-1.117-0.5384v-1.581q0.9372-.4344,1.8474-0.8217v1.41q0.7059-.1688,1.3959-0.3132V51.0122q-0.6593.1564-1.3331,0.3353,0-.6776,0-1.3551,0.6739-.1922,1.3331-0.3614V47.6856q-0.69.1962-1.3959,0.418v1.399q-0.91.1163-1.8474,0.2706v-1.559a1.59,1.59,0,0,1,1.117-1.2151q1.4788-.5161,2.8881-0.92c0.6929-.2,1.2621.0468,1.2611,0.532Q137.0338,47.829,137.0423,49.0465Z"/><path class="cls-5" d="M143.1506,44.6267q-1.6736.1609-3.4863,0.51a1.5325,1.5325,0,0,0-1.3516,1.1768v6.652a1.0866,1.0866,0,0,0,1.3516.7615q1.8115-.1431,3.4863-0.1061a1.3116,1.3116,0,0,0,1.5156-.9q0-3.617,0-7.2341A1.2312,1.2312,0,0,0,143.1506,44.6267Zm-0.9377,2.7307v4.7215q-0.8261.0229-1.6845,0.0877V46.4687q0.8583-.13,1.6845-0.2156v1.1043Z"/><polygon class="cls-5" points="100.752 88.602 102.309 93.281 107.24 93.316 103.272 96.243 104.762 100.944 100.752 98.074 96.742 100.944 98.232 96.243 94.263 93.316 99.195 93.281 100.752 88.602"/><polygon class="cls-5" points="114.413 95.744 115.97 100.424 120.901 100.459 116.933 103.386 118.423 108.087 114.413 105.216 110.403 108.087 111.893 103.386 107.924 100.459 112.856 100.424 114.413 95.744"/><polygon class="cls-5" points="128.074 88.602 129.631 93.281 134.562 93.316 130.594 96.243 132.084 100.944 128.074 98.074 124.064 100.944 125.554 96.243 121.585 93.316 126.517 93.281 128.074 88.602"/><polygon class="cls-5" points="141.735 95.744 143.292 100.424 148.223 100.459 144.255 103.386 145.745 108.087 141.735 105.216 137.725 108.087 139.215 103.386 135.246 100.459 140.178 100.424 141.735 95.744"/><polygon class="cls-5" points="155.396 88.602 156.953 93.281 161.884 93.316 157.916 96.243 159.406 100.944 155.396 98.074 151.386 100.944 152.876 96.243 148.907 93.316 153.839 93.281 155.396 88.602"/></svg>