<svg id="Layer_1" data-name="Layer 1" xmlns="http://www.w3.org/2000/svg" viewBox="0 0 368.5209 196.6702"><defs><style>.cls-1{fill:#a19b84;}.cls-2{fill:#423828;}.cls-3{fill:#603913;}</style></defs><title>aggam-logo-color</title><path class="cls-1" d="M202.3058,58.6774c-0.01-.0117-0.02-0.0226-0.03-0.0343l0.0126,0.0522Z"/><path class="cls-1" d="M366.9846,130.8062c-8.1568-.7154-15.8434-3.4628-23.6654-5.5762-2.501-.6757-4.7536-2.244-7.151-3.3356-4.811-2.19-9.4908-4.8568-14.5175-6.3231a21.6625,21.6625,0,0,1-9.1241-5.4455c-1.6537-1.5643-3.4891-2.9367-5.2434-4.3948-0.6713.8372-1.34,1.0387-2.0035-.0267-6.044-1.7975-9.3226-6.5776-12.1215-11.6734-3.3458-6.0914-6.43-12.3168-11.813-16.9742a0.4557,0.4557,0,0,1,.028-0.3229l4.8834,1.833c0.1612-.7245,2.62-1.0342.2757-2.3389-3.6954-2.0566-8.0808-2.9749-10.9637-6.431a2.8779,2.8779,0,0,0-.924-0.3266,78.332,78.332,0,0,1-8.041-3.8569,4.245,4.245,0,0,0-5.01.1783,15.8507,15.8507,0,0,0-3.283,2.95c-6.1552,7.132-12.245,14.3532-19.5211,20.363-1.4187,1.1719-1.3285,2.2209-1.545,3.4487a9.47,9.47,0,0,1-1.7907-1.3815,123.2083,123.2083,0,0,1-15.3015-23.8461,11.4018,11.4018,0,0,1-1.4739-3.1285c-0.3324-2.2792,1.2479.4075,1.5963-.5023q-4.398-9.96-8.81-19.9143a4.75,4.75,0,0,0-1.1293-1.6083,1.4214,1.4214,0,0,0-1.299-.2333,1.4491,1.4491,0,0,0-.5815,1.2479c0.3711,1.2534.9322,2.45,1.4189,3.67q1.1391,2.8537,2.2752,5.7087a1.1771,1.1771,0,0,1-.6834-0.2624c-4.5735-6.56-8.6575-13.4418-11.174-21.0344-3.1826-9.6024-5.8586-19.3727-8.7634-29.0674C191.3036,1.455,190.9981.7332,190.7307,0a10.648,10.648,0,0,0-1.4976,1.8234q-6.8605,13.569-13.6342,27.1819c-0.514,1.0319-.81,2.17-1.2722,3.23-0.9846,2.2589-1.6941,4.72-3.0772,6.7084-5.7959,8.3311-11.8905,16.454-17.7048,24.7726C144.4828,76.6812,132.4125,86.7049,121.02,97.4c-1.0582.9934-1.6661,0.5457-2.2831-.4639q-1.4306-2.3409-2.9426-4.6319-3.7065-5.6208-7.4565-11.2127c-0.5548-.8243-1.0945-1.4991-2.4117-0.9456-2.5866,1.087-4.5716,4.11-8.022,2.6484a1.2226,1.2226,0,0,0-.7438.5917c-2.6161,4.51-7.3218,6.2862-11.6495,8.06-16.5583,6.7855-32.2693,15.4594-49.1366,21.5819-6.6918,2.429-13.2313,5.1711-20.2175,6.7051-5.0107,1.1-9.969,2.441-14.9409,3.7128A4.6828,4.6828,0,0,0,0,124.22a3.1261,3.1261,0,0,0,1.2228.46c1.8073-.19,3.6017-0.5007,5.4057-0.7282a3.1737,3.1737,0,0,1,.9583.1839c-0.2249.1726-.4423,0.3561-0.6763,0.5154a12.1833,12.1833,0,0,1-1.2538.807c-0.5768.2963-1.1865,0.5284-1.782,0.7881,0.622,0.1524,1.24.3253,1.8672,0.4518,0.696,0.14,1.4116.1934,0.3629,0.9973-1.1981.9183-2.3549,1.8905-3.5259,2.844a12.7357,12.7357,0,0,0,2.08-.3726,207.0118,207.0118,0,0,1,20.5534-5.8315c8.7407-1.8246,17.3409-4.3682,25.9315-6.8455a104.7717,104.7717,0,0,0,11.167-4.253,20.8492,20.8492,0,0,1,7.7316-1.58c4.6525-.1035,9.2965-0.5719,13.9491-0.6929a4.8825,4.8825,0,0,0,4.4608-2.5081c3.0573-4.7576,6.2968-9.3991,9.5046-14.0587,1.55-2.252,1.717-2.2123,3.8193-.6523a27.09,27.09,0,0,1,9.5459,13.6581,41.773,41.773,0,0,0,2.36,4.9052,46.5226,46.5226,0,0,0,4.4126-3.0275,5.31,5.31,0,0,1,4.968-1.5137c5.9874,1.301,12.0142,2.4188,18.012,3.6737,1.7672,0.37,3.149.226,4.4276-1.3113,2.1251-2.5551,4.5443-4.8641,6.7068-7.39a5.3761,5.3761,0,0,1,3.8114-2.0018c9.5857-1.002,19.162-2.0938,28.7424-3.147,3.2558-.3579,3.39-0.4543,3.5356-3.5322,0.3381-7.1472.6166-14.2974,1.0062-21.4417,0.0687-1.26.18-2.8429,0.9351-3.6721a8.4728,8.4728,0,0,0,2.16-5.4045c0.322-4.3.6279-8.6005,0.9515-12.9,0.0619-.8223.1747-1.6407,0.264-2.4609a11.59,11.59,0,0,0,2.0287,1.7582c2.2474,1.1879,3.011,3.3481,4.0323,5.434a18.4328,18.4328,0,0,0,2.6,3.2722q-0.4476-1.8535-.8952-3.707a5.142,5.142,0,0,1,1.5359,1.2676A343.5845,343.5845,0,0,0,225.51,88.8055,63.1331,63.1331,0,0,1,229.926,96.24q-4.7516-4.6061-9.5043-9.2111c-0.9277-.8982-1.8642-1.7874-2.7966-2.6806a26.7323,26.7323,0,0,0,1.3292,3.6282,24.2384,24.2384,0,0,0,2.934,4.6072c7.5212,8.6346,15.1417,17.1827,22.69,25.7938,1.3151,1.5,2.6206,1.6312,4.3922.809,4.3551-2.0211,8.8659-3.7205,13.149-5.8771,2.323-1.17,4.3083-3.01,6.4459-4.548a3.2174,3.2174,0,0,0-.8393-1.0917,1.9783,1.9783,0,0,0-.9547-0.0961c3.3181-1.4854,6.6042-3.0509,9.9793-4.393,1.8246-.7256,2.5847-1.32,1.7524-3.53a100.5271,100.5271,0,0,1-3.7151-12.3542c-0.4092-1.7365-1.9653-3.455-.7007-5.4418,1.5383,1.2163,3.1307,2.3723,4.5887,3.6782a8.3714,8.3714,0,0,1,1.3212,2.0953,77.9523,77.9523,0,0,0,23.07,24.4669c13.38,9.3912,28.3958,14.8505,44.1649,18.6025,6.5929,1.5686,13.2212.7933,19.8417,0.8915a6.735,6.735,0,0,0,1.4467-.2966A7.3064,7.3064,0,0,0,366.9846,130.8062Z"/><path class="cls-1" d="M61.8083,116.097h0.3124q5.1571,0.703,5.8609,1.6412v0.0778a0.5267,0.5267,0,0,0,.1562.3908q-0.7038,1.4069-.7817,1.6412-1.095,3.1264-1.8752,5.0008-0.392.9373-1.0941,2.4229-0.8606,2.97-3.2818,10.0017a0.07,0.07,0,0,1,.0778.0789q0,1.0157-4.5322,12.1121a130.3675,130.3675,0,0,1-4.0635,13.2841c0.0511,0.5215.0784,1.043,0.0784,1.5634a38.7529,38.7529,0,0,1-.3908,5.3138q-3.2824,3.751-4.923,3.75-0.3136,0-2.4229-.3124a6.0654,6.0654,0,0,1-1.7969.5471H41.96a0.3144,0.3144,0,0,1-.0778-0.2346q0-1.3276,2.5785-9.846,1.1725-5.0787,5.7825-19.6142v-0.39a4.4218,4.4218,0,0,1,.2346-1.4066H50.399q-2.11,1.3293-15.6285,22.74-1.5645,3.751-2.5785,3.75-2.0331.4687-6.1734,1.3287a4.4086,4.4086,0,0,1-2.6569-1.6412l0.0778-.2346q0.3119-.7022,2.6569-5.0792a10.2341,10.2341,0,0,0,.7033-3.9073,16.1955,16.1955,0,0,0-.2341-2.6564,57.0568,57.0568,0,0,0,.9373-9.0655,76.2673,76.2673,0,0,1-.1562-7.8924H27.19a68.4045,68.4045,0,0,0-5.0792,9.5336q-1.4069,3.5959-1.7974,4.4543-3.9854,7.8157-4.6106,9.299l-1.6412,4.5322q-1.3293,2.5018-1.9536,3.9862l-0.7033,1.5622a3.0194,3.0194,0,0,1-2.9694,2.11,42.6243,42.6243,0,0,1-5.7041,1.5622c-0.2079,0-.313-0.1557-0.313-0.4681a6.7359,6.7359,0,0,1,.4692-1.8758q1.4852-2.89,3.0472-6.6426l0.7817-1.8747q8.5162-19.7693,9.4552-21.9592l2.032-4.7668Q27.2681,118.9885,29.3,118.9885q3.2032-1.7971,4.3759-1.7974,5.7033,0,5.7047,2.0315a2.7552,2.7552,0,0,1-.1562.86v0.1568a40.3192,40.3192,0,0,1-1.7974,6.72v0.2346a93.7667,93.7667,0,0,1-1.719,11.9553v0.9385q0,2.3434-.5471,7.58l0.2341,2.891q3.9854-4.8452,16.254-24.381,6.8758-9.7671,8.2832-9.7682A7.7538,7.7538,0,0,1,61.8083,116.097Z"/><path class="cls-1" d="M91.0084,140.7357h0.5488a23.4919,23.4919,0,0,1,4.0493,2.1279q1.7146,0.2051,1.7158.6855v0.1377l-0.2744.9609L95.8126,147.05a9.6513,9.6513,0,0,1-.4116,1.2354,15.0111,15.0111,0,0,1-2.3335,2.4014c-0.0923.3672-.1836,0.6865-0.2749,0.9609q-1.51,1.9922-2.1274,2.6768a29.7877,29.7877,0,0,0-1.51,6.1768c0,0.3672.0684,0.5488,0.2061,0.5488q0,0.4131,2.0586,2.7461h0.0688q0.5486,0,4.2549-4.873,3.4314-7.4121,4.8042-8.373a0.88,0.88,0,0,0,.3433-0.5488,17.9286,17.9286,0,0,0,1.5786-6.04L102.8814,143q0.7544-1.7139,3.2256-1.7158h0.5493l4.8042,2.2646a0.2864,0.2864,0,0,1,.0684.2061q0,1.2363-2.4707,6.9316a23.0586,23.0586,0,0,1-1.1665,2.54q-0.8928,2.9517-1.51,4.4609l-0.6865,1.6465q-3.1575,7.4136-4.3237,7.4131a2.1116,2.1116,0,0,0-1.3726.96q-0.824,2.4712-1.853,4.8047l-0.2744.1377H97.6656q-0.7559,0-.7549-2.6084v-0.48a2.0739,2.0739,0,0,0-1.4414-.8232H93.273a16.6866,16.6866,0,0,0-5.01.9609H88.1261a29.5792,29.5792,0,0,1-4.667-1.8535q-2.9517,0-3.4316-2.333a4.0277,4.0277,0,0,1-.8237-2.334,3.51,3.51,0,0,1,.2744-1.3037l0.2061-.5488q2.3328-4.0488,3.1572-5.9023l0.8232-1.9219a15.9525,15.9525,0,0,0,1.167-1.8535l1.3037-3.0879q0.48-1.166,2.2651-6.1084Q90.39,140.7361,91.0084,140.7357Z"/><path class="cls-1" d="M159.0619,114.7244h0.2744a3.2666,3.2666,0,0,1,.8926-0.1372q1.5088,0,1.51,1.853,0,3.7061-5.6963,14.4126l-1.9219,4.0488,9.54,1.7158q7.8918,0.4819,12.56,2.8145a28.5313,28.5313,0,0,0-4.4609.2061,8.2379,8.2379,0,0,1-1.2354-.1377q-16.06-.5479-18.187-0.5488-1.0986,0-6.6572,16.8145a2.65,2.65,0,0,0-.6865,1.0977l-0.1372.3438a10.5282,10.5282,0,0,0-.3433,2.8135,40.6707,40.6707,0,0,0-4.1177,8.2363q-1.374,2.7451-1.6475,3.1563l-0.1372-.1367h-0.2744l-0.8921.9609a4.3408,4.3408,0,0,1-.2061,1.5781,1.0509,1.0509,0,0,1-.48.2744,7.3042,7.3042,0,0,1-.2744,2.1963l-0.2061.6865a0.7959,0.7959,0,0,1-.686.48q-0.9624,2.6089-2.7456,7.0693-0.1384.3442-.8921,3.1563-1.853,4.667-3.02,7.7559-0.48,1.0972-.5493,1.2354a2.0257,2.0257,0,0,1-.8237-1.7158,4.4767,4.4767,0,0,1,.3433-1.5781,6.5831,6.5831,0,0,0,.2744-2.334q0-.687-0.0684-1.5781l0.6177-1.9219,2.4019-6.6572q0.4124-1.0972,1.3042-4.5986l0.2744-.7549q0.2058-.5479,1.167-2.6768v-1.9209l2.0586-5.6973a53.5535,53.5535,0,0,0,2.1279-8.99q1.2349-3.8423,3.7061-14.8926a11.55,11.55,0,0,0,.4116-2.1963c0-.2285-0.0459-0.3437-0.1372-0.3437q-18.05-.1362-18.8735-0.1367h-0.3433a6.446,6.446,0,0,1-3.4316-2.54q-3.6365-5.0083-3.6372-6.4512a0.5179,0.5179,0,0,1,.6177-0.5488,3.0171,3.0171,0,0,1,.5488.0684l23.335,2.54a3.6333,3.6333,0,0,0,1.7842.5488q1.7842,0,2.814-2.8828,3.2944-7.5483,3.98-7.5493,1.6472-3.6372,2.3335-3.6377a10.0592,10.0592,0,0,1,7.0688-3.2939A0.911,0.911,0,0,1,159.0619,114.7244Z"/><path class="cls-1" d="M165.1532,144.51l3.02,0.6865a9.8862,9.8862,0,0,0,2.3335-.6865,20.7694,20.7694,0,0,1,5.01,2.6084q2.8828,0,3.0884,1.6475a29.82,29.82,0,0,0-1.7158,2.4707l-0.0684.2051,0.0684,0.6182-0.0684.2061a9.338,9.338,0,0,1-1.0981,1.7842,2.5989,2.5989,0,0,1,.4116,1.5781,9.0735,9.0735,0,0,1-.4116,2.4023,57.5285,57.5285,0,0,1-2.6768,7.8926l-0.48,1.167a5.6548,5.6548,0,0,1-3.7061,1.4414,3.4359,3.4359,0,0,1-1.853-1.3047q-1.7856,0-1.7842-2.0586v-0.5488a1.3309,1.3309,0,0,0-.5493-0.6865q-7,3.1582-9.334,3.1572h-0.2056a21.4766,21.4766,0,0,1-3.6377-.3428,9.4863,9.4863,0,0,1-1.853.3428q-4.3235-2.127-4.3237-4.1182a2.5673,2.5673,0,0,1,.1372-0.8232l0.2744-.6865q3.9126-7.8237,6.8633-10.8437a7.9927,7.9927,0,0,1,3.5-2.9512Q161.7208,144.512,165.1532,144.51Zm4.8073,6.3327s-3.5833-.7083-3.9583,0-3.2058,1.5833-4.04,1.6667-2.8763,1.8333-2.8763,1.8333c-2.75,1.0417-.6667,5.4066-0.6667,6.4583,0,0.7783,4.0576.3184,4.332,0.3184a0.9113,0.9113,0,0,0,.7554.3428h0.3428a0.9256,0.9256,0,0,0,.8926-0.6172,7.0879,7.0879,0,0,0,.4116-2.6084C165.1532,156.8187,170.51,152.9941,169.9605,150.8428Z"/><path class="cls-1" d="M187.9154,137.9495h0.8237a16.2111,16.2111,0,0,1,3.2256,2.4707q1.5776,1.6479,2.4019,1.6475a0.5785,0.5785,0,0,1,.6177.6865,4.6577,4.6577,0,0,1-.48,1.6475q-3.1575,6.04-3.5688,6.0391-1.7161.9624-3.5684,5.2842a16.8468,16.8468,0,0,0-3.4316,5.1475q-1.0986.5508-5.1475,9.8828a2.7991,2.7991,0,0,0-.9609,1.4414c-0.0923.2744-.2295,0.7793-0.4116,1.51a4.4384,4.4384,0,0,1-2.4707,1.4414q-1.2356,0-1.2354-1.8525a13.41,13.41,0,0,1,.48-3.0889q2.8821-9.1963,8.7158-23.8838v-0.0684a48.0537,48.0537,0,0,1,2.1963-6.1768Q187.16,137.95,187.9154,137.9495Zm11.52-16.0205a0.2388,0.2388,0,0,0-.0417.1663,5.2566,5.2566,0,0,0,.3743,1.4142q-0.3334,1.2069-2.3709,8.1938a5.8149,5.8149,0,0,1-1.9131.7073,2.5514,2.5514,0,0,0-.7073-0.1249h-0.3326l-2.2878.6238h-0.0832a3.8056,3.8056,0,0,1-.7487-1.2062,4.1641,4.1641,0,0,1-1.123-1.6219,32.6327,32.6327,0,0,1,3.0365-4.1595,18.6476,18.6476,0,0,0,2.4541-2.62A23.2944,23.2944,0,0,1,199.4349,121.929Z"/><path class="cls-1" d="M212.0025,173.1761H209.669c-2.3335,0-1.3774-1.0781-2.293-1.7187-1.3125.5-1.8013-2.0107-1.7563-2.1934q0.7566-1.9907,5.1475-11.1182a1.34,1.34,0,0,0,.48-0.6865,0.5862,0.5862,0,0,0-.4116-0.4111c-0.3657,0-2.0158-2.1294-4.1671.1587-3.6226,2.3535-6.5708,8.2749-6.9375,9.2817-1.0981,1.7383-1.5718,2.4375-2.625,2.4375-0.731.5029-1.6776,1.4063-2.73,1.4063-3.9346-.7783-3.5625.0625-4.875-1a2.3712,2.3712,0,0,1,.375-0.6875,5.9808,5.9808,0,0,1-.25-0.959,28.6619,28.6619,0,0,1,.5-3.3535l3.9375-8.6572,0.625-2.4053c0.6865-1.83.1558-3.3467,0.75-6,0.458-1.0068.7881-2.082,1.0625-2.8125a10.8822,10.8822,0,0,0,.3125-2.9375l1.75-1.25c0.458-1.0068.5625-.125,1.3125-1.25,2.105,1.9219,2.0376,2.5625,2.0376,3.0664v0.0684a4.0282,4.0282,0,0,0-.1372,1.0986c0,1.0059-.9033,2.7109-0.4,4.2666,0.875,3.2139.1625,1.9706-.6886,7.598l-0.3191,1.403c0.7788,0,1.4495-1.4956,3.0505-4.0571a20.3261,20.3261,0,0,1,10.7072-6.8813,12.22,12.22,0,0,1,3.0625-2.3125l2.6875-1.0625c0.5039,0,.9111-0.4648,2.4214-0.7393,1.19,0,.3286.8105,0.3286,1.8643a12.9523,12.9523,0,0,1-.5625,2.3125l-1.1875,3.5c-1.2808,3.751-.5454,4.9277-2.834,10.374l-0.6177,1.9209c-1.189,3.5234-3.0853,4.9456-3.1317,6.9134l-0.6667,2.5C212.8946,172.3629,213.33,173.1761,212.0025,173.1761Z"/><path class="cls-1" d="M278.2753,115.6854h0.0684a0.5547,0.5547,0,0,1,.5488.686,8.8014,8.8014,0,0,1-.8916,3.02l-0.9609,2.3335q-2.9517,6.4512-3.7754,6.8633h-0.4111a5.3981,5.3981,0,0,0-2.06-.8926q-8.7861,0-13.3145,3.2256l-0.48.6865-0.4111.8926a26.16,26.16,0,0,0-.8242,5.1465q0,1.3052.55,1.3047,2.332,3.0205,3.6367,3.02h0.1377q0.479,0,3.7744-2.5391h0.5488q0.4131,0,.6865,2.2646a15.6154,15.6154,0,0,0,3.2949,1.167,6.06,6.06,0,0,1,.5488,2.6074,12.7048,12.7048,0,0,1-1.2354,5.0107q-3.57,8.44-14.001,14.6865Q243.2724,168.6,238.7431,168.6H235.93l-0.1377-.2061q0.3442-.7544,3.2949-2.5391,3.7061-3.5684,12.834-8.7158a66.6618,66.6618,0,0,0,8.7842-8.0986h0.1377l0.0684-.2061q-0.2754-.6182-2.6768-1.167a14.1755,14.1755,0,0,0-6.1074-4.8037,9.691,9.691,0,0,1-2.4023-5.834,4.5,4.5,0,0,1,.1367-1.0977l0.6865-1.373a47.7857,47.7857,0,0,0,1.7842-7.55q0.7544-1.92,8.9912-7.4121,6.5186-2.47,9.06-2.4707h1.7842a4.3975,4.3975,0,0,0,1.3037-.2744,0.47,0.47,0,0,0,.2061.2744A10.7931,10.7931,0,0,0,278.2753,115.6854Z"/><path class="cls-1" d="M282.9706,126.0062h0.1367q3.98,1.7856,4.9414,1.7842h0.2061a8.8249,8.8249,0,0,0,1.6475-.2061,0.7572,0.7572,0,0,1,.2744.48,0.28,0.28,0,0,1-.0684.2061l-0.4121.8242-1.0293,2.1953q0.0674,0.8936,5.3535,2.4717a1.8424,1.8424,0,0,1,1.0293-.48h0.5488q0.4116,0,1.4414,2.6758,1.0972,0.2754,1.0977.7549V136.85q-0.6167,1.1675-4.5977,3.5h-0.3437l-0.5488-.4111a4.152,4.152,0,0,1-1.373.4111,1.9238,1.9238,0,0,1-1.51-.8916,36.2954,36.2954,0,0,1-5.2842,3.3623,45.2347,45.2347,0,0,0-4.667,5.6963q-3.4321,7.7563-7.2754,15.2363l-0.2051.4121-0.9609,2.6768a21.3759,21.3759,0,0,0-3.0205,5.2842,10.826,10.826,0,0,0-1.0977,2.4023,20.3815,20.3815,0,0,0-.6182,2.4023q-0.8921.8232-5.1465,1.5781a0.9323,0.9323,0,0,1-.6182.4121,9.1284,9.1284,0,0,1,.6865-2.6084l0.0684-.2061q0.7544-1.3711,1.2354-2.4707-1.03,0-1.0293-.7549a2.2085,2.2085,0,0,1,.2744-0.9609l0.0684-.2744q3.2256-7.0679,3.4316-7.6865l1.4414-4.1865q3.501-7.4795,4.5986-10.1572,3.019-7.207,3.02-8.2363c0-.0908-0.0234-0.1367-0.0684-0.1367a3.64,3.64,0,0,0-1.3047-.4121,13.1023,13.1023,0,0,1-1.8525,1.51q-2.9517-2.6074-4.1865-2.6074a1.6794,1.6794,0,0,1-1.0293-1.6475,4.8318,4.8318,0,0,1,.4111-1.7158l0.6865-1.51q2.8828-4.8721,4.53-4.873h0.3428a54.7609,54.7609,0,0,1,6.3828.48Q281.8725,126.0067,282.9706,126.0062Z"/><path class="cls-1" d="M294.0771,142.6575a66.1916,66.1916,0,0,1,8.3047,1.99c0.1367,0,.2061.2061,0.2061,0.6172a35.2473,35.2473,0,0,1-1.03,5.9023q-4.1177,11.4624-4.667,11.4619a23.2708,23.2708,0,0,0-2.333,4.0488,8.4885,8.4885,0,0,1-6.6572,2.9512q-1.9922-.2051-1.99-0.9609v-0.2051q1.5088-.48,1.6475-1.03H286.665a3.746,3.746,0,0,0-1.0293.1377q-4.875,0-5.834-3.1572a1.8168,1.8168,0,0,1-.8232-1.7158v-0.2061c-0.0449-.457-0.0693-0.9141-0.0693-1.3721a9.4637,9.4637,0,0,1,.3438-2.54l0.8232-2.6074q1.0972-3.501,1.99-4.1865Q289.41,142.658,294.0771,142.6575Zm-5.01,11.873-0.48,1.7158a25.8975,25.8975,0,0,0-.1377,2.6084,18.4973,18.4973,0,0,0,.8232,5.833l0.4121,1.3037h0.1377a32.836,32.836,0,0,0,3.2256-7.2744l0.6865-1.99a26.8571,26.8571,0,0,0,.6855-4.5986q0-.8232-0.2744-0.8232a4.3468,4.3468,0,0,0-2.4707-1.0986A9.8887,9.8887,0,0,0,289.0673,154.5306Z"/><path class="cls-1" d="M311.5087,139.02h2.334q3.5,0,4.873.9609-0.7559,2.6763-.8242,2.9512-0.7559,1.9907-5.1475,11.1182a1.3426,1.3426,0,0,0-.48.6865,0.5872,0.5872,0,0,0,.4121.4111q0.5493,0,3.7744-3.4307,6.04-6.3135,6.5889-7.8242,1.6479-2.6074,3.2256-2.6084a4.6112,4.6112,0,0,1,2.6768-.7549q5.9019,1.1675,5.9023,2.6768a0.6161,0.6161,0,0,1-.0684.2744,5.542,5.542,0,0,1,.0684.8926,17.5574,17.5574,0,0,1-.2744,2.8135L329.49,158.0989v0.2754a51.5866,51.5866,0,0,0-1.9209,6.7256q-0.687,1.51-1.0986,2.6074a18.1224,18.1224,0,0,0-.5488,3.9814l-0.1377.5488q-0.687,1.51-1.0293,1.51-3.1567-2.8828-3.1572-3.6377v-0.0684a3.99,3.99,0,0,0,.1377-1.0986A13.0711,13.0711,0,0,0,320.98,165.1q0.7544-4.2554,3.5684-14.3437l-0.3428-.9609q-1.1675,0-3.5693,3.8428-2.814,3.2271-10.7061,14.8936a8.0615,8.0615,0,0,1-1.99,1.7842h-3.7061a21.3388,21.3388,0,0,0-3.02.4121q-1.7856,0-1.7852-1.5791a5.4439,5.4439,0,0,1,.2754-1.5781l0.4111-1.0986q1.92-5.6265,5.3535-13.7949l0.6172-1.9209A30.085,30.085,0,0,0,307.94,142.52l0.48-1.2354A3.3914,3.3914,0,0,1,311.5087,139.02Z"/><path class="cls-1" d="M353.9921,143.2064h1.166q1.0972,0,3.4316,2.1279,3.98,1.9219,4.3926,7.5488,0.0674,0.9624.0684,1.7158a6.0448,6.0448,0,0,1-.2744,2.1963A4.0754,4.0754,0,0,1,359.07,159.06h-0.8916q-0.687,0-2.6084,1.7852l-0.6172.0684a2.136,2.136,0,0,0-1.4414-.6182l-5.4219,1.03a2.87,2.87,0,0,1-1.167-.2754q-2.9517.7573-3.1572,1.2354a0.2822,0.2822,0,0,0-.0684.2061q0,0.9624,4.7354,1.3047a9.2144,9.2144,0,0,0,2.2646.1367q0.7544,0,3.2256-.1367v0.2744l-0.2744.48q-0.2754.687-4.9414,2.1963a28.8888,28.8888,0,0,1-5.6279.7549q-6.8628,0-8.7158-1.3047-3.9126-1.3711-3.9121-1.99V164.139a31.5848,31.5848,0,0,1,1.6475-8.5791q3.2944-6.1772,3.9121-6.1768,4.6655-4.1851,7-4.1865Q351.1083,143.2073,353.9921,143.2064Zm-8.5791,10.7754a2.0087,2.0087,0,0,0-.0684.48c0,0.1826.0449,0.2744,0.1367,0.2744q1.853-.2065,2.1963-0.2061,0.479,0,3.2256.0684,2.06-.0674,2.2646-0.48a11.7509,11.7509,0,0,0,.5488-1.0977,6.8974,6.8974,0,0,0,.6865-2.6084,1.4847,1.4847,0,0,0-.9609-1.5781h-0.8232q-3.2271,0-6.5889,4.1865A2.3342,2.3342,0,0,1,345.413,153.9818Z"/><path class="cls-1" d="M82.0331,142.679l-0.1465-.3662-0.3569-.168c-2.3286-1.0937-4.3921-2.16-6.1338-3.1719l-0.501-.291-0.502.291c-0.8218.4756-1.27,0.74-1.5259,0.9-2.82.1309-5.89,2.0293-9.3716,5.791a16.4183,16.4183,0,0,0-4.7,6.3174l-0.1577.3193a13.0742,13.0742,0,0,0-1.0625,5.0547,14.2488,14.2488,0,0,0,2.335,7.5527l0.1333,0.2148,0.22,0.125c0.2578,0.1475.4893,0.2852,0.6973,0.415a4.4029,4.4029,0,0,0-.5347.3838l-0.1226.12c-1.09,1.2588-1.8521,2.1055-2.2642,2.5176l-0.1313.1309-0.2407.543a3.5537,3.5537,0,0,0-.3486,1.4893,3.727,3.727,0,0,0,2.2671,3.2275l0.2275,0.1279h0.6465a2.0257,2.0257,0,0,0,.9546-0.2627,1.1528,1.1528,0,0,0,.1167.0059h0.7705a1.208,1.208,0,0,1,.3682.0771l0.2827,0.0947,0.2881-.0752a23.33,23.33,0,0,0,4.1875-1.8779l0.1318-.082c5.7192-4.1729,10.2983-10.2656,13.624-18.1436a43.5828,43.5828,0,0,0,1.59-4.6709,11.55,11.55,0,0,0,.1875-2.0645A12.2017,12.2017,0,0,0,82.0331,142.679Zm-18.4468,24.5a1.2129,1.2129,0,0,0,1.144-.8877,3.5839,3.5839,0,0,0,.2842-1.44V163.637H64.7264a22.1242,22.1242,0,0,1,.6187-3.2148c0.8345-5.3877,1.3789-7.3867,1.689-8.1162a9.4846,9.4846,0,0,1,.9819-1.7793c2.7295-3.06,3.6143-3.5664,3.82-3.6494H72.452a16.29,16.29,0,0,1,2.2871.1162l0.1465-.001a2.6328,2.6328,0,0,1,.293,1.6689c0,0.2-.01.4111-0.03,0.6309-0.6089,2.1914-1.0073,3.7549-1.2153,4.7715-0.1055.2451-.3853,0.8477-1.0859,2.2793a51.2423,51.2423,0,0,1-3.9912,6.8848c-3.7764,4.5537-5.25,4.9072-5.6123,4.9072a1.2588,1.2588,0,0,1-.4507-1.0225l0.0635,0.0664h0.73Z"/><path class="cls-1" d="M121.6763,140.0184q2.2461,1.063.9611,3.6556l-0.0773.1274q-2.0569,3.6135-2.54,4.5484l-0.1468.2976q-2.1776,5.1011-2.8759,6.5033-0.44.8928-1.5341,2.891,0.1529,0-.1051.51h0.102a46.6592,46.6592,0,0,0,4.3971-3.91q1.6966-1.7856,3.4514-3.5284,2.0962-2.0815,4.22-4.0381a18.4338,18.4338,0,0,0,4.11-1.7l0.2569-.2551a4.9839,4.9839,0,0,1,3.647-1.19,6.2064,6.2064,0,0,1,2.5986.51q0.7133,1.3182-.5715,3.9107-0.2939.5961-.9468,1.7l-2.8156,6.2912a23.5674,23.5674,0,0,1-1.7459,2.8483l-0.6652,1.5724q-2.1611,3.8688-4.3018,7.3111-0.4829.9356-1.4579,3.0182a4.483,4.483,0,0,1-.8762,1.2753,2.7517,2.7517,0,0,1-.4872.3825h-0.4081A8.12,8.12,0,0,0,121.3,171.091q-1.3774,0,.5873-3.8255,2.8957-5.6108,3.594-7.0135a11.361,11.361,0,0,0,.4335-1.19h-0.1529l-0.6387.1277a97.72,97.72,0,0,0-9.1164,6.4183q-2.4382,2.1679-5.2681,4.4207-0.4628.5105-.8481,0.8928-1.5838,1.5727-2.2474,1.5729a1.9075,1.9075,0,0,1-1.0921-.638,5.5178,5.5178,0,0,1-2.5976-1.8278q1.3458-2.805,2.0525-4.1658l0.3278-.68q0.729-.9766,2.5624-4.1652a44.5893,44.5893,0,0,0,2.1289-5.3562l2.6444-7.4383a51.66,51.66,0,0,0,2.5422-6.1213l0.155-.2551a0.5276,0.5276,0,0,1,.12-0.17q0.8125-.8069,4.9344-1.6576h0.2549Z"/><path class="cls-2" d="M65.8115,114.0954H66.124q5.1571,0.703,5.8609,1.6412v0.0778a0.5267,0.5267,0,0,0,.1562.3908q-0.7038,1.4069-.7817,1.6412-1.095,3.1264-1.8752,5.0008-0.392.9373-1.0941,2.4229-0.8606,2.97-3.2818,10.0017a0.07,0.07,0,0,1,.0778.0789q0,1.0157-4.5322,12.1121A130.3675,130.3675,0,0,1,56.59,160.7469c0.0511,0.5215.0784,1.043,0.0784,1.5634a38.7529,38.7529,0,0,1-.3908,5.3138q-3.2824,3.751-4.923,3.75-0.3136,0-2.4229-.3124a6.0654,6.0654,0,0,1-1.7969.5471H45.9627a0.3144,0.3144,0,0,1-.0778-0.2346q0-1.3276,2.5785-9.846,1.1725-5.0787,5.7825-19.6142v-0.39a4.4218,4.4218,0,0,1,.2346-1.4066H54.4022q-2.11,1.3293-15.6285,22.74-1.5645,3.751-2.5785,3.75-2.0331.4687-6.1734,1.3287a4.4086,4.4086,0,0,1-2.6569-1.6412l0.0778-.2346q0.3119-.7022,2.6569-5.0792a10.2341,10.2341,0,0,0,.7033-3.9073,16.1955,16.1955,0,0,0-.2341-2.6564,57.0568,57.0568,0,0,0,.9373-9.0655A76.2673,76.2673,0,0,1,31.35,137.46H31.1937a68.4045,68.4045,0,0,0-5.0792,9.5336q-1.4069,3.5959-1.7974,4.4543-3.9854,7.8157-4.6106,9.299l-1.6412,4.5322q-1.3293,2.5018-1.9536,3.9862l-0.7033,1.5622a3.0194,3.0194,0,0,1-2.9694,2.11A42.6243,42.6243,0,0,1,6.7349,174.5c-0.2079,0-.313-0.1557-0.313-0.4681a6.7359,6.7359,0,0,1,.4692-1.8758q1.4852-2.89,3.0472-6.6426L10.72,163.639Q19.2362,143.87,20.1752,141.68l2.032-4.7668q9.0641-19.9261,11.0964-19.9261Q36.5067,115.19,37.68,115.19q5.7033,0,5.7047,2.0315a2.7552,2.7552,0,0,1-.1562.86v0.1568a40.3192,40.3192,0,0,1-1.7974,6.72v0.2346a93.7667,93.7667,0,0,1-1.719,11.9553v0.9385q0,2.3434-.5471,7.58l0.2341,2.891q3.9854-4.8452,16.254-24.381,6.8758-9.7671,8.2832-9.7682A7.7538,7.7538,0,0,1,65.8115,114.0954Z"/><path class="cls-2" d="M95.0116,138.7341H95.56A23.4919,23.4919,0,0,1,99.61,140.862q1.7146,0.2051,1.7158.6855v0.1377l-0.2744.9609-1.2354,2.4023a9.6513,9.6513,0,0,1-.4116,1.2354,15.0111,15.0111,0,0,1-2.3335,2.4014c-0.0923.3672-.1836,0.6865-0.2749,0.9609q-1.51,1.9922-2.1274,2.6768a29.7877,29.7877,0,0,0-1.51,6.1768c0,0.3672.0684,0.5488,0.2061,0.5488q0,0.4131,2.0586,2.7461h0.0688q0.5486,0,4.2549-4.873,3.4314-7.4121,4.8042-8.373A0.88,0.88,0,0,0,104.8944,148a17.9286,17.9286,0,0,0,1.5786-6.04l0.4116-.9609q0.7544-1.7139,3.2256-1.7158H110.66l4.8042,2.2646a0.2864,0.2864,0,0,1,.0684.2061q0,1.2363-2.4707,6.9316a23.0586,23.0586,0,0,1-1.1665,2.54q-0.8928,2.9517-1.51,4.4609l-0.6865,1.6465q-3.1575,7.4136-4.3237,7.4131a2.1116,2.1116,0,0,0-1.3726.96q-0.824,2.4712-1.853,4.8047l-0.2744.1377h-0.2061q-0.7559,0-.7549-2.6084v-0.48a2.0739,2.0739,0,0,0-1.4414-.8232H97.2762a16.6866,16.6866,0,0,0-5.01.9609H92.1293a29.5792,29.5792,0,0,1-4.667-1.8535q-2.9517,0-3.4316-2.333a4.0277,4.0277,0,0,1-.8237-2.334,3.51,3.51,0,0,1,.2744-1.3037l0.2061-.5488q2.3328-4.0488,3.1572-5.9023L87.6678,151.5a15.9525,15.9525,0,0,0,1.167-1.8535l1.3037-3.0879q0.48-1.166,2.2651-6.1084Q94.3929,138.7345,95.0116,138.7341Z"/><path class="cls-2" d="M163.0651,112.7228H163.34a3.2666,3.2666,0,0,1,.8926-0.1372q1.5088,0,1.51,1.853,0,3.7061-5.6963,14.4126L158.1237,132.9l9.54,1.7158q7.8918,0.4819,12.56,2.8145a28.5313,28.5313,0,0,0-4.4609.2061,8.2379,8.2379,0,0,1-1.2354-.1377q-16.06-.5479-18.187-0.5488-1.0986,0-6.6572,16.8145a2.65,2.65,0,0,0-.6865,1.0977l-0.1372.3438a10.5282,10.5282,0,0,0-.3433,2.8135,40.6707,40.6707,0,0,0-4.1177,8.2363q-1.374,2.7451-1.6475,3.1563l-0.1372-.1367h-0.2744l-0.8921.9609a4.3408,4.3408,0,0,1-.2061,1.5781,1.0509,1.0509,0,0,1-.48.2744,7.3042,7.3042,0,0,1-.2744,2.1963l-0.2061.6865a0.7959,0.7959,0,0,1-.686.48q-0.9624,2.6089-2.7456,7.0693-0.1384.3442-.8921,3.1563-1.853,4.667-3.02,7.7559-0.48,1.0972-.5493,1.2354a2.0257,2.0257,0,0,1-.8237-1.7158,4.4767,4.4767,0,0,1,.3433-1.5781,6.5831,6.5831,0,0,0,.2744-2.334q0-.687-0.0684-1.5781l0.6177-1.9219,2.4019-6.6572q0.4124-1.0972,1.3042-4.5986l0.2744-.7549q0.2058-.5479,1.167-2.6768v-1.9209l2.0586-5.6973a53.5535,53.5535,0,0,0,2.1279-8.99q1.2349-3.8423,3.7061-14.8926a11.55,11.55,0,0,0,.4116-2.1963c0-.2285-0.0459-0.3437-0.1372-0.3437q-18.05-.1362-18.8735-0.1367h-0.3433a6.446,6.446,0,0,1-3.4316-2.54q-3.6365-5.0083-3.6372-6.4512a0.5179,0.5179,0,0,1,.6177-0.5488,3.0171,3.0171,0,0,1,.5488.0684l23.335,2.54a3.6333,3.6333,0,0,0,1.7842.5488q1.7842,0,2.814-2.8828,3.2944-7.5483,3.98-7.5493,1.6472-3.6372,2.3335-3.6377a10.0592,10.0592,0,0,1,7.0688-3.2939A0.911,0.911,0,0,1,163.0651,112.7228Z"/><path class="cls-2" d="M169.1564,142.5085l3.02,0.6865a9.8862,9.8862,0,0,0,2.3335-.6865,20.7694,20.7694,0,0,1,5.01,2.6084q2.8828,0,3.0884,1.6475a29.82,29.82,0,0,0-1.7158,2.4707l-0.0684.2051,0.0684,0.6182-0.0684.2061a9.338,9.338,0,0,1-1.0981,1.7842,2.5989,2.5989,0,0,1,.4116,1.5781,9.0735,9.0735,0,0,1-.4116,2.4023,57.5285,57.5285,0,0,1-2.6768,7.8926l-0.48,1.167a5.6548,5.6548,0,0,1-3.7061,1.4414,3.4359,3.4359,0,0,1-1.853-1.3047q-1.7856,0-1.7842-2.0586v-0.5488a1.3309,1.3309,0,0,0-.5493-0.6865q-7,3.1582-9.334,3.1572h-0.2056a21.4766,21.4766,0,0,1-3.6377-.3428,9.4863,9.4863,0,0,1-1.853.3428q-4.3235-2.127-4.3237-4.1182a2.5673,2.5673,0,0,1,.1372-0.8232l0.2744-.6865q3.9126-7.8237,6.8633-10.8437a7.9927,7.9927,0,0,1,3.5-2.9512Q165.724,142.51,169.1564,142.5085Zm4.8073,6.3327s-3.5833-.7083-3.9583,0-3.2058,1.5833-4.04,1.6667-2.8763,1.8333-2.8763,1.8333c-2.75,1.0417-.6667,5.4066-0.6667,6.4583,0,0.7783,4.0576.3184,4.332,0.3184a0.9113,0.9113,0,0,0,.7554.3428h0.3428a0.9256,0.9256,0,0,0,.8926-0.6172,7.0879,7.0879,0,0,0,.4116-2.6084C169.1564,154.8171,174.513,150.9925,173.9637,148.8412Z"/><path class="cls-2" d="M191.9186,135.9479h0.8237a16.2111,16.2111,0,0,1,3.2256,2.4707q1.5776,1.6479,2.4019,1.6475a0.5785,0.5785,0,0,1,.6177.6865,4.6577,4.6577,0,0,1-.48,1.6475q-3.1575,6.04-3.5688,6.0391-1.7161.9624-3.5684,5.2842a16.8468,16.8468,0,0,0-3.4316,5.1475q-1.0986.5508-5.1475,9.8828a2.7991,2.7991,0,0,0-.9609,1.4414c-0.0923.2744-.2295,0.7793-0.4116,1.51a4.4384,4.4384,0,0,1-2.4707,1.4414q-1.2356,0-1.2354-1.8525a13.41,13.41,0,0,1,.48-3.0889q2.8821-9.1963,8.7158-23.8838v-0.0684a48.0537,48.0537,0,0,1,2.1963-6.1768Q191.1635,135.9489,191.9186,135.9479Zm11.52-16.0205a0.2388,0.2388,0,0,0-.0417.1663,5.2566,5.2566,0,0,0,.3743,1.4142q-0.3334,1.2069-2.3709,8.1938a5.8149,5.8149,0,0,1-1.9131.7073,2.5514,2.5514,0,0,0-.7073-0.1249h-0.3326l-2.2878.6238h-0.0832a3.8056,3.8056,0,0,1-.7487-1.2062,4.1641,4.1641,0,0,1-1.123-1.6219,32.6327,32.6327,0,0,1,3.0365-4.1595,18.6476,18.6476,0,0,0,2.4541-2.62A23.2944,23.2944,0,0,1,203.4381,119.9274Z"/><path class="cls-2" d="M216.0057,171.1745h-2.3335c-2.3335,0-1.3774-1.0781-2.293-1.7187-1.3125.5-1.8013-2.0107-1.7563-2.1934q0.7566-1.9907,5.1475-11.1182a1.34,1.34,0,0,0,.48-0.6865,0.5862,0.5862,0,0,0-.4116-0.4111c-0.3657,0-2.0158-2.1294-4.1671.1587-3.6226,2.3535-6.5708,8.2749-6.9375,9.2817-1.0981,1.7383-1.5718,2.4375-2.625,2.4375-0.731.5029-1.6776,1.4063-2.73,1.4063-3.9346-.7783-3.5625.0625-4.875-1a2.3712,2.3712,0,0,1,.375-0.6875,5.9808,5.9808,0,0,1-.25-0.959,28.6619,28.6619,0,0,1,.5-3.3535l3.9375-8.6572,0.625-2.4053c0.6865-1.83.1558-3.3467,0.75-6,0.458-1.0068.7881-2.082,1.0625-2.8125a10.8822,10.8822,0,0,0,.3125-2.9375l1.75-1.25c0.458-1.0068.5625-.125,1.3125-1.25,2.105,1.9219,2.0376,2.5625,2.0376,3.0664v0.0684a4.0282,4.0282,0,0,0-.1372,1.0986c0,1.0059-.9033,2.7109-0.4,4.2666,0.875,3.2139.1625,1.9706-.6886,7.598l-0.3191,1.403c0.7788,0,1.4495-1.4956,3.0505-4.0571a20.3261,20.3261,0,0,1,10.7072-6.8813,12.22,12.22,0,0,1,3.0625-2.3125l2.6875-1.0625c0.5039,0,.9111-0.4648,2.4214-0.7393,1.19,0,.3286.8105,0.3286,1.8643a12.9523,12.9523,0,0,1-.5625,2.3125l-1.1875,3.5c-1.2808,3.751-.5454,4.9277-2.834,10.374l-0.6177,1.9209c-1.189,3.5234-3.0853,4.9456-3.1317,6.9134l-0.6667,2.5C216.8978,170.3613,217.3333,171.1745,216.0057,171.1745Z"/><path class="cls-2" d="M282.2785,113.6838h0.0684a0.5547,0.5547,0,0,1,.5488.686,8.8014,8.8014,0,0,1-.8916,3.02l-0.9609,2.3335q-2.9517,6.4512-3.7754,6.8633h-0.4111a5.3981,5.3981,0,0,0-2.06-.8926q-8.7861,0-13.3145,3.2256l-0.48.6865-0.4111.8926a26.16,26.16,0,0,0-.8242,5.1465q0,1.3052.55,1.3047,2.332,3.0205,3.6367,3.02h0.1377q0.479,0,3.7744-2.5391h0.5488q0.4131,0,.6865,2.2646a15.6154,15.6154,0,0,0,3.2949,1.167,6.06,6.06,0,0,1,.5488,2.6074,12.7048,12.7048,0,0,1-1.2354,5.0107q-3.57,8.44-14.001,14.6865-10.4326,3.4321-14.9619,3.4316h-2.8135l-0.1377-.2061q0.3442-.7544,3.2949-2.5391,3.7061-3.5684,12.834-8.7158a66.6618,66.6618,0,0,0,8.7842-8.0986h0.1377l0.0684-.2061q-0.2754-.6182-2.6768-1.167a14.1755,14.1755,0,0,0-6.1074-4.8037,9.691,9.691,0,0,1-2.4023-5.834,4.5,4.5,0,0,1,.1367-1.0977l0.6865-1.373a47.7857,47.7857,0,0,0,1.7842-7.55q0.7544-1.92,8.9912-7.4121,6.5186-2.47,9.06-2.4707H276.17a4.3975,4.3975,0,0,0,1.3037-.2744,0.47,0.47,0,0,0,.2061.2744A10.7931,10.7931,0,0,0,282.2785,113.6838Z"/><path class="cls-2" d="M286.9738,124.0046h0.1367q3.98,1.7856,4.9414,1.7842h0.2061a8.8249,8.8249,0,0,0,1.6475-.2061,0.7572,0.7572,0,0,1,.2744.48,0.28,0.28,0,0,1-.0684.2061l-0.4121.8242-1.0293,2.1953q0.0674,0.8936,5.3535,2.4717a1.8424,1.8424,0,0,1,1.0293-.48h0.5488q0.4116,0,1.4414,2.6758,1.0972,0.2754,1.0977.7549v0.1377q-0.6167,1.1675-4.5977,3.5h-0.3437l-0.5488-.4111a4.152,4.152,0,0,1-1.373.4111,1.9238,1.9238,0,0,1-1.51-.8916,36.2954,36.2954,0,0,1-5.2842,3.3623,45.2347,45.2347,0,0,0-4.667,5.6963q-3.4321,7.7563-7.2754,15.2363l-0.2051.4121-0.9609,2.6768a21.3759,21.3759,0,0,0-3.0205,5.2842,10.826,10.826,0,0,0-1.0977,2.4023,20.3815,20.3815,0,0,0-.6182,2.4023q-0.8921.8232-5.1465,1.5781a0.9323,0.9323,0,0,1-.6182.4121,9.1284,9.1284,0,0,1,.6865-2.6084l0.0684-.2061q0.7544-1.3711,1.2354-2.4707-1.03,0-1.0293-.7549a2.2085,2.2085,0,0,1,.2744-0.9609l0.0684-.2744q3.2256-7.0679,3.4316-7.6865l1.4414-4.1865q3.501-7.4795,4.5986-10.1572,3.019-7.207,3.02-8.2363c0-.0908-0.0234-0.1367-0.0684-0.1367a3.64,3.64,0,0,0-1.3047-.4121,13.1023,13.1023,0,0,1-1.8525,1.51q-2.9517-2.6074-4.1865-2.6074a1.6794,1.6794,0,0,1-1.0293-1.6475,4.8318,4.8318,0,0,1,.4111-1.7158l0.6865-1.51q2.8828-4.8721,4.53-4.873h0.3428a54.7609,54.7609,0,0,1,6.3828.48Q285.8757,124.0051,286.9738,124.0046Z"/><path class="cls-2" d="M298.08,140.6559a66.1916,66.1916,0,0,1,8.3047,1.99c0.1367,0,.2061.2061,0.2061,0.6172a35.2473,35.2473,0,0,1-1.03,5.9023q-4.1177,11.4624-4.667,11.4619a23.2708,23.2708,0,0,0-2.333,4.0488,8.4885,8.4885,0,0,1-6.6572,2.9512q-1.9922-.2051-1.99-0.9609v-0.2051q1.5088-.48,1.6475-1.03h-0.8926a3.746,3.746,0,0,0-1.0293.1377q-4.875,0-5.834-3.1572a1.8168,1.8168,0,0,1-.8232-1.7158V160.49c-0.0449-.457-0.0693-0.9141-0.0693-1.3721a9.4637,9.4637,0,0,1,.3438-2.54l0.8232-2.6074q1.0972-3.501,1.99-4.1865Q293.4128,140.6564,298.08,140.6559Zm-5.01,11.873-0.48,1.7158a25.8975,25.8975,0,0,0-.1377,2.6084,18.4973,18.4973,0,0,0,.8232,5.833l0.4121,1.3037h0.1377a32.836,32.836,0,0,0,3.2256-7.2744l0.6865-1.99a26.8571,26.8571,0,0,0,.6855-4.5986q0-.8232-0.2744-0.8232a4.3468,4.3468,0,0,0-2.4707-1.0986A9.8887,9.8887,0,0,0,293.0705,152.529Z"/><path class="cls-2" d="M315.5119,137.0182h2.334q3.5,0,4.873.9609-0.7559,2.6763-.8242,2.9512-0.7559,1.9907-5.1475,11.1182a1.3426,1.3426,0,0,0-.48.6865,0.5872,0.5872,0,0,0,.4121.4111q0.5493,0,3.7744-3.4307,6.04-6.3135,6.5889-7.8242,1.6479-2.6074,3.2256-2.6084a4.6112,4.6112,0,0,1,2.6768-.7549q5.9019,1.1675,5.9023,2.6768a0.6161,0.6161,0,0,1-.0684.2744,5.542,5.542,0,0,1,.0684.8926,17.5574,17.5574,0,0,1-.2744,2.8135l-5.0791,10.9121v0.2754a51.5866,51.5866,0,0,0-1.9209,6.7256q-0.687,1.51-1.0986,2.6074a18.1224,18.1224,0,0,0-.5488,3.9814l-0.1377.5488q-0.687,1.51-1.0293,1.51-3.1567-2.8828-3.1572-3.6377V168.04a3.99,3.99,0,0,0,.1377-1.0986,13.0711,13.0711,0,0,0-.7549-3.8428q0.7544-4.2554,3.5684-14.3437l-0.3428-.9609q-1.1675,0-3.5693,3.8428-2.814,3.2271-10.7061,14.8936a8.0615,8.0615,0,0,1-1.99,1.7842h-3.7061a21.3388,21.3388,0,0,0-3.02.4121q-1.7856,0-1.7852-1.5791a5.4439,5.4439,0,0,1,.2754-1.5781l0.4111-1.0986q1.92-5.6265,5.3535-13.7949l0.6172-1.9209a30.085,30.085,0,0,0,1.8535-8.2363l0.48-1.2354A3.3914,3.3914,0,0,1,315.5119,137.0182Z"/><path class="cls-2" d="M357.9953,141.2048h1.166q1.0972,0,3.4316,2.1279,3.98,1.9219,4.3926,7.5488,0.0674,0.9624.0684,1.7158a6.0448,6.0448,0,0,1-.2744,2.1963,4.0754,4.0754,0,0,1-3.7061,2.2646h-0.8916q-0.687,0-2.6084,1.7852l-0.6172.0684a2.136,2.136,0,0,0-1.4414-.6182l-5.4219,1.03a2.87,2.87,0,0,1-1.167-.2754q-2.9517.7573-3.1572,1.2354a0.2822,0.2822,0,0,0-.0684.2061q0,0.9624,4.7354,1.3047a9.2144,9.2144,0,0,0,2.2646.1367q0.7544,0,3.2256-.1367v0.2744l-0.2744.48q-0.2754.687-4.9414,2.1963a28.8888,28.8888,0,0,1-5.6279.7549q-6.8628,0-8.7158-1.3047-3.9126-1.3711-3.9121-1.99v-0.0684a31.5848,31.5848,0,0,1,1.6475-8.5791q3.2944-6.1772,3.9121-6.1768,4.6655-4.1851,7-4.1865Q355.1115,141.2057,357.9953,141.2048ZM349.4162,151.98a2.0087,2.0087,0,0,0-.0684.48c0,0.1826.0449,0.2744,0.1367,0.2744q1.853-.2065,2.1963-0.2061,0.479,0,3.2256.0684,2.06-.0674,2.2646-0.48a11.7509,11.7509,0,0,0,.5488-1.0977,6.8974,6.8974,0,0,0,.6865-2.6084,1.4847,1.4847,0,0,0-.9609-1.5781h-0.8232q-3.2271,0-6.5889,4.1865A2.3342,2.3342,0,0,1,349.4162,151.98Z"/><path class="cls-2" d="M86.0363,140.6774l-0.1465-.3662-0.3569-.168c-2.3286-1.0937-4.3921-2.16-6.1338-3.1719l-0.501-.291-0.502.291c-0.8218.4756-1.27,0.74-1.5259,0.9-2.82.1309-5.89,2.0293-9.3716,5.791a16.4183,16.4183,0,0,0-4.7,6.3174l-0.1577.3193a13.0742,13.0742,0,0,0-1.0625,5.0547,14.2488,14.2488,0,0,0,2.335,7.5527l0.1333,0.2148,0.22,0.125c0.2578,0.1475.4893,0.2852,0.6973,0.415a4.4029,4.4029,0,0,0-.5347.3838l-0.1226.12c-1.09,1.2588-1.8521,2.1055-2.2642,2.5176l-0.1313.1309-0.2407.543a3.5537,3.5537,0,0,0-.3486,1.4893,3.727,3.727,0,0,0,2.2671,3.2275l0.2275,0.1279h0.6465a2.0257,2.0257,0,0,0,.9546-0.2627,1.1528,1.1528,0,0,0,.1167.0059h0.7705a1.208,1.208,0,0,1,.3682.0771l0.2827,0.0947,0.2881-.0752a23.33,23.33,0,0,0,4.1875-1.8779l0.1318-.082c5.7192-4.1729,10.2983-10.2656,13.624-18.1436a43.5828,43.5828,0,0,0,1.59-4.6709,11.55,11.55,0,0,0,.1875-2.0645A12.2017,12.2017,0,0,0,86.0363,140.6774Zm-18.4468,24.5a1.2129,1.2129,0,0,0,1.144-.8877,3.5839,3.5839,0,0,0,.2842-1.44v-1.2139H68.73a22.1242,22.1242,0,0,1,.6187-3.2148c0.8345-5.3877,1.3789-7.3867,1.689-8.1162a9.4846,9.4846,0,0,1,.9819-1.7793c2.7295-3.06,3.6143-3.5664,3.82-3.6494h0.6157a16.29,16.29,0,0,1,2.2871.1162l0.1465-.001a2.6328,2.6328,0,0,1,.293,1.6689c0,0.2-.01.4111-0.03,0.6309-0.6089,2.1914-1.0073,3.7549-1.2153,4.7715-0.1055.2451-.3853,0.8477-1.0859,2.2793a51.2423,51.2423,0,0,1-3.9912,6.8848c-3.7764,4.5537-5.25,4.9072-5.6123,4.9072a1.2588,1.2588,0,0,1-.4507-1.0225l0.0635,0.0664h0.73Z"/><path class="cls-2" d="M125.68,138.0168q2.2461,1.063.9611,3.6556l-0.0773.1274q-2.0569,3.6135-2.54,4.5484l-0.1468.2976q-2.1776,5.1011-2.8759,6.5033-0.44.8928-1.5341,2.891,0.1529,0-.1051.51h0.102a46.6592,46.6592,0,0,0,4.3971-3.91q1.6966-1.7856,3.4514-3.5284,2.0962-2.0815,4.22-4.0381a18.4338,18.4338,0,0,0,4.11-1.7l0.2569-.2551a4.9839,4.9839,0,0,1,3.647-1.19,6.2064,6.2064,0,0,1,2.5986.51q0.7133,1.3182-.5715,3.9107-0.2939.5961-.9468,1.7l-2.8156,6.2912a23.5674,23.5674,0,0,1-1.7459,2.8483l-0.6652,1.5724q-2.1611,3.8688-4.3018,7.3111-0.4829.9356-1.4579,3.0182a4.483,4.483,0,0,1-.8762,1.2753,2.7517,2.7517,0,0,1-.4872.3825h-0.4081a8.12,8.12,0,0,0-2.5648-1.6579q-1.3774,0,.5873-3.8255,2.8957-5.6108,3.594-7.0135a11.361,11.361,0,0,0,.4335-1.19H129.765l-0.6387.1277a97.72,97.72,0,0,0-9.1164,6.4183q-2.4382,2.1679-5.2681,4.4207-0.4628.5105-.8481,0.8928-1.5838,1.5727-2.2474,1.5729a1.9075,1.9075,0,0,1-1.0921-.638,5.5178,5.5178,0,0,1-2.5976-1.8278q1.3458-2.805,2.0525-4.1658l0.3278-.68q0.729-.9766,2.5624-4.1652a44.5893,44.5893,0,0,0,2.1289-5.3562l2.6444-7.4383a51.66,51.66,0,0,0,2.5422-6.1213l0.155-.2551a0.5276,0.5276,0,0,1,.12-0.17q0.8125-.8069,4.9344-1.6576H125.68Z"/><path class="cls-3" d="M363.8741,116.8593a1.0718,1.0718,0,0,0-.0986-0.0786,1.5043,1.5043,0,0,0,.7168-0.397,1.2827,1.2827,0,0,0,.3506-0.91,1.4339,1.4339,0,0,0-.209-0.7573,1.1507,1.1507,0,0,0-.5723-0.4888,2.798,2.798,0,0,0-.9785-0.1318H360.922v4.8413H361.78v-2.0386h0.58a1.7865,1.7865,0,0,1,.3081.0176,0.8147,0.8147,0,0,1,.24.1069,1.2556,1.2556,0,0,1,.2773.2783c0.1113,0.1416.2563,0.3516,0.4312,0.6226l0.6445,1.0132h1.0615L364.4,117.4945A3.3164,3.3164,0,0,0,363.8741,116.8593Zm0.0923-1.3853a0.6146,0.6146,0,0,1-.1021.3438,0.5645,0.5645,0,0,1-.2949.2261,1.85,1.85,0,0,1-.6084.0786H361.78v-1.269h1.3281a0.9952,0.9952,0,0,1,.6641.1787A0.5582,0.5582,0,0,1,363.9664,115.474Z"/><path class="cls-3" d="M362.8214,112.0321a4.5266,4.5266,0,1,0,4.5264,4.5264A4.5316,4.5316,0,0,0,362.8214,112.0321Zm3.7417,4.5264a3.7419,3.7419,0,1,1-3.7417-3.7422A3.7463,3.7463,0,0,1,366.5631,116.5585Z"/></svg>