<svg id="Layer_1" data-name="Layer 1" xmlns="http://www.w3.org/2000/svg" xmlns:xlink="http://www.w3.org/1999/xlink" viewBox="0 0 709.6665 163.6191"><defs><style>.cls-1{fill:none;}.cls-2{fill:#f7941e;}.cls-3{fill:#f15a29;}.cls-4{fill:#ef4136;}.cls-5{clip-path:url(#clip-path);}.cls-6{fill:url(#linear-gradient);}.cls-7{clip-path:url(#clip-path-2);}.cls-8{fill:url(#linear-gradient-2);}.cls-9{fill:#fff;}</style><clipPath id="clip-path"><path class="cls-1" d="M129.4336,108.4131q-6.4673-7.4766-17.4121-9.836c2.021-.9014,3.4253-1.539,4.2065-1.9375a32.6651,32.6651,0,0,0,4.2041-2.9424q8.9121-6.7279,8.9151-20.52a30.4459,30.4459,0,0,0-7.9009-20.5224,21.0423,21.0423,0,0,0-2.7075-2.4844L78.7168,9.8652,55.1348,42.0537H42.0542V159.6318H93.521q24.2284,0,33.9785-10.9307a31.6545,31.6545,0,0,0,8.4107-21.6992Q135.91,115.8955,129.4336,108.4131Z"/></clipPath><linearGradient id="linear-gradient" x1="84.7826" y1="71.3382" x2="112.9125" y2="43.2083" gradientUnits="userSpaceOnUse"><stop offset="0.303" stop-color="#ef4136"/><stop offset="1" stop-color="#f15a29"/></linearGradient><clipPath id="clip-path-2"><path class="cls-1" d="M93.521,159.6318H42.0542L0,117.583,13.3413,38.7851c7.9595,0,89.294,4.2266,95.07,6.1338q8.6506,2.8565,13.0352,7.7354a30.4459,30.4459,0,0,1,7.9009,20.5224q0,13.793-8.9151,20.5205A32.6651,32.6651,0,0,1,116.228,96.64c-0.7812.3985-2.1855,1.0361-4.2065,1.9375q10.9314,2.3555,17.4121,9.836,6.4672,7.494,6.4766,18.5888A31.6545,31.6545,0,0,1,127.5,148.7011Q117.7356,159.6391,93.521,159.6318Z"/></clipPath><linearGradient id="linear-gradient-2" x1="42.5505" y1="160.1335" x2="114.2639" y2="88.4201" gradientUnits="userSpaceOnUse"><stop offset="0.6182" stop-color="#ef4136"/><stop offset="1" stop-color="#f15a29"/></linearGradient></defs><title>bklyn</title><rect class="cls-2" x="42.0542" y="42.0537" width="667.6123" height="117.5781"/><path class="cls-3" d="M93.521,159.6318H42.0542V42.0537h45.748a65.9981,65.9981,0,0,1,20.6089,2.8652q8.6506,2.8565,13.0352,7.7354a30.4459,30.4459,0,0,1,7.9009,20.5224q0,13.793-8.9151,20.5205A32.6651,32.6651,0,0,1,116.228,96.64c-0.7812.3985-2.1855,1.0361-4.2065,1.9375q10.9314,2.3555,17.4121,9.836,6.4672,7.494,6.4766,18.5888A31.6545,31.6545,0,0,1,127.5,148.7011Q117.7356,159.6391,93.521,159.6318ZM68.2832,89.6552H80.7378q10.9307,0,16.24-2.3525Q102.2583,84.95,102.27,77.124q0-7.8163-4.8779-10.3408-4.8816-2.53-16.48-2.5244H68.2832V89.6552Zm0,47.7754H86.2915q11.2647,0,16.9023-2.7763,5.6331-2.7716,5.6319-10.9356,0-8.143-5.9678-10.7627-5.9751-2.6133-19.0972-2.6054H68.2832v27.08Z"/><path class="cls-3" d="M191.584,42.0537h26.24V90.332l44.4121-48.2783h32.4673l-46.771,51.9736q6.063,8.42,22.38,31.376,16.2993,22.9584,24.3906,34.2285H264.084l-34.4795-46.4229-11.7808,13.1192v33.3037h-26.24V42.0537Z"/><path class="cls-3" d="M344.6577,159.6318V42.0537h26.24v94.1982h50.128v23.38H344.6577Z"/><path class="cls-3" d="M514.21,159.6318H487.9712V113.2089L447.2661,42.0537H475.69l25.4,43.73,25.3946-43.73h28.4316L514.21,113.2089v46.4229Z"/><path class="cls-3" d="M683.4263,42.0537h26.24V159.6318h-26.24L627.4048,85.9589v73.6729H601.1763V42.0537h24.5566l57.6934,75.6972V42.0537Z"/><polygon class="cls-3" points="0 117.583 42.054 159.632 99.132 153.5 114.023 135.396 114.023 114.656 103.802 103.268 107.894 90.125 109.355 65.892 86.859 57.134 75.185 47.79 71.682 33.181 57.011 18.586 35.172 11.868 18.829 15.661 15.901 90.718 0 117.583"/><polygon class="cls-3" points="78.717 9.865 121.492 52.941 110.443 74.241 77.31 88.96 52.075 46.236 78.717 9.865"/><polygon class="cls-3" points="149.542 117.583 191.584 159.632 211.414 135.238 206.938 87.912 201.095 66.087 217.824 42.054 175.77 0 168.031 52.684 154.092 110.785 149.542 117.583"/><polygon class="cls-3" points="222.032 117.583 264.084 159.632 267.944 138.608 244.988 98.161 240.338 85.753 294.703 42.054 252.649 0 217.824 16.393 201.095 44.53 212.462 85.753 225.352 104.479 222.032 117.583"/><polygon class="cls-3" points="302.604 117.583 344.658 159.632 421.026 136.252 378.972 94.198 363.651 102.111 360.493 65.298 370.898 42.054 328.844 0 314.744 45.317 321.846 106.85 302.604 117.583"/><polygon class="cls-3" points="445.918 117.583 487.971 159.632 506.945 149.177 504.971 100.843 520.746 82.522 554.917 42.054 512.863 0 475.69 42.054 433.635 0 437.139 29.277 456.862 67.532 459.039 100.843 445.918 117.583"/><polygon class="cls-3" points="559.122 117.583 601.176 159.632 618.956 138.608 618.956 111.578 620.537 70.558 625.733 42.054 583.679 0 578.462 41.896 559.122 117.583"/><polyline class="cls-3" points="641.373 117.583 641.596 117.797 683.426 159.632 698.424 117.583 709.667 42.054 667.613 0 659.969 52.547"/><polygon class="cls-4" points="18.663 19.872 18.663 102.577 74.212 102.577 72.887 64.259 62.538 55.214 74.212 39.203 73.231 17.354 18.663 19.872"/><polygon class="cls-4" points="205.878 51.976 247.932 94.027 294.703 42.054 252.649 0 205.878 51.976"/><polygon class="cls-4" points="302.604 117.583 344.658 159.632 421.026 159.632 378.972 117.583 302.604 117.583"/><polygon class="cls-4" points="445.918 117.583 487.971 159.632 514.21 159.632 472.159 117.583 445.918 117.583"/><polygon class="cls-4" points="512.863 0 472.159 71.153 514.21 113.209 554.917 42.054 512.863 0"/><polygon class="cls-4" points="641.596 117.797 683.426 159.632 709.667 159.632 667.613 117.583 641.596 117.797"/><polygon class="cls-4" points="149.542 117.583 191.584 159.632 217.824 159.632 175.77 117.583 149.542 117.583"/><polyline class="cls-4" points="175.77 84.276 217.824 126.328 223.957 119.502 221.481 102.077 191.584 65.885 175.77 71.057 175.77 83.899"/><polygon class="cls-4" points="221.981 117.583 264.084 159.632 294.703 159.632 252.649 117.583 221.981 117.583"/><polygon class="cls-4" points="559.122 117.583 601.176 159.632 627.405 159.632 585.363 117.583 559.122 117.583"/><g class="cls-5"><polygon class="cls-6" points="69.968 56.521 112.021 98.577 125.083 98.577 134.506 64.802 121.446 52.654 78.717 9.865 69.968 56.521"/></g><polygon class="cls-3" points="86.407 65.298 129.182 108.377 118.142 129.674 85.012 144.399 59.765 101.666 86.407 65.298"/><g class="cls-7"><polygon class="cls-8" points="0 117.583 88.977 67.889 129.434 108.413 138.424 112.58 144.68 129.596 138.673 149.112 120.416 163.619 88.977 159.632 42.054 159.632 0 117.583"/></g><path class="cls-9" d="M149.5415,0H175.77V48.28L220.1836,0h32.4653l-46.771,51.9765q6.0673,8.4215,22.38,31.376,16.3168,22.96,24.3906,34.23H222.0317l-34.4809-46.43L175.77,84.2763V117.583h-26.228V0Z"/><path class="cls-9" d="M302.604,117.583V0h26.24V94.1982h50.128V117.583H302.604Z"/><path class="cls-9" d="M472.1587,117.583H445.9175v-46.43L405.2134,0h28.4219l25.4033,43.74L484.44,0h28.4229L472.1587,71.1533v46.43Z"/><path class="cls-9" d="M641.3726,0h26.24V117.583h-26.24l-56.01-73.6758V117.583H559.1216V0h24.5576l57.6934,75.7041V0Z"/><path class="cls-9" d="M51.4668,117.583H0V0H45.7515A66.0823,66.0823,0,0,1,66.36,2.8642c5.7608,1.9043,10.1158,4.4864,13.0284,7.7383A30.4348,30.4348,0,0,1,87.293,31.124q0,13.7945-8.9117,20.5166a31.6391,31.6391,0,0,1-4.1982,2.9443q-1.1822.5933-4.2153,1.9365,10.9446,2.3615,17.4116,9.8458,6.4672,7.481,6.4775,18.58a31.6653,31.6653,0,0,1-8.4106,21.7061Q75.6831,117.5855,51.4668,117.583Zm-25.23-69.9785H38.687q10.9263,0,16.2368-2.3536,5.2977-2.3555,5.292-10.18,0-7.8165-4.8808-10.3418-4.878-2.5241-16.4776-2.5254H26.2363v25.4Zm0,47.7714h18.003q11.2581,0,16.9033-2.7753c3.7636-1.8506,5.6289-5.4874,5.6289-10.9327q0-8.1517-5.9673-10.7685-5.9634-2.6044-19.0982-2.6065h-15.47v27.083Z"/></svg>