<svg id="Layer_1" data-name="Layer 1" xmlns="http://www.w3.org/2000/svg" xmlns:xlink="http://www.w3.org/1999/xlink" viewBox="0 0 347.9978 245.1663"><defs><style>.cls-1{fill:#1c75bc;opacity:0.25;}.cls-2{fill:url(#New_Gradient_Swatch_copy);}.cls-3{fill:url(#New_Gradient_Swatch);}.cls-4{fill:url(#New_Gradient_Swatch-2);}.cls-5{fill:url(#New_Gradient_Swatch_copy-2);}.cls-6{fill:#2b3990;}</style><linearGradient id="New_Gradient_Swatch_copy" x1="100.471" y1="120.1011" x2="166.6874" y2="120.1011" gradientUnits="userSpaceOnUse"><stop offset="0" stop-color="#1c75bc"/><stop offset="1" stop-color="#2b3990"/></linearGradient><linearGradient id="New_Gradient_Swatch" x1="100.471" y1="130.1225" x2="211.3472" y2="130.1225" gradientUnits="userSpaceOnUse"><stop offset="0" stop-color="#27aae1"/><stop offset="1" stop-color="#1c75bc"/></linearGradient><linearGradient id="New_Gradient_Swatch-2" x1="30.3143" y1="143.4245" x2="111.9558" y2="143.4245" xlink:href="#New_Gradient_Swatch"/><linearGradient id="New_Gradient_Swatch_copy-2" x1="44.2574" y1="100.8588" x2="111.9558" y2="100.8588" xlink:href="#New_Gradient_Swatch_copy"/></defs><title>dbeacom</title><path class="cls-1" d="M89.17,238.26L60.14,187.792l-52.6-41.044,60.7262-27.7525L81.1419,9.9876,140.3969,86.031l73.1851,47.5358L142.049,173.8674,89.17,238.26m-0.573,6.9059,3.6178-4.4055,52.411-63.8229L215.5158,137l5.6679-3.1932-5.4556-3.5436-72.63-47.1753L84.25,7.5659,78.3543,0,77.2292,9.5255,64.6135,116.333,5.9024,143.1644,0,145.8618l5.1163,3.9923,51.9928,40.57,28.6455,49.8006,2.8424,4.9415h0Z"/><polyline class="cls-2" points="100.471 59.834 166.687 51.663 115.677 188.54 100.471 59.834"/><polygon class="cls-3" points="100.471 59.834 115.677 188.54 211.347 200.411 100.471 59.834"/><polygon class="cls-4" points="65.644 80.173 30.314 206.677 111.956 157.043 65.644 80.173"/><polygon class="cls-5" points="44.257 44.674 52.399 127.598 111.956 157.043 44.257 44.674"/><path class="cls-6" d="M193.2676,75.5378h7.192c5.25,0,8.7141,3.4644,8.7141,8.8188,0,5.2759-3.36,9.2659-8.898,9.2659h-7.0081V75.5378Zm3.9107,14.935h2.94c3.4644,0,5.0127-2.5987,5.0127-6.1162,0-2.9658-1.4436-5.6691-4.9865-5.6691h-2.9665V90.4728Z"/><path class="cls-6" d="M214.0079,93.6224V89.003h4.0162v4.6195h-4.0162Z"/><path class="cls-6" d="M224.0887,75.5378h7.9007c4.3832,0,6.0369,2.257,6.0369,4.6195a4.0756,4.0756,0,0,1-2.31,3.9107,4.3422,4.3422,0,0,1,2.8349,4.147c0,3.0973-2.4409,5.4075-6.2732,5.4075h-8.1893V75.5378Zm7.4544,7.1389c1.8638,0,2.6249-.84,2.6249-2.1254,0-1.3128-.9973-1.9954-2.4933-1.9954h-3.7537v4.1208h3.6222Zm-3.6222,7.9269h3.5437c2.1262,0,3.07-.8919,3.07-2.5194,0-1.47-.9442-2.3886-3.0966-2.3886h-3.5175v4.908Z"/><path class="cls-6" d="M256.6928,85.8271H248.031V90.42h9.5544l-0.4725,3.202h-12.888V75.5378H257.06V78.74H248.031v3.8584h8.6618v3.2289Z"/><path class="cls-6" d="M267.0367,89.4493l-1.3913,4.1731H261.787l6.1424-18.0846h4.908l6.4309,18.0846h-4.1208l-1.496-4.1731h-6.6148Zm5.7745-3.2028c-1.2859-3.8322-2.1-6.2732-2.5456-7.9007h-0.0269c-0.4456,1.7853-1.3382,4.62-2.3617,7.9007h4.9342Z"/><path class="cls-6" d="M299.3,88.0318c-0.7087,3.3859-3.2551,5.853-7.7961,5.853-5.7476,0-8.4517-4.0685-8.4517-9.2128,0-4.9611,2.8088-9.3967,8.6356-9.3967,4.83,0,7.1658,2.808,7.6122,5.853h-3.9107a3.58,3.58,0,0,0-3.8322-2.8088c-3.2289,0-4.4625,2.9134-4.4625,6.2208,0,3.045,1.0766,6.2732,4.5671,6.2732a3.5758,3.5758,0,0,0,3.7014-2.7818H299.3Z"/><path class="cls-6" d="M321.9286,84.5143c0,5.04-3.0181,9.3705-8.898,9.3705-5.6953,0-8.6618-4.1208-8.6618-9.3182,0-5.25,3.2813-9.2913,8.898-9.2913C318.5688,75.2754,321.9286,78.976,321.9286,84.5143Zm-13.5175-.0262c0,3.5437,1.5491,6.2208,4.7511,6.2208,3.4906,0,4.7249-2.9134,4.7249-6.1424,0-3.4382-1.4175-6.1154-4.7772-6.1154C309.8285,78.4512,308.4111,80.9706,308.4111,84.4882Z"/><path class="cls-6" d="M343.1413,86.8244c0-3.0712.0523-6.5364,0.1316-8.5833h-0.1316c-0.84,3.7007-2.651,9.7114-4.3832,15.3813h-3.3336c-1.339-4.9611-3.202-11.8115-3.99-15.4336h-0.1308c0.1578,2.1262.2362,5.853,0.2362,8.95v6.4833h-3.57V75.5378h5.8269c1.4175,4.7241,2.9927,10.6564,3.5437,13.3336h0.0262c0.4463-2.3624,2.4148-8.7141,3.9377-13.3336h5.6168V93.6224h-3.78v-6.798Z"/><path class="cls-6" d="M255.4307,113.8917l-4.7772,6.4571,4.8819,4.7772h-4.83l-2.1524-2.0739a6.839,6.839,0,0,1-5.46,2.3363c-4.0685,0-5.8792-2.5725-5.8792-5.04,0-1.9423.84-3.36,3.596-4.9873a5.559,5.559,0,0,1-1.8115-3.7791c0-2.73,2.0215-4.8034,5.1451-4.8034,3.2282,0,5.04,2.0993,5.04,4.4094,0,1.7322-.9188,3.045-3.36,4.4355l2.6249,2.5725,3.15-4.3047h3.8322ZM246.3226,120.9l-3.7276-3.596a3.0893,3.0893,0,0,0-1.5221,2.5987,2.2567,2.2567,0,0,0,2.4409,2.3363A3.4414,3.4414,0,0,0,246.3226,120.9Zm-3.8846-9.5806c0,0.9188.551,1.5752,1.5745,2.5725,1.5221-.9973,1.8638-1.8107,1.8638-2.651a1.7006,1.7006,0,0,0-1.706-1.89A1.7524,1.7524,0,0,0,242.438,111.3192Z"/><path class="cls-6" d="M272.9959,119.824c0.42,1.8107,1.706,2.6249,3.8061,2.6249s2.9919-.84,2.9919-2.1524c0-1.496-.8657-2.1262-3.9631-2.8349-4.935-1.1551-6.1424-2.9658-6.1424-5.4067,0-3.15,2.3624-5.2759,6.641-5.2759,4.8034,0,6.72,2.5718,6.9819,5.2228h-3.9369c-0.21-1.1281-.8142-2.3355-3.15-2.3355-1.6006,0-2.5456.6556-2.5456,1.9423,0,1.26.7611,1.7845,3.7007,2.4409,5.25,1.26,6.4048,3.202,6.4048,5.7745,0,3.2813-2.4933,5.5644-7.27,5.5644-4.5933,0-7.035-2.257-7.4544-5.5644h3.9369Z"/><path class="cls-6" d="M306.2033,116.0179c0,5.04-3.0181,9.3705-8.898,9.3705-5.6953,0-8.6618-4.1208-8.6618-9.3182,0-5.25,3.2813-9.2913,8.898-9.2913C302.8435,106.779,306.2033,110.48,306.2033,116.0179Zm-13.5175-.0262c0,3.5437,1.5491,6.2208,4.7511,6.2208,3.4906,0,4.7249-2.9134,4.7249-6.1424,0-3.4382-1.4175-6.1154-4.7772-6.1154C294.1033,109.9549,292.6858,112.4743,292.6858,115.9918Z"/><path class="cls-6" d="M312.2441,125.1261V107.0414H317.1c2.2578,4.0416,6.4309,11.3913,7.2713,13.36h0.0523c-0.21-1.89-.21-5.04-0.21-8.0054v-5.3544h3.5437v18.0846h-4.5941c-1.9423-3.5437-6.5618-11.943-7.4806-14.0431H315.63c0.1316,1.5752.1839,5.3028,0.1839,8.531v5.5121h-3.57Z"/><path class="cls-6" d="M337.21,119.824c0.42,1.8107,1.706,2.6249,3.8061,2.6249s2.9919-.84,2.9919-2.1524c0-1.496-.8657-2.1262-3.9631-2.8349-4.935-1.1551-6.1424-2.9658-6.1424-5.4067,0-3.15,2.3624-5.2759,6.641-5.2759,4.8034,0,6.72,2.5718,6.9819,5.2228h-3.9369c-0.21-1.1281-.8142-2.3355-3.15-2.3355-1.6006,0-2.5456.6556-2.5456,1.9423,0,1.26.7611,1.7845,3.7007,2.4409,5.25,1.26,6.4048,3.202,6.4048,5.7745,0,3.2813-2.4933,5.5644-7.27,5.5644-4.5933,0-7.035-2.257-7.4544-5.5644H337.21Z"/></svg>