<svg id="Layer_1" data-name="Layer 1" xmlns="http://www.w3.org/2000/svg" viewBox="0 0 126.1844 91.3687"><defs><style>.cls-1{fill:#ae4325;}.cls-2{fill:#231f20;}.cls-3{fill:#bb6340;}</style></defs><title>fss</title><polygon class="cls-1" points="95.317 87.986 30.211 0.801 29.612 0 28.811 0.598 26.957 1.983 26.156 2.581 26.754 3.383 91.86 90.568 92.458 91.369 93.259 90.77 95.114 89.386 95.915 88.787 95.317 87.986"/><path class="cls-2" d="M4.5889,33.7084V37.502h6.7419v3.5891H4.5889V46.782H0.59V30.1194H13.1508v3.5891H4.5889Z"/><path class="cls-2" d="M31.7943,30.1194v8.1779c0,5.357-3.7425,8.921-8.4587,8.921-4.7423,0-8.4847-3.564-8.4847-8.921V30.1194h4.0754v8.1779a4.5515,4.5515,0,0,0,4.4094,4.7934,4.5467,4.5467,0,0,0,4.3833-4.7934V30.1194h4.0754Z"/><path class="cls-2" d="M49.5478,43.6542a8.7926,8.7926,0,1,1,0-10.4071l-3.0245,1.9485a5.7812,5.7812,0,0,0-4.05-1.6917,4.9343,4.9343,0,0,0,0,9.8686,5.6858,5.6858,0,0,0,4.05-1.6656Z"/><path class="cls-2" d="M57.2633,40.348l-1.6917,1.7429V46.782H51.5724V30.1194h3.9992V36.81l6.87-6.6907h5.0752L60.0321,37.4l7.92,9.3823H62.2874Z"/><path class="cls-2" d="M68.3868,41.63h4.3321c0,0.025.18,2.2814,3.1278,2.2814,1.5895,0,3.0245-.9487,3.0245-1.9735,0-2.128-3.8708-2.2814-4.9729-2.512-1.9485-.3851-5.2547-1.2565-5.2547-4.4094,0-2.9483,3.1528-5.358,6.9976-5.358,4.6911,0,6.9986,2.3847,6.9986,4.6139H78.5121c0-.4091-0.6919-1.2816-2.871-1.2816-1.4611,0-2.6654.8975-2.6654,2.0257,0,1.3588,2.5882,1.3588,3.5118,1.5122,2.3325,0.4362,6.7158,1,6.7158,5.4092,0,2.871-3.3835,5.2808-7.3566,5.2808C70.7454,47.2183,68.3868,43.8849,68.3868,41.63Z"/><path class="cls-2" d="M100.6532,30.1194V46.782H96.654V40.6809H89.3746V46.782H85.3754V30.1194h3.9992v6.9725H96.654V30.1194h3.9992Z"/><path class="cls-2" d="M107.2051,30.1194V46.782h-3.9982V30.1194h3.9982Z"/><path class="cls-2" d="M126.1844,33.7084h-6.3317V46.782h-3.9992V33.7084h-6.3317V30.1194h16.6627v3.5891Z"/><path class="cls-2" d="M0,61.0767H4.3321c0,0.0261.18,2.2814,3.1278,2.2814,1.5895,0,3.0245-.9487,3.0245-1.9735,0-2.128-3.8708-2.2814-4.9729-2.512C3.563,58.4874.2567,57.616,0.2567,54.4632c0-2.9483,3.1528-5.358,6.9976-5.358,4.6911,0,6.9986,2.3847,6.9986,4.615H10.1253c0-.4112-0.6919-1.2826-2.871-1.2826-1.4611,0-2.6654.8975-2.6654,2.0257,0,1.3588,2.5893,1.3588,3.5118,1.5122,2.3325,0.4362,6.7158,1,6.7158,5.4092,0,2.871-3.3835,5.2808-7.3566,5.2808C2.3586,66.6653,0,63.332,0,61.0767Z"/><path class="cls-2" d="M32.995,53.1555H26.6633V66.2291H22.6641V53.1555H16.3324V49.5664H32.995v3.5891Z"/><path class="cls-2" d="M44.8194,63.9477H36.7448l-1.1282,2.2814H31.105l8.28-16.6627H42.41L50.382,66.2291H45.9476ZM43.256,60.6916l-2.487-5.357-2.3576,5.357H43.256Z"/><path class="cls-2" d="M66.3966,63.1013a8.7926,8.7926,0,1,1,0-10.4071l-3.0245,1.9485a5.7812,5.7812,0,0,0-4.05-1.6917,4.9343,4.9343,0,0,0,0,9.8686,5.6876,5.6876,0,0,0,4.05-1.6656Z"/><path class="cls-2" d="M74.0777,59.7951L72.386,61.538v4.6911H68.3868V49.5664H72.386v6.6907l6.87-6.6907h5.0752l-7.4849,7.28,7.92,9.3823H79.1018Z"/><polygon class="cls-3" points="106.121 13.46 104.737 11.606 104.138 10.805 103.337 11.403 16.152 76.509 15.351 77.107 15.949 77.908 17.334 79.763 17.932 80.564 18.734 79.966 105.918 14.86 106.72 14.261 106.121 13.46"/></svg>