<svg id="Layer_1" data-name="Layer 1" xmlns="http://www.w3.org/2000/svg" xmlns:xlink="http://www.w3.org/1999/xlink" viewBox="0 0 673.519 755.8849"><defs><style>.cls-1,.cls-4{fill:none;}.cls-2{fill:#e6e7e8;}.cls-3{fill:#414042;}.cls-4,.cls-7,.cls-8{stroke:#231f20;stroke-miterlimit:10;stroke-width:24px;}.cls-5,.cls-7{fill:#231f20;}.cls-6{clip-path:url(#clip-path);}.cls-7{opacity:0.25;}.cls-8{fill:#fff;}</style><clipPath id="clip-path"><polygon class="cls-1" points="649.519 582.979 24 531.755 24 172.906 649.519 224.13 649.519 582.979"/></clipPath></defs><title>hhas</title><polygon class="cls-2" points="12 542.813 12 159.883 661.519 213.072 661.519 596.001 12 542.813"/><path class="cls-3" d="M24,172.9063L649.519,224.13V582.9786L24,531.7553V172.9063M0,146.8606V553.87l22.0413,1.8049L647.56,606.8985l25.9587,2.1259v-407.01L651.4778,200.21,25.9589,148.9865,0,146.8606H0Z"/><path class="cls-4" d="M249.9664,265.4485v131s6.992,18.992,33.992,18.992"/><path class="cls-4" d="M249.9664,265.4485v131s-6.992,18.992-33.992,18.992"/><path class="cls-4" d="M249.9664,415.44v-131s-6.992-18.992-33.992-18.992"/><path class="cls-4" d="M249.9664,415.44v-131s6.992-18.992,33.992-18.992"/><path class="cls-4" d="M307.7715,340.4445v131s6.992,18.992,33.992,18.992"/><path class="cls-4" d="M307.7715,340.4445v131s-6.992,18.992-33.992,18.992"/><path class="cls-4" d="M307.7715,490.4365v-131s-6.992-18.992-33.992-18.992"/><path class="cls-4" d="M307.7715,490.4365v-131s6.992-18.992,33.992-18.992"/><path class="cls-4" d="M365.7475,265.4485v131s6.992,18.992,33.992,18.992"/><path class="cls-4" d="M365.7475,265.4485v131s-6.992,18.992-33.992,18.992"/><path class="cls-4" d="M365.7475,415.44v-131s-6.992-18.992-33.992-18.992"/><path class="cls-4" d="M365.7475,415.44v-131s6.992-18.992,33.992-18.992"/><path class="cls-4" d="M423.5525,340.4445v131s6.992,18.992,33.992,18.992"/><path class="cls-4" d="M423.5525,340.4445v131s-6.992,18.992-33.992,18.992"/><path class="cls-4" d="M423.5525,490.4365v-131s-6.992-18.992-33.992-18.992"/><path class="cls-4" d="M423.5525,490.4365v-131s6.992-18.992,33.992-18.992"/><path class="cls-5" d="M159.79,394.2611H138.0549l-3.0361,6.1411H122.8752l22.2871-44.85h8.1416l21.459,44.85H162.8264Zm-4.209-8.7632-6.6934-14.4209L142.54,385.4979h13.041Z"/><path class="cls-5" d="M510.7619,386.533H522.423c0,0.0693.4824,6.1411,8.418,6.1411,4.2773,0,8.1416-2.5532,8.1416-5.313,0-5.7271-10.4189-6.1411-13.3857-6.7622-5.2441-1.0347-14.1455-3.3809-14.1455-11.8677,0-7.9351,8.4873-14.4214,18.8369-14.4214,12.6279,0,18.8379,6.417,18.8379,12.42H538.0168c0-1.1045-1.8633-3.45-7.7285-3.45-3.9326,0-7.1758,2.415-7.1758,5.4512,0,3.6567,6.97,3.6567,9.4531,4.0708,6.2793,1.1729,18.0781,2.6909,18.0781,14.5591,0,7.728-9.1084,14.2139-19.8027,14.2139C517.11,401.575,510.7619,392.6053,510.7619,386.533Z"/><g class="cls-6"><circle class="cls-7" cx="346.7675" cy="407.9665" r="260.987"/></g><circle class="cls-8" cx="336.7595" cy="377.9425" r="260.987"/><path class="cls-3" d="M283.9582,427.4405v-24c-14.105,0-19.9849-6.6494-21.9917-9.835V287.2828c2.0068-3.1846,7.8867-9.8345,21.9917-9.8345v-24c-16.2,0-27.0084,5.5282-33.9918,11.57-6.9835-6.0418-17.7919-11.57-33.9921-11.57v24c14.105,0,19.9854,6.65,21.9922,9.835V393.6056c-2.0068,3.1846-7.8872,9.835-21.9922,9.835v24c16.2,0,27.0084-5.5281,33.9919-11.57C256.95,421.9124,267.7578,427.4405,283.9582,427.4405Z"/><path class="cls-3" d="M319.7717,468.6017V362.2789c2.0068-3.1846,7.8867-9.8345,21.9917-9.8345v-24c-16.2,0-27.0084,5.5282-33.9918,11.57-6.9835-6.0418-17.7919-11.57-33.9921-11.57v24c14.105,0,19.9854,6.65,21.9922,9.835V468.6017c-2.0068,3.1846-7.8872,9.835-21.9922,9.835v24c16.2,0,27.0084-5.5281,33.9919-11.57,6.9834,6.0418,17.7916,11.57,33.9919,11.57v-24C327.6584,478.4366,321.7785,471.7872,319.7717,468.6017Z"/><path class="cls-3" d="M353.7478,287.2833V393.6056c-2.0068,3.1846-7.8867,9.835-21.9922,9.835v24c16.2,0,27.0088-5.5282,33.9922-11.57,6.9834,6.0419,17.7917,11.57,33.9922,11.57v-24c-14.1055,0-19.9854-6.65-21.9922-9.835V287.2833c2.0068-3.1851,7.8867-9.835,21.9922-9.835v-24c-16.2,0-27.0088,5.5283-33.9922,11.57-6.9834-6.0418-17.7917-11.57-33.9922-11.57v24C345.861,277.4483,351.7409,284.0982,353.7478,287.2833Z"/><path class="cls-3" d="M389.56,328.4444v24c14.1055,0,19.9854,6.65,21.9922,9.835V468.6017c-2.0068,3.1846-7.8867,9.835-21.9922,9.835v24c16.2,0,27.0088-5.5282,33.9922-11.57,6.9834,6.0419,17.7917,11.57,33.9922,11.57v-24c-14.1055,0-19.9854-6.65-21.9922-9.835V362.2794c2.0068-3.1851,7.8867-9.835,21.9922-9.835v-24c-16.2,0-27.0088,5.5283-33.9922,11.57C416.569,333.9727,405.7607,328.4444,389.56,328.4444Z"/><path class="cls-3" d="M529.7907,184.9117a272.9871,272.9871,0,1,0,79.9561,193.0308A271.2012,271.2012,0,0,0,529.7907,184.9117ZM336.7595,626.93c-137.292,0-248.9868-111.6953-248.9868-248.9873S199.4675,128.9557,336.7595,128.9557,585.7468,240.65,585.7468,377.9425,474.0515,626.93,336.7595,626.93Z"/><path class="cls-3" d="M34.3472,705.7812l-1.5482-5.1581-15.4825-1.2593L15.7682,704.27,0.9953,703.0684l15.87-41.7375,16.3855,1.3327L49.12,706.9827ZM25.0577,674.77L20.8,688.2933l8.5156,0.6926Z"/><path class="cls-3" d="M81.1142,691.91V666.5567l13.2247,1.0756V692.533c0,4.1287,2.71,7.6395,8.0638,8.075,5.29,0.43,8-2.64,8-6.7685V668.9389l13.2242,1.0756v25.2875c0,10.71-6.7091,17.9689-21.2237,16.7884S81.1142,702.5538,81.1142,691.91Z"/><path class="cls-3" d="M172.0714,716.9832V685.3087l-11.5473-.9392V673.0156l36.0609,2.9331v11.3538l-11.4825-.9339v31.6745Z"/><path class="cls-3" d="M229.87,700.2028c0-13.2252,10.2568-21.4221,23.5463-20.3412s23.5463,10.9464,23.5463,24.1715-10.2573,21.4211-23.5463,20.34S229.87,713.427,229.87,700.2028Zm33.868,2.7547c0-6-4.0643-11.1045-10.3216-11.6134s-10.3216,3.9344-10.3216,9.9344,4.0638,11.1034,10.3216,11.6124S263.738,708.9565,263.738,702.9575Z"/><path class="cls-3" d="M310.5684,722.1837l6.7734-9.1255a21.8738,21.8738,0,0,0,13.87,6.6759c2.4513,0.1994,4.7729-.257,4.7729-1.9334,0-1.3548-2.58-2.0169-6.0629-2.88-7.0965-1.8677-17.9342-4.5552-17.9342-15.9743,0-7.2895,6.0643-13.7631,17.8694-12.8029a30.6558,30.6558,0,0,1,18.2563,7.4839l-6.9679,8.6584A23.4926,23.4926,0,0,0,328.5022,697c-2.58-.21-3.29.5706-3.29,1.6681,0,1.3538,2.71,2.0908,6.3221,3.0941,7.0955,1.9319,17.6111,4.8515,17.6111,15.4315,0,9.4825-7.0322,14.3939-18.579,13.4547C321.4062,729.9034,315.1488,726.6849,310.5684,722.1837Z"/><path class="cls-3" d="M383.3325,712.6849c0-13.2252,10.2573-21.4221,23.5468-20.3411s23.5458,10.9463,23.5458,24.1715-10.2573,21.4211-23.5458,20.34S383.3325,725.9091,383.3325,712.6849ZM417.201,715.44c0-6-4.0643-11.1045-10.3216-11.6134s-10.3216,3.9344-10.3216,9.9344,4.0643,11.1035,10.3216,11.6124S417.201,721.4387,417.201,715.44Z"/><path class="cls-3" d="M467.3218,723.3223V697.9695l13.2252,1.0757v24.9006c0,4.1287,2.7086,7.6394,8.0634,8.075,5.2895,0.43,7.999-2.64,7.999-6.7685V700.3516l13.2252,1.0757v25.2875c0,10.71-6.71,17.9689-21.2242,16.7883S467.3218,733.9666,467.3218,723.3223Z"/><path class="cls-3" d="M577.9544,749.9962L562.085,726.9014v21.8041l-13.0312-1.06V704.6173l13.4181,1.0914,14.9669,21.6024V706.926l13.0312,1.06v43.0283Z"/><path class="cls-3" d="M629.6883,754.2041V711.1758l19.2242,1.5636c13.5468,1.1018,23.6111,9.6612,23.6111,23.4019S662.4593,756.87,648.9768,755.773Zm29.61-19.1384c0-5.806-3.3548-10.4005-10.3216-10.9672L642.72,723.59V743.91l6.193,0.5037C655.4281,744.9439,659.2985,740.4848,659.2985,735.0657Z"/><path class="cls-3" d="M639.1718,50.1038l1.5482,5.1581,15.4825,1.2593,1.5482-4.9062,14.7729,1.2016-15.87,41.7375-16.3855-1.3327L624.3988,48.9022Zm9.2895,31.011,4.2578-13.5231-8.5156-.6926Z"/><path class="cls-3" d="M592.4047,63.9754V89.3282L579.18,88.2526V63.352c0-4.1287-2.71-7.64-8.0638-8.075-5.29-.43-8,2.64-8,6.7685V86.946L549.8925,85.87V60.5829c0-10.71,6.7091-17.9689,21.2237-16.7884S592.4047,53.3311,592.4047,63.9754Z"/><path class="cls-3" d="M501.4476,38.9018V70.5763l11.5473,0.9392V82.8693l-36.0609-2.9331V68.5824l11.4825,0.9339V37.8419Z"/><path class="cls-3" d="M443.6489,55.6821c0,13.2252-10.2568,21.4221-23.5463,20.3412S396.5562,65.077,396.5562,51.8518s10.2573-21.4211,23.5463-20.34S443.6489,42.458,443.6489,55.6821Zm-33.868-2.7547c0,6,4.0643,11.1045,10.3216,11.6134s10.3216-3.9344,10.3216-9.9344S426.36,43.503,420.1025,42.9941,409.7809,46.9284,409.7809,52.9274Z"/><path class="cls-3" d="M362.9505,33.7013l-6.7734,9.1255a21.8738,21.8738,0,0,0-13.87-6.6759c-2.4513-.1994-4.7729.257-4.7729,1.9334,0,1.3548,2.58,2.0169,6.0629,2.88,7.0965,1.8677,17.9342,4.5552,17.9342,15.9743,0,7.2895-6.0643,13.7631-17.8694,12.8029a30.6558,30.6558,0,0,1-18.2563-7.4839l6.9679-8.6584a23.4926,23.4926,0,0,0,12.6433,5.2857c2.58,0.21,3.29-.5706,3.29-1.6681,0-1.3538-2.71-2.0908-6.3221-3.0941-7.0955-1.9319-17.6111-4.8515-17.6111-15.4315,0-9.4825,7.0322-14.3939,18.579-13.4547C352.1128,25.9816,358.37,29.2,362.9505,33.7013Z"/><path class="cls-3" d="M290.1864,43.2c0,13.2252-10.2573,21.4221-23.5468,20.3411S243.0938,52.5949,243.0938,39.37s10.2573-21.4211,23.5458-20.34S290.1864,29.9759,290.1864,43.2Zm-33.8685-2.7547c0,6,4.0643,11.1045,10.3216,11.6134s10.3216-3.9344,10.3216-9.9344S272.8969,31.0209,266.64,30.5119,256.3179,34.4463,256.3179,40.4453Z"/><path class="cls-3" d="M206.1971,32.5626V57.9155L192.9719,56.84V31.9392c0-4.1287-2.7086-7.6394-8.0634-8.075-5.2895-.43-7.999,2.64-7.999,6.7685V55.5333l-13.2252-1.0757V29.17c0-10.71,6.71-17.9689,21.2242-16.7883S206.1971,21.9183,206.1971,32.5626Z"/><path class="cls-3" d="M95.5645,5.8887l15.8694,23.0949V7.1795l13.0312,1.06V51.2677L111.047,50.1763,96.08,28.5739v20.385l-13.0312-1.06V4.8707Z"/><path class="cls-3" d="M43.8306,1.6808V44.7091L24.6064,43.1455C11.06,42.0437.9953,33.4843,0.9953,19.7436S11.06-.9846,24.5421.112ZM14.22,20.8193c0,5.806,3.3548,10.4005,10.3216,10.9672l6.2573,0.5089V11.9747l-6.193-.5037C18.0908,10.9411,14.22,15.4,14.22,20.8193Z"/><polygon class="cls-3" points="283.958 277.448 283.958 253.448 215.974 253.448 215.974 277.448 237.967 277.448 237.967 403.441 215.974 403.441 215.974 427.441 283.958 427.441 283.958 403.441 261.967 403.441 261.967 277.448 283.958 277.448"/><polygon class="cls-3" points="341.763 352.444 341.763 328.444 273.779 328.444 273.779 352.444 295.772 352.444 295.772 478.437 273.779 478.437 273.779 502.437 341.763 502.437 341.763 478.437 319.772 478.437 319.772 352.444 341.763 352.444"/><polygon class="cls-3" points="399.739 277.793 399.739 253.793 331.755 253.793 331.755 277.793 353.748 277.793 353.748 403.786 331.755 403.786 331.755 427.786 399.739 427.786 399.739 403.786 377.748 403.786 377.748 277.793 399.739 277.793"/><polygon class="cls-3" points="457.544 352.789 457.544 328.789 389.561 328.789 389.561 352.789 411.553 352.789 411.553 478.782 389.561 478.782 389.561 502.782 457.544 502.782 457.544 478.782 435.553 478.782 435.553 352.789 457.544 352.789"/></svg>