<svg id="Layer_1" data-name="Layer 1" xmlns="http://www.w3.org/2000/svg" viewBox="0 0 274.3543 127.0061"><defs><style>.cls-1{fill:#e6e7e8;}.cls-2{fill:#231f20;}</style></defs><title>never</title><path class="cls-1" d="M94.8948,10.5464V63.503a54.03,54.03,0,0,1-42.1742,52.74,54.03,54.03,0,0,1-42.1742-52.74V10.5464H94.8948M105.4411,0H0V63.503a64.6138,64.6138,0,0,0,52.7206,63.503,64.6138,64.6138,0,0,0,52.7206-63.503V0h0Z"/><path class="cls-2" d="M121.5954,72.9676A24.199,24.199,0,0,1,104.42,79.8861q-9.8551,0-16.29-6.0742-6.4367-6.0736-6.4359-16.29t6.5567-16.25a22.1116,22.1116,0,0,1,15.4856-6.0333,22.3947,22.3947,0,0,1,15.1642,5.39q6.2329,5.3909,6.2346,14.8024v6.4353H93.6a8.5994,8.5994,0,0,0,3.7,5.7918A11.8346,11.8346,0,0,0,104.38,69.91a13.8824,13.8824,0,0,0,10.4581-4.2638ZM110.0112,47.3051a9.1374,9.1374,0,0,0-6.0736-2.0916,10.8759,10.8759,0,0,0-6.5567,2.1716,8.309,8.309,0,0,0-3.4592,5.8729h18.9857A8.5729,8.5729,0,0,0,110.0112,47.3051Z"/><path class="cls-2" d="M144.8448,79.242L127.71,35.8814H140.259l10.78,27.2717,10.78-27.2717h12.55L157.2335,79.242H144.8448Z"/><path class="cls-2" d="M217.8091,72.9676a24.199,24.199,0,0,1-17.1753,6.9184q-9.8551,0-16.29-6.0742-6.4367-6.0736-6.4359-16.29t6.5567-16.25A22.1116,22.1116,0,0,1,199.95,35.2379a22.3947,22.3947,0,0,1,15.1642,5.39q6.2329,5.3909,6.2346,14.8024v6.4353H189.8139a8.5994,8.5994,0,0,0,3.7,5.7918,11.8346,11.8346,0,0,0,7.0794,2.2532,13.8824,13.8824,0,0,0,10.4581-4.2638ZM206.2249,47.3051a9.1374,9.1374,0,0,0-6.0736-2.0916,10.8759,10.8759,0,0,0-6.5567,2.1716,8.309,8.309,0,0,0-3.4592,5.8729h18.9857A8.5729,8.5729,0,0,0,206.2249,47.3051Z"/><path class="cls-2" d="M252.8031,46.5811q-5.3909,0-8.045,3.821t-2.6546,10.0958V79.242H230.0368v-43.28h12.0667v5.7119a20.2768,20.2768,0,0,1,5.8326-4.5053,15.8628,15.8628,0,0,1,7.1191-1.9306l0.0805,11.3432h-2.3326Z"/><polygon class="cls-2" points="63.525 35.895 62.492 35.895 62.492 59.031 31.793 33.712 31.793 43.119 31.793 44.211 31.793 53.884 31.793 79.242 31.793 79.246 41.916 79.246 41.916 79.242 42.95 79.242 42.95 56.11 73.649 81.429 73.649 71.534 73.649 70.931 73.649 61.253 73.649 35.895 63.525 35.895"/><path class="cls-2" d="M270.5248,41.0544a1.652,1.652,0,0,1-1.0671,1.7413l1.42,2.0061h-1.5405l-1.2437-1.7893h-0.8669v1.7893h-1.2516V39.1926h2.1263a3.0493,3.0493,0,0,1,1.8657.4415A1.7022,1.7022,0,0,1,270.5248,41.0544Zm-1.5085.6661a0.8478,0.8478,0,0,0,.2328-0.6622,0.7089,0.7089,0,0,0-.241-0.6217,1.54,1.54,0,0,0-.8424-0.1685h-0.9391v1.661h0.9149A1.3465,1.3465,0,0,0,269.0163,41.7205Z"/><path class="cls-2" d="M268.0792,48.38a6.2752,6.2752,0,1,1,6.2751-6.2754A6.2827,6.2827,0,0,1,268.0792,48.38Zm0-11.213a4.9378,4.9378,0,1,0,4.9376,4.9376A4.9434,4.9434,0,0,0,268.0792,37.1669Z"/></svg>