<svg id="Layer_1" data-name="Layer 1" xmlns="http://www.w3.org/2000/svg" viewBox="0 0 585.6129 454.6036"><defs><style>.cls-1{fill:#be1e2d;}.cls-2{fill:#a7a9ac;}.cls-3{fill:#58595b;}</style></defs><title>nevermind</title><path class="cls-1" d="M577.0154,180.5723c-9.998-12.27-29.6015-13.666-39.2578.2149a22.55,22.55,0,0,0-3.709,8.7978,26.0792,26.0792,0,0,0,.8438,10.3154c1.8564,6.8692,7.3906,11.8809,13.7011,14.7168,7.6036,3.4141,17.2676,1.4737,22.5567-5.2539,3.83-4.872,3.9746-11.917,1.9609-17.5556a18.8714,18.8714,0,0,0-3.5722-5.7188,16.5611,16.5611,0,0,0-11.6543-5.3252,14.1534,14.1534,0,0,0-7.0166,1.7227c-2.4141,1.33-3.7764,3.5634-5.1953,5.834l2.2871-2.0655c3.3642-2.9941,7.8095-3.1943,11.7627-1.15,6.6835,3.4551,7.7382,13.251,1.455,17.7071a13.93,13.93,0,0,1-20.2636-4.2481,16.45,16.45,0,0,1,.664-17.6894c3.9121-5.6436,11.4395-6.94,17.8457-6.3174,8.1465,0.791,14.3789,5.875,18.0323,13.0088a35.7656,35.7656,0,0,1,2.6591,23.4394,37.5387,37.5387,0,0,1-3.86,9.1533,39.9878,39.9878,0,0,1-5.2481,7.7559,44.8715,44.8715,0,0,1-16.9873,11.6553,40.4479,40.4479,0,0,1-8.8359,2.0771c0.4961-2.6357,1.0449-5.4443.2148-8.0683a8.3462,8.3462,0,0,0-2.0586-3.5313c-0.832-.7881-2.663-1.7285-3.8662-1.4629a4.9227,4.9227,0,0,0-2.0576,1.2061c-1.2461,1.1914-2.2744,2.5947-3.6348,3.6689a23.6789,23.6789,0,0,1-4.5449,2.7373c-9.1035,4.2979-19.9941,4.7119-29.8134,3.51a180.055,180.055,0,0,1-18.587-3.3555c-10.039-2.3213-19.2841-6.1748-28.3925-10.4541-0.3614,1.31-.7832,2.6-1.2559,3.8731,0.874,0.3994,1.7451.8066,2.6211,1.2021,15.3037,6.9,31.16,13.15,47.8242,15.7754A138.51,138.51,0,0,0,524.82,248.75a100.8017,100.8017,0,0,0,14.6738-1.1728c8.6719-1.3965,17.72-3.9971,25.3653-8.4,8.09-4.6592,14.57-13.2021,18.081-21.8C588.115,204.709,585.5818,191.0831,577.0154,180.5723Z"/><path class="cls-1" d="M111.6068,230.3692a8.6118,8.6118,0,0,1-5.7954-2.0586,6.6955,6.6955,0,0,1-2.3574-5.3887,7.35,7.35,0,0,1,7.5645-7.5645,7.7406,7.7406,0,0,1,5.04,1.7705,5.5037,5.5037,0,0,1,2.1123,4.499,9.0229,9.0229,0,0,1-.1929,2.0059,6.4767,6.4767,0,0,1-.5454,1.502,5.0275,5.0275,0,0,1-.9106,1.23,2.0908,2.0908,0,0,0-.7646,1.3833,0.9561,0.9561,0,0,0,1.0889.97,2.5724,2.5724,0,0,0,1.4775-.6294,9.9891,9.9891,0,0,0,1.9048-2.2031,24.3014,24.3014,0,0,0,2.165-3.937c0.69-1.5386,1.5649-3.6553,2.6-6.291,1.0356-2.6377,2.2256-5.8408,3.5381-9.5205,1.3125-3.6855,2.3833-6.7783,3.1816-9.1938,0.8164-2.47,1.2915-3.9834,1.4521-4.6265a7.0327,7.0327,0,0,0,.251-1.6523,2.4332,2.4332,0,0,0-1.8105-2.4448,12.8215,12.8215,0,0,0-3.207-.4692h18.4985l8.77,31.9121,0.5522-1.3823q0.5867-1.4692,2.0874-5.0854,1.5015-3.6233,2.8271-6.9214t2.7988-7.1294c0.9941-2.5869,1.605-4.2744,1.8672-5.1587a8.499,8.499,0,0,0,.4028-2.32,3.2467,3.2467,0,0,0-1.9116-3.1924,11.0775,11.0775,0,0,0-3.7422-.7227H175.02l-2.2363.1787a5.9488,5.9488,0,0,0-3.7681,1.8633,21.721,21.721,0,0,0-3.3354,6.1265c-1.272,3.09-3.1338,7.6958-5.5347,13.69q-3.68,9.1816-5.3857,13.42-1.6106,3.9961-2.6436,6.6323h-7.3394L134.263,190.2789l-0.5269,1.582q-1.7651,5.2954-3.4722,10.2676c-1.1309,3.2939-1.9316,5.5884-2.3809,6.8188q-0.676,1.8516-2.6162,6.9087a78.9566,78.9566,0,0,1-3.126,7.3364,24.3517,24.3517,0,0,1-3.4033,4.7837C117.3319,229.5645,114.933,230.3692,111.6068,230.3692Z"/><path class="cls-1" d="M170.1625,188.251a6.495,6.495,0,0,0-1.511,1.1994,13.7271,13.7271,0,0,0-2.0244,3.1531,6.3863,6.3863,0,0,0,.0744-0.9374,3.7145,3.7145,0,0,0-1.7646-3.4151h5.2255m-23.6472,0L154.79,218.36l0.5316,1.9344q-0.5794,1.4423-1.0246,2.548c-0.978,2.4268-1.8244,4.5485-2.5209,6.32h-6.614l-9.9851-37.4011-0.86-3.2222-0.4716,1.4148a2.7654,2.7654,0,0,0-1.0921-1.7027h13.7629m-35.4969,27.6065a7.1576,7.1576,0,0,1,4.7219,1.6567,5.0306,5.0306,0,0,1,1.93,4.1128,8.5221,8.5221,0,0,1-.18,1.8912,5.9646,5.9646,0,0,1-.5016,1.3846,4.5351,4.5351,0,0,1-.8208,1.1085,2.5082,2.5082,0,0,0-.9115,1.7373,1.4027,1.4027,0,0,0,.95,1.3709,12.2638,12.2638,0,0,1-4.6.75,8.021,8.021,0,0,1-5.47-1.938,6.221,6.221,0,0,1-2.1832-5.0092,6.85,6.85,0,0,1,7.0645-7.0644m64.7485-28.6065H158.4613v0.9419a14.9985,14.9985,0,0,1,5.6216.7359,2.7344,2.7344,0,0,1,1.6187,2.7373,7.9656,7.9656,0,0,1-.3824,2.1777q-0.3837,1.2957-1.8545,5.1211-1.4713,3.827-2.7959,7.1225t-2.8252,6.9165q-1.5014,3.62-2.09,5.0914l-8.4761-30.8443H125.91v0.9419a20.1232,20.1232,0,0,1,5.5332.5,1.94,1.94,0,0,1,1.4717,1.9717,6.629,6.629,0,0,1-.2358,1.5307q-0.2357.942-1.4419,4.5914t-3.1782,9.1826q-1.9732,5.5333-3.5323,9.5058t-2.59,6.269a23.7651,23.7651,0,0,1-2.1186,3.8554,9.6578,9.6578,0,0,1-1.7955,2.0894,2.1435,2.1435,0,0,1-1.1772.53,0.475,0.475,0,0,1-.5889-0.4707,1.6878,1.6878,0,0,1,.6182-1.03,5.505,5.505,0,0,0,1.001-1.354,6.9342,6.9342,0,0,0,.5884-1.6187,9.4581,9.4581,0,0,0,.206-2.1191,6.0268,6.0268,0,0,0-2.2954-4.8857,8.1934,8.1934,0,0,0-5.3564-1.8838,7.8491,7.8491,0,0,0-8.0645,8.0644,7.23,7.23,0,0,0,2.5313,5.7676,9.06,9.06,0,0,0,6.1215,2.18q5.2384,0,7.5054-2.5615a24.717,24.717,0,0,0,3.4727-4.8853,78.98,78.98,0,0,0,3.1489-7.3872q1.9431-5.0625,2.6191-6.9165t2.3843-6.8281q1.7065-4.9738,3.4731-10.2715l10.1832,38.1431h8.0639q1.06-2.707,2.7666-6.9458t5.3863-13.4209q3.6774-9.1825,5.5327-13.6856a21.5521,21.5521,0,0,1,3.2372-5.9746,5.4254,5.4254,0,0,1,3.4438-1.707l2.9429-.2354V187.251h0Z"/><path class="cls-1" d="M178.8275,230.2657a13.6562,13.6562,0,0,1-7.8687-2.5322,8.2067,8.2067,0,0,1-3.5806-7.2749c0-4.543,2.0981-8.7676,6.2363-12.5576a21.1923,21.1923,0,0,1,14.731-5.7285c0.082,0,.1636,0,0.2446.002a4.1514,4.1514,0,0,0-2.8906,1.5674,23.6128,23.6128,0,0,0-2.8306,4.0132c-0.9834,1.6841-1.83,3.2422-2.5176,4.6318-0.69,1.3916-1.2607,2.6782-1.6968,3.8237l-0.292.7676,0.1011-.0117a22.2533,22.2533,0,0,0-.6582,2.957,19.496,19.496,0,0,0-.3022,3.05c0,2.3184.3267,3.9292,1,4.9238a3.5159,3.5159,0,0,0,3.0967,1.5732,8.8529,8.8529,0,0,0,2.5615-.3447,12.6956,12.6956,0,0,0,2.5815-1.19q0.074-.0432.1479-0.0879-0.1069.0769-.2144,0.1523A13.3919,13.3919,0,0,1,178.8275,230.2657Zm1.9585-13.7051a12.7329,12.7329,0,0,0,6.2-4.4575c2.3-2.833,3.4663-5.394,3.4663-7.6123a3.5262,3.5262,0,0,0-.2881-1.5728,1.4327,1.4327,0,0,0-1.2964-.7373,10.4506,10.4506,0,0,1,5.8511,1.7529c1.6055,1.147,2.3857,2.41,2.3857,3.86,0,2.9077-1.6777,5.0386-5.1284,6.5156A31.5392,31.5392,0,0,1,180.786,216.5606Z"/><path class="cls-1" d="M185.9577,202.7951a7.4045,7.4045,0,0,0-.6258.6078,24.1031,24.1031,0,0,0-2.8949,4.1c-0.99,1.6954-1.8422,3.264-2.5333,4.6616-0.6975,1.407-1.275,2.7086-1.7164,3.8683l-0.5842,1.5353,0.1768-.02c-0.1675.6533-.3243,1.4214-0.4681,2.2943a19.7281,19.7281,0,0,0-.3086,3.1317c0,2.4214.3549,4.1237,1.0848,5.2036a3.9206,3.9206,0,0,0,1.9731,1.5443q-0.6042.0441-1.2338,0.0441a13.1694,13.1694,0,0,1-7.5845-2.4435,7.739,7.739,0,0,1-3.3646-6.8638c0-4.3967,2.0435-8.4976,6.0739-12.1887a20.6165,20.6165,0,0,1,12.0056-5.4747m4.7282,0.0642a8.9337,8.9337,0,0,1,3.7419,1.4813,4.2907,4.2907,0,0,1,2.1765,3.4534c0,2.6856-1.5782,4.6664-4.8253,6.0558a28.4729,28.4729,0,0,1-8.2235,2.0139,15.2569,15.2569,0,0,0,3.8183-3.4458c2.4077-2.9652,3.5781-5.5582,3.5781-7.9271a4.27,4.27,0,0,0-.266-1.6315m-2.34-1.1869a21.5848,21.5848,0,0,0-15.0688,5.86q-6.3986,5.86-6.3985,12.9261a8.745,8.745,0,0,0,3.7964,7.6866,14.0869,14.0869,0,0,0,8.1528,2.6206,13.8157,13.8157,0,0,0,8.1358-2.3565,24.1974,24.1974,0,0,0,5.8369-5.834l-0.8252-.5893a17.918,17.918,0,0,1-2.5059,3.11,14.61,14.61,0,0,1-2.9775,2.4068,12.1782,12.1782,0,0,1-2.4761,1.1445,8.3158,8.3158,0,0,1-2.416.3232,3.0307,3.0307,0,0,1-2.6826-1.353,8.69,8.69,0,0,1-.9136-4.644,18.9469,18.9469,0,0,1,.2953-2.9693,21.5286,21.5286,0,0,1,.649-2.91,33.5582,33.5582,0,0,0,13.2251-2.3257q5.4309-2.3239,5.4316-6.9751a5.2536,5.2536,0,0,0-2.5952-4.2671,11.1908,11.1908,0,0,0-6.6636-1.8545h0Zm-9.2236,14.7158q0.6466-1.6992,1.6777-3.78,1.029-2.0808,2.501-4.6015a23.0308,23.0308,0,0,1,2.7671-3.9268,3.6237,3.6237,0,0,1,2.59-1.4067,1.07,1.07,0,0,1,1.0591.4687,3.0892,3.0892,0,0,1,.2353,1.3488q0,3.1639-3.3544,7.2968-3.356,4.1316-7.4756,4.6006h0Z"/><path class="cls-1" d="M207.8456,230.251a11.4839,11.4839,0,0,1-6.4917-1.8,5.7088,5.7088,0,0,1-2.6025-5.1172,8.0624,8.0624,0,0,1,.5269-2.8828c0.3672-.9673.9751-2.33,1.8071-4.0513,0.8364-1.731,2.0015-3.9819,3.4629-6.6909,2.0093-3.7231,2.2671-4.7407,2.2671-5.2109a1.5259,1.5259,0,0,0-.3809-1.1177,1.44,1.44,0,0,0-1.0605-.3833,2.6912,2.6912,0,0,0-1.1875.3232,8.991,8.991,0,0,1,4.66-1.1479c2.0635,0,3.5444.5591,4.4023,1.6616a6.9371,6.9371,0,0,1,1.3369,4.3721,9.5645,9.5645,0,0,1-.44,3.1846c-0.3086.8467-.9165,2.2178-1.8062,4.0747-1.084,1.9341-2.1475,3.9727-3.1475,6.0313a12.4338,12.4338,0,0,0-1.5518,4.9575,3.5035,3.5035,0,0,0,.6426,2.2588,2.7911,2.7911,0,0,0,2.271.83c2.7969,0,5.8091-1.6348,8.9521-4.8594q0.9448-.969,1.7021-1.8994C217.4818,227.7388,212.9862,230.251,207.8456,230.251Zm15.2085-10.1626a8.5334,8.5334,0,0,0,1.1846-4.0532c0-1.5176-1.0972-3.0552-3.3545-4.7007-1.98-1.4443-2.9434-3.0449-2.9434-4.894a4.0156,4.0156,0,0,1,1.2588-3.0532,4.0957,4.0957,0,0,1,2.95-1.2148,4.19,4.19,0,0,1,3.5767,1.4531,6.7223,6.7223,0,0,1,1.1621,4.1685A23.3418,23.3418,0,0,1,223.054,220.0884Z"/><path class="cls-1" d="M222.1493,202.6724a3.73,3.73,0,0,1,3.18,1.2574,6.2467,6.2467,0,0,1,1.0587,3.8641,20.7689,20.7689,0,0,1-1.66,7.9594c-0.1226-1.5928-1.2869-3.1737-3.549-4.8231-1.8424-1.3432-2.738-2.8118-2.738-4.49a3.5394,3.5394,0,0,1,1.1046-2.6921,3.6177,3.6177,0,0,1,2.6039-1.0759m-13.3027,0c1.9278,0,3.2387.48,4.0078,1.4687a6.368,6.368,0,0,1,1.2314,4.065,9.0753,9.0753,0,0,1-.41,3.0133c-0.3014.8276-.8981,2.1738-1.7737,4.0016-1.0975,1.9623-2.16,4-3.16,6.0568a12.8611,12.8611,0,0,0-1.6021,5.1762,3.9777,3.9777,0,0,0,.7561,2.5759,2.4789,2.4789,0,0,0,.9177.6912q-0.4792.03-.9681,0.03a10.9941,10.9941,0,0,1-6.2142-1.7158,5.2411,5.2411,0,0,1-2.38-4.7012,7.5691,7.5691,0,0,1,.4944-2.7061c0.3619-.953.9641-2.3024,1.79-4.0106,0.8337-1.7249,1.9954-3.9693,3.4528-6.6707,2.045-3.7895,2.327-4.8582,2.327-5.4485a2.0041,2.0041,0,0,0-.529-1.473,1.66,1.66,0,0,0-.1425-0.1265,10.1622,10.1622,0,0,1,2.2028-.2262m13.3027-1a4.6134,4.6134,0,0,0-3.2959,1.354,4.5292,4.5292,0,0,0-1.4126,3.4141q0,3.0014,3.1489,5.2979t3.149,4.2969q0,3.59-4.5909,8.2993t-8.5942,4.7085a2.3221,2.3221,0,0,1-1.8838-.6465,3.02,3.02,0,0,1-.53-1.9424,12.1246,12.1246,0,0,1,1.5015-4.7392q1.5007-3.0894,3.1484-6.0332,1.3543-2.8257,1.8252-4.12a9.9868,9.9868,0,0,0,.4707-3.3555,7.39,7.39,0,0,0-1.4423-4.6792q-1.4431-1.8545-4.7969-1.8545a8.87,8.87,0,0,0-6.7988,2.7373,40.9066,40.9066,0,0,0-5.209,7.2695l0.8242,0.3531a31.66,31.66,0,0,1,3.3843-5.2388,15.8514,15.8514,0,0,1,2.56-2.5308,3.29,3.29,0,0,1,1.7661-.7656,0.96,0.96,0,0,1,.7061.2359,1.0545,1.0545,0,0,1,.2353.7651q0,0.8834-2.207,4.9736-2.2075,4.0919-3.4731,6.71t-1.8243,4.0908a8.5228,8.5228,0,0,0-.56,3.061,6.2264,6.2264,0,0,0,2.8253,5.5332,11.9182,11.9182,0,0,0,6.769,1.8838q8.0046,0,13.7739-7.6821t5.7686-15.2749a7.17,7.17,0,0,0-1.2656-4.4732,4.6937,4.6937,0,0,0-3.9732-1.6484h0Z"/><path class="cls-1" d="M239.8675,230.2657a13.6562,13.6562,0,0,1-7.8687-2.5322,8.2067,8.2067,0,0,1-3.5806-7.2749c0-4.543,2.0981-8.7676,6.2363-12.5576a21.1923,21.1923,0,0,1,14.731-5.7285c0.082,0,.1636,0,0.2446.002a4.1523,4.1523,0,0,0-2.8906,1.5674,23.579,23.579,0,0,0-2.8306,4.0132c-0.9824,1.6821-1.83,3.2407-2.5181,4.6318-0.69,1.3931-1.2607,2.68-1.6963,3.8237l-0.292.7676,0.1011-.0117a22.2533,22.2533,0,0,0-.6582,2.957,19.496,19.496,0,0,0-.3022,3.05c0,2.3184.3267,3.9292,1,4.9238a3.5148,3.5148,0,0,0,3.0967,1.5732,8.8529,8.8529,0,0,0,2.5615-.3447,12.6956,12.6956,0,0,0,2.5815-1.19q0.074-.0432.1479-0.0879-0.1069.0769-.2144,0.1523A13.3919,13.3919,0,0,1,239.8675,230.2657Zm1.9585-13.7051a12.7329,12.7329,0,0,0,6.2-4.4575c2.3-2.833,3.4663-5.394,3.4663-7.6123a3.5262,3.5262,0,0,0-.2881-1.5728,1.4327,1.4327,0,0,0-1.2964-.7373,10.4506,10.4506,0,0,1,5.8511,1.7529c1.6055,1.147,2.3862,2.41,2.3862,3.86,0,2.9072-1.6777,5.0386-5.1289,6.5156A31.5392,31.5392,0,0,1,241.826,216.5606Z"/><path class="cls-1" d="M246.9976,202.7951a7.4,7.4,0,0,0-.6263.6079,24.1052,24.1052,0,0,0-2.8942,4.1c-0.9884,1.6931-1.841,3.2616-2.5339,4.6617-0.6971,1.4069-1.2744,2.7084-1.7158,3.868l-0.5845,1.5354,0.177-.02c-0.1676.6537-.3243,1.4219-0.468,2.2943a19.7281,19.7281,0,0,0-.3086,3.1317c0,2.4215.3549,4.1238,1.0845,5.2033a3.9178,3.9178,0,0,0,1.9731,1.5446q-0.6039.0441-1.2334,0.0441a13.17,13.17,0,0,1-7.5847-2.4435,7.7391,7.7391,0,0,1-3.3645-6.8638c0-4.3967,2.0435-8.4976,6.0737-12.1887a20.6161,20.6161,0,0,1,12.0055-5.4747m4.7284,0.0642a8.9332,8.9332,0,0,1,3.742,1.4813,4.29,4.29,0,0,1,2.1769,3.4533c0,2.6855-1.5784,4.6663-4.8258,6.0558a28.4734,28.4734,0,0,1-8.2235,2.0139,15.2577,15.2577,0,0,0,3.8183-3.4457c2.4078-2.9653,3.5782-5.5583,3.5782-7.9271a4.2681,4.2681,0,0,0-.2661-1.6315m-2.34-1.187a21.5852,21.5852,0,0,0-15.0688,5.86q-6.3984,5.86-6.3984,12.9261a8.7452,8.7452,0,0,0,3.7963,7.6866,14.087,14.087,0,0,0,8.1529,2.6206,13.8164,13.8164,0,0,0,8.1357-2.3565,24.1961,24.1961,0,0,0,5.8369-5.834l-0.8252-.5893a17.9041,17.9041,0,0,1-2.5063,3.11,14.6053,14.6053,0,0,1-2.9771,2.4068,12.1734,12.1734,0,0,1-2.476,1.1445,8.316,8.316,0,0,1-2.4161.3232,3.03,3.03,0,0,1-2.6826-1.353,8.69,8.69,0,0,1-.9135-4.644,18.9469,18.9469,0,0,1,.2953-2.9693,21.5309,21.5309,0,0,1,.6489-2.91,33.5582,33.5582,0,0,0,13.2251-2.3257q5.4309-2.3239,5.4321-6.9751a5.2532,5.2532,0,0,0-2.5957-4.2671,11.1912,11.1912,0,0,0-6.6636-1.8545h0Zm-9.2236,14.7158q0.6468-1.6992,1.6773-3.78t2.5014-4.6015a23.0319,23.0319,0,0,1,2.7666-3.9268,3.6255,3.6255,0,0,1,2.59-1.4067,1.07,1.07,0,0,1,1.059.4687,3.0872,3.0872,0,0,1,.2354,1.3488q0,3.1639-3.3545,7.2968t-7.4756,4.6006h0Z"/><path class="cls-1" d="M257.0643,229.6622L266.869,208a8.9841,8.9841,0,0,0,.5537-1.4463,5.6528,5.6528,0,0,0,.2559-1.585,1.7379,1.7379,0,0,0-.2769-1.0654,1.1634,1.1634,0,0,0-.9883-0.4351,2.6514,2.6514,0,0,0-1.4.47,9.1967,9.1967,0,0,1,5.4619-1.7656,4.5086,4.5086,0,0,1,3.8149,1.5742,7.19,7.19,0,0,1,1.2778,4.5186,9.2587,9.2587,0,0,1-.28,2.2339,14.5551,14.5551,0,0,1-.5093,1.7021l-0.1953.4922,0.9009,0.2993-8.0308,16.6694H257.0643Zm29.01-16.8345a5.37,5.37,0,0,1-3.3726-1.1025,3.5254,3.5254,0,0,1-1.3667-2.9893,3.3349,3.3349,0,0,1,.4355-1.6948q0.498-.8811,1.085-1.8774l0.0688-.1172V204.91a0.9837,0.9837,0,0,0-1.0889-1.03,1.6085,1.6085,0,0,0-.8828.2988,6.7281,6.7281,0,0,1,5.18-2.0068,4.518,4.518,0,0,1,3.7612,1.522,5.2442,5.2442,0,0,1,1.271,3.3931,5.9569,5.9569,0,0,1-1.4648,4.0869A4.5675,4.5675,0,0,1,286.0741,212.8277Z"/><path class="cls-1" d="M286.1327,202.6724a4.0511,4.0511,0,0,1,3.3721,1.3362,4.7616,4.7616,0,0,1,1.16,3.0787,5.4763,5.4763,0,0,1-1.342,3.7584,4.0909,4.0909,0,0,1-3.2487,1.4819,4.8186,4.8186,0,0,1-3.0676-.9987,3.0557,3.0557,0,0,1-1.1716-2.5931,2.8522,2.8522,0,0,1,.3713-1.45q0.495-.8756,1.08-1.8684l0.1381-.2347V204.91a1.44,1.44,0,0,0-.8552-1.3852,6.9464,6.9464,0,0,1,3.5637-.8526m-15.6577,0a4.0432,4.0432,0,0,1,3.4213,1.3829,6.7114,6.7114,0,0,1,1.1714,4.21,8.7523,8.7523,0,0,1-.2644,2.111,14.2628,14.2628,0,0,1-.4891,1.6405l-0.3907.9839,0.8633,0.2871-7.6476,15.8745h-9.3l9.4676-20.92a9.5354,9.5354,0,0,0,.595-1.5478,6.1455,6.1455,0,0,0,.2764-1.726,2.205,2.205,0,0,0-.3779-1.3668,1.5293,1.5293,0,0,0-.4232-0.3817,8.6671,8.6671,0,0,1,3.0975-.5479m15.6577-1a7.1646,7.1646,0,0,0-5.9155,2.59,44.7151,44.7151,0,0,0-4.7974,8.1817l-0.1762-.0586a15.088,15.088,0,0,0,.53-1.7661,9.7142,9.7142,0,0,0,.2945-2.3545,7.6323,7.6323,0,0,0-1.3843-4.8267,5.0152,5.0152,0,0,0-4.2085-1.7661,9.681,9.681,0,0,0-6.063,2.09q-2.7079,2.09-6.4155,9.212l0.7651,0.2944q0.7639-1.4707,2.0605-3.5317,1.2935-2.06,2.1479-3.149a11.5229,11.5229,0,0,1,1.7949-1.8545,2.7953,2.7953,0,0,1,1.6485-.7651,0.69,0.69,0,0,1,.5884.2354,1.291,1.291,0,0,1,.1767.7651,5.1288,5.1288,0,0,1-.2353,1.4424,8.5062,8.5062,0,0,1-.53,1.3828l-10.1241,22.3682h11.4781l8.5356-17.7178a45.4078,45.4078,0,0,1,3.1489-5.7979q1.5007-2.2654,2.3833-2.2661a0.496,0.496,0,0,1,.5889.53q-0.589,1.0012-1.0884,1.8833a3.8567,3.8567,0,0,0-.5009,1.9424,4.03,4.03,0,0,0,1.56,3.3847,5.8333,5.8333,0,0,0,3.6787,1.2071,5.0848,5.0848,0,0,0,4.0029-1.8252,6.4924,6.4924,0,0,0,1.5879-4.4151,5.7741,5.7741,0,0,0-1.3828-3.708,5.0267,5.0267,0,0,0-4.1494-1.707h0Z"/><path class="cls-1" d="M333.34,230.2657a5.0588,5.0588,0,0,1-4.23-1.7549,6.6561,6.6561,0,0,1-1.45-4.2793,10.2061,10.2061,0,0,1,.4453-3.1973,27.4816,27.4816,0,0,1,1.2441-3.0337c0.5215-1.1021,1.6377-3.3359,3.3184-6.64,2.3184-4.5557,2.5859-5.99,2.5859-6.6719a1.8346,1.8346,0,0,0-.3936-1.2754,1.5709,1.5709,0,0,0-1.2246-.4609,2.94,2.94,0,0,0-1.6787.67,8.74,8.74,0,0,1,5.3271-1.4648,6.3764,6.3764,0,0,1,4.4326,1.5776c1.1416,1.0347,1.72,2.6929,1.72,4.9272a8.9214,8.9214,0,0,1-.583,3.3442c-0.4033,1.0015-1.0518,2.4375-1.9287,4.2686-0.8721,1.8232-1.9863,4.0127-3.4053,6.6924-1.9033,3.5923-2.1475,4.5913-2.1475,5.0605a1.7682,1.7682,0,0,0,.3457,1.1377,1.28,1.28,0,0,0,1.0371.48,3.3637,3.3637,0,0,0,.5811-0.0518A11.05,11.05,0,0,1,333.34,230.2657Zm-25.95-.6035q0.63-1.4,2.3613-5.2666,2.3833-5.3225,4.709-10.47,2.3218-5.1453,2.6182-5.7935c0.2012-.4434.4092-0.9775,0.6348-1.6333a5.6721,5.6721,0,0,0,.3516-1.81,1.9953,1.9953,0,0,0-.377-1.2866,1.4541,1.4541,0,0,0-1.1826-.5083,2.06,2.06,0,0,0-.2666.0176,7.6661,7.6661,0,0,1,3.3281-.7539,7.0368,7.0368,0,0,1,4.708,1.562,5.045,5.045,0,0,1,1.7959,4.0728,8.3712,8.3712,0,0,1-.2754,2.2251c-0.3037.7915-.5225,1.3887-0.6406,1.7456l0.79,0.3418c-0.8789,1.8252-2.0078,4.2231-3.36,7.14q-2.2368,4.8252-3.2949,7.12-0.9463,2.0464-1.5166,3.2974H307.3895Zm-17.7139,0,9.8613-21.6479,0.5674-1.4009a5.706,5.706,0,0,0,.4775-2.1006,1.7191,1.7191,0,0,0-.3613-1.1865,1.38,1.38,0,0,0-1.08-.4321,2.1291,2.1291,0,0,0-.8184.19,8.1121,8.1121,0,0,1,3.7031-.9268,5.6889,5.6889,0,0,1,4.291,1.7944,6.0026,6.0026,0,0,1,1.7432,4.37,16.622,16.622,0,0,1-.1143,2.1162,11.5132,11.5132,0,0,1-.3389,1.6392l-0.13.46,0.8232,0.2729-8.2354,16.8511H289.6756Zm4.292-22.6934a14.1087,14.1087,0,0,1,2.4531-2.6494c0.1016-.0806.2031-0.1592,0.3057-0.2354a13.9077,13.9077,0,0,0-1.8164,1.7437C294.5956,206.1846,294.28,206.566,293.9676,206.9688Z"/><path class="cls-1" d="M337.2831,202.6578a5.8181,5.8181,0,0,1,4.0967,1.4476c1.0322,0.9363,1.5555,2.4695,1.5555,4.5571a8.431,8.431,0,0,1-.5466,3.1581c-0.3992.9907-1.0438,2.4169-1.9159,4.2389-0.87,1.8168-1.98,4-3.3957,6.6738-1.9441,3.6683-2.2062,4.7352-2.2062,5.295a2.2489,2.2489,0,0,0,.453,1.4471q0.0526,0.0661.11,0.1261a12.5706,12.5706,0,0,1-2.0946.1641,4.59,4.59,0,0,1-3.8406-1.5688,6.0823,6.0823,0,0,1-1.34-3.9654,9.7292,9.7292,0,0,1,.4193-3.0384A27.044,27.044,0,0,1,329.8,218.214c0.5195-1.0975,1.634-3.3268,3.3126-6.6263,2.3662-4.6517,2.64-6.165,2.64-6.8987a2.337,2.337,0,0,0-.5234-1.6121,1.717,1.717,0,0,0-.229-0.2109,11.6631,11.6631,0,0,1,2.2827-.2081m-17.7168,0a6.4671,6.4671,0,0,1,4.3832,1.4424,4.5692,4.5692,0,0,1,1.6207,3.6923,7.91,7.91,0,0,1-.2457,2.0484c-0.3077.8091-.5245,1.4027-0.6447,1.7648l0.7858,0.34c-0.8749,1.8183-1.9949,4.1989-3.3348,7.0891q-2.2373,4.8255-3.2953,7.12-0.84,1.817-1.3843,3.0076h-9.2889q0.6805-1.516,2.0454-4.5626,2.3826-5.3218,4.7077-10.4684,2.3217-5.1436,2.6177-5.7921c0.2086-.4581.4221-1.0067,0.6526-1.677a6.0814,6.0814,0,0,0,.3788-1.9731,2.4765,2.4765,0,0,0-.4926-1.6067,1.8408,1.8408,0,0,0-.2193-0.2245,7.2582,7.2582,0,0,1,1.7138-.2m-17.541,0a5.2134,5.2134,0,0,1,3.9315,1.6412,5.5269,5.5269,0,0,1,1.6027,4.0233,16.2413,16.2413,0,0,1-.1093,2.0485,11.2362,11.2362,0,0,1-.3243,1.57l-0.2614.9209,0.7343,0.2435-7.8461,16.0565h-9.3l9.5579-20.984q0.1169-.2925.5579-1.378a6.1152,6.1152,0,0,0,.5135-2.2875,2.2157,2.2157,0,0,0-.4891-1.52,1.7015,1.7015,0,0,0-.1616-0.1584,7.235,7.235,0,0,1,1.5941-.1766m35.2578-1q-4.3564,0-6.5039,2.36a42.4076,42.4076,0,0,0-5.15,7.9033q0.1758-.5294.6475-1.7695a8.81,8.81,0,0,0,.2939-2.3589,5.563,5.563,0,0,0-1.9717-4.4531,7.4874,7.4874,0,0,0-5.0322-1.6816,8.4551,8.4551,0,0,0-5.5039,2.0644q-2.5033,2.0647-5.7979,8.5508l-0.1767-.0586a12.1719,12.1719,0,0,0,.3535-1.7109,17.1634,17.1634,0,0,0,.1182-2.1812,6.5392,6.5392,0,0,0-1.8838-4.7183,6.22,6.22,0,0,0-4.65-1.9462,9.4079,9.4079,0,0,0-5.916,2.2705q-2.8549,2.2711-5.9746,8.52l0.7061,0.3535q1.2362-2.2332,2.2959-3.8213a26.6408,26.6408,0,0,1,2.1485-2.8223,12.5677,12.5677,0,0,1,2.1777-2,3.3973,3.3973,0,0,1,1.6777-.7646,0.8979,0.8979,0,0,1,.7061.2646,1.27,1.27,0,0,1,.2353.854,5.2025,5.2025,0,0,1-.44,1.9121q-0.4424,1.0884-.56,1.3824l-10.1836,22.355h11.4786l8.6533-17.7081a29.8331,29.8331,0,0,1,1.6474-3.06,34.8289,34.8289,0,0,1,2.0313-3,13.0233,13.0233,0,0,1,2.03-2.1758,2.96,2.96,0,0,1,1.7656-.8242,0.97,0.97,0,0,1,.7949.3237,1.5161,1.5161,0,0,1,.2647.9712,5.1658,5.1658,0,0,1-.3243,1.6475q-0.3236.9411-.6172,1.5883-0.2958.6483-2.6191,5.795-2.3262,5.1474-4.709,10.4712-2.3848,5.3239-2.6787,5.9712h11.4785q0.5874-1.295,1.6485-3.5879,1.0591-2.2939,3.2949-7.1187t3.5908-7.6191a29.4734,29.4734,0,0,1,2.8262-4.7653,16.5955,16.5955,0,0,1,2.4726-2.7944,2.926,2.926,0,0,1,1.7071-.8242,1.0975,1.0975,0,0,1,.8525.2944,1.3866,1.3866,0,0,1,.2656.9419q0,1.4728-2.5312,6.4453-2.5312,4.9753-3.3252,6.6519a27.9114,27.9114,0,0,0-1.2666,3.09,10.6641,10.6641,0,0,0-.4707,3.355,7.1062,7.1062,0,0,0,1.56,4.5918,5.5717,5.5717,0,0,0,4.62,1.9424,9.4242,9.4242,0,0,0,6.9756-2.5064,43.6581,43.6581,0,0,0,5.5625-7.3423l-0.706-.4131q-0.942,1.5287-1.9434,2.9986a34.9275,34.9275,0,0,1-2.8839,3.5571q-1.8837,2.0874-3.5908,2.0869a0.7816,0.7816,0,0,1-.6475-0.2939,1.2843,1.2843,0,0,1-.2353-0.8242q0-.8834,2.09-4.8267,2.0874-3.9434,3.4141-6.71,1.3242-2.7664,1.9414-4.2969a9.3754,9.3754,0,0,0,.6191-3.5318q0-3.59-1.8837-5.2978a6.8334,6.8334,0,0,0-4.7686-1.707h0Z"/><path class="cls-1" d="M355.0008,230.251a5.6667,5.6667,0,0,1-4.4521-1.6865,6.2436,6.2436,0,0,1-1.5225-4.3477,9.1817,9.1817,0,0,1,.5283-3.21c0.3633-.9761,1.1475-2.6519,2.3311-4.981q1.7988-3.5354,3.1523-6.3052c0.8975-1.833,1.4971-3.11,1.7793-3.7954a4.744,4.744,0,0,0,.45-1.6626,1.22,1.22,0,0,0-1.3242-1.3242,1.1532,1.1532,0,0,0-.2773.0366,8.0322,8.0322,0,0,1,3.5146-.8027,5.9487,5.9487,0,0,1,4.167,1.6069,6.2436,6.2436,0,0,1,1.75,4.8389,9.8765,9.8765,0,0,1-.6768,3.3022c-0.4629,1.2729-1.1094,2.7725-1.9229,4.4565s-1.957,3.834-3.3994,6.3872c-2.0107,3.5591-2.2432,4.6836-2.2432,5.22a1.4281,1.4281,0,0,0,1.56,1.5591,3.7239,3.7239,0,0,0,1.9932-.8252q0.2681-.186.5342-0.4033C359.6112,229.6,357.6141,230.251,355.0008,230.251Z"/><path class="cls-1" d="M359.1805,202.6724a5.4684,5.4684,0,0,1,3.8308,1.4773,5.699,5.699,0,0,1,1.5862,4.4685,9.3916,9.3916,0,0,1-.647,3.1316c-0.4572,1.2576-1.0975,2.7412-1.9031,4.41-0.81,1.6765-1.9481,3.816-3.3842,6.3589-2.0457,3.6208-2.308,4.8229-2.308,5.4656a2.0381,2.0381,0,0,0,.5588,1.5018q0.0572,0.0572.1188,0.1086a12.3616,12.3616,0,0,1-2.032.1567,5.13,5.13,0,0,1-4.079-1.5191,5.7656,5.7656,0,0,1-1.3956-4.0151,8.6951,8.6951,0,0,1,.4967-3.0359c0.3567-.9584,1.1334-2.6165,2.3087-4.9281,1.1841-2.3284,2.2457-4.4522,3.1552-6.3117,0.9026-1.8422,1.5059-3.1292,1.7935-3.8264a5.179,5.179,0,0,0,.4872-1.8519,1.8125,1.8125,0,0,0-.5039-1.33l-0.0169-.0164a7.5838,7.5838,0,0,1,1.9339-.2438m0-1a8.7157,8.7157,0,0,0-5.3271,1.8247q-2.4419,1.8252-5.7383,7.7114l0.7647,0.3531a28.645,28.645,0,0,1,3.1494-4.7979,17.6919,17.6919,0,0,1,2.5312-2.5893,2.9989,2.9989,0,0,1,1.3829-.7359,0.7286,0.7286,0,0,1,.8242.8242,4.45,4.45,0,0,1-.4121,1.4717q-0.4131,1.0012-1.7666,3.7666-1.3536,2.7677-3.1485,6.2984-1.7958,3.5323-2.3545,5.0327a9.6418,9.6418,0,0,0-.56,3.3847,6.7791,6.7791,0,0,0,1.6484,4.68,6.1175,6.1175,0,0,0,4.8262,1.8545q4.3564,0,6.5049-2.2969a49.1916,49.1916,0,0,0,5.326-7.4751l-0.7635-.4116q-0.7061,1.2957-1.796,2.9136-1.09,1.62-2.09,2.855a10.1637,10.1637,0,0,1-2.06,1.9717,3.3265,3.3265,0,0,1-1.708.7353,0.9369,0.9369,0,0,1-1.06-1.0591q0-1.1169,2.1787-4.9736,2.1768-3.8547,3.414-6.416t1.9424-4.5029a10.3166,10.3166,0,0,0,.7072-3.4732,6.6857,6.6857,0,0,0-1.9141-5.209,6.4841,6.4841,0,0,0-4.5029-1.7368h0Z"/><path class="cls-1" d="M365.7147,197.0523a4.9825,4.9825,0,0,1-3.627-1.42,4.6891,4.6891,0,0,1-1.4648-3.5542,4.6214,4.6214,0,0,1,1.4883-3.5781,5.0689,5.0689,0,0,1,3.6035-1.3965,5.1431,5.1431,0,0,1,3.6621,1.397,4.9742,4.9742,0,0,1-.0293,7.1255A5.1115,5.1115,0,0,1,365.7147,197.0523Z"/><path class="cls-1" d="M365.7146,187.6036a4.6635,4.6635,0,0,1,3.3212,1.2626,4.4753,4.4753,0,0,1-.0284,6.3936,4.6334,4.6334,0,0,1-3.2928,1.2924,4.5031,4.5031,0,0,1-3.28-1.28,4.2106,4.2106,0,0,1-1.312-3.1938,4.1474,4.1474,0,0,1,1.3278-3.2114,4.5909,4.5909,0,0,1,3.264-1.2632m0-1a5.5989,5.5989,0,0,0-3.9443,1.53,5.1422,5.1422,0,0,0-1.6475,3.9445,5.2077,5.2077,0,0,0,1.6182,3.914,5.5051,5.5051,0,0,0,3.9736,1.56,5.6409,5.6409,0,0,0,3.9737-1.56,5.4744,5.4744,0,0,0,.0283-7.8585,5.6709,5.6709,0,0,0-4.002-1.53h0Z"/><path class="cls-1" d="M394.5565,230.2657a5.3015,5.3015,0,0,1-4.3271-1.7061,6.511,6.511,0,0,1-1.4717-4.3281,9.0231,9.0231,0,0,1,.3838-2.8955c0.2656-.7593,1.1-2.562,2.4795-5.3594q2.0874-4.2371,3.4414-6.9434a10.7505,10.7505,0,0,0,1.4072-4.4619,1.7506,1.7506,0,0,0-.3594-1.1836,1.454,1.454,0,0,0-1.1416-.4351,3.5825,3.5825,0,0,0-2.11.9951,10.2809,10.2809,0,0,0-.9072.8423,8.1036,8.1036,0,0,1,6.4316-2.6323,6.3932,6.3932,0,0,1,4.4082,1.6118,6.1383,6.1383,0,0,1,1.8018,4.834,9.5437,9.5437,0,0,1-.6182,3.2153c-0.4248,1.18-.9541,2.4639-1.5732,3.8169-0.6211,1.3594-1.7148,3.5469-3.3437,6.6885-2.1885,4.2148-2.47,5.2622-2.47,5.7041a1.3237,1.3237,0,0,0,1.4424,1.4424,3.5171,3.5171,0,0,0,1.877-.7969,12.06,12.06,0,0,0,1.4707-1.2861c-0.0547.0635-.1094,0.1265-0.1631,0.189A8.41,8.41,0,0,1,394.5565,230.2657Zm-26.2461-.6035,9.69-21.6509c0.2422-.6035.5156-1.2559,0.8271-1.9771a4.9109,4.9109,0,0,0,.5117-1.7573,1.2867,1.2867,0,0,0-.3213-0.9414,1.2036,1.2036,0,0,0-.8848-0.3237,3.928,3.928,0,0,0-2.1689.8247c-0.1689.1177-.3389,0.2437-0.5068,0.3774a8.2036,8.2036,0,0,1,5.6191-2.0562,5.2494,5.2494,0,0,1,4.0781,1.5811,6.4221,6.4221,0,0,1,1.4854,4.5234,10.9785,10.9785,0,0,1-.2529,2.4526q-0.2637,1.1462-.4385,1.8491l-1.0625,4.27-6.1846,12.8281H368.31Z"/><path class="cls-1" d="M398.3827,202.6578a5.9106,5.9106,0,0,1,4.0769,1.4863,5.5954,5.5954,0,0,1,1.6331,4.4595,9.05,9.05,0,0,1-.5882,3.0455c-0.4208,1.1673-.9449,2.4387-1.5577,3.779-0.6171,1.3505-1.7072,3.5309-3.3322,6.665-2.5267,4.864-2.5267,5.5609-2.5267,5.9352a1.9277,1.9277,0,0,0,.5261,1.412,1.7079,1.7079,0,0,0,.1341.1214,11.08,11.08,0,0,1-2.1915.2039,4.8319,4.8319,0,0,1-3.9446-1.5287,5.9455,5.9455,0,0,1-1.3542-4.0055,8.549,8.549,0,0,1,.356-2.73c0.2588-.74,1.0851-2.5241,2.4562-5.3038q2.0858-4.2351,3.4394-6.94a11.1964,11.1964,0,0,0,1.46-4.686,2.2264,2.2264,0,0,0-.4883-1.5184,1.631,1.631,0,0,0-.2074-0.1952,10.4824,10.4824,0,0,1,2.1089-.2m-17.3057,0a4.78,4.78,0,0,1,3.7122,1.4213,5.9479,5.9479,0,0,1,1.3513,4.1831,10.4914,10.4914,0,0,1-.24,2.3405q-0.2628,1.1408-.4363,1.84l-1.0519,4.223-6.0237,12.4963h-9.3063l9.3911-20.9838q0.3486-.8721.813-1.9443a5.24,5.24,0,0,0,.5534-1.9572,1.7626,1.7626,0,0,0-.47-1.2969,1.4965,1.4965,0,0,0-.1511-0.1315,8.7633,8.7633,0,0,1,1.8584-.1907m17.3057-1a8.53,8.53,0,0,0-6.8574,2.86,40.95,40.95,0,0,0-5.0908,8.1665q0.1759-.7061.44-1.8574a11.43,11.43,0,0,0,.2656-2.565,6.8691,6.8691,0,0,0-1.6191-4.8642,5.774,5.774,0,0,0-4.4444-1.74,8.8334,8.8334,0,0,0-6.7392,2.9487,42.9634,42.9634,0,0,0-5.5625,7.8994L369.54,212.86q1.1778-1.94,2.3838-3.7334a29.6723,29.6723,0,0,1,2.2373-2.9688,11.6173,11.6173,0,0,1,2.0889-1.9111,3.444,3.444,0,0,1,1.8838-.7353,0.722,0.722,0,0,1,.53.1767,0.8165,0.8165,0,0,1,.1757.5884,4.6381,4.6381,0,0,1-.4707,1.5591q-0.47,1.0892-.8242,1.9712l-10.0057,22.355h11.4775l8.5361-17.7081a30.7137,30.7137,0,0,1,3.06-5.2949,16.7183,16.7183,0,0,1,2.5615-2.8232,3.1809,3.1809,0,0,1,1.7949-.8833,0.9779,0.9779,0,0,1,.7657.2651,1.2792,1.2792,0,0,1,.2353.8535,10.4188,10.4188,0,0,1-1.3545,4.2383q-1.3549,2.7085-3.4423,6.9458-2.09,4.2378-2.5031,5.4155a9.461,9.461,0,0,0-.412,3.0606,6.9649,6.9649,0,0,0,1.59,4.65,5.8138,5.8138,0,0,0,4.7089,1.8839,8.8509,8.8509,0,0,0,7.0342-2.86A45.74,45.74,0,0,0,406.8,220.21l-0.7646-.4126a27.2294,27.2294,0,0,1-3.6788,5.82,18.6987,18.6987,0,0,1-2.7373,2.6465,3.12,3.12,0,0,1-1.5888.706,0.8323,0.8323,0,0,1-.9424-0.9423q0-.8242,2.4141-5.4742,2.411-4.65,3.3544-6.71t1.5889-3.8555a9.9937,9.9937,0,0,0,.6475-3.3847,6.5819,6.5819,0,0,0-1.9717-5.21,6.9312,6.9312,0,0,0-4.7383-1.7363h0Z"/><path class="cls-1" d="M432.8172,230.251a5.8116,5.8116,0,0,1-4.1621-1.543,5.3423,5.3423,0,0,1-1.6357-4.1377l0.2041-2.65s-1.09,1.65-1.1045,1.6714c0.3721-.6616.7656-1.4346,1.1768-2.3125,0.7266-1.5518,1.8008-4.1665,3.1924-7.7715a46.4769,46.4769,0,0,0,1.8164-5.4795l-0.1523,2.2915,1.1914-3.1743q0.353-.939,2.2627-5.76,1.9146-4.8274,2.6807-6.8018,0.769-1.9841,1.125-3.021a5.6872,5.6872,0,0,0,.3809-1.7217,1.7659,1.7659,0,0,0-1.3066-1.8647,9.1758,9.1758,0,0,0-1.7773-.2256h14.6738l-14.85,36.69c-0.32.7988-.5479,1.4058-0.6885,1.8242a4.1645,4.1645,0,0,0-.23,1.3062,1.219,1.219,0,0,0,1.3232,1.3247,3.4407,3.4407,0,0,0,1.1563-.2041A9.2742,9.2742,0,0,1,432.8172,230.251Zm-16.2461,0a7.0157,7.0157,0,0,1-5.5146-2.3081,9.2736,9.2736,0,0,1-2.1084-6.4341c0-4.3687,1.8506-8.7344,5.5-12.9766,3.6309-4.22,7.791-6.36,12.3652-6.36a7.7429,7.7429,0,0,1,4.2295.978,2.8926,2.8926,0,0,1,.9346.9741,2.0878,2.0878,0,0,0-1.5146-.5386,3.7987,3.7987,0,0,0-2.77,1.7114,35.0671,35.0671,0,0,0-3.5039,5.9512c-1.4541,2.8877-2.9932,6.1836-4.5732,9.7949-1.6328,3.7285-2.4268,6.0757-2.4268,7.1758a1.6717,1.6717,0,0,0,.3945,1.16,1.4306,1.4306,0,0,0,1.1064.459,5.4,5.4,0,0,0,1.0508-.1016A9.2917,9.2917,0,0,1,416.5711,230.251Z"/><path class="cls-1" d="M450.6413,188.251L436.069,224.2562c-0.3152.785-.55,1.408-0.6982,1.851a4.6379,4.6379,0,0,0-.2566,1.4647,1.7974,1.7974,0,0,0,.4965,1.3239,1.6063,1.6063,0,0,0,.4219.303,9.0775,9.0775,0,0,1-3.2153.5523,5.3307,5.3307,0,0,1-3.82-1.4087,4.8531,4.8531,0,0,1-1.4774-3.7348l0.0557-.7264,0.1849-2.4147c0.7311-1.5645,1.8057-4.1813,3.1943-7.7787q0.31-.8042.5751-1.5332l-0.1008,1.5184,2.3835-6.3516c0.2378-.6337,1.0189-2.6223,2.259-5.7509q1.9147-4.83,2.6826-6.8063c0.5284-1.3646.8986-2.3586,1.1316-3.0386a6.07,6.07,0,0,0,.4075-1.8839,2.5159,2.5159,0,0,0-.4992-1.59h10.8477m-23.828,14.4214a8.865,8.865,0,0,1,3.1009.4687,4.7857,4.7857,0,0,0-2.6057,1.8377,35.381,35.381,0,0,0-3.5662,6.0447c-1.4584,2.8969-3.0008,6.2007-4.5843,9.8195-2.2128,5.0522-2.4687,6.6295-2.4687,7.3763a2.1487,2.1487,0,0,0,.5207,1.4909l0.02,0.0217q-0.322.0191-.6586,0.0192a6.5434,6.5434,0,0,1-5.1445-2.1438,8.799,8.799,0,0,1-1.9786-6.0984c0-4.2455,1.81-8.5018,5.3792-12.6505,3.5314-4.1046,7.5641-6.1859,11.9861-6.1859m25.3115-15.4214H434.1707v0.9419a19.8775,19.8775,0,0,1,4.18.2652,1.2687,1.2687,0,0,1,.9424,1.3833,5.3292,5.3292,0,0,1-.3535,1.56q-0.3531,1.03-1.1182,3.002-0.7676,1.9724-2.68,6.7988t-2.2656,5.7681l0.0586-.8824a3.7205,3.7205,0,0,0-1.6182-3.3554,8.1767,8.1767,0,0,0-4.5029-1.06q-7.1222,0-12.7442,6.5337t-5.6211,13.3027a9.7116,9.7116,0,0,0,2.2373,6.77,7.5555,7.5555,0,0,0,5.8858,2.4726,8.627,8.627,0,0,0,5.5029-1.7373,22.0476,22.0476,0,0,0,4.5039-5.209l-0.0587.7657a5.8624,5.8624,0,0,0,1.795,4.5029,6.34,6.34,0,0,0,4.5029,1.6777,9.7228,9.7228,0,0,0,5.5625-1.6484,15.1415,15.1415,0,0,0,3.9443-3.7671,57.7248,57.7248,0,0,0,3.4424-5.7095l-0.7646-.3535q-1.1778,2.0017-1.9131,3.208t-2.5312,3.5615q-1.7958,2.3541-3.62,2.3546a0.7278,0.7278,0,0,1-.8232-0.8247,3.6289,3.6289,0,0,1,.205-1.1474q0.2065-.6183.6779-1.7955l15.1279-37.3779h0ZM418.69,229.3379a0.9345,0.9345,0,0,1-.7353-0.2949,1.1855,1.1855,0,0,1-.2656-0.8237q0-1.5294,2.3847-6.9751,2.3818-5.4434,4.5615-9.771a34.9554,34.9554,0,0,1,3.4434-5.8569,3.386,3.386,0,0,1,2.3838-1.53,1.5574,1.5574,0,0,1,1.2363.4707,2.0983,2.0983,0,0,1,.412,1.4131q0,1.9416-2.09,7.3578t-3.1787,7.74a24.9851,24.9851,0,0,1-1.9717,3.5908,28.2859,28.2859,0,0,1-2.4727,2.9727,4.9181,4.9181,0,0,1-3.708,1.707h0Z"/><path class="cls-1" d="M454.82,230.1338a7.4494,7.4494,0,0,1-5.3467-2.1382,6.9475,6.9475,0,0,1-2.207-5.2534,6.8615,6.8615,0,0,1,2.207-5.1724,7.4468,7.4468,0,0,1,5.3467-2.1367,7.67,7.67,0,0,1,5.3936,2.1025,6.7706,6.7706,0,0,1,2.24,5.2065,6.9538,6.9538,0,0,1-2.2061,5.2534A7.5589,7.5589,0,0,1,454.82,230.1338Z"/><path class="cls-1" d="M454.82,215.9331a7.09,7.09,0,0,1,5.0521,1.9681,6.2956,6.2956,0,0,1,2.0817,4.8411,6.4771,6.4771,0,0,1-2.0524,4.8933,6.9834,6.9834,0,0,1-5.0814,1.9982,6.8758,6.8758,0,0,1-5-1.9981,6.4723,6.4723,0,0,1-2.0535-4.8934,6.3866,6.3866,0,0,1,2.054-4.8128,6.8765,6.8765,0,0,1,5-1.9963m0-1a7.9018,7.9018,0,0,0-5.6943,2.2769,7.401,7.401,0,0,0-2.3594,5.5322,7.4878,7.4878,0,0,0,2.3594,5.6133,7.901,7.901,0,0,0,5.6943,2.2783,8.0087,8.0087,0,0,0,5.7754-2.2783,7.4941,7.4941,0,0,0,2.3584-5.6133,7.31,7.31,0,0,0-2.3994-5.5722,8.1193,8.1193,0,0,0-5.7344-2.2369h0Z"/><polygon class="cls-2" points="218.208 260.234 214.195 248.744 209.749 248.744 205.766 260.234 200.598 248.744 195.46 248.744 203.514 267.509 208.479 267.509 211.973 257.089 215.466 267.509 220.431 267.509 228.485 248.744 223.347 248.744 218.208 260.234"/><polygon class="cls-2" points="247.558 256.597 239.359 256.597 239.359 248.744 234.855 248.744 234.855 267.509 239.359 267.509 239.359 260.639 247.558 260.639 247.558 267.509 252.061 267.509 252.061 248.744 247.558 248.744 247.558 256.597"/><rect class="cls-2" x="261.0037" y="248.7442" width="4.5029" height="18.7646"/><path class="cls-2" d="M283.9783,255.9629c-1.039-.1738-3.9541-0.1738-3.9541-1.7041,0-1.27,1.3569-2.28,3.002-2.28,2.4541,0,3.2324.9814,3.2324,1.4433h4.6484c0-2.5117-2.5986-5.1963-7.8808-5.1963-4.33,0-7.8809,2.7139-7.8809,6.0332,0,3.5508,3.7241,4.5313,5.9175,4.9659,1.2417,0.26,5.6011.4335,5.6011,2.8291,0,1.1552-1.6172,2.2226-3.4073,2.2226-3.3193,0-3.5219-2.54-3.5219-2.5693h-4.8785c0,2.54,2.6563,6.2939,8.4,6.2939,4.4746,0,8.2852-2.7148,8.2852-5.9472C291.5418,257.0889,286.6053,256.4522,283.9783,255.9629Z"/><polygon class="cls-2" points="320.056 248.744 314.341 248.744 306.604 256.278 306.604 248.744 302.1 248.744 302.1 267.509 306.604 267.509 306.604 262.228 308.51 260.263 314.167 267.509 320.548 267.509 311.628 256.944 320.056 248.744"/><polygon class="cls-2" points="328.22 267.509 342.337 267.509 342.337 263.498 332.723 263.498 332.723 260.148 340.315 260.148 340.315 256.134 332.723 256.134 332.723 252.786 342.337 252.786 342.337 248.744 328.22 248.744 328.22 267.509"/><polygon class="cls-2" points="364.848 248.744 359.766 255.558 354.657 248.744 349.056 248.744 356.967 259.601 356.967 267.509 362.567 267.509 362.567 259.601 370.448 248.744 364.848 248.744"/><path class="cls-3" d="M282.954,156.9922A78.4961,78.4961,0,1,1,361.45,78.4961,78.5852,78.5852,0,0,1,282.954,156.9922Zm0-148.4922A69.9961,69.9961,0,1,0,352.95,78.4961,70.0751,70.0751,0,0,0,282.954,8.5Z"/><path class="cls-1" d="M254.3963,86.0049a43.7892,43.7892,0,0,0,6.4121-2.6572q1.8545-1.0547,1.9394-1.8984a1.0866,1.0866,0,0,0-.2089-0.6329,2.1031,2.1031,0,0,0-.6348-0.5478,13.2024,13.2024,0,0,0-2.3193-1.2236,32.732,32.732,0,0,1-2.9952-1.4766,20.3632,20.3632,0,0,1-4.0908-2.91,6.3657,6.3657,0,0,1-2.0674-4.5136V69.3008a0.7405,0.7405,0,0,1-.0849-0.3379V68.542q0-10.2935,5.8642-15.6084a21.1463,21.1463,0,0,1,12.8653-5.8222,2.9008,2.9008,0,0,1,.6748-0.083h0.6748a18.279,18.279,0,0,1,9.5762,2.6572,14.5235,14.5235,0,0,1,6.2851,7.8887,11.1739,11.1739,0,0,1,2.8262-5.6534,12.6181,12.6181,0,0,1,4.0918-2.7832,13.3636,13.3636,0,0,1,3.1211-.76,24.4887,24.4887,0,0,1,2.6162-.169q7.0854,0.5069,9.0693,3.67a14.7757,14.7757,0,0,1,2.2354,6.96,9.0682,9.0682,0,0,1,.0849,1.2666V61.37a23.3436,23.3436,0,0,0,.7588,5.6953q0.6753,2.4052,4.3867,2.4043h0.6748v1.2656h-1.7714a9.34,9.34,0,0,0-6.1582,2.0234q-2.7012,2.111-2.7,7.3409-0.0836,1.5189-.169,3.206-0.0849,1.689-.0849,3.374v0.253a43.1442,43.1442,0,0,0,.8857,9.0273q0.8862,4.1339,3.6719,4.1338a4.9513,4.9513,0,0,0,2.2353-.6318,14.3623,14.3623,0,0,0,2.8252-2.0684l1.2656,1.2666-15.2695,11.3047q-2.1108-1.2657-3.6279-2.3623a17.4982,17.4982,0,0,1-2.6162-2.2783,10.482,10.482,0,0,1-2.74-4.9346,46.1126,46.1126,0,0,1-.8027-6.5391q0-.6738-0.041-1.4756-0.0439-.8026-0.127-1.6455-0.0864-1.0122-.1269-2.0244-0.044-1.0122-.043-1.8564,0-9.1948,4.0928-11.8115a32.1113,32.1113,0,0,1,11.2627-3.9639,5.5823,5.5823,0,0,1,.7168-0.127,5.5548,5.5548,0,0,0,.7168-0.1269q-6.4966-.2535-8.6895-2.9951a12.59,12.59,0,0,1-2.6992-6.0313,13.6169,13.6169,0,0,1-.2539-1.56q-0.0849-.8028-0.168-1.5616a18.136,18.136,0,0,0-.7168-4.1767,2.532,2.532,0,0,0-2.7422-1.73,4.7417,4.7417,0,0,0-.6328.042q-0.2958.044-.7168,0.1269a4.3553,4.3553,0,0,0-2.6162,3.0371,19.4686,19.4686,0,0,0-.6748,5.4844q0,1.6026.127,3.417t0.2109,3.7539q0.0821,0.9288.127,1.8975,0.0409,0.9711.125,1.8994,0,1.0122.0429,1.9814,0.0426,0.9712.042,1.8995,0,1.856-.1269,3.6689a20.017,20.017,0,0,1-.5479,3.501,20.039,20.039,0,0,1-3.0791,5.4834q-2.4052,3.293-5.4424,6.75c-0.5048.6191-1.041,1.2383-1.6025,1.8554L275.825,99.419q-3.29,3.46-6.2842,6.3281-2.9957,2.8682-4.5146,4.2178l-9.9551-9.28-3.9658,3.9649-1.3487-1.35,13.2452-13.2451,10.63,8.6055c0,0.0557.0137-.1826,0.042-0.7168s0.0713-1.252.127-2.1514c0-.957.0137-2.08,0.042-3.375s0.042-2.7.042-4.2187q0-3.12-.084-6.749-0.0835-3.627-.4209-7.3389-0.1729-3.293-.5918-6.4971-0.4233-3.2065-1.0957-6.0742a8.8973,8.8973,0,0,0-3.0371-5.1475,10.4054,10.4054,0,0,0-5.3155-2.5293,5.6418,5.6418,0,0,0-.7168-0.1269,6.7461,6.7461,0,0,0-.7187-0.042,7.5219,7.5219,0,0,0-3.542.8857,5.8986,5.8986,0,0,0-2.6162,2.9952c-0.0557.2246-.1133,0.4355-0.168,0.6318a2.2946,2.2946,0,0,0-.084.6328,3.2143,3.2143,0,0,0,.9688,2.2774,14.7793,14.7793,0,0,0,2.4892,2.0263,13.3653,13.3653,0,0,0,1.2666.8008,14.2624,14.2624,0,0,1,1.2647.8018q1.4341,0.9287,2.7412,1.8974a9.0015,9.0015,0,0,1,2.1524,2.2354,10.0268,10.0268,0,0,1,1.9394,5.9912v0.8437a3.95,3.95,0,0,1-.084.76,12.3152,12.3152,0,0,1-3.9228,7.2969q-3.4176,3.3325-9.9131,3.6689V86.0049Z"/><path class="cls-3" d="M282.954,454.6036A78.4961,78.4961,0,1,1,361.45,376.1075,78.5849,78.5849,0,0,1,282.954,454.6036Zm0-148.4922A69.9961,69.9961,0,1,0,352.95,376.1075,70.0754,70.0754,0,0,0,282.954,306.1114Z"/><path class="cls-3" d="M255.3841,148.1773c-4.0713-2.1665-8.1314-4.353-12.1026-6.7q-2.8506-1.6846-5.541-3.6172a61.7094,61.7094,0,0,1-16.2461-16.7261c-1.8193-2.8564-3.3535-6.3667-3.1977-9.8569a28.8541,28.8541,0,0,1-2.646-3.3208,62.2443,62.2443,0,0,1-3.98-7.7856,8.3944,8.3944,0,0,0-4.981,4.1416,11.0629,11.0629,0,0,0-1.1259,4.2124c-0.0415.5219-.3081,4.4282,0.1264,4.6157-5.6455-2.4448-10.8965-4.978-17.0678-5.8716-6.1089-.8887-12.8741-1.041-18.8233.8091a33.1888,33.1888,0,0,0-11.7012,6.6684c-3.6064,3.1079-6.13,7.6758-5.873,12.5352a12.7038,12.7038,0,0,0,2.1294,6.3076,18.0508,18.0508,0,0,0,4.65,5.1328c3.938,2.4253,8.5669,2.65,13.0684,2.482,2.726-.1026,5.5175-0.6636,7.5791-2.5762a9.7734,9.7734,0,0,0,2.8872-6.7349,9.1464,9.1464,0,0,0-18.2544-.84,8.0681,8.0681,0,0,1-1.5078-1.52c-2.6817-3.6353.2138-9.125,3.0249-11.8194a20.2794,20.2794,0,0,1,2.5971-2.1084,18.7027,18.7027,0,0,1,11.2251-3.4643c0.2427,0.0112,3.1343.1357,3.1284,0.2011-0.2915,3.1011-.2758,6.3643,1.605,9.024,1.8238,2.5791,4.4165,3.53,7.4107,3.9365-1.4952-3.96-.8868-7.6831,3.938-8.4048,4.2944-.6426,8.52,1.3574,12.101,3.5244a77.3716,77.3716,0,0,1,9.8277,6.6861c3.4687,2.9106,6.9194,5.8491,10.58,8.52,1.9126,1.395,3.8881,2.7109,5.8437,4.0434,7.26,4.9527,14.7827,9.7832,23.125,12.7022a62.8568,62.8568,0,0,0,7.4927,2.0459l0.5332-1.6812C261.8763,151.3184,258.5462,149.8623,255.3841,148.1773Z"/><path class="cls-3" d="M407.81,114.7461a33.1876,33.1876,0,0,0-11.7011-6.6684c-5.9492-1.85-12.7139-1.6978-18.8233-.8091-6.1718.8936-11.4218,3.4268-17.0683,5.8716,0.4355-.1875.1679-4.0938,0.1269-4.6157a11.07,11.07,0,0,0-1.126-4.2124,8.291,8.291,0,0,0-4.33-3.9034,74.838,74.838,0,0,1-7.4112,13.1973,20.0712,20.0712,0,0,1-3.0634,7.5278A61.7094,61.7094,0,0,1,328.1678,137.86q-2.6925,1.9263-5.541,3.6172c-3.9717,2.3472-8.0313,4.5337-12.1026,6.7-3.1621,1.685-6.4922,3.1411-9.8242,4.561l0.5332,1.6812a62.8547,62.8547,0,0,0,7.4922-2.0459c8.3418-2.919,15.8652-7.75,23.125-12.7022,1.9551-1.3325,3.9316-2.6484,5.8437-4.0434,3.66-2.6709,7.1114-5.6094,10.58-8.52a77.2875,77.2875,0,0,1,9.8272-6.6861c3.581-2.167,7.8066-4.167,12.1005-3.5244,4.8252,0.7217,5.4336,4.4443,3.9385,8.4048,2.9942-.4067,5.5869-1.3574,7.4112-3.9365,1.8808-2.66,1.8964-5.9229,1.6044-9.024-0.0058-.0654,2.8858-0.19,3.128-0.2011A18.7052,18.7052,0,0,1,397.51,115.605a20.2471,20.2471,0,0,1,2.5966,2.1084c2.8116,2.6944,5.7071,8.1841,3.0254,11.8194a8.0681,8.0681,0,0,1-1.5078,1.52,9.1461,9.1461,0,0,0-18.2539.84,9.7729,9.7729,0,0,0,2.8867,6.7349c2.0616,1.9126,4.8536,2.4736,7.5791,2.5762,4.501,0.1679,9.13-.0567,13.0684-2.482a18.0286,18.0286,0,0,0,4.6494-5.1328,12.6947,12.6947,0,0,0,2.13-6.3076C413.94,122.4219,411.4168,117.854,407.81,114.7461Z"/><path class="cls-3" d="M264.6756,300.1846a62.8527,62.8527,0,0,0-7.4927,2.0449c-8.3423,2.92-15.8652,7.75-23.125,12.7032-1.9556,1.332-3.9311,2.6484-5.8437,4.0429-3.66,2.67-7.1109,5.6094-10.58,8.52a77.1273,77.1273,0,0,1-9.8277,6.6855c-3.581,2.168-7.8066,4.168-12.101,3.5254-4.8248-.7227-5.4332-4.4453-3.938-8.4043-2.9942.4063-5.5869,1.3574-7.4107,3.9355-1.8808,2.66-1.8965,5.9239-1.605,9.0235,0.0059,0.0664-2.8857.1914-3.1284,0.2012a18.7021,18.7021,0,0,1-11.2251-3.4629,20.45,20.45,0,0,1-2.5971-2.1094c-2.8111-2.6934-5.7066-8.1836-3.0249-11.8184a8.0484,8.0484,0,0,1,1.5078-1.5215,9.1463,9.1463,0,0,0,18.2544-.84,9.7724,9.7724,0,0,0-2.8872-6.7344c-2.0616-1.9121-4.8531-2.4726-7.5791-2.5761-4.5015-.168-9.13.0566-13.0684,2.4824a18.0508,18.0508,0,0,0-4.65,5.1328,12.699,12.699,0,0,0-2.1294,6.3066c-0.2568,4.8594,2.2666,9.4278,5.873,12.5352a33.1924,33.1924,0,0,0,11.7012,6.67c5.9492,1.85,12.7144,1.6973,18.8233.8086,6.1713-.8945,11.4223-3.4277,17.0678-5.8711-0.4345.1875-.1679,4.0938-0.1264,4.6152a11.0653,11.0653,0,0,0,1.1259,4.2129,8.2976,8.2976,0,0,0,4.3687,3.92c0.6885-1.5977,1.4194-3.1807,2.144-4.7754a48.2557,48.2557,0,0,1,3.0953-6.2989c0.7226-1.124,1.6459-2.167,2.3666-3.3134a21.3943,21.3943,0,0,1,2.83-6.3545,61.697,61.697,0,0,1,16.2461-16.7266c1.7949-1.2832,3.6406-2.4941,5.541-3.6172,3.9712-2.3476,8.0313-4.5332,12.1026-6.6992,3.1621-1.6855,6.4922-3.1426,9.8247-4.5625Z"/><path class="cls-3" d="M413.6834,327.3213a12.69,12.69,0,0,0-2.13-6.3066,18.0286,18.0286,0,0,0-4.6494-5.1328c-3.9385-2.4258-8.5674-2.65-13.0684-2.4824-2.7255.1035-5.5175,0.664-7.5791,2.5761A9.7719,9.7719,0,0,0,383.37,322.71a9.1461,9.1461,0,0,0,18.2539.84,8.0484,8.0484,0,0,1,1.5078,1.5215c2.6817,3.6348-.2138,9.125-3.0254,11.8184a20.4173,20.4173,0,0,1-2.5966,2.1094,18.7046,18.7046,0,0,1-11.2256,3.4629c-0.2422-.01-3.1338-0.1348-3.128-0.2012,0.292-3.1.2764-6.3633-1.6044-9.0235-1.8243-2.5781-4.417-3.5292-7.4112-3.9355,1.4951,3.959.8867,7.6816-3.9385,8.4043-4.2939.6426-8.52-1.3574-12.1005-3.5254a77.0438,77.0438,0,0,1-9.8272-6.6855c-3.4687-2.91-6.92-5.85-10.58-8.52-1.9121-1.3945-3.8886-2.7109-5.8437-4.0429-7.26-4.9532-14.7832-9.7832-23.125-12.7032a62.8506,62.8506,0,0,0-7.4922-2.0449l-0.5332,1.68c3.332,1.42,6.6621,2.877,9.8242,4.5625,4.0713,2.166,8.1309,4.3516,12.1026,6.6992,1.9,1.1231,3.746,2.334,5.541,3.6172A61.6971,61.6971,0,0,1,344.414,333.47a21.8983,21.8983,0,0,1,2.7187,5.9023,1.2216,1.2216,0,0,1,.126.1367c2.582,3.4229,4.1533,7.334,5.7412,11.2832,0.4775,1.1875.9854,2.3711,1.4541,3.5645a8.36,8.36,0,0,0,4.7646-4.0645,11.0725,11.0725,0,0,0,1.126-4.2129c0.041-.5214.3086-4.4277-0.1269-4.6152,5.6465,2.4434,10.8965,4.9766,17.0683,5.8711,6.1094,0.8887,12.8741,1.041,18.8233-.8086a33.1912,33.1912,0,0,0,11.7011-6.67C411.4168,336.7491,413.94,332.1807,413.6834,327.3213Z"/><path class="cls-1" d="M8.5976,239.0538c9.998,12.2695,29.6015,13.666,39.2578-.2149a22.55,22.55,0,0,0,3.709-8.7978,26.08,26.08,0,0,0-.8438-10.3155c-1.8564-6.8691-7.3906-11.8808-13.7012-14.7168-7.6035-3.414-17.2675-1.4736-22.5566,5.2539-3.83,4.8721-3.9746,11.917-1.9609,17.5557a18.8692,18.8692,0,0,0,3.5722,5.7188,16.561,16.561,0,0,0,11.6543,5.3251A14.1522,14.1522,0,0,0,34.745,237.14c2.4141-1.33,3.7764-3.5635,5.1953-5.834l-2.2871,2.0654c-3.3642,2.9942-7.81,3.1944-11.7627,1.15-6.6836-3.4551-7.7383-13.2509-1.4551-17.707a14.89,14.89,0,0,1,13.9239-1.4619,14.9808,14.9808,0,0,1,6.34,5.71,16.45,16.45,0,0,1-.664,17.69c-3.9122,5.6436-11.4395,6.94-17.8457,6.3174-8.1465-.791-14.379-5.875-18.0323-13.0088a35.7664,35.7664,0,0,1-2.6592-23.4395,37.5422,37.5422,0,0,1,3.86-9.1533,39.9911,39.9911,0,0,1,5.248-7.7558,44.8711,44.8711,0,0,1,16.9873-11.6553A40.449,40.449,0,0,1,40.43,177.98c-0.4961,2.6358-1.0449,5.4444-.2149,8.0684a8.3465,8.3465,0,0,0,2.0586,3.5312c0.8321,0.7881,2.6631,1.7286,3.8662,1.4629a4.9218,4.9218,0,0,0,2.0577-1.206c1.2461-1.1914,2.2744-2.5947,3.6347-3.669a23.6853,23.6853,0,0,1,4.545-2.7373c9.1035-4.2978,19.9941-4.7119,29.8134-3.51a180.0477,180.0477,0,0,1,18.5869,3.3554c10.0391,2.3213,19.2842,6.1748,28.3926,10.4541,0.3613-1.31.7832-2.6,1.2559-3.873-0.874-.3994-1.7451-0.8067-2.6211-1.2022-15.3037-6.9-31.16-13.15-47.8242-15.7754a138.5213,138.5213,0,0,0-23.1875-2.0029,100.8178,100.8178,0,0,0-14.6739,1.1729c-8.6718,1.3965-17.72,3.997-25.3652,8.4-8.09,4.6591-14.57,13.2021-18.081,21.8C-2.5021,214.917.0311,228.543,8.5976,239.0538Z"/><path class="cls-1" d="M321.954,366.6163c-0.5625-1.334-2.0742-3.542-5.8691-3.3038-0.31.0157-.6192,0.0528-0.9131,0.0909a10.3264,10.3264,0,0,0-2.3282.6347,21.2717,21.2717,0,0,0-5.996,3.8145c-2.9952,2.4209-9.4532,5.01-11.38,1.5263a25.4114,25.4114,0,0,0,6.4267-2.4306c3.5537-1.9785,5.6992-6.7647,7.0078-10.1875a24.9177,24.9177,0,0,0,.7286-2.3877c0.5908-2.1611,1.0947-4.0352,2.7314-4.2754,0.9365-.1367,1.6064.0811,1.79,0.5889a0.9137,0.9137,0,0,1-.42,1.0644,1.2036,1.2036,0,0,1-.4336.168,1.4023,1.4023,0,0,1-1.1054-.4375,0.4276,0.4276,0,0,0-.7178.4424c0.039,0.0879.8789,2.0879,2.7119,1.8154a3.4152,3.4152,0,0,0,1.5508-.7324,4.402,4.402,0,0,0,1.8242-3.6045,1.4859,1.4859,0,0,1,.835,1.2685,3.2031,3.2031,0,0,1-1.4385,2.4649,0.4264,0.4264,0,0,0,.1055.7695,2.8807,2.8807,0,0,0,1.4013-.06s3.7637-1.1669,3.7637-4.61a9.6972,9.6972,0,0,0-2.2022-5.9238,6.69,6.69,0,0,0-6.2-2.1026,9.0994,9.0994,0,0,0-5.6289,3.3692c-2.2763,2.6972-3.208,7.0361-4.1328,11.0244a9.6682,9.6682,0,0,1-6.331,7.2637A2.2109,2.2109,0,0,1,295.64,362.4c-0.2744-2.3057-1.2832-4.0508-4.66-5.9678-1.5479-.8789-2.7442-1.4971-3.6153-1.9434-1.9687-1.01-2.4882-1.2842-2.8525-2.2607a3.74,3.74,0,0,1-.3389-1.7871,7.162,7.162,0,0,1,2.6514-.9961,5.4116,5.4116,0,0,1,1.1387-.0508,3.2557,3.2557,0,0,1,3.1836,2.6309l-0.0039.206a1.53,1.53,0,0,0,.2617,1.2744,0.6776,0.6776,0,0,0,.5761.1573,3.27,3.27,0,0,0,1.4053-.8145,8.5163,8.5163,0,0,0,3.1621-5.67,8.0538,8.0538,0,0,0-1.4482-4.5811,0.4411,0.4411,0,0,0-.5137-0.1582,0.9821,0.9821,0,0,0-.1142.0791,0.2648,0.2648,0,0,0-.0215.0244,0.2382,0.2382,0,0,0-.043.0479,0.6,0.6,0,0,0-.0811.2217,0.235,0.235,0,0,0-.0039.0908,5.1172,5.1172,0,0,1-.0127,1.1767,2.7579,2.7579,0,0,1-.1455,1.1319c-0.3867.9209-1.6357,1.53-3.7734,0.5683a39.6036,39.6036,0,0,0-5.4971-1.7822,24.8664,24.8664,0,0,1,3.3545-2.457,15.9556,15.9556,0,0,1,5.9326-2.5957,5.0788,5.0788,0,0,1,1.0069-.05c0.5566,0.0263,1.247,2.2,1.5176,4.1347a0.43,0.43,0,0,0,.3115.3584,0.6523,0.6523,0,0,0,.4931-0.2216,4.5,4.5,0,0,0,.7207-1.3409l-0.0107.0059a1.7991,1.7991,0,0,0,.0811-0.209,15.7081,15.7081,0,0,0,.6494-3.3691,0.64,0.64,0,0,1,.0068-0.1084,7.7341,7.7341,0,0,0-.31-2.167,4.7167,4.7167,0,0,0-1.208-1.9238,2.9124,2.9124,0,0,0-2.1758-.5977,21.2884,21.2884,0,0,0-5.7138,1.6738,11.8559,11.8559,0,0,1-1.84.6631,5.0819,5.0819,0,0,1-.44-0.7441,4.839,4.839,0,0,0-1.998-2.3321,1.6236,1.6236,0,0,0-.9258-0.0957,7.2916,7.2916,0,0,0-1.7447.61,6.01,6.01,0,0,1-2.0742.6435c-1.5742-.0419-1.8921-0.4384-1.9624-0.6064-0.1767-.4531.47-1.28,0.8106-1.6221a0.4156,0.4156,0,0,0,.1264-0.3662,0.4335,0.4335,0,0,0-.2275-0.3164c-0.15-.081-2.1138-0.9219-4.3687,3.3965-1.4838,2.8545-3.0253,5.8057-4.6977,6.0449a1.8677,1.8677,0,0,1-1.0742-.1787,2.6109,2.6109,0,0,1-1.565-1.8242c-0.2832-1.2783.3662-2.9541,1.771-4.5938a0.4137,0.4137,0,0,0,.0157-0.5293,0.4212,0.4212,0,0,0-.5127-0.1357c-0.168.0693-4.1973,1.8818-4.2608,6.1719a7.7558,7.7558,0,0,0,2.14,5.7588,3.8862,3.8862,0,0,1-1.3931.332,3.1083,3.1083,0,0,1-2.0127-1.0869A0.4492,0.4492,0,0,0,262.81,344.2a0.4277,0.4277,0,0,0-.2408.4532,6.88,6.88,0,0,0,2.41,4.0361,5.8222,5.8222,0,0,0,3.2046,1.2676,12.1033,12.1033,0,0,0-1.6089,3.0381,14.0673,14.0673,0,0,0-.876,4.5859,0.4372,0.4372,0,0,0,.3154.4062,0.4231,0.4231,0,0,0,.4732-0.18,12.4618,12.4618,0,0,1,1.8726-2.336,17.9357,17.9357,0,0,1-1.2447,3.2705c-1.1748,2.57-.7221,7.6875-0.7,7.9053a0.4165,0.4165,0,0,0,.36.3828,0.44,0.44,0,0,0,.458-0.2578,4.5026,4.5026,0,0,1,3.3652-2.4971,5.5512,5.5512,0,0,1,.8316-0.0576,1.3984,1.3984,0,0,1,1.4931.9,4.5871,4.5871,0,0,1-1.0317,3.7236,1.4354,1.4354,0,0,1-.7041.3028,1.7275,1.7275,0,0,1-.9033-0.1221,0.4385,0.4385,0,0,0-.6231.3984,3.0459,3.0459,0,0,0,2.1035,2.6651c0.1739,0.0674.3609,0.1172,0.5435,0.1719,0.9946,0.3193,2.1147.6738,2.333,1.3183a1.7224,1.7224,0,0,1-.43,1.4131,2.5137,2.5137,0,0,1-1.5229,1.2324,0.9046,0.9046,0,0,1-.6778-0.1816,0.5757,0.5757,0,0,1-.227-0.2852,3.894,3.894,0,0,1,.3545-1.2168,0.4469,0.4469,0,0,0-.103-0.4912,0.4332,0.4332,0,0,0-.4922-0.0742,3.4248,3.4248,0,0,0-1.4776,3.6934,4.64,4.64,0,0,0,4.3277,3.9541,6.1744,6.1744,0,0,0,1.0927-.2159,5.4573,5.4573,0,0,1-3.5991,2.4493c-3.248.8066-6.5034,1.9238-8.26,4.53-0.2974.4493-.6431,0.9688-0.9834,1.5567-2.4571-1.2168-4.2544-3.7256-5.0884-7.0977A13.2,13.2,0,0,1,260.0208,371.4a20.3723,20.3723,0,0,0,4.6484-8.47,14.6165,14.6165,0,0,0-.5483-9.4023c-1.6123-3.3916-6.13-5.4678-11.186-3.8409a0.1766,0.1766,0,0,0-.04.0039,8.5933,8.5933,0,0,0-2.855,1.1719,9.9365,9.9365,0,0,0-3.1406,2.6944,9.0323,9.0323,0,0,0-1.5806,2.581,26.6264,26.6264,0,0,0-2.1,8.0449,0.1382,0.1382,0,0,0,.0445.0059,6.84,6.84,0,0,0,0,1.8975c0.396,2.6787,2.6953,5.2968,5.7153,4.85a4.8292,4.8292,0,0,0,3.8086-3.7207,0.4458,0.4458,0,0,0-.2168-0.459,0.4314,0.4314,0,0,0-.5005.0615,4.0183,4.0183,0,0,1-1.9595,1.1064,0.94,0.94,0,0,1-.7646-0.1542,0.72,0.72,0,0,1-.167-0.5821,1.9639,1.9639,0,0,1,.8135-1.1015,2.9628,2.9628,0,0,0,1.3012-2.8477A3.7143,3.7143,0,0,0,250.143,361c-0.8247-.9169-1.7383-1.45-1.6285-2.8437a6.8618,6.8618,0,0,1,.9737-2.2471c1.1782-1.7187,3.2285-2.8017,6.1147-3.2353,2.6831-.3916,4.4361.3759,5.3775,2.3545,1.8017,3.7783.145,9.6923-3.3116,13.8017a17.0162,17.0162,0,0,0-3.4917,14.8418c1.08,4.376,3.6416,7.793,7.0572,9.4483a12.5075,12.5075,0,0,0-.0293,7.0166,13.22,13.22,0,0,0,3.562,6.1425,4.79,4.79,0,0,1,1.5019,2.2481c0.3716,1.8857.4771,2.8066-1.5019,4.5-1.48,1.2607-4.56,3.9092-2.1846,6.791a2.3812,2.3812,0,0,0,1.8028,1.0635,3.6531,3.6531,0,0,0,2.2817-1.3565,5.41,5.41,0,0,1,1.3745-1.0927c0.5972-.2618,1.2749.2578,2.1118,0.9013a6.3906,6.3906,0,0,0,3.9126,1.7256,8.4991,8.4991,0,0,0,4.063-1.166,4.5682,4.5682,0,0,1,2.02-.7051c1.3477-.0029,1.65,1.7354,1.6538,1.8213a0.4294,0.4294,0,0,0,.3277.3516,0.55,0.55,0,0,0,.0971.0088,0.4567,0.4567,0,0,0,.3584-0.1846c0.0825-.126,2.2066-3.2451.6914-5.7813-1.59-2.6757-4.227-3.3564-7.333-1.8369a5.7751,5.7751,0,0,1-2.3774.7315c-0.8623,0-2.3125-.251-2.9946-3.7168a13.408,13.408,0,0,1,.5878-7.4268,23.51,23.51,0,0,0,4.1158-2.3017,11.0576,11.0576,0,0,0,2.5454-2.7012,18.43,18.43,0,0,0,5.9048,1.1953,17.0032,17.0032,0,0,0,3.3574-.1416,11.2979,11.2979,0,0,0,1.6562-.3594,21.14,21.14,0,0,0,.9659,6.03c-0.6016.4707-3.4532,2.85-3.0938,5.4346,0.1953,1.4326.8057,2.1855,1.7979,2.2431a6.1485,6.1485,0,0,0,2.6816-.8105,2.0738,2.0738,0,0,1,1.01-.1983,6.605,6.605,0,0,1,1.917.58,9.7672,9.7672,0,0,0,3.34.9014,5.5142,5.5142,0,0,0,3.8086-1.5235c0.7-.5429,1.2812-0.9892,1.83-0.7968a0.6681,0.6681,0,0,1,.4433.3926,3.0957,3.0957,0,0,1-.4824,1.9853,0.4331,0.4331,0,0,0,.07.5283,0.4386,0.4386,0,0,0,.5322.0508c0.0411-.03,3.8975-2.6426,1.9786-6.4287a3.7044,3.7044,0,0,0-3.1377-2.2881,10.02,10.02,0,0,0-3.9239.9522,2.61,2.61,0,0,1-.94.3671,3.55,3.55,0,0,1-3.4131-1.914c-0.874-1.169-1.4746-3.0469,2.2022-5.7627,0.456-.3428,4.9746-3.9688,1.3076-10.5606-1.4014-2.5087-3.1309-4.38-5.2793-4.6855a7.296,7.296,0,0,0-2.1816.0117,12.8844,12.8844,0,0,0-5.1592,2.3154,6.5994,6.5994,0,0,1-3.0342,1.4092,0.79,0.79,0,0,1-.82-0.6992c-0.4068-1.5439.8857-4.6533,2.7651-5.7236a14.3365,14.3365,0,0,1,3.2891-1.3184,10.9094,10.9094,0,0,0,3.9238-1.833A10.1758,10.1758,0,0,0,293.55,374.72a17.586,17.586,0,0,0,8.2656.917,13.6735,13.6735,0,0,0,2.38-.5733,18.3288,18.3288,0,0,0,5.61-3.2295,5.5249,5.5249,0,0,1,1.915-1.19,0.8646,0.8646,0,0,1,.9414.3711,0.9678,0.9678,0,0,1-.0439,1.043,0.6388,0.6388,0,0,1-.3809.2431,1.2837,1.2837,0,0,1-.7168-0.1816,0.4548,0.4548,0,0,0-.4492,0,0.4224,0.4224,0,0,0-.2031.3974,2.9093,2.9093,0,0,0,.9492,1.8877,2.6246,2.6246,0,0,0,2.68.1661,3.8993,3.8993,0,0,0,2.5215-2.2666c0.416-.294.8242,0.8955,0.5468,1.4668a4.06,4.06,0,0,1-2.6513,1.7783l-0.0928.0175a0.4265,0.4265,0,0,0-.3477.4336,0.4078,0.4078,0,0,0,.3741.41,8.7889,8.7889,0,0,0,2.6357-.1943,7.707,7.707,0,0,0,3.9082-2.1465C323.0428,372.3438,323.04,369.2032,321.954,366.6163Zm-41.9531-29.9737c-0.1822-.0107-0.3462-0.0254-0.5069-0.039a17.261,17.261,0,0,0,4.6612-1.27l0.7529,1.3877C283.87,336.7452,281.8152,336.79,280.0008,336.6426Z"/><path class="cls-1" d="M154.6268,366.4854v19.2715h-4.586V373.31h-4.3677v-3.0849s4.1221-.4913,4.3677-3.7393h4.586Z"/><path class="cls-1" d="M170.7273,385.7842h-5.1865l3.5762-6.6875c-3.74-.3008-6.688-3.1386-6.688-6.6054,0-3.6582,3.2759-6.6075,7.3159-6.6075s7.3159,2.9493,7.3159,6.6075a5.0517,5.0517,0,0,1-.437,2.2382C175.3411,377.54,170.7273,385.7842,170.7273,385.7842ZM169.745,375.22a2.73,2.73,0,1,0-3.0029-2.7285A2.875,2.875,0,0,0,169.745,375.22Z"/><path class="cls-1" d="M398.538,380.1885c0,3.3848-3.2754,6.1426-7.2617,6.1426-4.0391,0-7.2891-2.7578-7.2891-6.1426a5.7577,5.7577,0,0,1,2.457-4.5859,5.2908,5.2908,0,0,1-1.6093-3.7676c0-3.1934,2.8925-5.76,6.4414-5.76s6.4433,2.5664,6.4433,5.76a5.4067,5.4067,0,0,1-1.6113,3.7676A5.8778,5.8778,0,0,1,398.538,380.1885Zm-3.5488,0c0-1.42-1.6934-2.5664-3.7129-2.5664-2.0469,0-3.74,1.1465-3.74,2.5664s1.6934,2.5664,3.74,2.5664C393.2957,382.7549,394.9891,381.6084,394.9891,380.1885Zm-6.6329-8.3535c0,1.1738,1.3653,2.1836,2.92,2.1836,1.5566,0,2.8672-1.01,2.8672-2.1836,0-1.2285-1.3106-2.2109-2.8672-2.2109C389.7215,369.6241,388.3562,370.6065,388.3562,371.835Z"/><path class="cls-1" d="M420.2352,379.67c0,3.6572-3.3868,6.6611-7.5625,6.6611s-7.5625-3.0039-7.5625-6.6611c0-.9834.6015-2.32,1.9667-4.668,1.4454-2.457,4.8594-8.5166,4.8594-8.5166h4.586l-3.3575,6.6328C417.8875,373.1182,420.2352,376.3663,420.2352,379.67Zm-4.0137,0a3.3658,3.3658,0,0,0-3.5488-3.1123c-2.7032,0-3.5489,1.8837-3.5489,3.1123A3.5795,3.5795,0,0,0,416.2215,379.67Z"/></svg>