<svg id="Layer_1" data-name="Layer 1" xmlns="http://www.w3.org/2000/svg" viewBox="0 0 234 109.5722"><defs><style>.cls-1{fill:#ef4136;}</style></defs><title>rsren</title><path class="cls-1" d="M51.8045,66.3831H21.5A11.6916,11.6916,0,1,1,21.5,43H42.7127L57.9974,58.2835h13.87L56.1429,42.56A21.5012,21.5012,0,0,0,51.8045,0H0V19.6168H9.8084V9.8084H51.8045a11.6916,11.6916,0,1,1,0,23.3831H21.5a21.5,21.5,0,0,0,0,43H51.8045a11.6916,11.6916,0,1,1,0,23.3831H0v9.8084H51.8045A21.5,21.5,0,1,0,51.8045,66.3831Z"/><path class="cls-1" d="M90.594,50.4433V33.2608h4.518V35.609a7.384,7.384,0,0,1,5.478-2.7749v4.4111a6.0081,6.0081,0,0,0-1.2448-.1065,5.7549,5.7549,0,0,0-4.2332,1.9564V50.4433H90.594Z"/><path class="cls-1" d="M103.1875,41.8346a9.09,9.09,0,0,1,18.1784,0A9.0894,9.0894,0,0,1,103.1875,41.8346Zm13.483,0c0-2.668-1.6011-4.9807-4.4115-4.9807s-4.3756,2.3127-4.3756,4.9807c0,2.7035,1.5651,5.0157,4.3756,5.0157S116.67,44.5381,116.67,41.8346Z"/><path class="cls-1" d="M125.6009,50.4433V26.7154h4.518v8.7512a6.6161,6.6161,0,0,1,5.3006-2.6325c4.3751,0,7.6128,3.4151,7.6128,9.036,0,5.7273-3.2732,9-7.6128,9a6.6687,6.6687,0,0,1-5.3006-2.6325v2.2058h-4.518Zm8.3954-3.593c2.6325,0,4.3751-1.9919,4.3751-4.98s-1.7426-5.0162-4.3751-5.0162a4.9845,4.9845,0,0,0-3.8774,1.9924v6.0831A5.0275,5.0275,0,0,0,133.9963,46.85Z"/><path class="cls-1" d="M146.8751,28.7074a2.7035,2.7035,0,1,1,2.7035,2.704A2.7255,2.7255,0,0,1,146.8751,28.7074Zm0.4623,21.736V33.2608h4.518V50.4433h-4.518Z"/><path class="cls-1" d="M168.8244,50.4433V40.0556c0-2.3832-1.2448-3.2017-3.1658-3.2017a4.893,4.893,0,0,0-3.9129,2.0279V50.4433h-4.518V33.2608h4.518v2.2413a7.865,7.865,0,0,1,6.0113-2.668c3.7709,0,5.5854,2.1343,5.5854,5.4785V50.4433h-4.518Z"/><path class="cls-1" d="M177.2216,48.2021l1.9564-3.1658a9.8343,9.8343,0,0,0,5.9412,2.3477c1.9564,0,2.881-.7826,2.881-1.85,0-1.1739-1.5651-1.4942-3.4506-1.85-2.9528-.5692-6.7592-1.3163-6.7592-5.4425,0-2.8819,2.5261-5.4075,7.0441-5.4075a10.9731,10.9731,0,0,1,6.9367,2.3482l-1.8145,3.0948a7.2471,7.2471,0,0,0-5.0867-1.9924c-1.6361,0-2.7035.7471-2.7035,1.7076,0,0.9964,1.3513,1.2808,3.2722,1.6721,2.9528,0.5692,6.9021,1.3872,6.9021,5.6919,0,3.1307-2.668,5.514-7.4354,5.514A11.5654,11.5654,0,0,1,177.2216,48.2021Z"/><path class="cls-1" d="M195.4719,41.8346a9.09,9.09,0,0,1,18.1784,0A9.0894,9.0894,0,0,1,195.4719,41.8346Zm13.4821,0c0-2.668-1.6006-4.9807-4.4106-4.9807s-4.376,2.3127-4.376,4.9807c0,2.7035,1.5651,5.0157,4.376,5.0157S208.954,44.5381,208.954,41.8346Z"/><path class="cls-1" d="M229.482,50.4433V40.0556c0-2.3832-1.2457-3.2017-3.1667-3.2017a4.8944,4.8944,0,0,0-3.9129,2.0279V50.4433h-4.518V33.2608h4.518v2.2413a7.8686,7.8686,0,0,1,6.0122-2.668c3.7709,0,5.5854,2.1343,5.5854,5.4785V50.4433h-4.518Z"/><path class="cls-1" d="M99.4875,73.82v6.8657H95.3608V73.82H89.3842V70.0845h5.9767V63.5032h4.1267v6.5813h5.9762V73.82H99.4875Z"/><path class="cls-1" d="M107.2437,77.6659L109.2,74.5a9.8355,9.8355,0,0,0,5.9412,2.3477c1.9569,0,2.8814-.7826,2.8814-1.85,0-1.1739-1.5651-1.4942-3.4506-1.85-2.9528-.5692-6.7592-1.3163-6.7592-5.4425,0-2.8819,2.5256-5.4075,7.0436-5.4075a10.9735,10.9735,0,0,1,6.9371,2.3482l-1.8145,3.0948a7.2474,7.2474,0,0,0-5.0872-1.9924c-1.6361,0-2.7035.7471-2.7035,1.7076,0,0.9964,1.3518,1.2808,3.2727,1.6721,2.9528,0.5692,6.9021,1.3872,6.9021,5.6919,0,3.1307-2.668,5.514-7.4358,5.514A11.5663,11.5663,0,0,1,107.2437,77.6659Z"/><path class="cls-1" d="M124.6045,71.2984a8.7157,8.7157,0,0,1,9.107-9,7.9941,7.9941,0,0,1,6.7947,3.0953l-2.9528,2.7745a4.1662,4.1662,0,0,0-3.628-1.85c-2.739,0-4.66,1.9924-4.66,4.9807s1.9209,5.0157,4.66,5.0157a4.3356,4.3356,0,0,0,3.628-1.85l2.9528,2.7395a7.9188,7.9188,0,0,1-6.7947,3.13A8.7239,8.7239,0,0,1,124.6045,71.2984Z"/><path class="cls-1" d="M155.093,79.9072V69.4485c0-2.3837-1.2448-3.1307-3.2022-3.1307a5.006,5.006,0,0,0-3.9129,2.0279V79.9072H143.46V56.1793h4.518V64.966a7.9516,7.9516,0,0,1,6.0477-2.668c3.7709,0,5.5854,2.0634,5.5854,5.4075V79.9072h-4.518Z"/><path class="cls-1" d="M185.4031,79.9072v-10.85c0-1.6011-.7116-2.7395-2.5616-2.7395a4.56,4.56,0,0,0-3.5571,1.9924V79.9072H174.731v-10.85c0-1.6011-.7116-2.7395-2.5616-2.7395a4.61,4.61,0,0,0-3.5571,2.0279V79.9072h-4.518V62.7247h4.518V64.966a7.5129,7.5129,0,0,1,5.62-2.668c2.5261,0,4.1267,1.1739,4.7673,3.1307a7.292,7.292,0,0,1,5.9057-3.1307c3.1658,0,5.0512,1.6721,5.0512,5.1941V79.9072h-4.5535Z"/><path class="cls-1" d="M193.9423,58.1712a2.7035,2.7035,0,1,1,2.7035,2.704A2.7255,2.7255,0,0,1,193.9423,58.1712Zm0.4623,21.736V62.7247h4.518V79.9072h-4.518Z"/><path class="cls-1" d="M215.2155,79.9072V77.7014a6.6687,6.6687,0,0,1-5.3006,2.6325c-4.34,0-7.6128-3.2727-7.6128-9,0-5.6209,3.2377-9.036,7.6128-9.036a6.6161,6.6161,0,0,1,5.3006,2.6325V56.1793h4.5535V79.9072h-4.5535Zm0-5.5494V68.2746a4.9152,4.9152,0,0,0-3.9129-1.9569c-2.5616,0-4.34,2.0279-4.34,5.0162,0,2.9524,1.7781,4.98,4.34,4.98A4.9148,4.9148,0,0,0,215.2155,74.3578Z"/><path class="cls-1" d="M225.1424,75.6385v-8.965h-2.8455V62.7247h2.8455V58.0293h4.5535v4.6954h3.4861v3.9488h-3.4861v7.7552a1.651,1.651,0,0,0,1.5651,1.8855,2.4641,2.4641,0,0,0,1.5651-.4982l0.9609,3.4151a5.576,5.576,0,0,1-3.7709,1.1029C226.85,80.334,225.1424,78.6979,225.1424,75.6385Z"/><path class="cls-1" d="M96.1375,109.3711l-2.8523-4.4461H91.054v4.4461H89.6612V98.18h4.4966a3.2594,3.2594,0,0,1,3.5066,3.3723,3.0918,3.0918,0,0,1-2.9028,3.255l3.02,4.5635H96.1375Zm0.0837-7.8184a2.0794,2.0794,0,0,0-2.2312-2.13H91.054V103.7H93.99A2.0927,2.0927,0,0,0,96.2212,101.5526Z"/><path class="cls-1" d="M103.2134,109.3711V98.18h7.3321v1.2421h-5.9394V103.03h5.8215v1.2412h-5.8215V108.13h5.9394v1.2412h-7.3321Z"/><path class="cls-1" d="M124.03,109.3711l-6.5263-8.9259v8.9259h-1.3932V98.18h1.4268l6.4426,8.7412V98.18h1.3923v11.1908H124.03Z"/><path class="cls-1" d="M130.8878,103.7839a5.5583,5.5583,0,1,1,5.5535,5.7883A5.4561,5.4561,0,0,1,130.8878,103.7839Zm9.6639,0c0-2.6171-1.6106-4.5462-4.11-4.5462-2.517,0-4.11,1.9291-4.11,4.5462,0,2.6007,1.5934,4.5471,4.11,4.5471C138.941,108.331,140.5517,106.3846,140.5517,103.7839Z"/><path class="cls-1" d="M150.5295,109.3711L146.0333,98.18h1.5943l3.7745,9.6639,3.7755-9.6639h1.5934l-4.5125,11.1908h-1.7289Z"/><path class="cls-1" d="M168.6624,109.3711l-0.99-2.4833h-5.57l-0.99,2.4833h-1.5943L164.0143,98.18h1.7289l4.5125,11.1908h-1.5934Zm-3.7755-9.7476-2.3823,6.0231h4.7482Z"/><path class="cls-1" d="M176.712,109.3711V99.4224h-3.5407V98.18h8.49v1.2421h-3.5571v9.9487H176.712Z"/><path class="cls-1" d="M186.8582,109.3711V98.18H188.25v11.1908h-1.3923Z"/><path class="cls-1" d="M193.7685,103.7839a5.5579,5.5579,0,1,1,5.5526,5.7883A5.4559,5.4559,0,0,1,193.7685,103.7839Zm9.6639,0c0-2.6171-1.6106-4.5462-4.1112-4.5462-2.5161,0-4.11,1.9291-4.11,4.5462,0,2.6007,1.5943,4.5471,4.11,4.5471C201.8217,108.331,203.4323,106.3846,203.4323,103.7839Z"/><path class="cls-1" d="M218.3258,109.3711l-6.5263-8.9259v8.9259h-1.3932V98.18h1.4268l6.4426,8.7412V98.18h1.3923v11.1908h-1.3422Z"/><path class="cls-1" d="M224.9649,107.7941l0.8217-1.0574a4.73,4.73,0,0,0,3.5234,1.5943c1.9965,0,2.6344-1.0738,2.6344-1.9291,0-1.3422-1.3595-1.7117-2.8355-2.1148-1.7954-.47-3.7918-0.9728-3.7918-3.17,0-1.8454,1.6443-3.1039,3.8419-3.1039a5.2646,5.2646,0,0,1,3.9766,1.56l-0.839,1.0237a4.2817,4.2817,0,0,0-3.2377-1.3422c-1.3422,0-2.2986.7216-2.2986,1.779,0,1.1238,1.2912,1.46,2.7181,1.8454,1.8281,0.4859,3.9092,1.0565,3.9092,3.406,0,1.627-1.1074,3.2877-4.1276,3.2877A5.5412,5.5412,0,0,1,224.9649,107.7941Z"/></svg>