<?xml version="1.0" encoding="utf-8"?>
<!-- Generator: Adobe Illustrator 19.2.1, SVG Export Plug-In . SVG Version: 6.00 Build 0)  -->
<svg version="1.1" id="Layer_1" xmlns="http://www.w3.org/2000/svg" xmlns:xlink="http://www.w3.org/1999/xlink" x="0px" y="0px"
	 viewBox="0 0 79.6 126" style="enable-background:new 0 0 79.6 126;" xml:space="preserve">
<style type="text/css">
	.st0{fill:#335C64;}
</style>
<g>
	<path class="st0" d="M69.8,119.2c0-0.1-0.1-0.1-0.1-0.2c-0.4-0.8-0.5-1.9-0.4-3.3l0-0.2l-0.2-0.8l-0.1-0.2
		c-0.2-0.3-0.5-0.7-0.7-0.9c-0.5-0.7-0.9-1.2-1-1.9l0-0.2l-0.5-0.8l-0.2-0.1c-0.1-0.1-0.1-0.1-0.2-0.2c0,0-0.1-0.1-0.2-0.1l0-0.2
		l-0.5-1.2l0,0l0-0.6l-0.3-0.8c0.1-0.8-0.1-1.4-0.3-2c0-0.1,0-0.2-0.1-0.3l0.3-0.3l-1-0.9l-1-1.4l-0.2,0.4c0,0,0,0,0,0
		c0.2-1.3-0.5-2.4-0.9-3c-0.1-0.2-0.3-0.4-0.3-0.5l0-0.3l-0.8-1l0,0c0-0.3-0.1-0.6-0.1-1c-0.1-1.6-0.3-3.7-2.3-4.7l-0.3-0.2l0-0.2
		l-0.8-1c0,0,0-0.1,0-0.1c-0.1-0.3-0.2-0.7-0.4-1.1l0.4-0.1c0.4-0.1,0.6-0.4,0.6-0.7v-9.1c0-0.4,0.2-0.6,0.6-0.7l2.7-0.7
		c0.4-0.1,0.6-0.4,0.6-0.7v-2.2c0-0.4-0.2-0.5-0.6-0.4l-10,2.7c-0.4,0.1-0.6,0.4-0.6,0.7v2.2c0,0.4,0.2,0.5,0.6,0.4l2.7-0.7
		c0.4-0.1,0.6,0,0.6,0.4v8.3c0,0-0.1,0-0.2,0.1c-0.1,0.1-0.2,0.1-0.3,0.2c0,0.2,0,0.4-0.1,0.6c0.2,0,0.4-0.1,0.6-0.1v0
		c0,0.4,0.2,0.5,0.6,0.4l0.5-0.1c0.3,0.3,0.4,0.7,0.5,1.1c0.1,0.4,0.2,0.6,0.3,0.6l0.5,0.6l0,0.7l-0.4,0.5c-0.3,0.1-0.4,0.5-0.6,0.9
		c0,0,0,0,0,0.1c0.1,0,0.1,0,0.2,0.1l0.1,0.1c0.1-0.1,0.2-0.1,0.2-0.1c0.4-0.3,0.6-0.4,0.7-0.7l0.9-0.4c1.4,0.7,1.5,2.3,1.6,3.7
		c0.1,0.6,0.1,1.3,0.3,1.8c0,0,0,0,0,0c0.1,0,0.2,0,0.3,0.1l0.4,0.5c0,0.3,0.3,0.7,0.5,1c0.4,0.6,1,1.5,0.6,2.4
		c0.2,0.3,0.3,0.5,0.3,0.8c0.2,0.6,0.3,0.9,0.6,0.9c0,0,0,0,0,0c0,0,0.1,0,0.3,0l0.4,0.1l0,0l0,0.1l0.1,0l0,0l0,0l0.2,0.3
		c0,0.2,0.1,0.4,0.1,0.5c0.2,0.6,0.3,1.3,0.2,2.1c0.1,0,0.1,0.1,0.2,0.1l0.2,0.5l0,0.7c0,0,0,0.1,0.1,0.1c0.1,0.2,0.2,0.3,0.2,0.4
		l0.3,0.6c-0.1,0.6,0.1,0.8,0.7,1.2c0.1,0,0.1,0.1,0.2,0.1l0.2,0.4c0.2,1,0.7,1.7,1.3,2.4c0.2,0.3,0.4,0.6,0.6,0.9l0.1,0.4
		c-0.1,1.7,0,3,0.6,4c0.1,0.1,0.1,0.2,0.2,0.3c0,0,0.1,0.1,0.1,0.2c0.5,0.7,1.4,2.2,0.2,3.5l-0.5,0.2c-0.1,0-0.1,0-0.1,0
		c-1-0.1-1.7,0.3-2.4,0.6c-0.7,0.3-1.4,0.6-2.2,0.6l-0.6-0.4c-0.2-0.8-0.9-1.7-1.7-1.8c-0.1,0-0.1,0-0.2,0l-0.6-0.5
		c0-0.1,0-0.1,0-0.2c0-0.1,0-0.1,0-0.2l-0.6-0.6c0-0.2,0-0.3-0.1-0.4c-0.1-0.1-0.2-0.2-0.3-0.2l-0.8,0.3c-0.5-0.3-1-0.4-1.6-0.6
		c-0.4-0.1-0.8-0.2-1.2-0.3c-0.6,0.8-1.6,0.9-2.4,1l-0.1,0l-0.4-0.1c-0.2-0.1-0.4-0.3-0.6-0.5c-1-0.8-2.1-1.7-3.3-1.9l-0.4-0.7
		c-0.2-0.1-0.4-0.2-0.6-0.3c-0.2,0.3-0.5,0.6-0.9,0.8l-0.8-0.8c0.1-0.2,0.2-0.4,0.3-0.6c0-0.1,0.1-0.2,0.1-0.3
		c-0.2-0.2-0.5-0.4-0.8-0.5c-0.8-0.5-2-1.2-1.7-2.6l0.2-0.1c0-0.2,0-0.3,0.1-0.5c-0.3-0.4-0.6-1.1-0.7-1.7c-0.1-0.5,0-1.1,0.2-1.6
		c0.1-0.4,0.2-0.9,0.2-1.3c0,0,0-0.1,0-0.1l0-0.1h0l0,0c0,0,0,0,0,0c0-0.1-0.1-0.3-0.2-0.4c-0.1-0.2-0.2-0.4-0.2-0.6
		c0-0.3,0.1-0.5,0.2-0.8c0-0.1,0.1-0.1,0.1-0.2c0,0,0-0.1,0-0.2c-0.1-0.2-0.1-0.4-0.1-0.6l0,0c0-0.1,0-0.1,0-0.2
		c-0.1-0.5-0.3-1.2,0-2c0.1-0.4,0.3-0.6,0.5-0.8c0.2-0.2,0.3-0.3,0.2-0.6l0.4-0.4c0,0,0,0,0,0l0,0c0,0,0,0,0.1-0.1
		c0.1-0.6,0.4-1,0.7-1.3c0.2-0.3,0.5-0.6,0.6-1c0,0-0.1,0-0.1,0l-0.2-0.3c-0.1,0.1-0.3,0.1-0.4,0.1c0,0-0.1,0-0.2,0L44.7,99
		l-0.1-0.1c-0.4-0.3-0.6-0.5-1.1-0.6c0,0-0.1,0.1-0.1,0.1c-0.2,0.2-0.4,0.3-0.5,0.5l-0.9,0c-0.1-0.1-0.3-0.1-0.5-0.2
		c-0.1,0-0.1,0-0.2-0.1l0.2-1.2c-0.2,0-0.3,0.1-0.3,0.2c0-0.1,0-0.5-0.1-0.8c-0.1-0.2-0.2-0.2-0.2-0.2c0,0-0.1,0-0.1,0L40,96.2
		c0,0,0-0.1,0-0.1l0,0c0-0.1-0.1-0.1-0.1-0.2c0,0-0.1-0.1-0.1-0.1c-0.2-0.3-0.6-0.5-0.9-0.7c-0.2-0.1-0.4-0.2-0.5-0.4l0.7-0.2
		c0.4-0.1,0.6-0.4,0.6-0.7v-2.2c0-0.4-0.2-0.5-0.6-0.4l-4.7,1.3c-0.4,0.1-0.6-0.1-0.6-0.4v-0.6c0-0.4,0.2-0.6,0.6-0.7l3-0.8
		c0.4-0.1,0.6-0.4,0.6-0.7v-2.2c0-0.4-0.2-0.5-0.6-0.4l-3,0.8c-0.4,0.1-0.6-0.1-0.6-0.4v-0.6c0-0.4,0.2-0.6,0.6-0.7l4.7-1.3
		c0.4-0.1,0.6-0.4,0.6-0.7v-2.2c0-0.4-0.2-0.5-0.6-0.4l-8.2,2.2c-0.4,0.1-0.6,0.4-0.6,0.7v12.5c0,0.4,0.2,0.5,0.6,0.4l6.1-1.6
		c0.4,0.5,1,0.8,1.4,1c0.2,0.1,0.5,0.3,0.6,0.4c0,0,0,0,0,0c0,0,0,0,0,0.1L39,97l1.2,0.7l-0.3,1.7l1,0.3c0.1,0,0.1,0,0.2,0.1
		c0,0,0.1,0,0.1,0l0.2,0.2l2,0l0.3-0.3c0,0,0.5,0.4,0.5,0.4c-0.1,0.1-0.1,0.3-0.2,0.4l-0.6,0.8l0.1,0.1l0,0.1
		c-0.2,0.2-0.4,0.6-0.6,1.1c-0.3,1.1-0.1,2,0,2.5c0,0,0,0.1,0,0.1l0,0c0,0.2,0,0.3,0.1,0.5c-0.1,0.3-0.3,0.7-0.3,1.2
		c0,0.6,0.3,1,0.4,1.2c0,0,0,0,0,0l0,0.1c0,0,0,0,0,0.1c0,0.3-0.1,0.6-0.1,0.9c-0.1,0.6-0.3,1.3-0.2,2c0.1,0.5,0.2,1,0.5,1.6
		l-0.1,0.3c-0.5,2.1,1.1,3.2,2,3.8l-0.4,0.6l2.1,2.2l0.8-0.4c0.1-0.1,0.2-0.1,0.3-0.2l0.3,0.4l0.6,0.1c0.8,0.1,1.8,0.9,2.7,1.6
		c0.2,0.2,0.4,0.3,0.6,0.5l0.2,0.1l0.9,0.3l0.3,0c0.7-0.1,1.8-0.2,2.7-0.8c0.2,0.1,0.4,0.1,0.5,0.1c0.5,0.1,0.9,0.2,1.3,0.4l0.5,0.3
		l0.4-0.2l0.4,0.4l0.1,0.4l1.4,1.1l0.5,0c0,0,0,0,0,0c0.2,0,0.5,0.4,0.7,0.9l0.1,0.4l1.2,0.9l0.4,0c1.1,0,1.9-0.4,2.7-0.7
		c0.7-0.3,1.2-0.5,1.9-0.5c0,0,0.1,0,0.1,0l0.3,0l1.1-0.4l0.2-0.2c1.8-2,0.4-4.2-0.1-4.9C69.8,119.3,69.8,119.2,69.8,119.2z"/>
	<path class="st0" d="M12.2,24.2c0.2,0,0.4-0.1,0.6-0.3c0.4-0.2,0.8-0.4,1.3-0.4c0.2,0,0.4,0.1,0.5,0.1l0.1,0.1
		c0.2-0.1,0.3-0.1,0.5-0.1c0.1,0,0.3,0,0.5,0.2c0.1-0.1,0.3-0.1,0.4-0.2c0.3-0.1,0.6-0.3,0.8-0.5l0.1,0c0,0,0.1-0.1,0.1-0.1
		c0.1-0.1,0.2-0.3,0.2-0.5l0.5-0.5c0.4,0,0.6-0.4,0.9-1.1c0.2-0.5,0.4-1.1,0.9-1.5c-0.1-0.1-0.1-0.3-0.1-0.6l0.8-0.5c0,0,0,0,0,0
		c-0.2,0-0.4,0.1-0.4,0.2c0,0,0,0,0,0c0-0.2,0.2-0.6,0.6-0.7l0,0c0.1,0,0.2,0,0.3,0c0.2,0,0.3,0.1,0.4,0.1c0.1-0.1,0.2-0.3,0.2-0.4
		c-0.2-0.1-0.5-0.2-0.5-0.6l0.1-0.5c0.1-0.1,0.1-0.2,0.2-0.2c0.1-0.1,0.2-0.2,0.2-0.2c0,0,0,0,0,0c0-0.1,0-0.1,0-0.2v0
		c0-0.1,0-0.2,0-0.3c-0.4-1.6,1.3-2.5,2.3-2.9c0,0,0,0,0-0.1l0.9-0.6c-0.1,0-0.1-0.1-0.2-0.1c-0.1,0-0.2,0-0.2,0c0,0,0.1,0,0.1-0.1
		c0.2-0.2,0.5-0.4,1-0.4c1.2-1.3,2.2-2.7,2.8-3.9c0-0.1,0.1-0.2,0.1-0.3c0.1-0.3,0.2-0.9,0.7-1.2l0-0.4l0.5-0.2c0,0,0,0,0-0.1
		L30,4.5c0,0,0,0,0.1,0C30.3,4,30.7,3.6,31,3.2c0.2-0.2,0.4-0.4,0.6-0.7l0.5-0.3c1,0,1.8-0.3,2.7-0.6c0.5-0.2,1-0.4,1.6-0.5l0.2,0
		c2.2,0.3,3.8,1.4,4.2,2.8c0,0,0.1,0,0.1,0c0.2,0,0.3,0.1,0.5,0.2l0,1c-0.2,0.2-0.5,0.2-0.7,0.2c-0.1,0-0.1,0-0.2,0
		c0.6,0.8,1.6,1.6,2.7,2.2C43.6,7.7,43.8,7.9,44,8c1,0.4,2.1,0.7,3.1,0.7c0.7,0,1.4,0,2-0.1l0.4,0c0.2,0.1,0.4,0.2,1,0.2
		c0.2,0,0.5,0,0.7,0c0.1,0,0.1,0,0.2,0c0.1,0,0.2,0,0.2,0l0,0c0.1,0,0.3,0,0.4,0c0.3,0,0.5-0.1,0.7-0.2C53,8.5,53.4,8.3,53.8,8
		c0.4-0.3,0.8-0.6,1.4-0.8c0.3-0.1,0.5-0.1,0.8-0.2c0.2,0,0.3,0,0.4-0.1c0.5-0.2,1-0.5,1.4-0.7c1.3-0.7,2.6-1.4,4-1.7l0.7,0.3
		c0-0.1-0.1-0.1-0.1-0.1l0,0c0.1,0.1,0.1,0.1,0.2,0.2c1.9,0.1,3.4,1.2,3.8,2.7c0,0,0,0.1,0.1,0.1l-0.2,0.2l0.2,0c0,0.1,0,0.1,0,0.2
		c0,0,0,0.1,0,0.1c0.9,0.8,1.4,1.9,1.9,2.9c0,0.1,0.1,0.2,0.1,0.3c0,0,0,0,0.1,0.1c1,0.5,2.2,1.5,2,3.7l-0.5,0.5
		c-0.1,0-0.2,0.1-0.4,0.3c-0.1,0.1-0.2,0.2-0.4,0.3l-0.2,0.1c-0.6,0.2-1.2,0.2-1.6,0.1c-0.1,0-0.3,0-0.4,0c-0.1,0-0.3,0-0.4,0
		c-0.3,0-0.5,0-0.7,0c-0.3,0-0.5,0.1-0.8,0.2c-0.1,0.1-0.2,0.2-0.3,0.2l0,0c-0.1,0-0.1,0.1-0.2,0.1l0,0c-0.1,0-0.1,0.1-0.2,0.1
		c-0.2,0.2-0.4,0.4-0.6,0.7c0,0-0.3,0.5-0.4,0.6c-0.4,0.6-0.7,1.4-1,2.1c-0.4,1-0.8,1.9-1.3,2.6c0,0.6-0.1,1.3-0.6,1.7
		c0,0.1,0,0.1,0,0.2l0,0.2c0,0.1-0.1,0.2-0.1,0.3c0,0.1-0.1,0.1-0.1,0.2c-0.2,0.6-0.5,1.1-0.7,1.6c-0.4,0.8-0.8,1.6-1,2.7
		c0,0.1-0.1,0.3-0.2,0.4c0.2,1.7,0,3.7-0.2,5.5l-3.5,0.9c-0.4,0.1-0.6,0.4-0.6,0.8v12.5c0,0.4,0.3,0.5,0.6,0.4l2.2-0.6
		c0.4-0.1,0.6-0.4,0.6-0.8v-3.1c0-0.4,0.3-0.7,0.6-0.8l0.8-0.2c0.1,0,0.1,0,0.2,0.1l2,3.4C61,49,61.1,49,61.3,49l2.2-0.6
		c0.6-0.2,0.9-0.8,0.6-1.2l-2.1-3.3c0-0.1,0-0.2,0.1-0.3c1-1,1.5-2.4,1.5-4.2c0-3.1-1.3-4.2-4.4-3.5c0.2-1.6,0.3-3.4,0.2-4.9
		c0.1-0.2,0.1-0.4,0.1-0.4c0.2-0.9,0.6-1.6,0.9-2.4c0.3-0.5,0.6-1.1,0.8-1.7c0-0.1,0.1-0.1,0.1-0.2c0.1-0.1,0.1-0.2,0.1-0.4l0.1-0.2
		l0-0.1c0.5-0.6,0.6-1.3,0.6-1.8c0.5-0.8,0.9-1.6,1.3-2.5c0.3-0.7,0.6-1.4,0.9-1.9c0.1-0.1,0.3-0.5,0.4-0.6c0.1-0.2,0.2-0.3,0.4-0.5
		c0,0,0.1-0.1,0.1-0.1l0,0c0.1-0.1,0.2-0.1,0.2-0.2l0,0c0.1-0.1,0.1-0.1,0.2-0.2c0.1,0,0.2-0.1,0.4-0.1c0.1,0,0.2,0,0.4,0
		c0.1,0,0.2,0,0.4,0c0.2,0,0.3,0,0.5,0c0.5,0,1.3,0,2-0.2l0.1,0l0.4-0.2l0.1-0.1c0.2-0.2,0.4-0.3,0.5-0.5c0,0,0,0,0,0l0.2,0l1-1.1
		l0-0.4c0.2-2.1-0.5-3.6-2.3-4.7c0,0,0,0,0,0c-0.4-1-0.9-2.1-1.7-2.9l-0.2-0.4l-0.2-0.8l-0.2,0c-0.8-1.4-2.3-2.4-4.3-2.7l0,0l-1-0.5
		l-0.4,0.1c-1.6,0.3-2.9,1-4.3,1.8c-0.4,0.2-0.9,0.5-1.3,0.7c0,0-0.1,0-0.1,0c-0.3,0-0.6,0.1-1,0.3c-0.6,0.3-1.2,0.6-1.6,0.9
		c-0.3,0.2-0.6,0.4-0.7,0.4c-0.1,0-0.3,0.1-0.5,0.1c-0.1,0-0.3,0-0.4,0l0,0c-0.1,0-0.2,0-0.3,0c0,0-0.1,0-0.1,0c-0.2,0-0.4,0-0.5,0
		c-0.4,0-0.5-0.1-0.5-0.1l-0.2-0.1L49,7.4l-0.2,0c-0.5,0.1-1,0.1-1.6,0.1c-0.8-0.1-1.7-0.3-2.6-0.6c-0.3-0.2-0.6-0.3-0.9-0.4
		c-0.4-0.2-0.7-0.4-1-0.7l-0.1-2.3l-0.5-0.3c-0.1-0.1-0.2-0.1-0.3-0.2c-0.8-1.6-2.6-2.8-5-3.1l-0.1,0l-0.4,0l-0.1,0
		c-0.7,0.1-1.3,0.3-1.8,0.5c-0.8,0.3-1.4,0.5-2.3,0.5l-0.3,0l-1.1,0.6l-0.2,0.3c-0.1,0.2-0.3,0.3-0.4,0.5c-0.3,0.3-0.6,0.7-0.9,1.2
		l-0.5,0.6l-0.8,0.4l0,0.6c-0.5,0.5-0.6,1.2-0.7,1.5c0,0,0,0.1,0,0.1c-0.5,1-1.3,2.2-2.3,3.3c-0.6,0.2-1,0.5-1.2,0.7c0,0,0,0,0,0
		c0,0,0.1,0,0.1-0.1l0.1,0.2l-0.9,0.6c-2.5,1.2-2.7,2.8-2.5,3.8c0,0-0.1,0.1-0.1,0.2L20,15.8l-0.2,1c-0.3,0.2-0.7,0.5-0.9,1
		l-0.5,0.3l0,0.6c0,0.1,0,0.2,0,0.3c-0.3,0.5-0.5,1-0.7,1.4c-0.1,0.2-0.1,0.3-0.2,0.4l-0.1,0l-1.1,1.1l0,0.4
		c-0.1,0.1-0.3,0.1-0.4,0.2c-0.1,0-0.3,0-0.4-0.1c-0.1,0-0.2,0-0.4,0c-0.3-0.1-0.5-0.1-0.8-0.2c-0.9-0.1-1.6,0.3-2,0.6
		c-0.1,0-0.2,0.1-0.3,0.1l-0.3,0.1L11,23.6c-0.1,0-0.3,0.1-0.3,0.1C10.1,23.8,9,24,8.3,24.8c-0.2,0-0.4-0.1-0.5-0.1l-0.5-0.2
		l-1.8,0.8l-0.1,0.3c0,0-0.1,0-0.1,0.1l-0.3,0l-0.4,0.7l0,0l-0.8,0.6l-0.1,0.2c-0.3,0.6-0.4,1.3-0.2,2.1c0.1,0.2,0.2,0.4,0.3,0.7
		c0,0,0,0.1,0,0.1l-0.1,0l-0.2,0.5c-0.1,0.3-0.2,0.7-0.1,1c-0.5,0.9-0.8,1.9-0.8,2.8l-0.4,0.5l0,0.4c0,0.1,0,0.2,0,0.4
		c-0.1,0.6-0.2,2.3,1.2,3c0.2,0.4,0.4,0.7,0.7,1.1c0,0.6,0.2,1.1,0.7,1.7l0,1l0.5,0.3c0.1,0.1,0.3,0.5,0.5,0.8
		c0.3,0.7,0.8,1.7,1.8,2.4l0.3,0.2l0.1,0c-0.1,0.2-0.3,0.3-0.5,0.5c-1.7,1.7-3.3,3.3-4.6,5.2c-1.6,2.2-3.1,4.7-2.7,8.5
		c0.3,3.3,1.7,5.8,3.7,7.5c2,1.7,5.1,2.6,8.9,1.8c0.2,1.2,0.4,2.4,0.6,3.7c0.2,1.2,0.5,2.6,0.4,4c-0.1,1.6-1.1,2.8-2.4,3.3
		c-1.3,0.5-3.7,0.5-4-1c1.5-0.3,2.6-1.2,2.4-3c-0.2-1.5-1.7-2.8-3.5-2.3c-1.4,0.4-2.3,1.8-2.1,3.9c0,0.1,0,0.2,0.1,0.3
		c0.4,1.7,2.2,2.8,3.8,3.2c1,0.3,2.1,0.4,3.1,0.2c2.9-0.6,4.2-3.2,3.8-6.7c-0.2-2.1-0.7-4.1-1-6c1.6-0.6,2.8-1.6,3.7-3
		c0.8-1.4,1.4-3.3,1-5.5c-0.6-3.5-3.2-6.3-7.6-5.5c-0.3-1.5-0.6-3-0.9-4.4c0-0.2-0.2-0.5-0.1-0.6c0-0.2,0.6-0.7,0.8-0.9
		c1.9-2.1,3.4-4.8,3.9-8.3c0.4-3.2,0.1-6.8-1-9.1c-0.3-0.8-0.8-1.6-1.5-1.9c-1-0.5-1.9,0.4-2.4,0.9c-1.2,1.4-2,3.4-2.4,5.6
		c-0.5,2.9,0.1,5.7,0.6,8.2c-0.5-0.5-0.8-1-1-1.6c-0.2-0.5-0.5-1.1-0.9-1.3l0-1c0,0.1,0,0.1,0,0.2c0-0.1-0.1-0.2-0.2-0.3
		c-0.2-0.2-0.6-0.8-0.4-1.4c-0.5-0.5-0.9-1.1-1.1-1.8L4,37.5c-0.8-0.3-0.7-1.2-0.7-1.9c0-0.2,0-0.3,0-0.4l0.4-0.6
		c-0.1-1,0.2-2,0.9-3c-0.1-0.2-0.1-0.5,0-0.8l0.3-0.1c0-0.1,0.1-0.2,0.2-0.4c0-0.1,0-0.1,0-0.2C5,30,4.9,29.8,4.9,29.5
		c0,0,0-0.1,0-0.1c-0.2-0.2-0.3-0.4-0.4-0.6c-0.1-0.4-0.1-0.8,0.1-1.1L5,27.4c0.1,0,0.2,0,0.3,0l0.4-0.7c0,0,0.1,0,0.2-0.1
		c0.1-0.1,0.3-0.2,0.6-0.2c0-0.1,0-0.2,0.1-0.3l0.8-0.4c0.3,0.1,0.6,0.2,1,0.3c0.2,0,0.3,0.1,0.5,0.1c0.4-0.9,1.4-1.1,2.1-1.2
		c0.2,0,0.7-0.1,0.8-0.2c0,0,0,0,0,0L12.2,24.2z M60.3,40.2c0,1.2-0.5,1.5-1.4,1.7l-1,0.3c-0.4,0.1-0.6-0.1-0.6-0.4v-1.4
		c0-0.4,0.3-0.7,0.6-0.8l1-0.3C59.8,39,60.3,39,60.3,40.2z M11.6,58.5c2.8,0,4.6,2.5,4.4,5.5c-0.1,1.9-1.2,3.1-2.5,4
		C12.8,64.9,12.2,61.7,11.6,58.5C11.5,58.5,11.5,58.5,11.6,58.5z M9.9,55.5C8.7,56,7.8,56.6,7,57.6c-0.7,0.9-1.4,2-1.4,3.5
		c-0.1,2.7,1.8,4.3,3.5,5.2c0.3,0.1,0.7,0.4,0.8,0.1c0-0.1-0.1-0.2-0.3-0.4c-0.9-0.9-1.9-2-1.8-3.9c0.1-1.9,1.2-2.9,2.7-3.5
		c0.7,3.2,1.3,6.5,1.9,9.8c-2.6,0.9-5.4,0.1-7-1c-1.8-1.2-2.9-3.1-3.1-5.7c-0.5-5.9,3.8-8,6.6-10.8c0,0,0.1,0,0.1-0.1
		C9.3,52.4,9.6,53.9,9.9,55.5z M10.8,35c0.4-0.4,1.3-0.9,1.9-0.4c0.5,0.4,0.6,1.3,0.6,2.2c0,1.9-0.7,3.4-1.6,4.7
		c-0.8,1.2-1.7,2.3-2.5,3.1c0,0,0,0,0,0c-0.1,0.1-0.2,0.1-0.3,0.2C8.1,41.4,8.8,36.8,10.8,35z"/>
	<path class="st0" d="M24.5,59.2c4.6-1.2,4.9-4.8,4.9-6.1v-8.7c0-0.4-0.2-0.5-0.6-0.4l-2.2,0.6c-0.4,0.1-0.6,0.4-0.6,0.7V53
		c0,1.5-0.1,2.4-1.5,2.8c-1.4,0.4-1.5-0.5-1.5-2v-7.7c0-0.4-0.2-0.5-0.6-0.4l-2.2,0.6c-0.4,0.1-0.6,0.4-0.6,0.7v8.7
		C19.6,57,19.9,60.4,24.5,59.2z"/>
	<path class="st0" d="M36,45.1c1.1-0.3,1.4,0.2,1.5,1.1c0,0.4,0.3,0.5,0.6,0.3l2.2-1.1c0.4-0.2,0.5-0.4,0.5-0.8
		c-0.1-1.5-0.8-4-4.9-2.9C31.3,43,31,46.5,31,47.8v4.9c0,1.3,0.3,4.7,4.9,3.4c4.6-1.2,4.9-4.8,4.9-6.1v-2.6c0-0.4-0.2-0.5-0.6-0.4
		l-3.9,1c-0.4,0.1-0.6,0.4-0.6,0.7v1.6c0,0.4,0.2,0.5,0.6,0.4l1.1-0.3c0,1-0.1,1.9-1.5,2.3c-1.4,0.4-1.5-0.5-1.5-2v-2.8
		C34.4,46.4,34.5,45.5,36,45.1z"/>
	<path class="st0" d="M49.3,52.2l2.2-0.6c0.4-0.1,0.6-0.4,0.6-0.8v-8.3c0-2.5-0.4-5-4.8-3.8c-4.4,1.2-4.8,3.9-4.8,6.4v8.3
		c0,0.4,0.2,0.6,0.6,0.5l2.2-0.6c0.4-0.1,0.6-0.4,0.6-0.7v-1.7c0-0.4,0.2-0.6,0.6-0.7l1.7-0.5c0.4-0.1,0.6,0,0.6,0.4v1.7
		C48.7,52.2,48.9,52.3,49.3,52.2z M48.1,46.3l-1.7,0.4c-0.4,0.1-0.6-0.1-0.6-0.4v-2.1c0-0.9,0.1-1.4,1.4-1.8c1.3-0.3,1.4,0.1,1.4,1
		v2.1C48.7,45.9,48.5,46.1,48.1,46.3z"/>
	<path class="st0" d="M22.3,65.7l-2.1,0.6c-0.4,0.1-0.6,0.4-0.6,0.7v12.5c0,0.4,0.2,0.5,0.6,0.4l2.1-0.6c0.4-0.1,0.6-0.4,0.6-0.7
		V66.1C22.9,65.7,22.7,65.6,22.3,65.7z"/>
	<path class="st0" d="M34.6,72.3c0-4.5-6.2-2.8-6.4-4.3c-0.1-0.4,0.4-1,1.2-1.2c0.9-0.2,1.6,0.1,1.7,0.9c0.1,0.4,0.3,0.5,0.6,0.3
		l2.2-1.1c0.4-0.2,0.5-0.4,0.5-0.8c-0.1-1.4-1.1-3.7-5.1-2.7c-4.4,1.2-4.7,4.7-4.7,5.3c0,4.5,5.9,2.5,6.3,4.1
		c0.1,0.5-0.6,1.3-1.5,1.5c-0.9,0.2-1.6-0.1-1.7-1c0-0.4-0.3-0.5-0.6-0.3l-2.2,1.1c-0.4,0.2-0.5,0.4-0.5,0.8c0.1,1.5,1,4,5.1,2.9
		C33.9,76.5,34.6,72.9,34.6,72.3z"/>
	<path class="st0" d="M36.6,75.5l7.7-2.1c0.4-0.1,0.6-0.4,0.6-0.7v-2.2c0-0.4-0.2-0.5-0.6-0.4l-4.4,1.2c-0.4,0.1-0.6-0.1-0.6-0.4
		v-9.1c0-0.4-0.2-0.5-0.6-0.4l-2.2,0.6C36.2,62,36,62.2,36,62.6v12.5C36,75.5,36.2,75.6,36.6,75.5z"/>
	<path class="st0" d="M52.8,71.2l2.2-0.6c0.4-0.1,0.6-0.4,0.6-0.8v-8.3c0-2.5-0.4-5-4.8-3.8c-4.4,1.2-4.8,3.9-4.8,6.4v8.3
		c0,0.4,0.2,0.6,0.6,0.5l2.2-0.6c0.4-0.1,0.6-0.4,0.6-0.7v-1.7c0-0.4,0.2-0.6,0.6-0.7l1.7-0.5c0.4-0.1,0.6,0,0.6,0.4v1.7
		C52.2,71.1,52.4,71.3,52.8,71.2z M51.6,65.3l-1.7,0.5c-0.4,0.1-0.6-0.1-0.6-0.4v-2.1c0-0.9,0.1-1.4,1.4-1.8c1.3-0.3,1.4,0.1,1.4,1
		v2.1C52.2,64.9,52,65.1,51.6,65.3z"/>
	<path class="st0" d="M67.2,53.6L65,54.2c-0.4,0.1-0.6,0.4-0.6,0.7v6.3c0,0.2-0.2,0.3-0.2,0.1l-2.7-5.8c-0.1-0.3-0.4-0.4-0.7-0.3
		L58,56.1c-0.4,0.1-0.6,0.4-0.6,0.7v12.5c0,0.4,0.2,0.5,0.6,0.4l2.2-0.6c0.4-0.1,0.6-0.4,0.6-0.7v-6.3c0-0.2,0.2-0.3,0.2-0.1
		l2.7,5.8c0.1,0.3,0.4,0.4,0.7,0.3l2.9-0.8c0.4-0.1,0.6-0.4,0.6-0.7V54.1C67.8,53.7,67.6,53.5,67.2,53.6z"/>
	<path class="st0" d="M74.7,51.6l-4.4,1.2c-0.4,0.1-0.6,0.4-0.6,0.8V66c0,0.4,0.2,0.5,0.6,0.4l4.4-1.2c3.7-1,4.9-2.8,4.9-6V55
		C79.6,51.8,78.4,50.6,74.7,51.6z M76.2,60.2c0,1.2-0.5,1.5-1.4,1.7l-1.1,0.3c-0.4,0.1-0.6-0.1-0.6-0.4V56c0-0.4,0.2-0.6,0.6-0.7
		l1.1-0.3c0.9-0.3,1.4-0.3,1.4,1C76.2,55.9,76.2,60.2,76.2,60.2z"/>
	<path class="st0" d="M28.4,83.7L20,86c-0.4,0.1-0.6,0.4-0.6,0.7v12.5c0,0.4,0.2,0.5,0.6,0.4l2.3-0.6c0.4-0.1,0.6-0.4,0.6-0.7v-4
		c0-0.4,0.2-0.6,0.6-0.7l3.2-0.9c0.4-0.1,0.6-0.4,0.6-0.7v-2.2c0-0.4-0.2-0.5-0.6-0.4l-3.2,0.9c-0.4,0.1-0.6-0.1-0.6-0.4v-0.6
		c0-0.4,0.2-0.6,0.6-0.7l4.9-1.3c0.4-0.1,0.6-0.4,0.6-0.7v-2.2C29,83.7,28.8,83.6,28.4,83.7z"/>
	<path class="st0" d="M45.1,93.2c4.6-1.2,5.3-4.9,5.3-5.5c0-4.5-6.2-2.8-6.4-4.3c-0.1-0.4,0.4-1,1.2-1.2c0.9-0.2,1.6,0.1,1.7,0.9
		c0.1,0.4,0.3,0.5,0.6,0.3l2.2-1.1c0.4-0.2,0.5-0.4,0.5-0.8c-0.1-1.4-1.1-3.7-5.1-2.7c-4.4,1.2-4.7,4.7-4.7,5.3
		c0,4.5,5.9,2.5,6.3,4.1c0.1,0.5-0.6,1.3-1.5,1.5c-0.9,0.2-1.6-0.1-1.7-1c0-0.4-0.3-0.5-0.6-0.3l-2.2,1.1c-0.4,0.2-0.5,0.4-0.5,0.8
		C40.2,91.8,41,94.3,45.1,93.2z"/>
</g>
</svg>
