<svg id="Layer_1" data-name="Layer 1" xmlns="http://www.w3.org/2000/svg" viewBox="0 0 122.2876 126.0852"><defs><style>.cls-1{fill:#d1d3d4;}</style></defs><title>ud</title><path class="cls-1" d="M60.29,98.8067s-0.2986-4.8566-.64-12.1415c-0.1807-3.6424-.3975-7.892-0.5789-12.445-0.21-4.5531-.3577-9.41-0.5308-14.2663-0.1138-2.4283-.2024-4.8566-0.342-7.247s-0.2407-4.7428-.2622-7.0193c0.0012-2.2765.0579-4.4772,0.177-6.564,0.0989-2.0868.2649-4.06,0.4272-5.881,0.1523-1.8212.3579-3.4907,0.5383-4.97,0.1938-1.48.3823-2.77,0.5652-3.8322,0.354-2.1248.6465-3.3389,0.6465-3.3389h0.5s0.2925,1.2142.6465,3.3389c0.1829,1.0624.3713,2.3524,0.5652,3.8322,0.18,1.48.386,3.1492,0.5383,4.97,0.1624,1.8212.3284,3.7942,0.4272,5.881,0.1191,2.0868.1758,4.2875,0.177,6.564-0.0215,2.2765-.1233,4.6289-0.2622,7.0193s-0.2283,4.8187-.342,7.247c-0.1731,4.8566-.321,9.7132-0.5308,14.2663-0.1814,4.5531-.3982,8.8026-0.5789,12.445-0.3418,7.2849-.64,12.1415-0.64,12.1415h-0.5Z"/><path class="cls-1" d="M89.9957,78.8982l-9.2048.3842c-5.5229.2427-12.8867,0.4319-20.2507,0.6658l-5.4941.2052c-1.8123.0834-3.5957,0.1444-5.3215,0.1573-1.7261-.0033-3.3943-0.0293-4.9766-0.1117-1.582-.0625-3.0779-0.1476-4.4585-0.2509a90.888,90.888,0,0,1-9.2048-1.05v-0.3a90.8858,90.8858,0,0,1,9.2048-1.05c1.3806-.1033,2.8765-0.1884,4.4585-0.2509,1.5823-.0824,3.25-0.1084,4.9766-0.1117,1.7258,0.0129,3.5093.0739,5.3215,0.1574L60.54,77.5482c7.364,0.2338,14.7278.4231,20.2507,0.6658l9.2048,0.3842v0.3Z"/><path class="cls-1" d="M71.7945,90.3561S68.98,87.9637,64.8328,84.3c-2.08-1.8249-4.512-3.95-7.0808-6.2623-2.5894-2.2924-5.2974-4.7914-8.0232-7.2725-2.7065-2.5006-5.6106-4.8036-8.0752-7.2206a79.9157,79.9157,0,0,1-6.25-7.0936c-0.8582-1.0945-1.6155-2.1273-2.2786-3.05-0.6562-.93-1.2146-1.7551-1.6548-2.454C30.5845,49.5548,30.138,48.7,30.138,48.7l0.3535-.3536s0.8552,0.4465,2.2468,1.3329c0.699,0.44,1.5239.9984,2.4541,1.6547,0.9233,0.6633,1.9561,1.4205,3.0505,2.2786a79.92,79.92,0,0,1,7.0935,6.2495c2.417,2.4647,4.72,5.3687,7.2207,8.0752,2.481,2.726,4.98,5.434,7.2725,8.0233,2.3127,2.569,4.4375,5,6.2622,7.0808,3.6638,4.147,6.0562,6.9616,6.0562,6.9616Z"/><path class="cls-1" d="M48.9322,90.0025s2.3923-2.8147,6.0562-6.9616c1.8247-2.08,3.9495-4.5118,6.2622-7.0808,2.2925-2.5892,4.7915-5.2973,7.2725-8.0233,2.5-2.7065,4.8037-5.6105,7.2207-8.0752a79.92,79.92,0,0,1,7.0935-6.2495c1.0945-.8581,2.1272-1.6153,3.0505-2.2786,0.93-.6562,1.7551-1.2146,2.4541-1.6547,1.3916-.8863,2.2468-1.3329,2.2468-1.3329L90.9422,48.7s-0.4465.8552-1.3328,2.247c-0.44.6989-.9985,1.5237-1.6548,2.454-0.6631.9232-1.42,1.9559-2.2786,3.05a79.9157,79.9157,0,0,1-6.25,7.0936c-2.4646,2.4169-5.3687,4.72-8.0752,7.2206-2.7258,2.4811-5.4338,4.98-8.0232,7.2725-2.5688,2.3126-5,4.4374-7.0808,6.2623-4.147,3.6636-6.9617,6.056-6.9617,6.056Z"/><path class="cls-1" d="M31.0845,78.5982l9.2048-.3842c5.5229-.2427,12.8867-0.4319,20.2507-0.6658l5.4941-.2052c1.8123-.0834,3.5957-0.1444,5.3215-0.1574,1.7261,0.0033,3.3943.0293,4.9766,0.1117,1.582,0.0625,3.0779.1476,4.4585,0.2509a90.8858,90.8858,0,0,1,9.2048,1.05v0.3a90.888,90.888,0,0,1-9.2048,1.05c-1.3806.1033-2.8765,0.1884-4.4585,0.2509-1.5823.0824-3.25,0.1084-4.9766,0.1117-1.7258-.0129-3.5093-0.0739-5.3215-0.1573L60.54,79.9482c-7.364-.2338-14.7278-0.4231-20.2507-0.6658l-9.2048-.3842v-0.3Z"/><path class="cls-1" d="M65.8421,0.1182L65.6529,14.16l-2.7665-.0373,0.019-1.41q-0.4753.3851-.8449,0.6935a4.1951,4.1951,0,0,1-.7639.5117,3.7458,3.7458,0,0,1-.8657.3148,4.5571,4.5571,0,0,1-1.0977.1026,2.2089,2.2089,0,0,1-1.8035-.8075,3.33,3.33,0,0,1-.61-2.175L57.0724,0l2.9234,0.0394L59.849,10.9235a0.9616,0.9616,0,0,0,.2768.7736,1.1155,1.1155,0,0,0,.7534.2583,1.7786,1.7786,0,0,0,.9171-0.2488q0.447-.2545.9741-0.6133L62.919,0.0788Z"/><path class="cls-1" d="M72.1378,15.33l4.738-13.22,2.6048,0.9335L79.0051,4.37q0.5744-.21,1.0241-0.3815a4.2048,4.2048,0,0,1,.8887-0.2361,3.7654,3.7654,0,0,1,.921-0.0165,4.55,4.55,0,0,1,1.0716.2593A2.21,2.21,0,0,1,84.354,5.3448,3.3322,3.3322,0,0,1,84.225,7.6l-3.8309,10.689-2.752-.9863L81.3144,7.0561a0.9647,0.9647,0,0,0-.01-0.8219,1.1187,1.1187,0,0,0-.6289-0.4888A1.7826,1.7826,0,0,0,79.727,5.683q-0.5063.0958-1.1205,0.2637L74.89,16.3162Z"/><path class="cls-1" d="M86.2834,21.8068l8.1158-11.4609,2.3859,1.6894L88.6693,23.4962ZM95.636,8.5991l1.5388-2.173,2.3859,1.69-1.5388,2.1728Z"/><path class="cls-1" d="M97.4644,32.1925l8.8166-6.3838a0.9642,0.9642,0,0,0,.4552-0.684,1.0792,1.0792,0,0,0-.2277-0.7375,1.7808,1.7808,0,0,0-.7473-0.5868q-0.4721-.2066-1.0739-0.4149l-8.9222,6.46-1.7146-2.3681,11.3749-8.2357,1.6227,2.241-1.1418.8266q0.5927,0.1511,1.0607.2634a4.7527,4.7527,0,0,1,.8516.2859,3.6193,3.6193,0,0,1,.7082.4218,3.1887,3.1887,0,0,1,.6308.671,2.5171,2.5171,0,0,1,.6062,1.5271,4.2482,4.2482,0,0,1-.4591,1.5246,11.6484,11.6484,0,0,1,1.2249.2895,5.7048,5.7048,0,0,1,.8974.3494,2.6212,2.6212,0,0,1,.6476.4494,4.3284,4.3284,0,0,1,.497.575,2.583,2.583,0,0,1,.575,2.1294,3.201,3.201,0,0,1-1.3568,1.82l-9.1972,6.659-1.7145-2.3678,8.8167-6.3835a0.9433,0.9433,0,0,0,.4475-0.6948,1.13,1.13,0,0,0-.2354-0.7481,1.7808,1.7808,0,0,0-.7473-0.5868,10.9515,10.9515,0,0,0-1.0585-.3938L99.179,34.56Z"/><path class="cls-1" d="M114.3455,42.6908a4.5493,4.5493,0,0,1,3.4974.5732,4.7825,4.7825,0,0,1,1.874,2.9559,4.73,4.73,0,0,1-.17,3.2783,3.5547,3.5547,0,0,1-2.5278,1.7565l-8.75,2.1284a4.4248,4.4248,0,0,0-.6946.2363q-0.3653.1555-.7078,0.2929l-0.66-2.7137q0.2725-.0934.5268-0.2087t0.5016-.2025a7.3273,7.3273,0,0,1-1.3656-1.3066,4.4513,4.4513,0,0,1-.7615-1.6952,2.727,2.727,0,0,1,.3475-2.3815,3.4261,3.4261,0,0,1,2.0181-1.2564,5.3436,5.3436,0,0,1,2.0932-.12,4.9626,4.9626,0,0,1,1.8978.7338,8.9893,8.9893,0,0,1,1.82,1.5722,22.9915,22.9915,0,0,1,1.8525,2.37l0.8116-.1975q1.75-.4255,1.4107-1.8206a1.39,1.39,0,0,0-.8283-1.1417,3.2382,3.2382,0,0,0-1.4941-.0127Zm-1.2889,6.519q-0.7926-.8283-1.4031-1.3511a5.4077,5.4077,0,0,0-1.1285-.7732,2.8221,2.8221,0,0,0-.9571-0.2909,2.7062,2.7062,0,0,0-.8964.07,1.246,1.246,0,0,0-.8709.5612,1.4955,1.4955,0,0,0-.051,1.06,1.7286,1.7286,0,0,0,.6394.9726,4.3,4.3,0,0,0,1.0914.6211Z"/><path class="cls-1" d="M118.33,71.167a1.2366,1.2366,0,0,0,.0467-0.2318l0.0207-.2341a2.96,2.96,0,0,0-.0254-0.7491,1.7106,1.7106,0,0,0-.2925-0.6939,7.8531,7.8531,0,0,1-1.1777.1317,8.52,8.52,0,0,1-1.06-.0152,11.0537,11.0537,0,0,1-2.654-.51,4.4168,4.4168,0,0,1-1.6568-.9719,2.9428,2.9428,0,0,1-.8141-1.4607,6.2927,6.2927,0,0,1-.1006-1.9744l0.0828-.936a0.8114,0.8114,0,0,0-.1855-0.4226,0.5833,0.5833,0,0,0-.414-0.2069,0.6209,0.6209,0,0,0-.66.505,7.0749,7.0749,0,0,0-.3051,1.375q-0.1126.8284-.2366,1.787a6.0251,6.0251,0,0,1-.4967,1.7643,3.27,3.27,0,0,1-1.072,1.3072,2.8036,2.8036,0,0,1-1.9216.3936,2.6508,2.6508,0,0,1-2.422-1.8,10.3066,10.3066,0,0,1-.3774-4.4751,8.231,8.231,0,0,1,.8744-3.3685,1.8086,1.8086,0,0,1,1.771-1.0619,1.9579,1.9579,0,0,1,1.3664.6972,2.7274,2.7274,0,0,1,.65,1.3938l0.0521,0.0046a2.366,2.366,0,0,1,.748-0.9033,1.6529,1.6529,0,0,1,1.1374-.2664,1.5565,1.5565,0,0,1,.6871.2311,2.7769,2.7769,0,0,1,.5859.4841,4.8194,4.8194,0,0,1,.4826.6193,4.2728,4.2728,0,0,1,.35.6335,7.2439,7.2439,0,0,1,.8345-0.8434,2.5549,2.5549,0,0,1,.9606-0.4916,5.5916,5.5916,0,0,1,1.3656-.18,18.2061,18.2061,0,0,1,2.023.0871,10.1565,10.1565,0,0,1,2.3964.4607,3.7173,3.7173,0,0,1,1.529.9345,3.0223,3.0223,0,0,1,.7468,1.4811,7.28,7.28,0,0,1,.0762,2.103,4.3326,4.3326,0,0,1-.5052,1.7111,4.0972,4.0972,0,0,1-1.2881,1.38q0.39,0.3227.668,0.5964a2.3009,2.3009,0,0,1,.4232.5484,1.8837,1.8837,0,0,1,.1964.594,3.2827,3.2827,0,0,1,.0091.7868Zm-13.7226-6.3232a5.1754,5.1754,0,0,0,.0734,1.9848,0.8771,0.8771,0,0,0,1.5862.14,5.1681,5.1681,0,0,0,.4206-1.9411,5.1678,5.1678,0,0,0-.0735-1.985,0.8772,0.8772,0,0,0-1.5862-.14A5.1748,5.1748,0,0,0,104.6072,64.8438Zm8.3964-.1224a1.6945,1.6945,0,0,0,.068.7135,0.9673,0.9673,0,0,0,.4147.4952,2.6342,2.6342,0,0,0,.8763.3133,16.3982,16.3982,0,0,0,2.9122.2576,2.6481,2.6481,0,0,0,.9177-0.1547,0.9707,0.9707,0,0,0,.4952-0.4149,1.7016,1.7016,0,0,0,.1922-0.69,1.3888,1.3888,0,0,0-.0748-0.6355A1.1483,1.1483,0,0,0,118.39,64.11a2.5471,2.5471,0,0,0-.8717-0.3654,11.7421,11.7421,0,0,0-2.9122-.2574,2.543,2.543,0,0,0-.9224.2066,1.1467,1.1467,0,0,0-.4952.4147A1.3836,1.3836,0,0,0,113.0035,64.7214Z"/><path class="cls-1" d="M104.6641,75.7663l13.1321,4.9762-1.036,2.7339L103.6281,78.5Zm15.1336,5.7347,2.49,0.9435-1.036,2.7339-2.49-.9435Z"/><path class="cls-1" d="M100.7017,84.7036l11.3138,8.32-1.6393,2.2293-1.1355-.8351q0.037,0.61.0728,1.09a4.2116,4.2116,0,0,1-.0279.919,3.7664,3.7664,0,0,1-.2473.8873,4.5489,4.5489,0,0,1-.555.9529,2.209,2.209,0,0,1-1.7055.9975,3.3317,3.3317,0,0,1-2.1243-.7683l-9.1478-6.7267,1.732-2.3553,8.7692,6.4484a0.9651,0.9651,0,0,0,.79.2249,1.1185,1.1185,0,0,0,.6484-0.4631,1.783,1.783,0,0,0,.3309-0.8907q0.0528-.5125.0675-1.1492L98.97,87.0589Z"/><path class="cls-1" d="M96.7126,104.3375a4.549,4.549,0,0,1,.7314,3.4679,4.7835,4.7835,0,0,1-2.0771,2.8168,4.7312,4.7312,0,0,1-3.1178,1.0281,3.5548,3.5548,0,0,1-2.5523-1.7207l-5.1509-7.3869a4.441,4.441,0,0,0-.4716-0.5621q-0.2771-.284-0.5292-0.5538l2.2909-1.5974q0.1858,0.22.3852,0.4155t0.37,0.3942a7.3207,7.3207,0,0,1,.724-1.7459A4.4545,4.4545,0,0,1,88.62,97.57a2.7281,2.7281,0,0,1,2.3457-.5378,3.4271,3.4271,0,0,1,1.9018,1.4266,5.3436,5.3436,0,0,1,.8689,1.908,4.9613,4.9613,0,0,1,.0028,2.0348,8.9879,8.9879,0,0,1-.8072,2.2652,22.9355,22.9355,0,0,1-1.539,2.5848l0.4778,0.6851q1.03,1.4774,2.2077.6562a1.39,1.39,0,0,0,.7646-1.1855,3.2406,3.2406,0,0,0-.5288-1.3973Zm-6.5435,1.1578q0.4852-1.0387.7515-1.7969a5.4017,5.4017,0,0,0,.3126-1.3318,2.8193,2.8193,0,0,0-.0751-0.9976,2.7055,2.7055,0,0,0-.39-0.81A1.2462,1.2462,0,0,0,89.93,99.95a1.4953,1.4953,0,0,0-1.0066.336,1.73,1.73,0,0,0-.6754.9482,4.3039,4.3039,0,0,0-.184,1.2422Z"/><path class="cls-1" d="M77.6265,104.23l5.17,18.1232-2.8115.8019-1.6469-5.7733q-0.3084.4406-.5722,0.8011a6.0768,6.0768,0,0,1-.5362.6417,2.7018,2.7018,0,0,1-.6115.4731,3.6333,3.6333,0,0,1-.7908.3205,2.6444,2.6444,0,0,1-2.368-.3559,4.5945,4.5945,0,0,1-1.5676-2.5929l-1.8475-6.4762a4.5939,4.5939,0,0,1-.0365-3.03,2.6437,2.6437,0,0,1,1.8239-1.5518,3.296,3.296,0,0,1,1.7929-.0906,5.7642,5.7642,0,0,1,1.692.8881l0.05-.0144-0.4012-1.4057Zm-2.0236,3.5631a7.9274,7.9274,0,0,0-.9466-0.273,1.746,1.746,0,0,0-.86.0284,1.643,1.643,0,0,0-.5021.2382,0.9752,0.9752,0,0,0-.3425.4642,1.8873,1.8873,0,0,0-.099.7476,5.0038,5.0038,0,0,0,.2112,1.12l1.4322,5.02a4.9933,4.9933,0,0,0,.4119,1.0631,1.89,1.89,0,0,0,.4783.583,0.9809,0.9809,0,0,0,.5361.2135,1.6557,1.6557,0,0,0,.552-0.0626,1.7517,1.7517,0,0,0,.746-0.43,7.9812,7.9812,0,0,0,.66-0.7313Z"/><path class="cls-1" d="M62.3543,107.2166l0.1472,18.8458-2.9234.0227L59.4309,107.24Z"/><path class="cls-1" d="M43.6857,118.9092l-2.8568-.7345L48.15,104.4788a6.9834,6.9834,0,0,1,.9557-1.4118,3.21,3.21,0,0,1,1.0658-.7906,3.095,3.095,0,0,1,1.24-.2608,5.6675,5.6675,0,0,1,1.4453.1965l1.188,0.3053-0.5979,2.3259-0.6824-.1755a1.7574,1.7574,0,0,0-1.6093.1791,2.873,2.873,0,0,0-.8269,1.5392,4.39,4.39,0,0,0-.1325.8825q-0.0216.4524-.0257,0.9905L50.1577,120.573l-2.882-.7409,0.4154-9.1646-0.0506-.0129Z"/><path class="cls-1" d="M26.6123,92.5529l-1.03,1.0375,0.037,0.0369a5.78,5.78,0,0,1,1.9106.039,3.2953,3.2953,0,0,1,1.5262.945,2.6427,2.6427,0,0,1,.8483,2.2393A4.5915,4.5915,0,0,1,28.41,99.4864l-4.7441,4.78a4.5931,4.5931,0,0,1-2.6245,1.5142,2.6438,2.6438,0,0,1-2.2459-.8315,3.6337,3.6337,0,0,1-.5377-0.6625,2.705,2.705,0,0,1-.3071-0.7093,5.3346,5.3346,0,0,1-.1508-0.8116q-0.0476-.4333-0.1236-0.9872l-4.2294,4.2612-2.0749-2.06,13.2764-13.376Zm-7.7591,8.04a8.0206,8.0206,0,0,0,.2252.9589,1.75,1.75,0,0,0,.4456.7366,1.3045,1.3045,0,0,0,1.026.393,2.8649,2.8649,0,0,0,1.5743-1.0118l3.6778-3.7053a2.8626,2.8626,0,0,0,1-1.5819,1.3033,1.3033,0,0,0-.4006-1.0228,1.7466,1.7466,0,0,0-.74-0.44,7.9423,7.9423,0,0,0-.9607-0.2178Z"/><path class="cls-1" d="M12.7154,89.4252a8.9513,8.9513,0,0,1-1.9989.7277,4.2489,4.2489,0,0,1-1.8329.0338,3.6268,3.6268,0,0,1-1.5845-.7883,5.2565,5.2565,0,0,1-1.2776-1.7269,5.2544,5.2544,0,0,1-.5989-2.0628,3.6258,3.6258,0,0,1,.3334-1.738,4.2471,4.2471,0,0,1,1.138-1.4374,8.939,8.939,0,0,1,1.7906-1.1486l3.6959-1.83a8.9378,8.9378,0,0,1,1.9989-.7277,4.2412,4.2412,0,0,1,1.8329-.0338,3.6184,3.6184,0,0,1,1.5845.7883,6.0959,6.0959,0,0,1,1.8765,3.7895A3.617,3.617,0,0,1,19.34,85.009a4.2384,4.2384,0,0,1-1.1379,1.4372,8.9339,8.9339,0,0,1-1.7905,1.1488Zm-3.2015-5.289A2.901,2.901,0,0,0,8.12,85.2923,1.6145,1.6145,0,0,0,9.186,87.4444a2.8948,2.8948,0,0,0,1.7642-.4076l4.6318-2.2933a2.8952,2.8952,0,0,0,1.3936-1.1563A1.6147,1.6147,0,0,0,15.91,81.4352a2.899,2.899,0,0,0-1.7644.4076Z"/><path class="cls-1" d="M0.7029,70.1649l1.4494-.19-0.0068-.0516A5.7855,5.7855,0,0,1,.6587,68.7228,3.2946,3.2946,0,0,1,.03,67.0412a2.6441,2.6441,0,0,1,.7-2.29,4.5936,4.5936,0,0,1,2.7955-1.1692l6.6776-.8746a4.5928,4.5928,0,0,1,3.0021.41A2.6435,2.6435,0,0,1,14.4725,65.15a3.6255,3.6255,0,0,1,.02.853,2.6987,2.6987,0,0,1-.1915.7491,7.2384,7.2384,0,0,1-.363.7453q-0.2126.383-.5212,0.8447l5.59-.7321,0.38,2.8988-18.3243,2.4Zm11.057-1.606a7.9167,7.9167,0,0,0,.4091-0.8961,1.7443,1.7443,0,0,0,.0987-0.8554,1.6441,1.6441,0,0,0-.1618-0.5317,0.9761,0.9761,0,0,0-.4087-0.407,1.8856,1.8856,0,0,0-.7249-0.208,5.0015,5.0015,0,0,0-1.1394.044l-5.1763.6779a4.9938,4.9938,0,0,0-1.1122.2511,1.89,1.89,0,0,0-.6469.3874,0.98,0.98,0,0,0-.29.4987,1.6492,1.6492,0,0,0-.0195.5555,1.747,1.747,0,0,0,.3156.8009,7.94,7.94,0,0,0,.626.76Z"/><path class="cls-1" d="M9.4686,45.7527l-1.2123,6.04,1.9962,0.4008a2.8943,2.8943,0,0,0,1.81-.0628,1.6145,1.6145,0,0,0,.4728-2.3545,2.8989,2.8989,0,0,0-1.6453-.7562l-0.3071-.0617,0.5755-2.8664a8.5483,8.5483,0,0,1,1.9422.6694,4.1684,4.1684,0,0,1,1.3916,1.0914,3.6391,3.6391,0,0,1,.736,1.5722A6.084,6.084,0,0,1,14.39,53.53a3.6207,3.6207,0,0,1-1.3268,1.1714,4.2432,4.2432,0,0,1-1.7794.4415,8.9415,8.9415,0,0,1-2.1191-.1858l-4.0437-.8119a8.9357,8.9357,0,0,1-2.0268-.6465,4.2457,4.2457,0,0,1-1.4708-1.094,3.6257,3.6257,0,0,1-.772-1.5926,6.0943,6.0943,0,0,1,.8323-4.1459A3.6266,3.6266,0,0,1,3.011,45.4948,4.2446,4.2446,0,0,1,4.79,45.0533a8.9354,8.9354,0,0,1,2.1191.1858Zm-2.93,2.3938-0.7166-.1439a2.8992,2.8992,0,0,0-1.81.0626A1.6146,1.6146,0,0,0,3.54,50.42a2.8977,2.8977,0,0,0,1.6454.7564L5.9018,51.32Z"/><path class="cls-1" d="M17.1414,28.1962L15.95,26.7427l20.1856-16.55,1.1915,1.4533Z"/></svg>