<?xml version="1.0" encoding="utf-8"?>
<!-- Generator: Adobe Illustrator 18.1.1, SVG Export Plug-In . SVG Version: 6.00 Build 0)  -->
<!DOCTYPE svg PUBLIC "-//W3C//DTD SVG 1.1//EN" "http://www.w3.org/Graphics/SVG/1.1/DTD/svg11.dtd">
<svg version="1.1" id="Layer_1" xmlns="http://www.w3.org/2000/svg" xmlns:xlink="http://www.w3.org/1999/xlink" x="0px" y="0px"
	 viewBox="0 0 40.49951 30.89697" style="enable-background:new 0 0 40.49951 30.89697;" xml:space="preserve">
<style type="text/css">
	.st0{fill:#EC1B36;}
</style>
<g>
	<path class="st0" d="M12.90137,14.14746c0,2.23584-0.10986,2.1626-1.6123,4.5083c-1.61279,1.72266-2.08936,2.67529-3.92188,2.67529
		c-0.62305,0-1.35645-0.07324-2.3457-0.29297c0,0-2.01611-0.25684-2.82227-1.09961C1.35645,19.09521,0,16.0166,0,14.33057
		c0.87988-2.49219,1.17285-2.63867,3.81201-4.87451C2.19922,7.87988,0.47656,7.18359,0.47656,4.76465
		c0-3.33545,0.84277-3.66504,3.33545-4.5083C4.5083,0.07324,5.20459,0,5.82764,0c3.51855,0,6.12109,2.3457,6.12109,5.021
		c0,1.53955-0.87988,3.18896-2.93213,4.54492C11.3623,11.94824,12.90137,11.98486,12.90137,14.14746z M6.45068,18.87549
		c0.62305,0,1.28271-0.10986,1.94287-0.32959c-0.07373,0-0.11035,0-0.11035-0.03711c0-0.25635,2.5293-1.64893,2.5293-3.62842
		c0-1.24609-1.02637-2.78564-4.47168-4.39795c-3.44531,1.68604-4.1416,2.41895-4.1416,4.91113
		C2.27246,17.55615,4.17822,18.87549,6.45068,18.87549z M2.89551,4.25146c0,1.02637,0.40332,2.1626,0.9165,2.7124
		C4.61816,7.80664,4.1416,7.7334,6.63428,8.57617C9.05322,7.22021,9.93262,5.9375,9.93262,4.87451
		c0-1.68604-2.12549-2.82227-4.1416-2.82227c-0.91602,0-1.7959,0.22021-2.45557,0.77002
		C3.04199,3.11523,2.89551,3.66504,2.89551,4.25146z"/>
	<path class="st0" d="M22.4901,6.96387c-0.07813,0.56868-0.27966,2.56543-0.27966,3.5918c0,2.56543,0.29297,5.5708,0.29297,7.3667
		c0.84326,0,1.68604,0,2.52881,0c0,0.84326,0.84326,0.84326,0.84326,1.68604c0,0-0.84326,0-0.84326,0.84326
		c-1.6123,0-3.2251,0.29297-4.83789,0.29297c-0.91602,0-1.83252-0.07324-2.74902-0.40332c0-1.13623-0.36621-1.46582-0.36621-1.7959
		c0-0.87939,1.94238-0.62305,2.89551-0.62305c-0.84326-3.37158,0-6.74365-0.84326-10.11572c-0.21973,0-0.36621,0-0.5498,0
		c-1.979,0-2.45557-0.65967-2.45557-1.83252c0-0.33008,0.03662-0.47656,0.33008-0.87988
		c0.32959,0.33008,1.57617,0.43994,2.96875,0.43994c2.19922,0,2.22253-0.25635,2.22253-0.25635
		C22.4901,5.27783,22.4901,6.12061,22.4901,6.96387z"/>
	<path class="st0" d="M34.1958,12.82813c0.40283-0.03662,0.76953-0.07324,1.13623-0.07324
		c3.88477,0,4.54443,3.00537,4.54443,4.69141c0,1.24609-0.47656,2.52881-1.35596,3.84814
		c-1.68604,2.52881-4.21484,5.90088-6.74414,6.74414c-0.84277,0.84277-1.02588,0.5127-1.86914,1.35596
		c-0.84277,0-1.50244,1.17285-3.18848,1.17285c0,0-0.29346,0.32959-0.47656,0.32959c-0.07324,0-0.3667-0.5127-0.3667-0.73291
		c0-0.69629,2.08936-1.35596,3.37207-2.96875c3.33545-1.94238,4.21484-3.37207,5.90088-5.05762
		c1.24609-2.45605,2.12598-2.93262,2.12598-4.5083c0-2.27246-2.3457-3.07861-3.81201-3.07861
		c-0.5498,0-1.83252,0.25635-2.63867,0.25635c-0.80664,0-0.84326-0.3667-0.84326-0.65967c0-0.69629,0.80664-1.57617,1.7959-2.12598
		c1.68604-1.68604,3.37207-3.37207,5.05811-4.21484c0-0.03662,0.03662-0.07324,0.03662-0.14648
		c0-0.40332-0.84277-0.5498-1.86914-0.5498c-1.09961,0-2.49219,0.14648-3.33545,0.14648c0,0-0.76953,1.13623-1.61279,1.13623
		c-1.68555,0-1.35596-1.94238-1.4292-2.63867c1.31934-0.80664,1.83252-0.43994,4.06836-0.66016
		c0.84277,0,1.61279,0.18359,2.45557,0.18359c0.98975,0,2.12598-0.22021,3.18896-0.22021c0.73291,0,1.46582,0.11035,2.16211,0.43994
		C40.49951,8.02637,35.88135,11.14209,34.1958,12.82813z"/>
</g>
</svg>
