<?xml version="1.0" encoding="utf-8"?>
<!-- Generator: Adobe Illustrator 18.1.1, SVG Export Plug-In . SVG Version: 6.00 Build 0)  -->
<!DOCTYPE svg PUBLIC "-//W3C//DTD SVG 1.1//EN" "http://www.w3.org/Graphics/SVG/1.1/DTD/svg11.dtd">
<svg version="1.1" id="Layer_1" xmlns="http://www.w3.org/2000/svg" xmlns:xlink="http://www.w3.org/1999/xlink" x="0px" y="0px"
	 viewBox="0 0 23.39954 33.75519" style="enable-background:new 0 0 23.39954 33.75519;" xml:space="preserve">
<style type="text/css">
	.st0{fill:#EC1B36;}
</style>
<g>
	<path class="st0" d="M21.80231,12.75134c0.97565-0.10638,1.50818-0.25696,1.59723-0.45239
		c-0.08905-0.39026-0.35535-0.71906-0.79877-0.98492c-0.90515-0.10675-1.44666-0.22174-1.62384-0.34644
		c-1.01154,0.08911-1.65045,0.18652-1.91669,0.29291c-1.77478,0.46173-3.12372,0.84332-4.04614,1.14484
		c-0.49768,0-1.02856,0.13708-1.58533,0.38092c0.3609-0.79736,0.60669-1.3443,0.73334-1.63214
		c0.01764-0.05322,0.0708-0.21307,0.15961-0.479l0.45276-0.95837c0.15955-0.35498,0.82501-1.3313,1.99646-2.92853l0.10632-0.29254
		V6.44214c0-0.10638-0.17749-0.21271-0.53217-0.31946C15.7594,5.51971,15.39539,5.2179,15.25342,5.2179
		c-0.15955,0-0.29285,0.02655-0.39917,0.07977c-0.24866,0-0.56812,0.47034-0.95837,1.41077
		c-0.65686,1.22461-1.4201,2.71545-2.28931,4.47223c-1.24261,2.34253-1.99646,3.81616-2.26276,4.41913l-0.26624,0.66547
		c-0.08911,0.21313-0.39923,0.77191-0.93176,1.67706c-0.7453,1.68634-1.27783,2.81323-1.59729,3.38098
		c-0.07111,0.17749-0.15955,0.39923-0.26624,0.66547c-0.55017,0.78119-0.91412,1.37555-1.09131,1.78339L5.08459,24.065
		c-0.08911,0.17786-0.16888,0.46173-0.23969,0.85199l-0.05316,0.13293c-0.03589,0.08911-0.09772,0.18652-0.18646,0.29291
		c-0.07117,0-0.12433-0.07977-0.15955-0.23938C3.80682,23.38226,3.17688,22.5213,2.5556,22.5213H2.31592
		c-0.10632,0-0.2569,0.01764-0.45239,0.05316c-0.01758-0.03552-0.06213-0.05316-0.1333-0.05316H1.65045
		c-0.70972,0.37262-1.11823,0.69208-1.22461,0.95801c-0.03522,0.08911-0.05316,0.16888-0.05316,0.23969
		c0,0.19543,0.12433,0.3374,0.37262,0.42615c0.05316,0,0.25763-0.01764,0.6123-0.05353c0.03589,0,0.07111,0.01794,0.10638,0.05353
		c0.07111,0,0.10669,0.11536,0.10669,0.34601c0,0.58539-0.22174,1.89014-0.66547,3.91321
		c-0.3371,1.08234-0.5412,1.92529-0.6123,2.52899C0.09778,31.39441,0,31.776,0,32.07782c0,0.15991,0.02661,0.29285,0.07977,0.3996
		c0.21313,0.1236,0.40857,0.32806,0.58575,0.61194c0.28387,0.23071,0.78119,0.37299,1.49084,0.42615
		c0.0708,0,0.25732-0.00928,0.55878-0.02655l0.58575,0.26624c0.51489,0,0.98492-0.22241,1.41071-0.66583l0.08014-0.18616
		c0.15955-0.39056,0.24829-0.81641,0.2663-1.27777l-0.08014,0.02661H4.73859c0.01727-0.07117,0.07977-0.23969,0.18616-0.50598
		c0.23035-0.28387,0.43475-0.63885,0.6123-1.0647L5.5636,30.0282c0.10638-0.23108,1.46844-3.2121,4.08618-8.94458
		c0.54828-1.2005,1.04468-2.28833,1.49524-3.27631c0.26648,0.14063,0.71368,0.26697,1.39331,0.37463
		c1.22461,0.42584,1.93396,0.63892,2.12976,0.63892c0.65613,0,0.98492,0.133,0.98492,0.39923
		c0,0.05316-0.00934,0.11572-0.02661,0.18652l-0.05353,0.10632l-0.69208,0.29285c-1.17108,0.07117-2.30725,0.41724-3.40723,1.03815
		l-0.02692,0.08014c-0.0708,0.14191-0.10638,0.26593-0.10638,0.37262c0,0.14227,0.05322,0.24866,0.15991,0.31946
		c0.19513,0.30182,0.62091,0.45239,1.27777,0.45239c1.66772,0.3374,2.58221,0.50592,2.74176,0.50592h0.53253l0.23969-0.05316
		v0.02661c0,0.01758,0.00861,0.02655,0.02655,0.02655c1.01154,0,1.82764-0.36365,2.44891-1.09161
		c0.12396-0.33673,0.18646-0.52319,0.18646-0.55878l0.42584-0.8786c0.08875-0.30145,0.1333-0.51459,0.1333-0.63885
		c-0.17786-0.53253-0.31946-1.07373-0.42615-1.62384c-0.83441-0.31946-1.41077-0.76288-1.73022-1.33099
		c0-0.21307-0.0625-0.36365-0.18646-0.45276c-0.26593,0-0.39923-0.25696-0.39923-0.77185c0-0.21307,0.02655-0.47937,0.07977-0.79883
		C17.11694,13.77222,18.7674,13.21307,21.80231,12.75134z"/>
	<path class="st0" d="M16.34509,3.19446c0.40784-0.12396,0.67413-0.18616,0.79846-0.18616h0.1333
		c0.1416,0,0.43445,0.09778,0.87823,0.29291c0.10669,0,0.26624-0.19513,0.47931-0.58575
		c0.0708-0.17712,0.15955-0.84265,0.2663-1.99646V0.66547c0-0.21271-0.39063-0.43445-1.17145-0.66547
		c-0.62128,0-1.33099,0.76318-2.12976,2.28931C15.70618,2.89301,15.95453,3.19446,16.34509,3.19446z"/>
</g>
</svg>
