<?xml version="1.0" encoding="utf-8"?>
<!-- Generator: Adobe Illustrator 19.2.1, SVG Export Plug-In . SVG Version: 6.00 Build 0)  -->
<svg version="1.1" id="Layer_1" xmlns="http://www.w3.org/2000/svg" xmlns:xlink="http://www.w3.org/1999/xlink" x="0px" y="0px"
	 viewBox="0 0 2000 1330" style="enable-background:new 0 0 2000 1330;" xml:space="preserve">
<style type="text/css">
	.st0{fill:none;stroke:#231F20;stroke-width:4;stroke-miterlimit:10;}
</style>
<title>crow</title>
<polygon class="st0" points="1102.3,627.3 1271.7,636 1214.3,618.7 1278.3,620.7 1128.3,566 1159,544.7 1087,522 1107,506.7 
	1005.7,501.3 927.7,485.3 829,504 769.7,539.3 723.7,600 710.3,666 728.3,727.3 772.3,760 841.4,799.5 819.7,747.3 865,681.3 
	913,708.7 926.3,740 865,802.7 844.3,806.7 803,834 899.7,806 959,818.7 906.3,796 981,735.3 985.7,702 1045,682 1063,697.3 
	1267,840 1246.3,798.7 1278.3,806 "/>
</svg>
