<?xml version="1.0" encoding="utf-8"?>
<!-- Generator: Adobe Illustrator 18.1.1, SVG Export Plug-In . SVG Version: 6.00 Build 0)  -->
<!DOCTYPE svg PUBLIC "-//W3C//DTD SVG 1.1//EN" "http://www.w3.org/Graphics/SVG/1.1/DTD/svg11.dtd">
<svg version="1.1" id="Layer_1" xmlns="http://www.w3.org/2000/svg" xmlns:xlink="http://www.w3.org/1999/xlink" x="0px" y="0px"
	 viewBox="206.05029 0 1027.89941 1008" style="enable-background:new 206.05029 0 1027.89941 1008;" xml:space="preserve">
<style type="text/css">
	.st0{fill:#3C3B3D;}
</style>
<g>
	<path class="st0" d="M252.27934,398.40903c-4.53656-1.07077-8.01183-3.58658-10.4258-7.54749
		c-2.41396-3.95853-3.08438-8.20609-2.01123-12.74261c1.06366-4.50101,3.56766-7.96915,7.51315-10.40448
		c3.94432-2.43768,8.16696-3.12466,12.66684-2.05862c4.50101,1.06366,7.98337,3.59134,10.44708,7.58066
		c2.4649,3.9917,3.16495,8.23685,2.10126,12.73553c-1.07193,4.53653-3.5878,8.01416-7.54749,10.42578
		C261.06464,398.81177,256.81708,399.48218,252.27934,398.40903z"/>
	<path class="st0" d="M344.79901,232.76672l-50.01581-33.92587l4.24518-6.25879l54.06198,36.67149
		c5.45807,3.70267,8.75806,7.75122,9.90109,12.14328c1.14182,4.39204,0.08527,8.99019-3.17084,13.78732
		c-1.97812,2.91856-4.33286,5.08852-7.0607,6.51231c-2.72906,1.42374-5.77078,2.0752-9.12283,1.95206l-1.0459-7.16611
		c2.68167-0.10428,4.92859-0.58276,6.74438-1.43562c1.81461-0.85283,3.27628-2.09656,4.3826-3.72636
		c2.08469-3.07492,2.46848-6.01952,1.15134-8.83862C353.55115,239.66513,350.19547,236.42676,344.79901,232.76672z"/>
	<path class="st0" d="M435.11319,110.05231c3.93127,4.36597,6.83325,9.26262,8.70831,14.68754
		c1.87497,5.42729,2.6319,11.08434,2.26709,16.97119c-0.39444,5.96741-1.86438,11.5629-4.40869,16.78409
		c-2.54428,5.22353-6.04318,9.84065-10.49567,13.8513c-4.45364,4.00829-9.40475,7.00027-14.85098,8.97124
		c-5.44626,1.97095-11.14243,2.82854-17.08966,2.57266c-5.97217-0.28429-11.53802-1.63457-16.70001-4.05093
		s-9.70682-5.8087-13.63925-10.17468c-3.98105-4.4205-6.91736-9.33844-8.80661-14.75391
		c-1.88806-5.41304-2.66269-11.10567-2.32156-17.07306c0.3364-5.86317,1.78143-11.37102,4.33517-16.52823
		c2.55374-5.15484,6.10007-9.7767,10.63782-13.86314c4.56619-4.11015,9.55994-7.16609,14.9801-9.1655
		c5.42136-1.9994,11.05237-2.87355,16.89188-2.62482c5.97214,0.28665,11.55106,1.65118,16.73785,4.09594
		C426.54587,102.19446,431.13098,105.62944,435.11319,110.05231z M426.6572,167.31712
		c3.66357-3.29762,6.52173-7.0974,8.57562-11.3947c2.0527-4.29494,3.22296-8.91913,3.51199-13.87262
		c0.20609-4.92744-0.51053-9.67722-2.14865-14.24692c-1.63815-4.56734-4.11847-8.69645-7.44092-12.38728
		c-3.34732-3.71927-7.18741-6.6236-11.52142-8.71304c-4.33401-2.0918-8.98785-3.29521-13.96622-3.60793
		c-4.89783-0.28191-9.59903,0.38141-14.10004,1.98516c-4.5022,1.60616-8.59933,4.06987-12.29132,7.39588
		c-3.66479,3.29995-6.50992,7.08557-8.53418,11.3568c-2.02429,4.26886-3.18036,8.88121-3.46817,13.83237
		c-0.18356,5.0127,0.52472,9.7672,2.12616,14.26823c1.60141,4.49866,4.09,8.623,7.46219,12.36833
		c3.34854,3.7169,7.18863,6.6236,11.52145,8.71541c4.33398,2.08943,8.98901,3.29285,13.96619,3.60556
		c4.95111,0.28429,9.63693-0.3506,14.05505-1.907C418.82425,173.15897,422.90714,170.69289,426.6572,167.31712z"/>
	<path class="st0" d="M503.97406,115.40851l-37.16187-78.3983l83.10779,37.68066l-28.32092-59.74986l6.37012-3.02043
		l36.69989,77.42465l-83.10654-37.8086l28.8338,60.82774L503.97406,115.40851z"/>
	<path class="st0" d="M686.57336,17.30282c-0.14685-4.65973,1.37878-8.67038,4.57214-12.03195s7.12109-5.11456,11.78082-5.26144
		c4.62183-0.14451,8.62305,1.37163,12.0011,4.54604c3.38049,3.17441,5.14307,7.07133,5.2876,11.69319
		c0.14447,4.62419-1.39063,8.64434-4.60059,12.06272c-3.21234,3.41842-7.12817,5.19986-11.75,5.34436
		c-4.65979,0.14451-8.67041-1.37873-12.03198-4.57207C688.47095,25.88795,686.7179,21.96256,686.57336,17.30282z"/>
	<path class="st0" d="M846.49469,63.77704l7.27502-1.05894c-0.2511,4.26175,0.63965,7.95972,2.67224,11.09145
		s5.00793,5.40594,8.93097,6.82259c4.95349,1.78858,9.35028,1.7246,13.18799-0.19426
		c3.83539-1.91885,6.68756-5.46283,8.55432-10.63188c1.3645-3.77848,1.56354-7.25374,0.59222-10.42579
		c-0.96887-3.16968-3.94672-7.50959-8.92865-13.01743c-6.3725-7.01685-10.28601-12.58154-11.74048-16.69405
		c-1.45697-4.11251-1.38116-8.39798,0.2298-12.85399c2.00885-5.55996,5.52435-9.4095,10.54657-11.54394
		c5.02454-2.13445,10.53003-2.12021,16.51874,0.04265c3.92059,1.41664,7.03583,3.47763,9.34082,6.18534
		c2.30737,2.70771,3.77136,6.04797,4.39203,10.01834l-6.70648,1.32661c-0.32935-2.65796-1.32428-4.95112-2.98492-6.88184
		c-1.66064-1.93069-3.91589-3.40894-6.76813-4.43944c-3.84955-1.39056-7.32483-1.36689-10.4234,0.07342
		c-3.10095,1.44031-5.34442,4.08407-6.73492,7.93364c-1.98285,5.49124,0.69409,12.24041,8.03784,20.25224
		c1.33136,1.44982,2.34052,2.55847,3.02753,3.33076c5.33966,6.08111,8.54486,11.1578,9.61084,15.23003
		c1.06842,4.0746,0.66339,8.71303-1.21765,13.91762c-2.53711,7.02398-6.59985,11.8519-12.18585,14.48855
		c-5.58838,2.63666-11.90881,2.67931-18.96826,0.13031c-5.13354-1.8549-9.06604-4.71659-11.7998-8.58509
		C848.2193,74.42553,846.73395,69.58574,846.49469,63.77704z"/>
	<path class="st0" d="M1024.18079,94.58301c-1.47351-5.25197-3.53918-9.78381-6.1972-13.59546
		c-2.65796-3.8093-5.97687-7.03345-9.95667-9.67484c-8.97131-5.95084-18.14392-7.94311-27.52258-5.97451
		c-9.37872,1.96386-17.09442,7.51199-23.14954,16.64194c-3.03693,4.57921-5.08606,9.15603-6.14264,13.73283
		c-1.05658,4.57445-1.12054,9.21524-0.19666,13.92236c0.93573,4.62418,2.71478,8.8528,5.33728,12.6834
		c2.62006,3.8306,5.98401,7.10686,10.08942,9.83118c3.9798,2.64139,8.315,4.53894,13.00787,5.69496
		c4.69055,1.15607,9.6062,1.52797,14.74445,1.11578l-4.90137,7.39116c-4.7948-0.17769-9.46637-0.9689-14.01715-2.37132
		c-4.5484-1.40479-8.68933-3.34259-12.41571-5.81343c-5.02216-3.33311-9.22473-7.41722-12.60992-12.2546
		c-3.38763-4.8398-5.64288-9.97569-6.77051-15.40772c-1.15839-5.58837-1.13947-11.172,0.05682-16.74617
		c1.19635-5.57417,3.54401-10.99909,7.04291-16.27473c3.43744-5.17855,7.53333-9.41897,12.29492-12.72131
		c4.75928-3.29995,9.89276-5.46757,15.39819-6.50043c5.3681-1.03286,10.9494-0.9239,16.73914,0.32456
		c5.78973,1.24842,11.16486,3.51554,16.12311,6.80602c4.42285,2.93277,8.11603,6.26116,11.08429,9.98042
		c2.96838,3.71927,5.19287,7.82231,6.67578,12.30673L1024.18079,94.58301z"/>
	<path class="st0" d="M1022.61963,183.60846l62.44336-55.03563l5.00085,5.67128l-25.33594,22.33217l29.96252,33.99217
		l25.33362-22.32979l5.00098,5.67366l-62.44348,55.03564l-5.00085-5.67368l32.24634-28.42041l-29.96265-33.99217l-32.2439,28.42036
		L1022.61963,183.60846z"/>
	<path class="st0" d="M1166.38232,235.34654l3.31885,6.66866l-48.66077,24.21548c-7.36511,3.66473-12.00122,8.0687-13.9082,13.20932
		c-1.9093,5.14059-1.1394,11.172,2.30505,18.09409c3.39465,6.82022,7.71802,11.02039,12.96997,12.59811
		c5.25208,1.5777,11.55823,0.53537,18.92334-3.12943l48.66077-24.2178l3.36865,6.77051l-46.47192,23.12814
		c-10.07751,5.01511-18.71716,6.51935-25.9187,4.51523c-7.19922-2.0065-13.0625-7.55698-17.5896-16.64905
		c-4.54126-9.12994-5.44141-17.17026-2.70056-24.12308c2.74084-6.95291,9.15369-12.93689,19.2312-17.95197L1166.38232,235.34654z"/>
	<path class="st0" d="M1147.53015,367.45386l4.82544,5.54337c-3.71912,2.09656-6.34644,4.84457-7.88147,8.24875
		s-1.83826,7.13766-0.90723,11.20276c1.17493,5.13589,3.60779,8.79834,7.29639,10.98721
		c3.68848,2.18887,8.21313,2.6698,13.56934,1.44269c3.91589-0.89548,6.9458-2.60822,9.0896-5.14059
		c2.1416-2.53006,4.1814-7.38168,6.11914-14.55255c2.45422-9.15369,5.01746-15.45746,7.68958-18.90668
		c2.6698-3.44919,6.31567-5.70206,10.93518-6.75864c5.76367-1.31949,10.89954-0.44299,15.41479,2.6272
		c4.51282,3.06781,7.47876,7.70856,8.89783,13.91525c0.93091,4.06274,0.88123,7.79865-0.14697,11.20282
		c-1.0304,3.40421-3.04639,6.44116-6.05261,9.11337l-4.74268-4.9227c2.05859-1.71512,3.44922-3.79272,4.17419-6.23276
		c0.72485-2.44241,0.74854-5.14059,0.07336-8.09473c-0.91443-3.9917-2.81433-6.90079-5.70203-8.72723
		c-2.88782-1.82883-6.3252-2.28607-10.31689-1.37399c-5.69019,1.30295-9.91882,7.20636-12.68579,17.71744
		c-0.49744,1.90225-0.88599,3.35205-1.16309,4.3494c-2.22449,7.77963-4.75928,13.21881-7.60913,16.32211
		c-2.84753,3.10095-6.96948,5.26852-12.36353,6.50281c-7.27991,1.66537-13.5387,0.85992-18.77881-2.41159
		c-5.23779-3.27393-8.69641-8.56616-10.3689-15.88391c-1.21765-5.32068-0.93811-10.17706,0.83618-14.56671
		C1139.50647,374.66495,1142.77319,370.79645,1147.53015,367.45386z"/>
	<path class="st0" d="M1150.23071,481.05017l76.11938-1.23422l-0.37195-22.91022l7.10693-0.11606l0.86462,53.43655l-7.10449,0.11609
		l-0.37195-22.96704l-76.11938,1.23419L1150.23071,481.05017z"/>
	<path class="st0" d="M1145.89551,556.88525l81.64856,16.17291l-8.0094,40.43573l-6.97192-1.3811l6.54065-33.01617
		l-25.54199-5.06012l-6.54077,33.01624l-6.97192-1.38116l6.54077-33.01611l-35.19092-6.97186l-6.54065,33.01617l-6.9718-1.3811
		L1145.89551,556.88525z"/>
	<path class="st0" d="M1102.09351,692.48682l3.698-8.43585l48.078-10.83093l1.82642-4.16455l-36.3446-15.93365l3.03467-6.92682
		l76.23303,33.41888l-6.14026,14.00769c-3.62219,8.26294-8.05212,13.69727-13.29224,16.3031
		c-5.24011,2.60828-11.34973,2.3808-18.32629-0.67749c-5.93665-2.60114-9.8335-6.4104-11.6908-11.42548
		s-1.43091-10.61292,1.27686-16.7912L1102.09351,692.48682z M1189.54358,683.89221l-28.17163-12.34937l-3.05835,6.97662
		c-2.83093,6.45776-3.7738,11.41364-2.82617,14.87231c0.94763,3.4563,3.90173,6.27295,8.86694,8.45001
		c5.24255,2.29559,9.55176,2.61298,12.92981,0.95001c3.37817-1.66541,6.44592-5.63818,9.20105-11.92297L1189.54358,683.89221z"/>
	<path class="st0" d="M1063.33972,818.98682c3.2644,3.32843,4.86108,7.31067,4.79236,11.94666
		c-0.07104,4.63605-1.77197,8.58752-5.09802,11.85193c-3.30237,3.2384-7.27026,4.83502-11.90637,4.79242
		c-4.63599-0.04504-8.57556-1.71753-11.81396-5.01752c-3.2384-3.30231-4.83508-7.29633-4.79004-11.98688
		c0.04492-4.69055,1.71753-8.65381,5.01746-11.89221c3.32837-3.26678,7.31055-4.86346,11.94666-4.79242
		C1056.1239,813.9599,1060.07532,815.65845,1063.33972,818.98682z"/>
	<path class="st0" d="M867.45288,893.63983l50.57251,52.52924l-16.11841-61.81085l7.30585-2.70056l19.46814,85.30139
		l-55.60187-58.42792l-5.35144,80.96149l-40.10645-77.67578l7.30585-2.70062l27.84949,57.47333L867.45288,893.63983z"/>
	<path class="st0" d="M718.95233,992.7049c4.37311,3.25977,8.77466,5.58844,13.20697,6.9837
		c4.42993,1.39294,9.02808,1.92365,13.79205,1.58252c10.73846-0.76288,19.21936-4.78534,25.44495-12.0675
		c6.22803-7.28223,8.95233-16.38849,8.17535-27.31409c-0.38855-5.48181-1.56354-10.35706-3.52032-14.62598
		c-1.95673-4.26886-4.73792-7.98572-8.34344-11.14832c-3.56293-3.09149-7.55463-5.35382-11.96796-6.78705
		c-4.41577-1.43323-9.08026-1.97809-13.99585-1.62744c-4.76398,0.33875-9.35742,1.48291-13.77789,3.43024
		c-4.42041,1.9472-8.54004,4.65503-12.36121,8.12073l-0.62781-8.8504c3.90411-2.78351,8.08771-5.01031,12.5484-6.67572
		c4.46082-1.66772,8.92151-2.65796,13.38226-2.9754c6.01245-0.42645,11.83533,0.24164,17.47107,2.00653
		c5.63574,1.76483,10.55603,4.45361,14.76569,8.06866c4.33051,3.71918,7.72522,8.15161,10.17944,13.29694
		c2.4566,5.14545,3.90875,10.87347,4.35889,17.18915c0.44061,6.20197-0.21558,12.06281-1.97095,17.58246
		c-1.75305,5.51971-4.49628,10.37128-8.22742,14.55017c-3.62213,4.09351-8.10895,7.41479-13.45569,9.96381
		c-5.34674,2.54425-10.98962,4.02716-16.92621,4.45129c-5.29224,0.37665-10.25049-0.00244-14.87231-1.13708
		c-4.61945-1.13477-8.88599-3.02521-12.7995-5.67371L718.95233,992.7049z"/>
	<path class="st0" d="M629.57391,910.96637l14.73492,71.41229l19.35437-60.87518l7.62097,1.61566l-29.06,82.52979
		l-15.83887-79.08533l-47.73456,65.61072l7.53571-87.09241l7.62097,1.6156l-7.11871,63.4668L629.57391,910.96637z"/>
	<path class="st0" d="M541.97333,886.05682l-36.45944,74.82355l-6.79773-3.31189l33.34665-68.43677l-25.65814-12.50098
		l3.11279-6.38916L541.97333,886.05682z"/>
	<path class="st0" d="M474.09677,848.27423l6.60345,5.03174l-46.74432,19.4278l-5.63458,45.30634l-6.7847-5.16669l5.08972-37.64752
		l-35.07718,14.80597l-6.51346-4.96057l42.04309-17.29102l6.53711-50.33801l6.69351,5.1004l-5.53152,42.16742L474.09677,848.27423z"
		/>
	<path class="st0" d="M406.10294,790.45038l5.43677,6.27063l-49.72562,9.47345l-14.76929,43.2027l-5.586-6.44354l12.67038-35.81635
		l-37.36206,7.33197l-5.36212-6.18536l44.68805-8.34106l16.67865-47.94299l5.51138,6.35828l-14.02664,40.15149L406.10294,790.45038z
		"/>
	<path class="st0" d="M351.39066,720.0141l4.03787,7.2514l-50.61279-0.90735l-23.2999,39.26318l-4.14804-7.45044l19.73343-32.46179
		l-38.07156-0.47144l-3.98221-7.1543l45.44846,0.98547l26.14026-43.51294l4.09357,7.35083l-21.94962,36.42987L351.39066,720.0141z"
		/>
	<path class="st0" d="M308.15598,615.49567l-73.46735,56.05188l-2.49924-8.3316l58.01816-42.4541l-72.16678-4.70471
		l-2.38556-7.95026L308.15598,615.49567z"/>
	<path class="st0" d="M289.61884,541.80682l-82.76547,8.83386l-0.80307-7.51904l82.7655-8.83392L289.61884,541.80682z"/>
</g>
<path class="st0" d="M720,115.16602c-206.79419,0-374.43402,167.63977-374.43402,374.43396S513.20581,864.034,720,864.034
	s374.43408-167.63983,374.43408-374.43402S926.79419,115.16602,720,115.16602z M720,856.13599
	c-202.43219,0-366.53598-164.10376-366.53598-366.53601S517.56781,123.06399,720,123.06399s366.53601,164.10376,366.53601,366.53598
	S922.43219,856.13599,720,856.13599z"/>
<path class="st0" d="M825.1095,599.79022c-27.32263,26.05853-64.32324,42.05865-105.06104,42.05865
	c-84.08472,0-152.24884-68.16412-152.24884-152.2489S635.96375,337.3511,720.04846,337.3511
	c40.73779,0,77.7384,16.00009,105.06104,42.05862l22.28699-22.28699c-33.03088-31.7598-77.90662-51.29016-127.34802-51.29016
	c-101.49194,0-183.76746,82.27545-183.76746,183.7674s82.27551,183.76746,183.76746,183.76746
	c49.44141,0,94.31714-19.53033,127.34802-51.29022L825.1095,599.79022z"/>
<g>
	<path class="st0" d="M667.35309,486.69522c2.60516-3.10251,4.10956-5.40598,4.10956-8.01111
		c0-2.70297-1.60632-4.50497-4.40717-4.50497c-3.30634,0-4.7088,2.703-4.7088,8.31281h-23.8335v-1.00293
		c0-18.32562,11.11768-29.0397,29.1416-29.0397c17.82422,0,28.94189,10.81598,28.94189,26.03503
		c0,9.01401-4.20734,15.01929-12.11652,21.53009l-6.00934,5.00644h18.02393v19.72809h-61.08411L667.35309,486.69522z"/>
	<path class="st0" d="M736.78674,452.44931c19.02686,0,30.74384,13.61682,30.74384,37.05081
		c0,23.33209-11.71698,37.15277-30.74384,37.15277c-19.02692,0-30.84174-14.12238-30.84174-37.15277
		C705.94501,466.46976,717.75983,452.44931,736.78674,452.44931z M736.78674,504.42157c4.10541,0,5.70764-4.9086,5.70764-14.92145
		s-1.60223-14.92145-5.70764-14.92145c-4.2074,0-5.80963,4.80667-5.80963,14.92145
		C730.97711,499.51297,732.68127,504.42157,736.78674,504.42157z"/>
	<path class="st0" d="M784.79218,475.5816v-21.72986h36.45148v70.89722h-25.73743V475.5816H784.79218z"/>
	<path class="st0" d="M853.92816,453.85175h44.36066v19.12473h-28.24066l-0.70117,4.30521
		c3.20441-0.39954,6.40887-0.5993,9.51544-0.5993c15.72052,0,25.13403,9.01401,25.13403,23.43399
		c0,16.42172-11.71698,26.63437-33.04321,26.63437c-10.01691,0-19.02686-2.1037-27.64136-6.50677l3.20447-19.92783
		c8.91211,3.60397,16.22192,6.20911,23.43396,6.20911c6.80841,0,9.91504-1.70413,9.91504-5.50787
		c0-4.20737-4.50903-6.91034-13.62091-6.91034c-6.10718,0-12.31628,1.20267-19.12469,2.40128L853.92816,453.85175z"/>
</g>
</svg>
