<svg id="Layer_1" data-name="Layer 1" xmlns="http://www.w3.org/2000/svg" viewBox="0 0 585.36 183.13"><defs><style>.cls-1{fill:#fff;}</style></defs><title>jrs66-logo</title><path class="cls-1" d="M76.45,123.46c0,41.06-13.43,59.67-52.43,59.67-6.46,0-17.82-.53-24-2.33V150.32a157.18,157.18,0,0,0,17.56,1C35.12,151.35,38,139.48,38,126V2.58H76.45V123.46Z"/><path class="cls-1" d="M141.15,109.26v71.29H103.44V2.58h78.27c38.74,0,59.66,21.19,59.66,48.82,0,23.75-12.91,36.68-25.83,42.09,8.78,3.37,22.22,12.4,22.22,44.43v8.78c0,11.88,0,25.57,2.58,33.84H203.66c-3.09-7.74-3.62-21.18-3.62-40v-2.59c0-19.37-4.9-28.67-33.58-28.67H141.15Zm0-30.74h32.29c20.92,0,29.18-8,29.18-22.73,0-14.46-9.56-22.72-28.41-22.72H141.15V78.52Z"/><path class="cls-1" d="M299,128.37c4.13,17.82,16.78,25.84,37.46,25.84s29.44-8.27,29.44-21.19c0-14.72-8.53-20.92-39-27.89-48.56-11.37-60.44-29.19-60.44-53.21,0-31,23.25-51.92,65.34-51.92,47.27,0,66.12,25.31,68.71,51.4H361.78c-2.07-11.1-8-23-31-23-15.75,0-25,6.46-25,19.11,0,12.4,7.49,17.57,36.42,24,51.65,12.4,63,31.51,63,56.82,0,32.29-24.53,54.77-71.55,54.77-45.2,0-69.21-22.22-73.35-54.77H299Z"/><path class="cls-1" d="M417.67,72.39c0-12.64,8.88-20.47,16.25-23.78-7.68-4.67-12.19-10.69-12.19-20.62,0-16.86,12.19-28,34.47-28,20.46,0,33.86,10.53,33.86,27.69,0,11.44-5.87,17-12.64,19.86a25.91,25.91,0,0,1,16.1,24.08c0,20.47-16.26,31-38.83,31C434.37,102.64,417.67,92,417.67,72.39ZM472,71.34c0-9.79-6.77-14.3-16.4-14.3-10.68,0-16.26,5.87-16.26,14.14,0,8.89,6.62,14.75,16.71,14.75C465.22,85.93,472,81.42,472,71.34ZM442,28.74c0,6.62,4.82,11.14,14,11.14,8.73,0,13.54-3.3,13.54-11.14,0-7.52-5-12.19-13.84-12.19C446.71,16.55,442,20.92,442,28.74Z"/><path class="cls-1" d="M561.89,25.88c-1.21-4.82-3.91-9.47-12.65-9.47-13.24,0-16.7,12.33-17.3,25.73C536.15,37,543.22,33,554.36,33c18.21,0,31,13.4,31,32.81,0,21.22-13.54,36.88-36.27,36.88-28.75,0-38.38-22.13-38.38-50.12C510.71,26.78,519.89,0,550.3,0c21.52,0,31.45,13.54,32.5,25.88H561.89Zm2,41.69c0-9.49-3.46-17.91-15.35-17.91-9.63,0-15.21,5.72-15.21,17.15,0,8,3.76,18.67,15.21,18.67C559,85.48,563.84,77.66,563.84,67.57Z"/></svg>