<?xml version="1.0" encoding="utf-8"?>
<!-- Generator: Adobe Illustrator 19.1.0, SVG Export Plug-In . SVG Version: 6.00 Build 0)  -->
<svg version="1.1" id="Layer_1" xmlns="http://www.w3.org/2000/svg" xmlns:xlink="http://www.w3.org/1999/xlink" x="0px" y="0px"
	 viewBox="0 0 238.6781 234.0575" style="enable-background:new 0 0 238.6781 234.0575;" xml:space="preserve">
	 <style type="text/css">
      path{fill:rgb(50, 50, 50);}
      #lettering path{fill:rgb(50, 50, 50);opacity:0;}
      @media screen and (min-width: 148px) {
      	#lettering path{opacity:1;}
      }
    </style>
<g>
	<g id="lettering">
		<path d="M10.7344,92.5105C9.681,92.2619,8.874,91.6777,8.3135,90.758c-0.5605-0.9192-0.7162-1.9054-0.467-2.9588
			c0.247-1.0451,0.8284-1.8504,1.7446-2.4159c0.9159-0.566,1.8964-0.7255,2.9412-0.478c1.0451,0.247,1.8537,0.8339,2.4258,1.7602
			c0.5723,0.9269,0.7349,1.9126,0.4879,2.9572c-0.2489,1.0534-0.8331,1.8609-1.7525,2.4209
			C12.7743,92.6041,11.788,92.7597,10.7344,92.5105z"/>
		<path d="M32.2174,54.0484l-11.6137-7.8776l0.9857-1.4533l12.5532,8.5151c1.2674,0.8598,2.0336,1.7998,2.299,2.8197
			c0.2651,1.0198,0.0198,2.0875-0.7363,3.2014c-0.4593,0.6777-1.0061,1.1816-1.6395,1.5121
			c-0.6337,0.3306-1.34,0.4819-2.1183,0.4533l-0.2429-1.664c0.6227-0.0242,1.1444-0.1353,1.5661-0.3333
			c0.4214-0.198,0.7607-0.4868,1.0176-0.8653c0.4841-0.714,0.5732-1.3977,0.2673-2.0523
			C34.2497,55.6502,33.4705,54.8983,32.2174,54.0484z"/>
		<path d="M53.1884,25.5541c0.9128,1.0138,1.5867,2.1508,2.0221,3.4104c0.4354,1.2602,0.6111,2.5738,0.5264,3.9407
			c-0.0916,1.3856-0.4329,2.6849-1.0237,3.8973c-0.5908,1.2129-1.4032,2.285-2.4371,3.2163
			c-1.0341,0.9307-2.1838,1.6255-3.4484,2.0831c-1.2646,0.4577-2.5873,0.6568-3.9682,0.5974
			c-1.3867-0.066-2.6791-0.3796-3.8777-0.9406c-1.1986-0.5611-2.2539-1.3488-3.167-2.3626
			c-0.9244-1.0264-1.6062-2.1684-2.0449-3.4258c-0.4384-1.2569-0.6183-2.5787-0.5391-3.9644
			c0.0781-1.3614,0.4137-2.6403,1.0066-3.8379c0.593-1.197,1.4164-2.2701,2.4701-3.219c1.0603-0.9544,2.2198-1.664,3.4784-2.1282
			c1.2588-0.4643,2.5664-0.6672,3.9223-0.6095c1.3867,0.0666,2.6822,0.3834,3.8865,0.9511
			C51.199,23.7295,52.2637,24.5271,53.1884,25.5541z M51.2249,38.851c0.8507-0.7657,1.5144-1.648,1.9913-2.6458
			c0.4766-0.9973,0.7484-2.071,0.8155-3.2212c0.0479-1.1441-0.1185-2.247-0.4989-3.3081c-0.3804-1.0605-0.9563-2.0193-1.7278-2.8763
			c-0.7773-0.8636-1.6689-1.538-2.6753-2.0232c-1.0064-0.4857-2.087-0.7652-3.243-0.8378c-1.1373-0.0655-2.2289,0.0886-3.274,0.461
			c-1.0454,0.3729-1.9968,0.945-2.854,1.7173c-0.851,0.7663-1.5116,1.6453-1.9816,2.637c-0.47,0.9912-0.7385,2.0622-0.8053,3.2119
			c-0.0426,1.164,0.1218,2.2679,0.4937,3.3131c0.3718,1.0446,0.9497,2.0023,1.7327,2.8719c0.7775,0.8631,1.6692,1.538,2.6753,2.0237
			c1.0064,0.4852,2.0872,0.7646,3.243,0.8372c1.1497,0.066,2.2377-0.0814,3.2636-0.4428
			C49.4061,40.2075,50.3541,39.6349,51.2249,38.851z"/>
		<path d="M69.1779,26.7978l-8.629-18.2041l19.2976,8.7494L73.2704,3.4693l1.4791-0.7013l8.5217,17.978l-19.2974-8.7791
			l6.6952,14.1242L69.1779,26.7978z"/>
		<path d="M111.5774,4.0177c-0.0341-1.082,0.3201-2.0133,1.0616-2.7938c0.7415-0.7806,1.6535-1.1876,2.7355-1.2217
			c1.0732-0.0336,2.0023,0.3185,2.7867,1.0556c0.785,0.7371,1.1942,1.642,1.2278,2.7152c0.0336,1.0737-0.3229,2.0072-1.0682,2.801
			c-0.7459,0.7938-1.6552,1.2074-2.7284,1.241c-1.082,0.0336-2.0133-0.3201-2.7938-1.0616
			C112.018,6.0112,111.611,5.0997,111.5774,4.0177z"/>
		<path d="M148.7111,14.809l1.6893-0.2459c-0.0583,0.9896,0.1485,1.8482,0.6205,2.5754c0.472,0.7272,1.1629,1.2553,2.0738,1.5842
			c1.1502,0.4153,2.1711,0.4005,3.0623-0.0451c0.8906-0.4456,1.5529-1.2685,1.9863-2.4687c0.3168-0.8774,0.363-1.6843,0.1375-2.4209
			c-0.225-0.736-0.9164-1.7437-2.0732-3.0226c-1.4797-1.6293-2.3884-2.9214-2.7262-3.8764c-0.3383-0.9549-0.3207-1.95,0.0534-2.9847
			c0.4665-1.291,1.2828-2.1849,2.4489-2.6805c1.1667-0.4956,2.4451-0.4923,3.8356,0.0099c0.9104,0.3289,1.6337,0.8075,2.1689,1.4362
			c0.5358,0.6287,0.8757,1.4043,1.0198,2.3263l-1.5573,0.308c-0.0765-0.6172-0.3075-1.1497-0.6931-1.598
			s-0.9093-0.7916-1.5716-1.0308c-0.8939-0.3229-1.7008-0.3174-2.4203,0.0171c-0.72,0.3344-1.241,0.9483-1.5639,1.8422
			c-0.4604,1.2751,0.1612,2.8422,1.8664,4.7026c0.3091,0.3366,0.5435,0.5941,0.703,0.7734c1.2399,1.412,1.9841,2.5908,2.2316,3.5364
			c0.2481,0.9461,0.154,2.0232-0.2827,3.2317c-0.5891,1.631-1.5325,2.752-2.8296,3.3642c-1.2976,0.6122-2.7652,0.6221-4.4044,0.0303
			c-1.192-0.4307-2.1051-1.0952-2.7399-1.9935C149.1116,17.2816,148.7667,16.1578,148.7111,14.809z"/>
		<path d="M189.9698,21.9622c-0.3421-1.2195-0.8218-2.2718-1.439-3.1569c-0.6172-0.8845-1.3878-1.6332-2.312-2.2465
			c-2.0831-1.3818-4.213-1.8444-6.3907-1.3873c-2.1777,0.456-3.9693,1.7443-5.3753,3.8643c-0.7052,1.0633-1.181,2.126-1.4263,3.1888
			c-0.2453,1.0622-0.2602,2.1398-0.0457,3.2328c0.2173,1.0737,0.6304,2.0556,1.2393,2.9451
			c0.6084,0.8895,1.3895,1.6502,2.3428,2.2828c0.9241,0.6133,1.9307,1.0539,3.0204,1.3224
			c1.0891,0.2684,2.2305,0.3548,3.4236,0.2591l-1.1381,1.7162c-1.1133-0.0413-2.1981-0.225-3.2548-0.5506
			c-1.0561-0.3262-2.0177-0.7761-2.8829-1.3499c-1.1662-0.774-2.142-1.7223-2.928-2.8455
			c-0.7866-1.1238-1.3103-2.3164-1.5721-3.5777c-0.269-1.2976-0.2646-2.5941,0.0132-3.8885c0.2778-1.2943,0.8229-2.554,1.6354-3.779
			c0.7982-1.2025,1.7492-2.1871,2.8549-2.9539c1.1051-0.7663,2.2971-1.2696,3.5755-1.5094
			c1.2465-0.2398,2.5424-0.2145,3.8868,0.0754c1.3444,0.2899,2.5925,0.8163,3.7438,1.5804c1.027,0.681,1.8845,1.4538,2.5738,2.3175
			c0.6893,0.8636,1.2058,1.8163,1.5501,2.8576L189.9698,21.9622z"/>
		<path d="M189.6073,42.6339l14.4993-12.7793l1.1612,1.3169l-5.883,5.1855l6.9573,7.893l5.8825-5.185l1.1612,1.3174
			l-14.4993,12.7793l-1.1612-1.3174l7.4876-6.5992l-6.9573-7.893l-7.487,6.5992L189.6073,42.6339z"/>
		<path d="M222.989,54.6474l0.7706,1.5485l-11.299,5.6228c-1.7102,0.851-2.7867,1.8735-3.2295,3.0672
			c-0.4434,1.1937-0.2646,2.5941,0.5352,4.2015c0.7882,1.5837,1.7921,2.5589,3.0116,2.9253
			c1.2195,0.3663,2.6838,0.1243,4.394-0.7266l11.299-5.6234l0.7822,1.5721l-10.7908,5.3704
			c-2.34,1.1645-4.3461,1.5138-6.0183,1.0484c-1.6717-0.4659-3.0331-1.7547-4.0843-3.8659c-1.0545-2.12-1.2635-3.9869-0.6271-5.6014
			c0.6364-1.6145,2.1255-3.0039,4.4655-4.1684L222.989,54.6474z"/>
		<path d="M218.6115,85.3228l1.1205,1.2872c-0.8636,0.4868-1.4736,1.1249-1.8301,1.9154s-0.4269,1.6574-0.2107,2.6013
			c0.2728,1.1926,0.8378,2.043,1.6942,2.5512c0.8565,0.5083,1.9071,0.6199,3.1508,0.335c0.9093-0.2079,1.6128-0.6056,2.1106-1.1937
			c0.4973-0.5875,0.9709-1.714,1.4208-3.3791c0.5699-2.1255,1.1651-3.5892,1.7855-4.3901c0.6199-0.8009,1.4665-1.324,2.5391-1.5694
			c1.3383-0.3064,2.5309-0.1029,3.5793,0.61c1.0479,0.7123,1.7366,1.7899,2.0661,3.2311c0.2162,0.9434,0.2046,1.8108-0.0341,2.6013
			c-0.2393,0.7905-0.7074,1.4956-1.4054,2.1161l-1.1012-1.1431c0.478-0.3983,0.8009-0.8807,0.9692-1.4472
			c0.1683-0.5671,0.1738-1.1936,0.017-1.8796c-0.2123-0.9269-0.6535-1.6024-1.324-2.0265c-0.6705-0.4247-1.4687-0.5308-2.3956-0.319
			c-1.3213,0.3025-2.3032,1.6733-2.9456,4.114c-0.1155,0.4417-0.2057,0.7784-0.2701,1.0099
			c-0.5165,1.8064-1.1051,3.0694-1.7668,3.79c-0.6612,0.72-1.6183,1.2234-2.8708,1.5099c-1.6904,0.3867-3.1437,0.1997-4.3604-0.56
			c-1.2162-0.7602-2.0193-1.9891-2.4077-3.6882c-0.2827-1.2355-0.2178-2.3631,0.1942-3.3824
			C216.7484,86.9972,217.507,86.0989,218.6115,85.3228z"/>
		<path d="M219.2386,111.6998l17.6749-0.2866l-0.0864-5.3197l1.6502-0.027l0.2008,12.408l-1.6497,0.027l-0.0864-5.3329
			l-17.6749,0.2866L219.2386,111.6998z"/>
		<path d="M218.232,129.3087l18.9588,3.7553l-1.8598,9.3892l-1.6189-0.3207l1.5188-7.6664l-5.9309-1.175l-1.5188,7.6664
			l-1.6189-0.3207l1.5188-7.6664l-8.1713-1.6189l-1.5188,7.6664l-1.6189-0.3207L218.232,129.3087z"/>
		<path d="M208.0611,160.7954l0.8587-1.9588l11.1637-2.5149l0.4241-0.967l-8.4392-3.6998l0.7046-1.6084l17.7013,7.7599
			l-1.4258,3.2526c-0.841,1.9187-1.8697,3.1805-3.0865,3.7856c-1.2168,0.6056-2.6354,0.5528-4.2554-0.1573
			c-1.3785-0.604-2.2833-1.4885-2.7146-2.653s-0.3322-2.4643,0.2965-3.8989L208.0611,160.7954z M228.3671,158.7997l-6.5415-2.8675
			l-0.7101,1.62c-0.6573,1.4995-0.8763,2.6502-0.6562,3.4534c0.22,0.8026,0.906,1.4566,2.0589,1.9621
			c1.2173,0.533,2.2179,0.6067,3.0023,0.2206c0.7844-0.3867,1.4967-1.3092,2.1365-2.7685L228.3671,158.7997z"/>
		<path d="M199.0625,190.1687c0.758,0.7728,1.1288,1.6975,1.1128,2.774c-0.0165,1.0765-0.4115,1.994-1.1837,2.752
			c-0.7668,0.752-1.6882,1.1227-2.7647,1.1128c-1.0765-0.0105-1.9913-0.3988-2.7432-1.1651
			c-0.752-0.7668-1.1227-1.6942-1.1122-2.7834s0.3988-2.0094,1.1651-2.7614c0.7728-0.7585,1.6975-1.1293,2.774-1.1128
			C197.387,189.0014,198.3045,189.3958,199.0625,190.1687z"/>
		<path d="M153.5776,207.5031l11.7429,12.1973l-3.7427-14.3525l1.6964-0.6271l4.5205,19.807l-12.9107-13.567l-1.2426,18.7993
			l-9.3127-18.0363l1.6964-0.6271l6.4666,13.3453L153.5776,207.5031z"/>
		<path d="M119.0958,230.506c1.0154,0.7569,2.0375,1.2976,3.0667,1.6216c1.0286,0.3234,2.0963,0.4467,3.2025,0.3674
			c2.4935-0.1771,4.4627-1.1111,5.9083-2.8021c1.4461-1.6909,2.0787-3.8054,1.8983-6.3423
			c-0.0902-1.2729-0.3631-2.4049-0.8174-3.3961s-1.1001-1.8543-1.9373-2.5886c-0.8273-0.7178-1.7542-1.2432-2.779-1.576
			c-1.0253-0.3328-2.1084-0.4593-3.2498-0.3779c-1.1062,0.0787-2.1728,0.3443-3.1992,0.7965
			c-1.0264,0.4521-1.983,1.0809-2.8703,1.8856l-0.1458-2.0551c0.9065-0.6463,1.8779-1.1634,2.9137-1.5501
			c1.0358-0.3873,2.0716-0.6172,3.1074-0.6909c1.3961-0.099,2.7482,0.0561,4.0568,0.4659s2.4511,1.0341,3.4286,1.8735
			c1.0055,0.8636,1.7938,1.8928,2.3637,3.0876c0.5704,1.1948,0.9076,2.5248,1.0121,3.9913c0.1023,1.4401-0.05,2.801-0.4577,4.0826
			c-0.4071,1.2817-1.044,2.4082-1.9104,3.3785c-0.8411,0.9505-1.8829,1.7217-3.1244,2.3136
			c-1.2415,0.5908-2.5518,0.9351-3.9303,1.0336c-1.2289,0.0874-2.3802-0.0006-3.4534-0.264
			c-1.0726-0.2635-2.0633-0.7024-2.972-1.3174L119.0958,230.506z"/>
		<path d="M98.3421,211.5263l3.4214,16.5819l4.4941-14.1352l1.7696,0.3751l-6.7477,19.1634l-3.6778-18.3636l-11.084,15.2348
			l1.7498-20.2229l1.7696,0.3752l-1.653,14.737L98.3421,211.5263z"/>
		<path d="M78.0013,205.7423l-8.4659,17.374l-1.5784-0.769l7.7431-15.891l-5.9578-2.9027l0.7228-1.4836L78.0013,205.7423z"/>
		<path d="M62.2404,196.9692l1.5333,1.1684l-10.854,4.5111l-1.3083,10.5201l-1.5754-1.1997l1.1818-8.7417l-8.1449,3.438
			l-1.5124-1.1519l9.7624-4.015l1.5179-11.6885l1.5542,1.1843l-1.2844,9.7913L62.2404,196.9692z"/>
		<path d="M46.4522,183.5425l1.2624,1.456l-11.5463,2.1997l-3.4294,10.0317l-1.2971-1.4962l2.9421-8.3165l-8.6755,1.7025
			l-1.2451-1.4362l10.3766-1.9368l3.8728-11.1324l1.2797,1.4764l-3.257,9.3232L46.4522,183.5425z"/>
		<path d="M33.748,167.1872l0.9376,1.6838l-11.7523-0.2107l-5.4102,9.1169l-0.9632-1.73l4.5821-7.5376l-8.8402-0.1095
			l-0.9247-1.6612l10.5531,0.2288L28,156.864l0.9505,1.7069l-5.0967,8.459L33.748,167.1872z"/>
		<path d="M23.7089,142.918L6.6498,155.9333l-0.5803-1.9346l13.4718-9.8578l-16.7571-1.0924l-0.5539-1.846L23.7089,142.918z"/>
		<path d="M19.4046,125.8075l-19.2181,2.0512L0,126.1128l19.2181-2.0512L19.4046,125.8075z"/>
	</g>
	<g>
		<path d="M163.7094,133.8493c1.3741-1.2429,2.4691-2.7052,3.2754-4.3871c0.8087-1.6771,1.2095-3.4591,1.2095-5.3437
			c0-1.7486-0.3364-3.3923-1.0091-4.9453c-0.6727-1.5435-1.5959-2.9223-2.7696-4.1318c-1.1785-1.2095-2.5716-2.221-4.1843-3.0249
			c-1.6174-0.8087-3.3279-1.3121-5.1457-1.5148h-22.0832V95.2246h-3.731v15.2819H84.2939
			c-1.4099-0.1384-2.7553-0.4914-4.0316-1.0616c-1.281-0.5702-2.3713-1.2763-3.2778-2.1184
			c-0.9065-0.8421-1.6293-1.7963-2.1661-2.877c-0.5415-1.0759-0.8087-2.2162-0.8087-3.4257c0-1.2763,0.303-2.4858,0.9065-3.6308
			c0.6083-1.1403,1.4433-2.1494,2.5239-3.0249c1.0759-0.8731,2.3188-1.5625,3.7286-2.0683
			c1.4123-0.5057,2.9247-0.7538,4.5373-0.7538h43.069h0.4962h3.731h0.687h7.8867h13.2137h7.2807
			c1.3264,0,2.3999,1.0735,2.3999,2.3999v9.2942v0.303c0.2004,1.1451,0.8039,1.7152,1.813,1.7152
			c0.8493,0,1.4934-0.501,1.9156-1.5196v-1.5053V90.1338v-0.3006c0-0.5368-0.1837-0.959-0.5535-1.2596
			c-0.3698-0.303-0.8254-0.4556-1.3622-0.4556H154.785h-13.2137H133V77.5308v-11.601v-0.2982
			c-0.2004-0.8755-0.7705-1.3789-1.7152-1.5148h-0.303h-12.0996h-1.0043c-0.5368,0-1.0091,0.167-1.4123,0.5057
			c-0.4055,0.3364-0.6083,0.7705-0.6083,1.3097c0,1.0759,0.5702,1.7152,1.7152,1.9156h0.303h9.6305
			c0.9757,0,1.7653,0.7896,1.7653,1.7653v7.9201v10.5872H85.7062c-2.085,0-4.0507,0.3364-5.8995,1.0091
			s-3.4638,1.5959-4.8379,2.7744c-1.3789,1.1737-2.4691,2.5526-3.2778,4.1318c-0.8087,1.5769-1.2119,3.242-1.2119,4.9906
			c0,1.7486,0.3698,3.3613,1.1069,4.8379c0.7395,1.4814,1.7486,2.8102,3.0273,3.9839c0.9184,0.8469,1.9538,1.5673,3.0988,2.1685
			c2.0063,1.0043,5.1194,2.0158,9.528,2.0158h18.4309v20.0698h-8.569H83.8931h-6.2669c-1.887,0-3.4161-1.5292-3.4161-3.4161v-7.9773
			v-0.303c-0.2004-1.1451-0.8421-1.7152-1.9156-1.7152c-0.5368,0-0.9733,0.2004-1.3097,0.6083
			c-0.3388,0.3984-0.5057,0.8707-0.5057,1.4099v1.0043v12.0996v0.303c0.136,0.9447,0.6393,1.5148,1.5148,1.7152h0.2982h11.601
			H97.102h8.5713v10.7708c0,0.0787,0.0048,0.1598,0.0143,0.2386c0.2099,1.7725,0.7085,3.4448,1.5005,5.0264
			c0.8039,1.6126,1.813,3.0082,3.0249,4.1843c1.2095,1.1737,2.5883,2.0969,4.1318,2.7696c1.5506,0.6727,3.1967,1.0091,4.9453,1.0091
			c1.8822,0,3.6642-0.4032,5.3437-1.2095c1.6818-0.8039,3.1442-1.8989,4.3871-3.2754c1.2477-1.3789,2.221-2.9963,2.9247-4.8427
			c0.7061-1.8512,1.0592-3.8169,1.0592-5.8995v-5.0956h-3.731v5.0956c0,1.6126-0.2553,3.1275-0.7586,4.5374
			c-0.5058,1.4122-1.2095,2.6551-2.1184,3.731c-0.9089,1.0759-1.9657,1.9156-3.1752,2.5239
			c-1.2095,0.6035-2.5192,0.9065-3.9314,0.9065c-1.4123,0-2.7243-0.303-3.9362-0.9065c-1.2095-0.6083-2.2687-1.448-3.1752-2.5239
			c-0.9065-1.0759-1.6293-2.3188-2.1661-3.731c-0.5368-1.4123-0.8087-2.9247-0.8087-4.5374v-8.5332v-0.2409v-3.731v-0.9423v-19.1275
			h19.5736h0.4962h3.731h0.687h19.2802c1.6126,0,3.1275,0.272,4.5374,0.8087c1.4122,0.5368,2.6551,1.2596,3.731,2.1661
			c1.0759,0.9065,1.9156,1.9657,2.5239,3.1752c0.6035,1.2095,0.9065,2.5239,0.9065,3.9362s-0.303,2.7195-0.9065,3.9314
			c-0.6083,1.2095-1.448,2.2687-2.5239,3.1752c-1.0759,0.9065-2.3188,1.6126-3.731,2.1184
			c-1.4123,0.5057-2.9247,0.7586-4.5374,0.7586h-19.9672v-16.3936h-3.731v16.3936h-16.3936v3.731h15.8497h0.5439h3.731h0.6393
			h19.3279c2.085,0,4.0507-0.3531,5.8995-1.0592C160.7155,136.0678,162.3306,135.0945,163.7094,133.8493z"/>
	</g>
</g>
</svg>
