<?xml version="1.0" encoding="utf-8"?>
<!-- Generator: Adobe Illustrator 18.1.1, SVG Export Plug-In . SVG Version: 6.00 Build 0)  -->
<!DOCTYPE svg PUBLIC "-//W3C//DTD SVG 1.1//EN" "http://www.w3.org/Graphics/SVG/1.1/DTD/svg11.dtd">
<svg version="1.1" id="Layer_1" xmlns="http://www.w3.org/2000/svg" xmlns:xlink="http://www.w3.org/1999/xlink" x="0px" y="0px"
	 viewBox="216.96918 0 1006.06165 1008" style="enable-background:new 216.96918 0 1006.06165 1008;" xml:space="preserve">
    <style type="text/css">
      polygon{fill:#6f5abc;}
    </style>
<g>
	<polygon points="1000.00006,223.99921 1000.00006,0 440.96912,0 440.96912,111.99998 888.00006,111.99998 888.00006,223.99921 
		216.96918,223.99921 216.96918,560.00006 1111.03076,560.00006 1111.03076,672 1000.00006,672 1000.00006,616.00006 
		888.00006,616.00006 888.00006,672 608.96924,672 608.96924,784 1223.03076,784 1223.03076,448.00006 1000.00006,448.00006 
		1000.00006,392.00006 888.00006,392.00006 888.00006,448.00006 328.96915,448.00006 328.96915,335.99997 1111.03076,335.99997 
		1111.03076,392.00006 1223.03076,392.00006 1223.03076,223.99921 	"/>
	<polygon points="888.00006,896 552.96912,896 552.96912,784 552.96912,672 328.96915,672 328.96915,616.00006 216.96918,616.00006 
		216.96918,784 440.96912,784 440.96912,1008 1000.00006,1008 1000.00006,840 888.00006,840 	"/>
</g>
</svg>
