<?xml version="1.0" encoding="utf-8"?>
<!-- Generator: Adobe Illustrator 19.2.1, SVG Export Plug-In . SVG Version: 6.00 Build 0)  -->
<svg version="1.1" id="Layer_1" xmlns="http://www.w3.org/2000/svg" xmlns:xlink="http://www.w3.org/1999/xlink" x="0px" y="0px"
	 viewBox="0 0 146.7441 47.8547" style="enable-background:new 0 0 146.7441 47.8547;" xml:space="preserve">
<title>Untitled-2</title>
<path d="M19.9761,32.2639c0,10.7327-3.5089,15.5907-13.7,15.5907c-2.1083,0.0347-4.2137-0.1699-6.2758-0.61v-7.963
	c1.5232,0.1768,3.0552,0.2667,4.5887,0.2693c4.5887,0,5.3334-3.1049,5.3334-6.6111V0.6758h10.054v31.588L19.9761,32.2639z"/>
<path d="M34.5787,28.549v18.63h-9.8533V0.6759h20.4487c10.1227,0,15.5907,5.534,15.5907,12.755c0,6.21-3.3742,9.5841-6.7485,11.002
	c2.2971,0.8793,5.8032,3.2423,5.8032,11.612v2.2916c0,3.1049,0,6.6825,0.6759,8.8422h-9.5841
	c-0.8078-2.0223-0.9452-5.534-0.9452-10.4634v-0.67c0-5.0613-1.28-7.4958-8.7708-7.4958h-6.6166L34.5787,28.549z M34.5787,20.5201
	h8.4356c5.468,0,7.6277-2.0938,7.6277-5.9406c0-3.7809-2.4949-5.9406-7.4244-5.9406h-8.6389V20.5201z"/>
<path d="M74.1485,33.5444c1.0826,4.66,4.3909,6.7485,9.7875,6.7485c5.4021,0,7.6937-2.16,7.6937-5.534
	c0-3.8468-2.2257-5.468-10.1886-7.287c-12.6891-2.9731-15.794-7.6277-15.794-13.9036c0-8.1,6.0725-13.5684,17.0745-13.5684
	c12.3538,0,17.2778,6.6166,17.9537,13.431H90.5525c-0.5386-2.9016-2.0938-6.0066-8.1-6.0066c-4.1161,0-6.5451,1.6871-6.5451,4.9954
	c0,3.2423,1.9564,4.5887,9.5127,6.2758c13.5024,3.2423,16.47,8.2377,16.47,14.8488c0,8.4356-6.4132,14.31-18.6956,14.31
	c-11.81,0-18.0856-5.8032-19.1682-14.31h10.1227L74.1485,33.5444z"/>
<path d="M104.1266,18.9154c0.0547-2.7307,1.7228-5.1693,4.248-6.21c-2.0182-1.0267-3.2606-3.1279-3.1874-5.3911
	c0-4.4019,3.1874-7.3145,9.0071-7.3145c5.3471,0,8.8477,2.7532,8.8477,7.2376c0.1721,2.2719-1.1723,4.3857-3.3028,5.1932
	c2.5573,1.04,4.2244,3.5316,4.21,6.2923c0,5.3471-4.248,8.1-10.1447,8.1C108.4954,26.8234,104.1266,24.0317,104.1266,18.9154z
	 M118.3266,18.6406c0-2.5554-1.77-3.7314-4.2865-3.7314c-2.7917,0-4.248,1.5332-4.248,3.693c0,2.3191,1.7311,3.8578,4.3634,3.8578
	c2.4019,0,4.1714-1.1815,4.1714-3.8194H118.3266z M110.5014,7.5123c0,1.7311,1.2585,2.9126,3.6545,2.9126
	c2.2806,0,3.5391-0.8683,3.5391-2.9126c0-1.9674-1.2969-3.1819-3.616-3.1819C111.7159,4.3304,110.5014,5.468,110.5014,7.5123z"/>
<path d="M140.6112,6.7649c-0.2511-1.5825-1.7133-2.6796-3.3028-2.4785c-3.4622,0-4.3689,3.2258-4.5228,6.7265
	c1.4769-1.662,3.64-2.5467,5.8582-2.396c4.7591,0,8.1,3.4951,8.1,8.573c0,5.5449-3.5391,9.6336-9.4742,9.6336
	c-7.5123,0-10.0293-5.7812-10.0293-13.0957c0-6.7265,2.396-13.7277,10.3425-13.7277c5.6219,0,8.2157,3.5391,8.496,6.7649h-5.468
	L140.6112,6.7649z M141.1223,17.6569c0-2.473-0.9068-4.6767-4.0117-4.6767c-2.5169,0-3.9732,1.4948-3.9732,4.4843
	c0,2.0828,0.9837,4.8745,3.9732,4.8745c2.7532,0.0001,4.0116-2.0443,4.0116-4.6818L141.1223,17.6569z"/>
</svg>
