<?xml version="1.0" encoding="utf-8"?>
<!-- Generator: Adobe Illustrator 19.0.1, SVG Export Plug-In . SVG Version: 6.00 Build 0)  -->
<!DOCTYPE svg PUBLIC "-//W3C//DTD SVG 1.1//EN" "http://www.w3.org/Graphics/SVG/1.1/DTD/svg11.dtd">
<svg version="1.1" id="Layer_1" xmlns="http://www.w3.org/2000/svg" xmlns:xlink="http://www.w3.org/1999/xlink" x="0px" y="0px"
	 viewBox="0 0 79.59729 126.00005" style="enable-background:new 0 0 79.59729 126.00005;" xml:space="preserve">
<style type="text/css">
	.st0{fill:rgba(243, 243, 245, 1);}
</style>
<g>
	<path class="st0" d="M69.75359,119.1865c-0.042-0.0722-0.083-0.1455-0.125-0.2187c-0.4102-0.82619-0.544-1.8526-0.4326-3.3233
		l0.0166-0.2002l-0.1973-0.7685l-0.1104-0.167c-0.2187-0.3359-0.4541-0.6504-0.6611-0.9277
		c-0.5117-0.6856-0.916-1.2276-1.041-1.9307l-0.03999-0.22359l-0.46391-0.7637l-0.1797-0.1387
		c-0.06841-0.0527-0.1377-0.1045-0.21481-0.1601c-0.042-0.0313-0.1123-0.08501-0.1778-0.1348l0.0362-0.2402l-0.5391-1.2266
		l-0.0147-0.0098l0.0362-0.5888l-0.3369-0.7979c0.0507-0.77441-0.1143-1.4297-0.25301-1.9814
		c-0.0234-0.0918-0.04679-0.18661-0.0703-0.2793l0.3203-0.3448l-0.9853-0.8769l-0.9971-1.3584l-0.2041,0.3603
		c-0.0029-0.0097-0.0068-0.01849-0.0107-0.0273c0.2431-1.3057-0.4717-2.3779-0.8799-2.9902
		c-0.1143-0.168-0.2813-0.42001-0.3272-0.5332l-0.0312-0.3008l-0.8086-1.0449l-0.001-0.00101
		c-0.042-0.3028-0.0693-0.64449-0.09669-0.9795c-0.125-1.5693-0.29681-3.7158-2.26561-4.6934l-0.332-0.164l0.0117-0.1993
		l-0.7617-1.0312c-0.0069-0.0273-0.0147-0.0586-0.0235-0.0957c-0.0703-0.29691-0.1835-0.7227-0.4257-1.1445l0.38281-0.1026
		c0.39059-0.1035,0.58589-0.3711,0.58589-0.7431v-9.1426c0-0.39059,0.2149-0.6436,0.586-0.74319l2.7353-0.73341
		c0.3906-0.1035,0.5859-0.37199,0.5859-0.7431v-2.1875c0-0.3907-0.1953-0.5342-0.5859-0.4297l-10.0029,2.6797
		c-0.3711,0.10049-0.586,0.3535-0.586,0.74409v2.1875c0,0.3711,0.2149,0.52831,0.586,0.4297l2.7353-0.7324
		c0.3907-0.1055,0.586,0.0371,0.586,0.4277v8.29881c-0.045,0.0157-0.0948,0.043-0.18459,0.09959
		c-0.083,0.0537-0.18461,0.1172-0.30661,0.1729c0.0097,0.2041-0.004,0.4307-0.0733,0.6406c0.169-0.04,0.3604-0.0625,0.5645-0.0732
		v0.0058c0,0.3701,0.2148,0.5274,0.5869,0.4287l0.5488-0.1474c0.30371,0.3213,0.416,0.7431,0.499,1.0918
		c0.1055,0.4404,0.1573,0.5547,0.26171,0.5801l0.46489,0.6298l-0.04489,0.7276l-0.36621,0.5195
		c-0.25979,0.1133-0.4229,0.5078-0.59379,0.9248c-0.00981,0.0234-0.02051,0.0488-0.03031,0.0733
		c0.0547,0.0175,0.1065,0.039,0.1592,0.0654l0.1065,0.084c0.08-0.0537,0.1582-0.1026,0.2334-0.1494
		c0.40721-0.2559,0.623-0.4053,0.6904-0.7354l0.8672-0.42381c1.35061,0.67091,1.4804,2.2802,1.5947,3.7002
		c0.0508,0.6396,0.1035,1.2978,0.2617,1.8105c0.0166,0.0049,0.0313,0.0078,0.0449,0.0117c0.0752,0.0205,0.1602,0.04301,0.25,0.0762
		l0.3877,0.5029c0.0342,0.3096,0.2705,0.6631,0.51961,1.0371c0.42089,0.6299,0.97749,1.4649,0.59659,2.4327
		c0.15241,0.2529,0.25,0.5459,0.3467,0.832c0.211,0.626,0.3389,0.8935,0.5811,0.9277c0,0,0,0,0.001,0
		c0.0332,0.00301,0.1103,0.002,0.2675-0.03709l0.4229,0.10159l0.0234-0.0401l0.0391,0.0547l0.0586,0.0137l0.0166,0.0147
		l-0.0293,0.0322l0.2109,0.2871c0.0391,0.1787,0.0821,0.3525,0.125,0.5224c0.1582,0.6299,0.3213,1.2784,0.1543,2.0567
		c0.0537,0.0391,0.1123,0.08099,0.1719,0.1308l0.21091,0.5l-0.04391,0.6934c0.0176,0.0371,0.0342,0.0742,0.0508,0.1104
		c0.0742,0.167,0.1513,0.3408,0.2295,0.39449l0.2588,0.58891c-0.085,0.5947,0.13081,0.7802,0.67281,1.18159
		c0.0654,0.04881,0.1309,0.0967,0.1953,0.1465l0.22851,0.37601c0.17479,0.9853,0.70509,1.6943,1.26469,2.4443
		c0.20599,0.2764,0.4189,0.5615,0.6172,0.8652l0.0966,0.3789c-0.1308,1.7198,0.0459,2.9532,0.5733,3.9922
		c0.0508,0.0899,0.1035,0.1807,0.1553,0.2715c0.0312,0.0498,0.0654,0.1016,0.1025,0.1553
		c0.4648,0.70119,1.43159,2.1582,0.2461,3.45599l-0.5117,0.1944c-0.0508-0.0059-0.10061-0.0098-0.14941-0.0127
		c-0.9512-0.0606-1.6768,0.2539-2.4453,0.5869c-0.67091,0.291-1.3643,0.5918-2.1709,0.58791l-0.584-0.4453
		c-0.2266-0.8223-0.8711-1.7315-1.7491-1.7862c-0.0556-0.0039-0.11229-0.0039-0.1689-0.0019l-0.6348-0.49709
		c-0.0107-0.0586-0.0185-0.1162-0.0273-0.1758c-0.0068-0.0517-0.0176-0.1201-0.0274-0.1709l-0.6347-0.5918
		c0.0166-0.1797-0.0244-0.3193-0.127-0.4394c-0.0791-0.0938-0.1963-0.1729-0.3369-0.2354l-0.7598,0.3076
		c-0.5058-0.2929-1.0302-0.4257-1.5849-0.5664c-0.3828-0.0966-0.7735-0.19621-1.1709-0.3496
		c-0.59769,0.8409-1.6338,0.9326-2.4268,1.003l-0.0644,0.0058l-0.4258-0.124c-0.1895-0.1465-0.3838-0.3008-0.5811-0.459
		c-0.9892-0.78809-2.1103-1.68359-3.2587-1.874l-0.4346-0.74319c-0.2149-0.09081-0.4268-0.1904-0.6289-0.2998
		c-0.208,0.3252-0.4756,0.6367-0.8623,0.83791l-0.8067-0.8437c0.1133-0.1983,0.2285-0.3936,0.3428-0.5909
		c0.04881-0.0839,0.0977-0.1679,0.1465-0.2519c-0.1943-0.1846-0.5156-0.3721-0.8086-0.543c-0.7969-0.46381-2-1.165-1.6807-2.58691
		l0.2139-0.0693c-0.0176-0.1524-0.0137-0.3282,0.05371-0.4942c-0.293-0.4336-0.64841-1.0654-0.73141-1.6884
		c-0.0713-0.5391,0.0478-1.086,0.164-1.6133c0.0938-0.4268,0.1895-0.8653,0.1778-1.2764
		c-0.0098-0.0352-0.0196-0.0742-0.02739-0.1172l0.01859-0.0537h-0.0039l-0.0039-0.043c-0.001-0.0117-0.003-0.0244-0.0039-0.0351
		c-0.0206-0.1367-0.0997-0.2696-0.1836-0.4092c-0.1075-0.1816-0.2305-0.3867-0.2471-0.6465
		c-0.0156-0.2724,0.1074-0.5303,0.21581-0.7588c0.02739-0.0576,0.06739-0.1406,0.083-0.1855
		c0.002-0.0498,0.001-0.1045-0.00391-0.1651c-0.0586-0.2021-0.1025-0.4101-0.1279-0.6152l-0.002-0.0146
		c-0.0068-0.0528-0.0117-0.10751-0.0166-0.1612c-0.1142-0.5078-0.2568-1.1914-0.01359-1.96581
		c0.11519-0.3672,0.31539-0.6103,0.47749-0.80569c0.2002-0.2431,0.2607-0.3173,0.2178-0.57121l0.3652-0.40919
		c0.002-0.0108,0.0039-0.0225,0.0049-0.0342l-0.0371-0.0293c0.0185-0.02251,0.0361-0.04591,0.05371-0.06841
		c0.10549-0.5517,0.43649-0.9648,0.73139-1.3339c0.2422-0.3028,0.4727-0.5928,0.5918-0.95219
		c-0.0439-0.0107-0.0879-0.02441-0.1338-0.041l-0.2148-0.27541c-0.127,0.0635-0.2734,0.10741-0.4453,0.0957
		c-0.0479-0.002-0.1006-0.0098-0.15529-0.0234l-0.84081,0.3759l-0.0996-0.081c-0.4004-0.3291-0.5655-0.4639-1.1211-0.582
		c-0.0371,0.0302-0.0733,0.0615-0.1104,0.0908c-0.1884,0.15331-0.3662,0.29781-0.5078,0.457l-0.917-0.0068
		c-0.0537-0.0625-0.3174-0.1377-0.4756-0.1846c-0.0634-0.0186-0.1289-0.03609-0.1914-0.0557l0.22171-1.18839
		c-0.18061-0.0118-0.30961,0.10349-0.33491,0.16499c0.04391-0.1045,0.0371-0.51559-0.1397-0.80569
		c-0.0996-0.1601-0.1807-0.166-0.2075-0.167c-0.0244-0.0019-0.0532,0-0.0845,0.0069l-0.7065-0.4229
		c-0.0137-0.0439-0.0293-0.08791-0.04889-0.13181l-0.01171-0.0068c-0.0307-0.0577-0.0698-0.1192-0.11029-0.1827
		c-0.02491-0.03709-0.05321-0.07999-0.08351-0.12199c-0.2256-0.25-0.56149-0.4522-0.917-0.6651
		c-0.1792-0.10741-0.3648-0.2246-0.5484-0.3506l0.6993-0.1875c0.3901-0.1045,0.5854-0.3515,0.5854-0.7421V91.625
		c0-0.3906-0.1953-0.5332-0.5854-0.4287l-4.7286,1.2666c-0.3706,0.0986-0.5859-0.0586-0.5859-0.4287v-0.625
		c0-0.3906,0.2153-0.6436,0.5859-0.7442l3.0284-0.8105c0.3911-0.1045,0.5864-0.3721,0.5864-0.7432v-2.1875
		c0-0.39159-0.1953-0.5351-0.5864-0.4297l-3.0284,0.8106c-0.3706,0.09959-0.5859-0.0576-0.5859-0.4277v-0.626
		c0-0.3906,0.2153-0.6436,0.5859-0.7422l4.7286-1.26759c0.3901-0.1045,0.5854-0.3721,0.5854-0.7422v-2.1894
		c0-0.3907-0.1953-0.5342-0.5854-0.4278l-8.2056,2.1973c-0.3716,0.0996-0.5859,0.3535-0.5859,0.7432v12.5039
		c0,0.3711,0.2143,0.5283,0.5859,0.4297l6.0757-1.628c0.4477,0.4551,0.9541,0.7696,1.35251,1.0088
		c0.22559,0.1348,0.47759,0.28709,0.60159,0.4004c0.00241,0.002,0.00441,0.0059,0.0063,0.0078
		c0.0152,0.0244,0.0298,0.0469,0.043,0.0684l0.1157,0.3896l1.2105,0.7256l-0.3208,1.7276l1.03371,0.3203
		c0.06439,0.0205,0.12979,0.0381,0.19429,0.0576c0,0,0.0664,0.0195,0.09571,0.0273l0.17769,0.2051l2.0186,0.0166l0.30571-0.3447
		c0.03509,0.02831,0.50579,0.4131,0.50579,0.4131c-0.0615,0.1328-0.1172,0.2744-0.1631,0.4257l-0.6484,0.8008l0.1064,0.086
		l0.0205,0.1201c-0.1914,0.2392-0.44819,0.5957-0.6064,1.1006c-0.3311,1.0556-0.1494,1.9834-0.0303,2.5195
		c0.0039,0.041,0.0088,0.0791,0.0137,0.1172l0.0019,0.0215c0.0196,0.15231,0.04591,0.3056,0.0801,0.458
		c-0.1347,0.29781-0.28119,0.6992-0.2529,1.1875c0.0332,0.5566,0.2734,0.95901,0.417,1.1992c0.001,0.001,0.001,0.0029,0.0019,0.0039
		l0.0196,0.1133c0.0019,0.01849,0.0058,0.03609,0.0088,0.0537c-0.0108,0.251-0.0811,0.56841-0.1495,0.8779
		c-0.1318,0.6016-0.2812,1.2832-0.1806,2.0342c0.0664,0.4981,0.2471,1.0244,0.54,1.5693l-0.0586,0.2569
		c-0.4736,2.1152,1.1446,3.2402,2.0479,3.7803l-0.3692,0.6406l2.06641,2.1601l0.80959-0.4199
		c0.1201-0.0615,0.23541-0.1318,0.3457-0.209l0.2588,0.4414l0.5615,0.0928c0.8379,0.1397,1.8262,0.9287,2.6993,1.626
		c0.20311,0.1621,0.4023,0.3213,0.5986,0.4707l0.1806,0.1396l0.8663,0.25301l0.2929-0.02541
		c0.7012-0.0635,1.7774-0.15919,2.6524-0.82719c0.1865,0.0518,0.3662,0.09769,0.5381,0.14069
		c0.49021,0.124,0.915,0.2314,1.2744,0.4404l0.5136,0.29781l0.41121-0.166l0.40919,0.3809l0.0742,0.4101l1.3574,1.0684
		l0.4609-0.0264c0.0078,0,0.0166,0,0.0235,0c0.164,0.0108,0.50881,0.374,0.6543,0.8975l0.1084,0.3935l1.2324,0.9414l0.4082,0.002
		c1.06151,0.0049,1.9101-0.3633,2.6601-0.6885c0.711-0.3076,1.2247-0.5293,1.8858-0.4883
		c0.0342,0.00201,0.0674,0.00391,0.10161,0.0088l0.28709,0.0293l1.0507-0.4004l0.1954-0.2129c1.8271-2,0.3535-4.2197-0.13091-4.9482
		C69.82779,119.2998,69.77309,119.2188,69.75359,119.1865z"/>
	<path class="st0" d="M12.1715,24.1934c0.17879-0.0293,0.38379-0.1455,0.60109-0.2691c0.3516-0.1997,0.7891-0.4487,1.3198-0.415
		c0.1778,0.0107,0.3545,0.0537,0.5254,0.126l0.0889,0.1093c0.167-0.0551,0.3423-0.0918,0.5254-0.08
		c0.10841,0.0068,0.3018,0.0385,0.4902,0.1689c0.1387-0.0713,0.2774-0.1367,0.4146-0.2007
		c0.3032-0.1416,0.5898-0.2759,0.7964-0.4512l0.0507-0.0498c0.0303-0.0293,0.0606-0.0586,0.0894-0.0888
		c0.11911-0.1436,0.188-0.314,0.2173-0.5347l0.5303-0.5239c0.4082-0.0489,0.5776-0.3853,0.8652-1.1406
		c0.1919-0.504,0.4175-1.0962,0.8774-1.4922c-0.0639-0.1499-0.1088-0.3379-0.0908-0.5728l0.8086-0.5264
		c-0.00189-0.0004-0.0176-0.0044-0.043-0.0063c-0.1992-0.0122-0.3671,0.1362-0.4072,0.2436
		c0.0059-0.0156,0.01031-0.0322,0.0147-0.0493c0.0439-0.1513,0.1601-0.5537,0.6074-0.6606l0.0215-0.0054
		c0.1245-0.0249,0.2378-0.0332,0.3476-0.0264c0.1778,0.0113,0.3199,0.0616,0.4326,0.127c0.0957-0.1157,0.1783-0.2666,0.2349-0.4268
		c-0.2222-0.0556-0.4517-0.2319-0.5312-0.5908l0.1269-0.5229c0.0737-0.0879,0.1465-0.1636,0.2173-0.2364
		c0.0869-0.0908,0.16161-0.1679,0.2158-0.246c0-0.0074-0.0005-0.0142-0.0005-0.021c-0.0019-0.0699-0.0024-0.1358-0.0014-0.2007
		v-0.001c0.0019-0.0889,0.0063-0.1768,0.0136-0.2627c-0.4087-1.6499,1.2945-2.5176,2.2725-2.9224
		c-0.0039-0.0224-0.0078-0.0468-0.0127-0.0742l0.92431-0.6118c-0.05521-0.0352-0.12451-0.0566-0.19431-0.061
		c-0.1328-0.0083-0.2149,0.0459-0.2154,0.0464c0.0162-0.0113,0.0591-0.0489,0.0904-0.0762
		c0.1821-0.1597,0.5112-0.4492,1.00631-0.4497c1.15869-1.2881,2.15729-2.71,2.76169-3.9385
		c0.0259-0.0532,0.0586-0.2031,0.0821-0.3115c0.0664-0.3076,0.2021-0.9356,0.69721-1.1978l0.02489-0.3994l0.5049-0.2344
		c0.001-0.0219,0.0015-0.0468,0.003-0.0752l0.541-0.5903c0.0176-0.0015,0.0356-0.0034,0.05421-0.0039
		c0.24609-0.5103,0.59079-0.8862,0.90379-1.229c0.209-0.229,0.40721-0.4448,0.5639-0.6856l0.5157-0.2768
		c1.0449,0.0098,1.8447-0.2686,2.6909-0.563c0.51171-0.1777,1.0405-0.3618,1.6333-0.4849l0.1963-0.0083
		c2.16011,0.2593,3.8437,1.396,4.2158,2.8096c0.0396,0.0142,0.0845,0.0288,0.1206,0.0405c0.1504,0.0489,0.3213,0.1045,0.4854,0.2095
		l0.0302,1.0029c-0.2187,0.1592-0.4658,0.2315-0.7353,0.2144c-0.0537-0.0034-0.104-0.0103-0.1519-0.0181
		c0.63331,0.8291,1.5718,1.5894,2.7056,2.1739c0.30571,0.0854,0.5723,0.2085,0.7949,0.3671
		c0.9981,0.4097,2.0547,0.6592,3.0596,0.7227c0.69721,0.0435,1.3603-0.0015,1.9697-0.1348l0.374,0.0371
		c0.1563,0.0684,0.4483,0.1568,0.9571,0.1885c0.23341,0.0152,0.4853,0.0156,0.747,0.0025c0.0557-0.0127,0.11141-0.024,0.168-0.0342
		c0.085-0.0147,0.1621-0.0259,0.2402-0.0337l0.0059-0.0005c0.1387-0.0146,0.2744-0.0195,0.40431-0.0142
		c0.26559-0.0405,0.50979-0.0913,0.72849-0.1518c0.3399-0.0938,0.7109-0.3486,1.10451-0.6177
		c0.39649-0.2729,0.84669-0.5825,1.35939-0.7861c0.2744-0.1094,0.5322-0.1446,0.7588-0.1743
		c0.1777-0.024,0.331-0.0445,0.4365-0.0953c0.4824-0.2353,0.9648-0.4912,1.4297-0.7382c1.3301-0.7061,2.5859-1.3726,3.9785-1.6607
		l0.6553,0.3008c-0.03319-0.0586-0.0703-0.0908-0.0733-0.0933l0.0166,0.0137c0.06551,0.0503,0.1221,0.104,0.169,0.1607
		c1.9218,0.1337,3.4082,1.1679,3.8144,2.6513c0.0186,0.0332,0.0352,0.0669,0.0528,0.1006l-0.1612,0.1548l0.1621-0.0313
		c0.0127,0.0684,0.0225,0.1377,0.0323,0.2061c0.0146,0.0244,0.0302,0.0527,0.0449,0.0835
		c0.915,0.7842,1.39841,1.8818,1.86521,2.9453c0.04789,0.1104,0.09669,0.2207,0.14549,0.3301
		c0.0196,0.0239,0.0401,0.0478,0.0606,0.0713c0.998,0.5268,2.2226,1.4829,1.9736,3.6587l-0.46191,0.5219
		c-0.13869,0.0337-0.24709,0.1412-0.42479,0.3282c-0.10451,0.1093-0.22171,0.2334-0.3652,0.3462l-0.2159,0.1093
		c-0.5888,0.1621-1.1513,0.1534-1.624,0.1236c-0.1484-0.0088-0.29389-0.021-0.4394-0.0327
		c-0.1319-0.0118-0.2618-0.0225-0.3897-0.0303c-0.292-0.0181-0.5-0.0161-0.67479,0.0078c-0.28221,0.0381-0.543,0.1152-0.7979,0.2353
		c-0.1152,0.0743-0.2255,0.1543-0.34171,0.2388l-0.0411,0.0303c-0.06829,0.0488-0.1377,0.0986-0.206,0.1455l-0.01369,0.0093
		c-0.0654,0.0444-0.126,0.0844-0.18459,0.1206c-0.21681,0.2041-0.42181,0.4438-0.625,0.7329c0,0-0.28511,0.4526-0.38571,0.6113
		c-0.36429,0.6372-0.6836,1.3652-0.9922,2.0693c-0.4219,0.96-0.8213,1.8702-1.3428,2.6207
		c-0.0214,0.559-0.0976,1.3178-0.6259,1.7246c-0.0127,0.0708-0.02539,0.1411-0.0401,0.2104l0.01471,0.2202
		c-0.03321,0.0913-0.07031,0.1866-0.11531,0.292c-0.0302,0.0718-0.0625,0.1436-0.09569,0.2149
		c-0.19821,0.5893-0.45991,1.0976-0.73731,1.6352c-0.3916,0.7642-0.7978,1.5537-1.0429,2.6548
		c-0.0235,0.1025-0.0645,0.2891-0.1944,0.4453c0.1934,1.7285,0.0401,3.6572-0.1748,5.5156l-3.4707,0.9302
		c-0.3506,0.0938-0.6064,0.416-0.6064,0.7681v12.4643c0,0.3516,0.2558,0.5376,0.6064,0.4434l2.1885-0.5864
		c0.35161-0.0943,0.6055-0.416,0.6055-0.7676v-3.0869c0-0.3516,0.2539-0.6738,0.6054-0.7681l0.7823-0.2095
		c0.0576-0.0156,0.1171,0.0079,0.1562,0.0557l2.0313,3.3828c0.0781,0.1548,0.25391,0.2056,0.4502,0.1533l2.2265-0.5971
		c0.6055-0.1626,0.918-0.793,0.6445-1.2276l-2.07029-3.2939c-0.04-0.0874-0.01951-0.1904,0.05759-0.27
		c1.0362-1.0196,1.48441-2.4102,1.48441-4.2271c0-3.0542-1.29981-4.1806-4.43061-3.4751c0.1777-1.6494,0.2929-3.352,0.1611-4.9477
		c0.0791-0.1905,0.1152-0.3526,0.1338-0.438c0.2109-0.9478,0.5644-1.6343,0.9394-2.3638c0.2754-0.5356,0.5606-1.0893,0.7852-1.7378
		c0.0293-0.0649,0.0576-0.1294,0.084-0.1909c0.0537-0.127,0.1006-0.2437,0.1396-0.3579l0.085-0.2349l-0.0059-0.1011
		c0.46-0.6064,0.584-1.3413,0.624-1.833c0.4903-0.7724,0.8653-1.6284,1.2608-2.5283c0.292-0.666,0.5947-1.3545,0.9209-1.9316
		c0.09471-0.1494,0.29691-0.4683,0.35551-0.5615c0.125-0.1758,0.24609-0.3238,0.37199-0.4502
		c0.0371-0.0245,0.07621-0.0508,0.11721-0.0791l0.01169-0.0083c0.0772-0.0533,0.15431-0.108,0.22951-0.1622l0.04099-0.0302
		c0.0762-0.0552,0.14951-0.1074,0.21781-0.1548c0.12009-0.0493,0.23929-0.0811,0.37109-0.0991
		c0.0908-0.0122,0.2344-0.0118,0.4365,0.0009c0.1162,0.0074,0.2364,0.0171,0.3653,0.0279
		c0.15231,0.0127,0.3076,0.0259,0.46291,0.0356c0.53999,0.0342,1.2578,0.0454,2.0234-0.1655l0.11909-0.0317l0.43271-0.2198
		l0.0966-0.0761c0.209-0.1656,0.3721-0.3355,0.4912-0.4615c0.0079-0.0078,0.0196-0.0205,0.0323-0.0341l0.16991-0.0411
		l0.96779-1.0947l0.04391-0.3804c0.2354-2.0546-0.52831-3.6269-2.2695-4.6787c-0.0029-0.0034-0.00391-0.0063-0.00491-0.0097
		c-0.4258-0.9703-0.90229-2.0513-1.73829-2.9478L67.5202,7.1938l-0.1592-0.8325l-0.1768,0.0337
		c-0.7568-1.4487-2.32999-2.4487-4.26068-2.6699l0.001-0.0005l-1.01861-0.4678l-0.3906,0.0811
		c-1.5635,0.3227-2.8945,1.0293-4.3047,1.7783c-0.4316,0.229-0.8769,0.4653-1.3154,0.6812
		c-0.0391,0.0063-0.09569,0.0136-0.1406,0.0195c-0.2666,0.0356-0.6319,0.085-1.0469,0.25
		c-0.6397,0.2539-1.1699,0.6191-1.5987,0.9131c-0.2509,0.1728-0.5947,0.4092-0.7382,0.4477
		c-0.1455,0.0406-0.3106,0.0767-0.49029,0.1065c-0.14551-0.001-0.29491,0.0068-0.44531,0.0224l-0.0215,0.0025
		c-0.1025,0.0112-0.2041,0.0254-0.3125,0.0449c-0.0361,0.0064-0.0713,0.0132-0.1074,0.0205
		c-0.1836,0.0064-0.3574,0.0044-0.5176-0.0058c-0.3935-0.0245-0.5439-0.0879-0.5459-0.0884l-0.1767-0.0772l-0.7559-0.0752
		l-0.1885,0.041c-0.5,0.1094-1.0488,0.1456-1.63369,0.1094c-0.836-0.0532-1.72071-0.2563-2.56351-0.5898
		c-0.27149-0.1739-0.5752-0.314-0.9072-0.4185c-0.3731-0.1992-0.7256-0.4223-1.0459-0.6621l-0.0665-2.2568l-0.54-0.3467
		c-0.1084-0.0693-0.2158-0.126-0.3174-0.1719c-0.7519-1.6094-2.6396-2.7856-5.0161-3.0713L36.62079,0l-0.3931,0.0166L36.1315,0.0371
		c-0.67041,0.1392-1.26271,0.3447-1.78561,0.5264c-0.8091,0.2812-1.4473,0.5034-2.2813,0.4961l-0.3115-0.003l-1.0645,0.5713
		l-0.1699,0.2617c-0.102,0.1568-0.2593,0.3282-0.4414,0.5274c-0.2905,0.3169-0.6406,0.6992-0.9365,1.209l-0.5166,0.5635
		l-0.8252,0.3833l-0.0376,0.601c-0.4902,0.5464-0.6392,1.231-0.7046,1.5362c-0.00729,0.0346-0.0161,0.0752-0.0244,0.1123
		c-0.5068,1.0053-1.3135,2.1723-2.2515,3.2597c-0.60539,0.1592-1.0097,0.5147-1.1889,0.6719
		c-0.0122,0.0112-0.0274,0.0239-0.0396,0.0342c0.0303-0.0244,0.0566-0.0425,0.0723-0.0532l0.1313,0.1992l-0.9321,0.6177
		c-2.4692,1.2045-2.6963,2.8169-2.5283,3.8413c-0.0454,0.0483-0.0928,0.1015-0.14209,0.1596l-0.18211,0.2178l-0.2408,0.9878
		c-0.3276,0.1665-0.6928,0.4668-0.9316,1.0083l-0.4922,0.3208l-0.0459,0.5977c-0.0083,0.1035-0.0103,0.2065-0.0059,0.3086
		c-0.3486,0.4814-0.5473,1.0034-0.705,1.4174c-0.06449,0.169-0.1187,0.3028-0.1617,0.3999l-0.1264,0.0152l-1.1226,1.1103
		l-0.0473,0.3565c-0.0972,0.0615-0.2637,0.1411-0.4151,0.2129c-0.1382-0.0332-0.2632-0.0489-0.3686-0.0557
		c-0.1216-0.0073-0.2432-0.0054-0.3672,0.0059c-0.2505-0.0899-0.5098-0.1441-0.7725-0.1607
		c-0.8926-0.0561-1.584,0.3369-1.99709,0.5713c-0.07811,0.0444-0.19091,0.1084-0.25,0.1357l-0.33931,0.0562l-0.5449,0.5532
		c-0.11279,0.0259-0.2593,0.0537-0.3277,0.0669c-0.6279,0.1192-1.6689,0.3159-2.41109,1.0796
		c-0.21921-0.0498-0.42481-0.1011-0.53711-0.1484l-0.4824-0.2012l-1.7627,0.7803l-0.1006,0.2827
		c-0.0391,0.0215-0.0737,0.042-0.1055,0.0605l-0.3262,0.044l-0.4487,0.6816l-0.0303,0.0064L3.6735,26.8628l-0.13041,0.2275
		c-0.3452,0.5996-0.4004,1.336-0.1557,2.0713c0.05811,0.1748,0.1533,0.4068,0.3056,0.6553
		c0.0039,0.0308,0.0088,0.0625,0.0152,0.0947l-0.086,0.0366l-0.1748,0.5196c-0.1162,0.3452-0.1577,0.6889-0.125,1.0185
		c-0.5298,0.9351-0.7973,1.8721-0.7998,2.7964l-0.4028,0.5249l-0.0059,0.4033c-0.00139,0.0855-0.0122,0.2115-0.0249,0.3501
		c-0.0566,0.6358-0.2036,2.2828,1.23,3.0025c0.1846,0.3813,0.419,0.7441,0.6968,1.082c0.0093,0.5596,0.2319,1.1382,0.6675,1.7285
		l0.0283,1.0366l0.5337,0.3477c0.1191,0.0835,0.3286,0.5444,0.4541,0.8203c0.32811,0.7227,0.7773,1.7124,1.7842,2.3682
		l0.2612,0.1704l0.1099,0.0083c-0.1446,0.1606-0.3428,0.3379-0.4751,0.4702c-1.6768,1.6768-3.2618,3.3384-4.6426,5.2051
		c-1.5957,2.1567-3.06349,4.6792-2.6734,8.4707c0.336,3.269,1.69,5.8183,3.71491,7.541
		c1.98919,1.6943,5.14209,2.6074,8.86329,1.7725c0.1928,1.2109,0.4233,2.4296,0.6191,3.6875
		c0.1943,1.248,0.4673,2.5742,0.3657,3.9668c-0.11809,1.625-1.1177,2.8017-2.3637,3.34959
		c-1.2549,0.5498-3.7017,0.54881-4.024-1.041c1.4663-0.2715,2.59961-1.2471,2.42-2.9844c-0.1553-1.5069-1.71339-2.7744-3.5455-2.25
		c-1.3696,0.3906-2.3154,1.8447-2.1103,3.9101c0.0049,0.0508,0.0327,0.2129,0.0561,0.3096
		c0.4141,1.7295,2.1548,2.7686,3.8267,3.2373c0.957,0.2676,2.0947,0.375,3.124,0.168c2.895-0.5811,4.189-3.2012,3.77-6.669
		c-0.2495-2.0674-0.6782-4.0576-1.041-6.0215c1.5694-0.6308,2.82861-1.5937,3.6861-3.0117
		c0.8276-1.3672,1.3808-3.3486,0.9848-5.5151c-0.6318-3.4619-3.247-6.2715-7.5688-5.5151c-0.2896-1.4537-0.6084-2.9649-0.9009-4.418
		c-0.042-0.21-0.1577-0.5156-0.14059-0.647c0.03119-0.2427,0.605-0.6699,0.81639-0.9009c1.9199-2.0996,3.438-4.7695,3.855-8.2724
		c0.3833-3.2237,0.063-6.7657-0.9571-9.0894c-0.3354-0.7646-0.7856-1.5918-1.5195-1.9414
		c-1.0225-0.4878-1.9214,0.3828-2.3911,0.9282c-1.249,1.4488-1.9883,3.3516-2.3643,5.5723
		c-0.4863,2.8726,0.1221,5.6792,0.5801,8.2144c-0.4849-0.4517-0.76849-1.0391-1.0122-1.5762
		c-0.2495-0.5488-0.4849-1.0664-0.897-1.3355L5.8825,40.75c-0.03081,0.0508-0.04491,0.1377-0.02781,0.1865
		c-0.0176-0.0508-0.1138-0.1787-0.1778-0.2636c-0.17139-0.2295-0.6098-0.8155-0.3755-1.4253
		c-0.5-0.4839-0.9057-1.0987-1.1118-1.7862L3.9665,37.5225c-0.80231-0.3262-0.72021-1.2452-0.66561-1.8531
		c0.0137-0.1591,0.0274-0.3095,0.0289-0.4409l0.4291-0.5591c-0.1015-0.9575,0.189-1.957,0.8658-2.9809
		c-0.09519-0.1948-0.1475-0.4683-0.0249-0.8325l0.332-0.1397c0.0259-0.1055,0.0718-0.229,0.1572-0.354
		c0.0054-0.0796,0.02051-0.1499,0.04151-0.21c-0.13031-0.1567-0.23731-0.3544-0.24121-0.6079
		c-0.001-0.04,0.0015-0.083,0.0078-0.1303c-0.1684-0.2007-0.2881-0.4331-0.3559-0.6363c-0.1338-0.4023-0.1143-0.7861,0.0556-1.081
		l0.4063-0.2925c0.08841-0.0176,0.1709-0.0264,0.251-0.0259l0.4419-0.6709c0.0322-0.0044,0.0937-0.0429,0.1587-0.083
		c0.13081-0.0815,0.3164-0.1968,0.5634-0.2251c0.0093-0.0972,0.0298-0.2012,0.06841-0.31l0.80659-0.3565
		c0.2647,0.1104,0.6416,0.1914,1.0401,0.2774c0.1631,0.0351,0.3315,0.0717,0.5019,0.1123c0.3853-0.9244,1.3726-1.1109,2.1011-1.2491
		c0.2495-0.0468,0.667-0.1264,0.7549-0.2109c-0.0088,0.0083-0.0191,0.0288-0.0215,0.04L12.1715,24.1934z M60.31309,40.2461
		c0,1.2109-0.4687,1.4536-1.4072,1.7051l-0.9961,0.2671c-0.3515,0.0937-0.6054-0.0918-0.6054-0.4434v-1.4458
		c0-0.352,0.2539-0.6738,0.6054-0.7676l0.9961-0.2676C59.84439,39.043,60.31309,39.0342,60.31309,40.2461z M11.57239,58.4985
		c2.7964,0.0196,4.6455,2.5328,4.4463,5.5152c-0.1304,1.9375-1.17719,3.1435-2.5049,3.9677
		c-0.684-3.1054-1.2866-6.2929-1.9702-9.3984C11.54219,58.543,11.53969,58.5029,11.57239,58.4985z M9.88439,55.4595
		c-1.1626,0.5342-2.1123,1.1758-2.8706,2.1098c-0.6972,0.8604-1.3618,1.9961-1.4355,3.5176
		c-0.1279,2.6821,1.7651,4.3008,3.5464,5.2344c0.2793,0.1465,0.6562,0.3955,0.7597,0.084c0.0484-0.1465-0.1005-0.2403-0.2812-0.4219
		c-0.8784-0.8779-1.9385-2.0474-1.8291-3.855c0.1138-1.8764,1.2182-2.8745,2.729-3.4614c0.66841,3.2246,1.2891,6.4961,1.9136,9.7656
		c-2.5523,0.8692-5.377,0.0733-7.0069-1.0146c-1.77-1.1797-2.8877-3.0821-3.0952-5.6553c-0.47609-5.9136,3.8018-8.0381,6.585-10.834
		c0.0063-0.0308,0.0556-0.019,0.0556-0.0561C9.29169,52.375,9.55679,53.9473,9.88439,55.4595z M10.7565,35.0303
		c0.416-0.3731,1.29829-0.8863,1.91359-0.3657c0.522,0.4409,0.644,1.2944,0.647,2.1665c0.0063,1.9277-0.7251,3.3911-1.604,4.7275
		c-0.7837,1.1914-1.6744,2.2759-2.544,3.1348c-0.0024-0.0025-0.0059-0.0039-0.0083-0.0064
		c-0.0874,0.0796-0.1992,0.1421-0.3096,0.2046C8.09539,41.4385,8.76729,36.8149,10.7565,35.0303z"/>
	<path class="st0" d="M24.50409,59.1792c4.6298-1.2407,4.9033-4.7715,4.9033-6.061v-8.6944c0-0.3906-0.1948-0.5337-0.586-0.4287
		l-2.18789,0.586c-0.37111,0.0996-0.586,0.3525-0.586,0.7436v7.6582c0,1.5044-0.09811,2.4487-1.54341,2.8364
		c-1.4458,0.3872-1.5435-0.5053-1.5435-2.0092v-7.6582c0-0.3912-0.1958-0.5337-0.5864-0.4292l-2.188,0.5864
		c-0.3716,0.0991-0.5864,0.352-0.5864,0.7427v8.6943C19.59979,57.0356,19.87319,60.4199,24.50409,59.1792z"/>
	<path class="st0" d="M35.95229,45.0933c1.1128-0.2984,1.4448,0.1596,1.5234,1.0766c0.0391,0.3994,0.254,0.5176,0.6446,0.335
		l2.208-1.0801c0.3515-0.1728,0.5278-0.4341,0.5083-0.7803c-0.0977-1.4985-0.7818-4.0112-4.8843-2.9116
		c-4.6304,1.2407-4.90379,4.772-4.90379,6.0615v4.8838c0,1.2896,0.27339,4.6748,4.90379,3.4341
		c4.6299-1.2407,4.9038-4.772,4.9038-6.062v-2.6372c0-0.3911-0.1958-0.5342-0.5864-0.4292l-3.90719,1.0474
		c-0.37161,0.0986-0.58651,0.3525-0.58651,0.7426v1.563c0,0.3716,0.2149,0.5288,0.58651,0.4292l1.13279-0.3037
		c0,0.9575-0.0982,1.9019-1.543,2.2896c-1.44579,0.3872-1.5439-0.5049-1.5439-2.0093v-2.8135
		C34.40839,46.4253,34.5065,45.4805,35.95229,45.0933z"/>
	<path class="st0" d="M49.27509,52.1899l2.18841-0.5859c0.39159-0.105,0.586-0.3916,0.586-0.8218V42.499
		c0-2.4619-0.39061-4.9746-4.78621-3.7973c-4.3964,1.1782-4.7861,3.9004-4.7861,6.3628v8.2832c0,0.4301,0.2139,0.6064,0.585,0.5073
		l2.1894-0.5864c0.3907-0.1045,0.585-0.3521,0.585-0.7432v-1.6997c0-0.3906,0.2158-0.6436,0.58591-0.7432l1.68069-0.4502
		c0.3906-0.105,0.5869,0.0381,0.5869,0.4292v1.6997C48.69009,52.1519,48.90399,52.2896,49.27509,52.1899z M48.10319,46.272
		l-1.68069,0.4497c-0.37011,0.1001-0.58591-0.0571-0.58591-0.4287v-2.1294c0-0.9375,0.1367-1.4434,1.4267-1.7886
		c1.2901-0.3457,1.4268,0.0864,1.4268,1.0244v2.1104C48.69009,45.8999,48.49379,46.1475,48.10319,46.272z"/>
	<path class="st0" d="M22.27899,65.6846l-2.1494,0.5752c-0.3707,0.09959-0.5855,0.35149-0.5855,0.7422v12.5048
		c0,0.3711,0.2148,0.5284,0.5855,0.4287l2.1494-0.5761c0.3911-0.1035,0.5864-0.3711,0.5864-0.7412V66.1123
		C22.86539,65.7227,22.67009,65.5791,22.27899,65.6846z"/>
	<path class="st0" d="M34.58659,72.3105c0-4.4931-6.1734-2.8007-6.4468-4.2509c-0.0781-0.4287,0.3906-1.0039,1.1524-1.208
		c0.9184-0.2461,1.5629,0.0908,1.6997,0.8535c0.059,0.376,0.2544,0.499,0.645,0.3174l2.227-1.086
		c0.3521-0.1719,0.5274-0.4345,0.5078-0.7802c-0.1171-1.37601-1.0546-3.7432-5.0795-2.6646
		c-4.376,1.1724-4.7276,4.7251-4.7081,5.3062c0,4.4931,5.88041,2.54681,6.2515,4.10841c0.1172,0.49599-0.5859,1.2509-1.5434,1.5078
		c-0.9185,0.2461-1.6412-0.1075-1.7188-1.0245c-0.0391-0.4003-0.2544-0.5185-0.6455-0.3359l-2.207,1.0811
		c-0.3516,0.1718-0.5279,0.43359-0.5083,0.7802c0.0981,1.4981,0.977,3.958,5.0796,2.8584
		C33.9225,76.5332,34.58659,72.8975,34.58659,72.3105z"/>
	<path class="st0" d="M36.57929,75.5283l7.7163-2.0683c0.3916-0.1045,0.58691-0.3516,0.58691-0.7432v-2.1875
		c0-0.39059-0.19531-0.53419-0.58691-0.4287l-4.3565,1.166c-0.37059,0.1006-0.5859-0.0566-0.5859-0.4277v-9.1441
		c0-0.3906-0.1958-0.5342-0.5864-0.4297l-2.1875,0.587c-0.3716,0.0991-0.587,0.352-0.587,0.7426v12.5049
		C35.99229,75.4707,36.2077,75.6279,36.57929,75.5283z"/>
	<path class="st0" d="M52.79459,71.1836l2.1875-0.5869c0.3906-0.1045,0.5869-0.3916,0.5869-0.8213v-8.2837
		c0-2.4619-0.3916-4.9751-4.7871-3.7969c-4.3955,1.1773-4.7871,3.9004-4.7871,6.3618v8.28419c0,0.4297,0.2158,0.60651,0.5859,0.5078
		l2.1885-0.5869c0.3906-0.1054,0.5859-0.3525,0.5859-0.7431v-1.7002c0-0.3907,0.2149-0.6436,0.587-0.7422l1.6787-0.4512
		c0.3916-0.1035,0.5869,0.0381,0.5869,0.4297v1.6992C52.20769,71.1445,52.4235,71.2832,52.79459,71.1836z M51.62079,65.2646
		l-1.6787,0.4502c-0.3721,0.1006-0.587-0.05659-0.587-0.4287v-2.1298c0-0.938,0.1377-1.4434,1.4268-1.7891
		c1.2891-0.3452,1.4258,0.0874,1.4258,1.0249v2.1108C52.20769,64.8936,52.01239,65.1406,51.62079,65.2646z"/>
	<path class="st0" d="M67.23109,53.6387l-2.1875,0.5864c-0.37109,0.0996-0.5869,0.352-0.5869,0.7427v6.3105
		c0,0.1953-0.1562,0.2764-0.23441,0.1216l-2.6572-5.7939c-0.1367-0.2759-0.35059-0.355-0.68359-0.2662l-2.87211,0.7696
		c-0.3701,0.0996-0.58589,0.3525-0.58589,0.7431v12.5039c0,0.3711,0.21579,0.5284,0.58589,0.4297l2.1885-0.5859
		c0.39061-0.1064,0.586-0.3731,0.586-0.7441v-6.3106c0-0.1953,0.1572-0.2764,0.2343-0.1216l2.65731,5.7945
		c0.13669,0.27541,0.35149,0.3554,0.68449,0.2666l2.8711-0.7705c0.39059-0.1045,0.5869-0.3711,0.5869-0.7432V54.0679
		C67.81799,53.6768,67.62169,53.5337,67.23109,53.6387z"/>
	<path class="st0" d="M74.71259,51.6343l-4.3565,1.167c-0.39059,0.124-0.5859,0.372-0.5859,0.7627v12.4848
		c0,0.3711,0.2148,0.52831,0.5859,0.4287l4.3565-1.167c3.6738-0.9843,4.8847-2.8139,4.8847-6.018v-4.2788
		C79.59729,51.8101,78.38639,50.6499,74.71259,51.6343z M76.17839,60.228c0,1.1724-0.4688,1.4541-1.4063,1.7056l-1.0556,0.2827
		c-0.37111,0.0996-0.586-0.0576-0.586-0.4292v-5.7827c0-0.3906,0.21489-0.6436,0.586-0.7432l1.0556-0.2827
		c0.9375-0.251,1.4063-0.2597,1.4063,0.9512C76.17839,55.9497,76.17839,60.2085,76.17839,60.228z"/>
	<path class="st0" d="M28.42109,83.707l-8.4009,2.251c-0.3706,0.0996-0.586,0.3525-0.586,0.7432v12.5039
		c0,0.372,0.2154,0.5293,0.586,0.4297l2.3056-0.6172c0.39071-0.1055,0.586-0.3731,0.586-0.7442v-3.9853
		c0-0.3906,0.2148-0.6436,0.5864-0.7432l3.2236-0.8633c0.39071-0.1045,0.5855-0.373,0.5855-0.7441V89.75
		c0-0.3906-0.19479-0.5342-0.5855-0.4297l-3.2236,0.8643c-0.3716,0.0986-0.5864-0.0586-0.5864-0.4287v-0.626
		c0-0.39059,0.2148-0.6436,0.5864-0.7422l4.9229-1.31931c0.3911-0.1055,0.58641-0.3731,0.58641-0.74319v-2.1885
		C29.0075,83.7461,28.81219,83.6035,28.42109,83.707z"/>
	<path class="st0" d="M45.14419,93.1953c4.6299-1.2402,5.2939-4.876,5.2939-5.4619c0-4.49409-6.1738-2.8008-6.4472-4.252
		c-0.0781-0.4287,0.39061-1.0029,1.1533-1.206c0.918-0.2461,1.5635,0.08891,1.7002,0.8525c0.0576,0.375,0.2539,0.4981,0.6436,0.3164
		l2.22751-1.0859c0.35159-0.1719,0.52729-0.4346,0.50779-0.7803c-0.1172-1.376-1.0547-3.7422-5.0791-2.664
		c-4.3769,1.1738-4.728,4.7246-4.709,5.3056c0,4.49319,5.8809,2.5469,6.252,4.1074c0.1172,0.4971-0.586,1.251-1.543,1.5088
		c-0.918,0.2461-1.6416-0.1074-1.71969-1.0244c-0.03811-0.4004-0.25391-0.5185-0.64461-0.3349l-2.208,1.0791
		c-0.3515,0.1728-0.5273,0.43449-0.5073,0.7812C40.16179,91.835,41.04169,94.2949,45.14419,93.1953z"/>
</g>
</svg>
