<?xml version="1.0" encoding="utf-8"?>
<!-- Generator: Adobe Illustrator 19.1.0, SVG Export Plug-In . SVG Version: 6.00 Build 0)  -->
<svg version="1.1" id="Layer_1" xmlns="http://www.w3.org/2000/svg" xmlns:xlink="http://www.w3.org/1999/xlink" x="0px" y="0px"
	 viewBox="0 0 200 162.5361" style="enable-background:new 0 0 200 162.5361;" xml:space="preserve">
<style type="text/css">
	.st0{fill:#2CAAE1;}
</style>
<path class="st0" d="M200,19.2402c-7.3584,3.2637-15.2666,5.4693-23.5664,6.461C184.9043,20.623,191.4111,12.582,194.4746,3
	c-7.9287,4.7026-16.71,8.1172-26.0566,9.957C160.9336,4.9824,150.2695,0,138.4678,0c-22.6602,0-41.0327,18.3711-41.0327,41.0312
	c0,3.2159,0.3628,6.3477,1.0625,9.3511C64.396,48.6709,34.1611,32.3354,13.9238,7.5103c-3.5322,6.06-5.5556,13.1084-5.5556,20.6284
	c0,14.2358,7.2436,26.7949,18.2539,34.1533c-6.7261-0.2134-13.0533-2.0591-18.585-5.1323
	c-0.0039,0.1714-0.0039,0.3427-0.0039,0.5161c0,19.8804,14.144,36.4638,32.9146,40.2344
	c-3.4429,0.9375-7.0679,1.4394-10.8101,1.4394c-2.644,0-5.2144-0.2578-7.7202-0.7363c5.2217,16.3008,20.375,28.165,38.3305,28.4951
	c-14.0429,11.0059-31.7353,17.5654-50.9599,17.5654c-3.312,0-6.5781-0.1943-9.7881-0.5742
	c18.1587,11.6426,39.7271,18.4365,62.8989,18.4365c75.4732,0,116.7456-62.5244,116.7456-116.747c0-1.7788-0.04-3.5484-0.1191-5.3086
	C187.543,34.6953,194.499,27.4687,200,19.2402z"/>
</svg>
