<?xml version="1.0" encoding="utf-8"?>
<!-- Generator: Adobe Illustrator 18.1.1, SVG Export Plug-In . SVG Version: 6.00 Build 0)  -->
<!DOCTYPE svg PUBLIC "-//W3C//DTD SVG 1.1//EN" "http://www.w3.org/Graphics/SVG/1.1/DTD/svg11.dtd">
<svg version="1.1" id="Layer_1" xmlns="http://www.w3.org/2000/svg" xmlns:xlink="http://www.w3.org/1999/xlink" x="0px" y="0px"
	 viewBox="0 0 156.08147 46.56049" style="enable-background:new 0 0 156.08147 46.56049;" xml:space="preserve">
<style type="text/css">
	.st0{fill:#000000;}
</style>
<g>
	<g>
		<path class="st0" d="M54.41685,19.68657c-0.1317-0.37317-0.30726-0.48288-0.68037-0.48288h-0.3951v-2.43634h1.82181
			c1.09734,0,1.49245,0.28533,1.84369,1.27302l2.98501,8.69174c0.30726,0.87792,0.59259,2.28265,0.59259,2.28265h0.04398
			c0,0,0.28533-1.40472,0.59259-2.28265l2.98501-8.69174c0.35124-0.98769,0.72429-1.27302,1.82175-1.27302h1.84368v2.43634h-0.41703
			c-0.37305,0-0.54873,0.10971-0.68043,0.48288L62.1209,32.35101h-3.02887L54.41685,19.68657z"/>
		<path class="st0" d="M71.21371,20.89374c3.20455,0,4.96051,2.3485,4.96051,5.31157c0,0.32925-0.0659,1.03161-0.0659,1.03161
			h-7.72598c0.21954,1.97538,1.66812,3.007,3.35818,3.007c1.79983,0,3.13876-1.25109,3.13876-1.25109l1.16325,1.93152
			c0,0-1.71198,1.69006-4.4995,1.69006c-3.70942,0-6.014-2.67775-6.014-5.86036
			C65.52902,23.30809,67.85565,20.89374,71.21371,20.89374z M73.32079,25.30546c-0.04386-1.33887-0.96564-2.26072-2.10709-2.26072
			c-1.42665,0-2.43627,0.85599-2.74354,2.26072H73.32079z"/>
		<path class="st0" d="M77.87264,24.01045c0-0.32919-0.17568-0.48288-0.48294-0.48288h-0.87792v-2.37043h2.65582
			c1.03155,0,1.47051,0.46089,1.47051,1.47057v5.15794c0,1.3608,0.35124,2.28271,1.73403,2.28271
			c2.01925,0,3.13864-1.77789,3.13864-3.77521v-5.13601h2.78751v8.36249c0,0.30726,0.17556,0.48288,0.48283,0.48288h0.87804v2.3485
			h-2.56809c-0.96577,0-1.47051-0.46095-1.47051-1.25109v-0.30726c0-0.2634,0.02193-0.50481,0.02193-0.50481h-0.04386
			c-0.5268,1.16325-1.93153,2.32657-3.86304,2.32657c-2.39242,0-3.86293-1.20717-3.86293-4.25809V24.01045z"/>
		<path class="st0" d="M90.55331,24.01045c0-0.32919-0.17556-0.48288-0.48282-0.48288h-0.87804v-2.37043h2.5681
			c0.98769,0,1.47051,0.46089,1.47051,1.25103v0.32925c0,0.24147-0.02193,0.48288-0.02193,0.48288h0.04386
			c0.5268-1.09746,1.86562-2.32657,3.62158-2.32657c1.69006,0,2.78751,0.79014,3.27034,2.30464h0.04398
			c0.59259-1.20723,2.04118-2.30464,3.81907-2.30464c2.32651,0,3.66544,1.31694,3.66544,4.25809v4.3678
			c0,0.30726,0.17556,0.48288,0.48282,0.48288h0.856v2.3485h-2.63377c-1.0536,0-1.49256-0.43896-1.49256-1.4925v-5.17993
			c0-1.27302-0.24147-2.23878-1.53642-2.23878c-1.38279,0-2.37048,1.16331-2.67775,2.56804
			c-0.1317,0.43896-0.17556,0.89985-0.17556,1.42665v4.91653h-2.78751v-6.67244c0-1.20717-0.17556-2.23878-1.5145-2.23878
			c-1.40472,0-2.34856,1.16331-2.69968,2.58997c-0.10977,0.43896-0.17556,0.89991-0.17556,1.40472v4.91653h-2.76559V24.01045z"/>
		<path class="st0" d="M113.79008,19.68657c0-0.30732-0.17556-0.48288-0.48282-0.48288h-0.94383v-2.43634h2.80944
			c1.0536,0,1.49257,0.46095,1.49257,1.4925v11.17194c0,0.30732,0.17556,0.48288,0.48282,0.48288h3.40216
			c0.30726,0,0.48282-0.17556,0.48282-0.48288v-0.94377h2.61196v2.37049c0,1.05354-0.43909,1.4925-1.49257,1.4925h-6.86999
			c-1.05348,0-1.49256-0.43896-1.49256-1.4925V19.68657z"/>
		<path class="st0" d="M131.17929,25.32739h0.35112v-0.08778c0-1.60227-0.63657-2.19486-2.06322-2.19486
			c-0.50475,0-1.49245,0.13164-1.49245,0.74622v0.59265h-2.59003v-1.18524c0-2.08516,2.94115-2.30464,4.1044-2.30464
			c3.73135,0,4.82881,1.95345,4.82881,4.45558v4.17031c0,0.30726,0.17557,0.48288,0.48282,0.48288h0.87805v2.3485h-2.5022
			c-1.03166,0-1.42665-0.57066-1.42665-1.22916c0-0.28533,0.02193-0.48282,0.02193-0.48282h-0.04398
			c0,0-0.85599,1.97539-3.38011,1.97539c-1.99731,0-3.81906-1.25109-3.81906-3.48988
			C124.52873,25.61272,129.35754,25.32739,131.17929,25.32739z M129.02823,30.44147c1.49257,0,2.54605-1.58035,2.54605-2.94115
			v-0.2634h-0.48282c-1.44859,0-3.75328,0.19755-3.75328,1.7559C127.33818,29.73911,127.88691,30.44147,129.02823,30.44147z"/>
		<path class="st0" d="M135.87651,23.92267c-0.10977-0.32925-0.28534-0.3951-0.61453-0.3951h-0.30725v-2.37043h1.90947
			c0.92191,0,1.36087,0.28533,1.58028,1.14132l1.64619,6.21148c0.15364,0.59265,0.21954,1.18524,0.21954,1.18524h0.04387
			c0,0,0.08783-0.59259,0.2634-1.18524l2.06322-7.30895h2.45821l2.08516,7.30895c0.17557,0.59265,0.24147,1.18524,0.24147,1.18524
			h0.04387c0,0,0.06578-0.59259,0.21942-1.18524l1.62425-6.21148c0.21954-0.85599,0.65851-1.14132,1.58029-1.14132h1.90959v2.37043
			h-0.30727c-0.3293,0-0.48294,0.06585-0.61464,0.3951l-2.67775,8.42834h-3.13863l-1.90961-6.38711
			c-0.17555-0.59259-0.2634-1.20717-0.2634-1.20717h-0.04385c0,0-0.10977,0.61458-0.28534,1.20717l-1.88754,6.38711h-3.16069
			L135.87651,23.92267z"/>
		<path class="st0" d="M46.56054,23.28027C46.56054,10.42292,36.13762,0,23.28027,0C10.42297,0,0,10.42292,0,23.28027
			c0,10.11302,6.45802,18.69927,15.46757,21.91232v0.02015c0.21926,0.07813,0.44531,0.14124,0.66749,0.21303
			c0.20133,0.06491,0.40059,0.13335,0.60434,0.19289c0.57685,0.16922,1.16034,0.32287,1.75512,0.44717v-3.14312V18.4069
			c0-0.88103,0.71422-1.59525,1.59525-1.59525s1.59525,0.71422,1.59525,1.59525v28.09309
			c0.52771,0.03577,1.05844,0.06049,1.59525,0.06049c0.53681,0,1.06754-0.02472,1.5953-0.06049V18.4069
			c0-0.88103,0.71422-1.59525,1.59525-1.59525s1.59525,0.71422,1.59525,1.59525v24.51582v3.14312
			c0.59504-0.12436,1.17873-0.2781,1.75578-0.44742c0.20314-0.05939,0.40185-0.12762,0.60268-0.19234
			c0.22248-0.0719,0.44888-0.13511,0.66845-0.21333v-0.02015C40.10252,41.97949,46.56054,33.39328,46.56054,23.28027z
			 M31.09296,41.91965V16.8116h1.87395c0.71371,0,1.29227,0.57861,1.29227,1.29233s-0.57856,1.29233-1.29227,1.29233v3.19055
			c2.47577,0,4.48282-2.00705,4.48282-4.48287s-2.00705-4.48282-4.48282-4.48282H13.59362
			c-2.47577,0-4.48282,2.00705-4.48282,4.48282c0,2.47582,2.00705,4.48287,4.48282,4.48287v-3.19055
			c-0.71372,0-1.29228-0.57861-1.29228-1.29233s0.57856-1.29233,1.29228-1.29233h1.87395v25.108
			c-2.39091-1.00127-4.59145-2.45879-6.47967-4.34702c-3.81759-3.81764-5.92005-8.89339-5.92005-14.29231
			c0-5.39897,2.10246-10.47477,5.92005-14.29237c3.81764-3.81764,8.89344-5.9201,14.29237-5.9201s10.47473,2.10246,14.29236,5.9201
			c3.81759,3.81759,5.9201,8.89339,5.9201,14.29237c0,5.39892-2.10251,10.47467-5.9201,14.29231
			C35.68441,39.4608,33.48392,40.91838,31.09296,41.91965z"/>
	</g>
	<g>
		<g>
			<path class="st0" d="M154.47836,21.77625h0.55927c0.29425,0,0.34821,0.21728,0.34821,0.31275
				c0,0.12169-0.0616,0.22644-0.17101,0.26345c0.0909,0.04014,0.1402,0.07402,0.1402,0.28039c0,0.16183,0,0.20185,0.0493,0.22042
				v0.02923h-0.2558c-0.01537-0.05244-0.02464-0.1094-0.02464-0.22343c0-0.15092-0.00923-0.20951-0.18022-0.20951h-0.23886v0.43294
				h-0.22644V21.77625z M154.97597,22.26313c0.12019,0,0.17877-0.04165,0.17877-0.15104c0-0.05846-0.02621-0.14477-0.16177-0.14477
				h-0.28816v0.29582H154.97597z"/>
		</g>
		<g>
			<path class="st0" d="M154.90923,23.5016c-0.64639,0-1.17223-0.5259-1.17223-1.17223c0-0.64633,0.52583-1.17223,1.17223-1.17223
				c0.64641,0,1.17224,0.5259,1.17224,1.17223C156.08147,22.9757,155.55563,23.5016,154.90923,23.5016z M154.90923,21.41407
				c-0.50468,0-0.9153,0.41061-0.9153,0.9153c0,0.5047,0.41061,0.9153,0.9153,0.9153c0.5047,0,0.91531-0.41061,0.91531-0.9153
				C155.82454,21.82467,155.41393,21.41407,154.90923,21.41407z"/>
		</g>
	</g>
</g>
</svg>
